<?xml version="1.0" standalone="no"?>
<!DOCTYPE svg PUBLIC "-//W3C//DTD SVG 20010904//EN"
 "http://www.w3.org/TR/2001/REC-SVG-20010904/DTD/svg10.dtd">
<svg version="1.0" xmlns="http://www.w3.org/2000/svg"
 width="700.000000pt" height="700.000000pt" viewBox="0 0 700.000000 700.000000"
 preserveAspectRatio="xMidYMid meet">
<metadata>
Created by potrace 1.11, written by Peter Selinger 2001-2013
</metadata>
<g transform="translate(0.000000,700.000000) scale(0.100000,-0.100000)"
fill="#000000" stroke="none">
<path d="M2975 5541 c3 -5 -5 -11 -17 -13 -22 -3 -23 -7 -26 -126 -2 -68 1
-121 6 -119 4 3 14 1 22 -4 12 -8 11 -9 -5 -7 -18 3 -20 -3 -23 -75 -2 -43 1
-76 6 -74 4 3 14 1 22 -4 12 -8 11 -9 -5 -7 -19 3 -20 -3 -22 -197 -2 -110 -2
-249 -2 -310 1 -60 0 -204 0 -320 -1 -115 -1 -236 -1 -267 l1 -58 -58 0 c-32
0 -502 0 -1045 -1 l-988 0 0 -29 c0 -16 -5 -32 -12 -36 -7 -4 -8 -3 -4 4 5 8
-1 12 -15 12 -19 0 -20 -2 -8 -17 12 -15 12 -16 -1 -8 -13 8 -13 7 -1 -8 7
-10 9 -17 3 -17 -13 0 -4 -60 11 -79 9 -12 9 -13 -1 -7 -9 6 -11 -8 -6 -61 11
-108 12 -118 14 -120 1 -2 3 -6 4 -10 1 -5 5 -14 10 -22 6 -9 5 -12 0 -8 -6 3
-8 -9 -6 -30 3 -26 8 -34 21 -30 11 3 17 -2 17 -14 0 -14 -3 -15 -13 -7 -10 8
-12 6 -9 -13 3 -13 5 -30 5 -37 1 -8 6 -10 13 -6 9 5 9 2 -1 -9 -9 -11 -10
-17 -2 -18 26 -3 30 -4 37 -11 3 -4 -3 -6 -15 -3 -25 5 -28 -12 -3 -32 9 -8
11 -12 4 -8 -15 8 -15 2 -1 -46 7 -23 16 -36 23 -32 6 4 5 -1 -3 -10 -7 -9 -9
-17 -4 -17 5 0 10 -10 10 -22 1 -13 7 -24 13 -26 5 -2 8 -8 5 -13 -3 -5 0 -19
7 -31 12 -23 14 -28 16 -59 1 -8 9 -24 18 -35 8 -10 12 -13 8 -5 -5 10 -3 12
5 7 7 -5 9 -12 3 -19 -6 -8 -2 -28 10 -55 18 -41 21 -43 37 -28 15 14 18 14
18 1 0 -8 -4 -12 -8 -10 -3 3 -12 -1 -18 -9 -9 -11 -6 -18 16 -35 16 -12 20
-18 9 -15 -17 6 -17 5 -6 -17 7 -13 16 -26 19 -29 3 -3 21 -35 40 -72 19 -40
38 -65 44 -61 6 4 8 0 4 -10 -8 -20 3 -22 23 -4 8 6 7 3 -2 -8 -15 -19 -15
-22 6 -52 13 -18 26 -30 29 -26 4 3 7 -3 7 -15 0 -26 17 -37 34 -23 10 9 15 8
19 -3 4 -10 1 -13 -7 -10 -25 10 -26 -13 -1 -40 13 -14 22 -26 20 -26 -5 0 1
-8 52 -68 13 -15 23 -31 23 -36 0 -4 9 -6 21 -3 15 4 18 2 10 -7 -7 -9 -5 -16
9 -26 10 -7 16 -18 13 -24 -4 -5 0 -7 10 -3 12 4 14 2 10 -10 -5 -13 -2 -15
11 -10 10 4 15 3 11 -4 -8 -13 14 -41 26 -33 5 3 8 0 7 -8 -2 -7 3 -12 10 -10
8 1 11 -2 7 -8 -4 -7 2 -14 14 -17 11 -3 19 -8 16 -12 -7 -13 73 -83 86 -75 8
4 9 3 5 -4 -4 -7 -2 -12 4 -12 6 0 8 -4 5 -10 -6 -9 8 -14 27 -11 5 0 7 -2 5
-7 -2 -8 21 -34 62 -67 14 -11 22 -15 18 -10 -3 6 -1 17 5 25 8 13 9 12 5 -1
-6 -18 18 -59 34 -59 6 0 7 5 3 12 -4 7 -3 8 5 4 6 -4 9 -11 6 -16 -9 -14 41
-40 53 -28 8 8 10 5 6 -8 -5 -19 54 -61 173 -124 27 -14 50 -27 53 -30 14 -14
92 -51 97 -46 3 3 11 -1 17 -8 6 -8 20 -16 31 -18 11 -2 26 -9 33 -16 8 -7 17
-10 22 -7 5 3 10 1 12 -5 1 -5 15 -11 30 -12 15 -1 24 -6 22 -10 -5 -7 18 -12
39 -9 4 0 7 -4 7 -10 0 -5 4 -7 10 -4 6 3 10 1 10 -6 0 -7 3 -10 6 -6 3 3 29
-2 58 -13 81 -29 175 -57 251 -75 73 -17 87 -20 145 -29 60 -10 93 -17 102
-22 4 -3 8 1 8 8 0 10 2 10 9 -1 5 -7 14 -10 20 -7 6 4 11 2 11 -5 0 -9 3 -9
14 0 11 9 15 9 18 -1 4 -10 9 -10 23 2 15 12 17 12 10 1 -6 -11 -3 -13 13 -9
12 3 23 1 26 -6 2 -6 5 -2 6 9 1 18 1 19 11 3 5 -10 15 -18 20 -18 6 0 7 5 3
12 -5 7 -3 8 6 3 21 -13 110 -13 110 -1 0 6 4 5 9 -3 11 -18 41 -24 41 -8 0 5
3 7 7 4 3 -4 12 -2 20 5 11 9 12 7 7 -7 -5 -13 -4 -16 4 -11 7 4 60 9 120 12
130 5 147 8 147 22 0 6 4 14 9 19 6 5 6 2 1 -6 -6 -11 -4 -13 8 -8 10 4 14 2
11 -7 -4 -10 5 -10 40 -2 24 6 42 14 40 18 -3 4 5 4 18 -1 15 -5 31 -5 41 0 9
6 17 6 17 2 0 -10 20 19 20 30 0 5 -5 5 -12 1 -7 -4 -8 -3 -4 5 10 15 29 3 22
-15 -4 -10 1 -13 17 -10 45 8 52 11 65 26 8 8 11 9 7 3 -4 -8 0 -13 10 -13 11
0 14 7 11 25 -3 15 -1 23 5 20 5 -4 7 -10 4 -15 -10 -16 13 -20 28 -5 9 8 17
10 19 5 2 -6 18 -4 41 4 20 7 34 16 30 20 -4 4 -1 4 8 1 8 -3 46 6 84 20 39
14 71 25 73 25 2 0 1 4 -2 9 -3 5 1 12 10 15 8 3 12 2 9 -4 -3 -6 1 -10 9 -10
9 0 16 5 16 11 0 5 5 7 10 4 6 -3 10 -1 10 4 0 6 9 11 19 11 11 0 26 7 34 15
8 8 17 12 20 9 5 -6 79 35 89 50 4 6 5 13 2 17 -2 4 0 10 5 14 6 3 8 -4 6 -15
-3 -14 0 -20 8 -17 7 3 11 10 9 16 -1 7 2 10 7 6 10 -6 60 20 72 38 3 5 9 8
13 7 12 -3 66 25 66 34 0 4 -7 5 -16 2 -9 -3 -12 -2 -9 5 4 5 15 7 26 4 11 -4
19 -2 19 5 0 6 5 8 12 4 8 -5 9 -2 5 10 -5 13 -3 17 7 13 24 -9 133 72 118 89
-4 4 -1 4 6 0 15 -9 55 22 46 35 -3 5 -10 6 -16 3 -7 -4 -8 -2 -4 4 5 8 13 9
25 3 14 -8 31 3 89 57 60 56 70 70 60 82 -11 12 -10 12 5 1 9 -8 21 -11 24 -7
4 4 1 12 -7 17 -12 9 -12 10 3 5 13 -4 31 8 62 42 45 47 60 77 28 51 -16 -13
-17 -12 -4 3 7 10 17 15 23 12 12 -8 39 16 32 27 -3 5 -10 6 -16 3 -6 -4 -8
-2 -4 4 3 6 15 9 26 7 11 -2 20 0 20 5 0 5 6 15 13 22 27 27 117 148 117 157
0 5 7 12 16 15 10 4 14 14 11 26 -3 11 -1 18 3 15 11 -7 44 41 37 53 -3 4 -1
14 5 22 8 12 9 12 4 -3 -9 -29 7 -12 29 30 10 21 24 44 29 52 6 7 11 20 12 29
2 8 7 18 12 21 11 7 65 121 65 139 0 6 5 12 10 12 5 0 6 7 3 16 -3 8 -2 13 3
10 5 -3 11 1 14 8 3 8 1 17 -6 20 -7 2 -4 5 6 5 10 1 16 5 12 10 -3 5 -1 13 5
16 6 4 8 16 4 27 -4 15 -3 18 7 13 9 -6 11 -4 6 8 -3 9 -1 18 6 20 9 3 8 10
-2 28 -13 22 -13 23 2 11 10 -9 17 -10 22 -2 3 5 1 10 -6 10 -8 0 -5 5 5 13
11 8 18 28 19 54 1 23 6 39 10 36 5 -3 7 1 6 8 -1 8 1 22 6 32 4 10 2 24 -6
35 -13 15 -12 16 4 3 15 -12 17 -11 18 3 2 24 4 30 12 42 4 7 0 14 -8 18 -8 3
-15 11 -15 18 0 9 3 9 10 -2 5 -8 11 -12 14 -9 5 4 14 56 21 119 2 14 4 25 5
25 2 0 9 37 14 85 3 25 8 63 11 85 10 80 13 215 4 209 -5 -3 -9 0 -9 5 0 6 5
11 10 11 6 0 10 5 10 10 0 6 -11 10 -25 10 -15 0 -25 6 -25 15 0 12 -138 14
-1042 14 -702 0 -1045 4 -1052 11 -7 7 -5 10 5 10 12 0 12 2 -1 10 -8 5 -12
10 -7 10 4 0 0 12 -9 28 -11 18 -11 21 -1 10 19 -24 30 -23 17 2 -6 11 -8 20
-4 20 3 0 1 7 -6 15 -7 9 -10 18 -6 22 3 3 6 1 6 -5 0 -7 4 -12 8 -12 11 0 2
61 -11 78 -7 9 -6 11 6 6 14 -5 15 -1 7 25 -6 21 -5 31 2 31 6 0 3 12 -7 26
-9 14 -14 28 -11 32 3 3 6 0 6 -6 0 -7 4 -12 10 -12 12 0 9 22 -4 31 -4 4 -3
16 3 27 9 17 8 23 -6 31 -17 10 -16 10 2 11 15 0 17 2 6 9 -10 6 -11 13 -2 29
9 17 8 23 -6 31 -17 10 -16 10 2 11 15 0 17 2 6 9 -10 6 -11 13 -2 29 9 17 8
23 -6 31 -17 10 -16 10 2 11 15 0 17 2 6 9 -10 6 -11 13 -2 29 9 17 8 23 -6
31 -11 6 -13 11 -5 11 7 0 10 5 7 10 -3 6 0 10 7 10 9 0 9 3 -2 10 -8 5 -12
10 -7 10 4 0 0 12 -9 28 -11 18 -11 21 -1 10 19 -24 30 -23 17 2 -6 11 -8 20
-4 20 3 0 1 7 -6 15 -7 9 -10 18 -6 22 3 3 6 1 6 -5 0 -7 4 -12 8 -12 11 0 2
61 -11 78 -7 9 -6 11 6 6 14 -5 15 -1 7 25 -6 21 -5 31 2 31 6 0 3 12 -7 26
-9 14 -14 28 -11 32 3 3 6 0 6 -6 0 -7 4 -12 10 -12 12 0 9 22 -4 31 -4 4 -3
16 3 27 9 17 8 23 -6 31 -17 10 -16 10 2 11 15 0 17 2 6 9 -10 6 -10 13 -2 29
9 16 7 23 -12 36 -13 9 -15 13 -5 10 17 -6 19 10 5 33 -5 9 -3 11 6 7 10 -4
13 3 9 28 -2 18 -9 39 -15 46 -7 9 -6 11 6 6 14 -5 15 -1 7 25 -5 17 -6 31 -3
31 3 0 0 7 -7 15 -7 9 -10 18 -6 22 3 3 6 1 6 -5 0 -7 4 -12 8 -12 11 0 2 61
-11 78 -7 9 -6 11 5 7 10 -4 14 1 14 17 -1 13 -5 26 -10 29 -4 4 -3 16 3 27 9
17 8 23 -6 31 -10 6 -12 11 -5 11 6 0 12 12 12 26 0 21 -4 25 -20 21 -13 -3
-20 0 -20 9 0 12 -52 14 -326 14 -197 0 -323 -4 -319 -9z m-11 -30 c3 -5 -1
-11 -9 -14 -9 -4 -12 -1 -8 9 6 16 10 17 17 5z m681 -1 c-3 -5 -12 -10 -18
-10 -7 0 -6 4 3 10 19 12 23 12 15 0z m-683 -118 c3 -10 0 -19 -6 -19 -7 0
-12 9 -12 19 0 10 3 18 7 18 4 0 9 -8 11 -18z m1 -59 c-3 -7 -6 -13 -8 -13 -2
0 -5 6 -8 13 -3 8 1 14 8 14 7 0 11 -6 8 -14z m0 -106 c3 -8 -1 -14 -8 -14 -7
0 -11 6 -8 14 3 7 6 13 8 13 2 0 5 -6 8 -13z m0 -54 c-3 -7 -6 -13 -8 -13 -2
0 -5 6 -8 13 -3 8 1 14 8 14 7 0 11 -6 8 -14z m1 -199 c3 -8 2 -12 -4 -9 -6 3
-10 10 -10 16 0 14 7 11 14 -7z m2 -84 c0 -9 -5 -17 -11 -17 -6 0 -11 8 -11
17 0 9 5 17 11 17 6 0 11 -8 11 -17z m-8 -174 c-7 -8 -15 -12 -17 -11 -5 6 10
25 20 25 5 0 4 -6 -3 -14z m8 -86 c0 -9 -5 -17 -11 -17 -6 0 -11 8 -11 17 0 9
5 17 11 17 6 0 11 -8 11 -17z m0 -60 c0 -9 -5 -17 -11 -17 -6 0 -11 8 -11 17
0 9 5 17 11 17 6 0 11 -8 11 -17z m-2 -236 c3 -8 2 -12 -4 -9 -6 3 -10 10 -10
16 0 14 7 11 14 -7z m2 -84 c0 -9 -5 -17 -11 -17 -6 0 -11 8 -11 17 0 9 5 17
11 17 6 0 11 -8 11 -17z m-8 -174 c-7 -8 -15 -12 -17 -11 -5 6 10 25 20 25 5
0 4 -6 -3 -14z m8 -86 c0 -9 -5 -17 -11 -17 -6 0 -11 8 -11 17 0 9 5 17 11 17
6 0 11 -8 11 -17z m222 -62 c-3 -15 41 -19 59 -6 7 5 14 4 18 -2 5 -8 14 -6
28 7 19 16 20 16 8 1 -8 -11 -9 -18 -3 -18 6 0 14 5 18 11 4 8 9 8 17 0 15
-15 47 -14 47 2 0 8 4 7 10 -3 9 -13 11 -13 20 0 6 10 10 11 10 3 0 -7 9 -13
20 -13 11 0 20 6 20 13 0 8 4 7 10 -3 9 -13 11 -13 20 0 6 10 10 11 10 3 0 -7
5 -13 11 -13 5 0 7 6 3 13 -6 10 -4 10 7 0 16 -16 33 -17 23 -2 -3 6 6 3 22
-7 23 -16 27 -16 22 -3 -4 10 -1 16 8 16 8 0 14 -4 14 -7 0 -12 -26 -30 -33
-23 -4 3 -7 -26 -7 -65 0 -51 4 -72 13 -73 10 0 10 -2 0 -6 -9 -3 -13 -29 -13
-79 0 -52 4 -74 13 -74 9 0 9 -2 -1 -8 -18 -12 -13 -508 5 -505 7 2 10 -4 6
-13 -5 -13 -7 -13 -14 -2 -5 7 -9 -48 -9 -129 0 -107 3 -143 13 -144 10 0 10
-2 0 -6 -9 -3 -13 -29 -13 -79 0 -52 4 -74 13 -74 9 0 9 -2 -1 -9 -10 -6 -13
-35 -12 -107 1 -54 1 -107 1 -116 -1 -17 -21 -18 -276 -18 l-275 0 -1 113 c-1
61 0 117 1 122 1 6 2 15 2 20 0 6 0 39 -1 75 0 36 0 72 0 80 1 14 0 216 -2
530 -1 126 0 244 2 273 1 6 1 41 0 77 0 36 -1 98 -2 139 0 41 -2 78 -5 83 -3
4 2 8 11 8 10 0 14 5 9 13 -6 10 -4 10 7 0 15 -15 33 -17 25 -4 -7 10 20 9 30
-2 11 -10 26 -9 20 2 -7 10 13 9 30 -2 7 -4 17 0 24 8 15 18 21 19 18 3z m424
-69 c2 -2 1 -3 -1 -2 -2 2 -9 -4 -15 -13 -10 -13 -12 -13 -12 4 0 17 20 25 28
11z m4 -61 c3 -4 -1 -5 -10 -4 -8 1 -18 5 -22 8 -3 4 1 5 10 4 8 -1 18 -5 22
-8z m-11 -28 c3 -6 -1 -7 -9 -4 -18 7 -21 14 -7 14 6 0 13 -4 16 -10z m-2755
-4 c0 -3 -4 -8 -10 -11 -5 -3 -10 -1 -10 4 0 6 5 11 10 11 6 0 10 -2 10 -4z
m2756 -71 c1 -9 -4 -11 -14 -7 -10 4 -12 7 -4 10 7 2 9 9 5 15 -3 7 -2 8 2 4
5 -4 10 -14 11 -22z m-2759 -90 c0 -20 -4 -19 -17 5 -8 15 -8 18 3 14 8 -3 14
-11 14 -19z m2758 5 c3 -6 -1 -7 -9 -4 -18 7 -21 14 -7 14 6 0 13 -4 16 -10z
m-2739 -56 c1 -9 0 -13 -4 -10 -3 4 -7 14 -8 22 -1 9 0 13 4 10 3 -4 7 -14 8
-22z m2740 -19 c1 -9 -4 -11 -14 -7 -10 4 -12 7 -4 10 7 2 9 9 5 15 -3 7 -2 8
2 4 5 -4 10 -14 11 -22z m-2 -53 c3 -5 -1 -9 -9 -9 -8 0 -12 4 -9 9 3 4 7 8 9
8 2 0 6 -4 9 -8z m-2721 -37 c-3 -9 -8 -14 -10 -11 -3 3 -2 9 2 15 9 16 15 13
8 -4z m2723 -30 c1 -9 -4 -11 -14 -7 -10 4 -12 7 -4 10 7 2 9 9 5 15 -3 7 -2
8 2 4 5 -4 10 -14 11 -22z m-7 -47 c-5 -10 -11 -18 -12 -18 -2 0 -3 8 -3 18 0
10 6 19 13 19 8 0 9 -6 2 -19z m-12 -60 c-3 -8 -6 -5 -6 6 -1 11 2 17 5 13 3
-3 4 -12 1 -19z m-2660 -5 c-4 -3 -2 -12 5 -20 6 -7 8 -16 4 -20 -3 -3 -6 -1
-6 6 0 7 -4 10 -9 7 -5 -4 -8 2 -6 11 5 24 4 23 12 23 3 0 3 -3 0 -7z m2660
-35 c-3 -8 -6 -5 -6 6 -1 11 2 17 5 13 3 -3 4 -12 1 -19z m-2643 -26 c3 -5 -1
-9 -9 -9 -8 0 -12 4 -9 9 3 4 7 8 9 8 2 0 6 -4 9 -8z m-7 -28 c-3 -3 -12 -4
-19 -1 -8 3 -5 6 6 6 11 1 17 -2 13 -5z m31 -39 c-3 -3 -9 2 -12 12 -6 14 -5
15 5 6 7 -7 10 -15 7 -18z m2637 -5 c3 -6 -1 -7 -9 -4 -18 7 -21 14 -7 14 6 0
13 -4 16 -10z m-2634 -38 c-7 -2 -18 1 -23 6 -8 8 -4 9 13 5 13 -4 18 -8 10
-11z m2636 2 c0 -7 -5 -15 -12 -17 -6 -3 -11 3 -11 12 0 10 5 18 11 18 7 0 12
-6 12 -13z m-2603 -75 c-2 -4 3 -12 11 -19 8 -7 15 -17 15 -23 0 -18 -34 36
-37 58 -2 16 -1 17 6 5 5 -8 8 -17 5 -21z m2583 -31 c-3 -8 -6 -5 -6 6 -1 11
2 17 5 13 3 -3 4 -12 1 -19z m-2573 -26 c3 -5 -1 -9 -9 -9 -8 0 -15 4 -15 9 0
4 4 8 9 8 6 0 12 -4 15 -8z m2592 -67 c1 -9 -4 -11 -14 -7 -10 4 -12 7 -4 10
7 2 9 9 5 15 -3 7 -2 8 2 4 5 -4 10 -14 11 -22z m-7 -47 c-5 -10 -11 -18 -12
-18 -2 0 -3 8 -3 18 0 10 6 19 13 19 8 0 9 -6 2 -19z m-2518 -41 c-8 -8 -14
-7 -23 2 -11 10 -9 11 6 5 15 -6 17 -4 11 6 -6 9 -4 11 4 5 9 -5 10 -10 2 -18z
m2535 -9 c3 -4 -1 -5 -10 -4 -8 1 -18 5 -22 8 -3 4 1 5 10 4 8 -1 18 -5 22 -8z
m-2489 -24 c-3 -3 -12 -4 -19 -1 -8 3 -5 6 6 6 11 1 17 -2 13 -5z m2478 -4 c3
-6 -1 -7 -9 -4 -18 7 -21 14 -7 14 6 0 13 -4 16 -10z m-2478 -55 c0 -8 -4 -12
-9 -9 -5 3 -6 10 -3 15 9 13 12 11 12 -6z m38 -5 c-3 -5 -12 -10 -18 -10 -7 0
-6 4 3 10 19 12 23 12 15 0z m2441 -15 c1 -9 -4 -11 -14 -7 -10 4 -12 7 -4 10
7 2 9 9 5 15 -3 7 -2 8 2 4 5 -4 10 -14 11 -22z m-2446 -11 c0 -8 -19 -13 -24
-6 -3 5 1 9 9 9 8 0 15 -2 15 -3z m63 -78 c3 3 8 1 11 -5 8 -13 -45 -4 -59 10
-7 7 -1 7 16 0 15 -5 29 -7 32 -5z m2382 4 c3 -6 -1 -7 -9 -4 -18 7 -21 14 -7
14 6 0 13 -4 16 -10z m1 -75 c1 -9 -4 -11 -14 -7 -10 4 -12 7 -4 10 7 2 9 9 5
15 -3 7 -2 8 2 4 5 -4 10 -14 11 -22z m1764 -36 c0 -5 -4 -9 -8 -9 -5 0 -9 7
-9 15 0 8 4 12 9 9 4 -3 8 -9 8 -15z m-4072 -10 c-2 -6 -7 -10 -12 -9 -5 1
-13 -4 -18 -12 -8 -10 -9 -10 -5 2 2 8 10 14 16 13 6 -2 11 2 11 7 0 6 3 10 6
10 3 0 4 -5 2 -11z m2306 -7 c3 -5 -1 -9 -9 -9 -8 0 -12 4 -9 9 3 4 7 8 9 8 2
0 6 -4 9 -8z m-2280 -21 c3 -5 0 -14 -8 -20 -10 -9 -15 -8 -19 3 -4 11 -1 13
10 9 11 -4 14 -2 9 5 -4 7 -5 12 -2 12 3 0 7 -4 10 -9z m4011 -1 c-3 -5 -12
-10 -18 -10 -7 0 -6 4 3 10 19 12 23 12 15 0z m-1729 -55 c0 -13 -3 -22 -8
-19 -4 3 -6 10 -3 15 4 5 0 9 -7 10 -10 0 -10 2 0 6 6 2 9 10 5 16 -3 7 -2 8
3 4 4 -4 9 -19 10 -32z m-2242 -15 c-6 -6 -10 -2 -11 12 -2 16 1 18 10 9 7 -7
8 -14 1 -21z m3897 -27 c-12 -20 -14 -14 -5 12 4 9 9 14 11 11 3 -2 0 -13 -6
-23z m-3900 -10 c13 -16 12 -17 -3 -4 -10 7 -18 15 -18 17 0 8 8 3 21 -13z
m79 -29 c0 -8 -19 -13 -24 -6 -3 5 1 9 9 9 8 0 15 -2 15 -3z m19 -40 c4 3 8
-1 8 -9 0 -11 -4 -12 -14 -4 -7 6 -13 17 -12 23 0 7 2 6 6 -2 2 -6 8 -10 12
-8z m31 -38 c0 -3 -4 -8 -10 -11 -5 -3 -10 -1 -10 4 0 6 5 11 10 11 6 0 10 -2
10 -4z m3611 -69 c-10 -9 -11 -8 -5 6 3 10 9 15 12 12 3 -3 0 -11 -7 -18z
m-3515 -19 c5 -7 3 -8 -6 -3 -10 6 -12 4 -6 -11 5 -14 4 -16 -5 -7 -6 6 -8 16
-5 22 9 14 13 14 22 -1z m3489 2 c-3 -5 -12 -10 -18 -10 -7 0 -6 4 3 10 19 12
23 12 15 0z m-3468 -35 c0 -8 -4 -12 -9 -9 -5 3 -6 10 -3 15 9 13 12 11 12 -6z
m83 -87 c0 -19 -16 -5 -17 14 -2 18 0 20 7 8 5 -8 10 -18 10 -22z m3264 4 c3
-5 -1 -9 -9 -9 -8 0 -12 4 -9 9 3 4 7 8 9 8 2 0 6 -4 9 -8z m-30 -20 c3 -5 -1
-9 -9 -9 -8 0 -12 4 -9 9 3 4 7 8 9 8 2 0 6 -4 9 -8z m-3037 -132 c1 -11 -2
-20 -7 -20 -6 0 -7 17 -1 38 3 8 7 -1 8 -18z m77 -56 c3 -8 2 -12 -4 -9 -6 3
-10 10 -10 16 0 14 7 11 14 -7z m41 -42 c-3 -3 -11 0 -18 7 -9 10 -8 11 6 5
10 -3 15 -9 12 -12z m2599 3 c3 -8 1 -15 -4 -15 -6 0 -10 7 -10 15 0 8 2 15 4
15 2 0 6 -7 10 -15z m-2554 -17 c0 -4 -4 -8 -9 -8 -6 0 -12 4 -15 8 -3 5 1 9
9 9 8 0 15 -4 15 -9z m2480 -34 c0 -2 -9 0 -20 6 -11 6 -20 13 -20 16 0 2 9 0
20 -6 11 -6 20 -13 20 -16z m-156 -62 c3 -5 -1 -9 -9 -9 -8 0 -12 4 -9 9 3 4
7 8 9 8 2 0 6 -4 9 -8z m-269 -113 c-4 -5 -12 -9 -18 -8 -9 0 -8 2 1 6 6 2 9
10 6 15 -4 7 -2 8 5 4 6 -4 9 -12 6 -17z m-61 -18 c3 -5 -1 -11 -9 -15 -8 -3
-17 0 -21 6 -4 7 -3 8 4 4 7 -4 12 -2 12 3 0 13 7 14 14 2z m-154 -56 c0 -12
-19 -12 -23 0 -4 9 -1 12 9 8 7 -3 14 -7 14 -8z m-90 -10 c-7 -8 -17 -15 -23
-15 -6 0 -2 7 9 15 25 19 30 19 14 0z m-270 -41 c0 -8 -19 -13 -24 -6 -3 5 1
9 9 9 8 0 15 -2 15 -3z"/>
<path d="M2975 1192 c-3 -8 -3 -18 1 -23 3 -5 -6 -9 -19 -9 l-25 0 0 -322 -1
-323 42 1 c32 1 42 6 41 18 -1 9 2 13 7 10 5 -3 9 -10 9 -15 0 -31 55 -46 89
-25 11 7 12 6 6 -5 -8 -12 -6 -12 8 0 14 11 17 11 17 0 0 -11 2 -11 10 1 9 13
10 13 10 0 0 -13 1 -13 10 0 6 10 10 11 10 3 0 -7 5 -13 11 -13 5 0 7 5 3 11
-4 7 1 7 16 -1 13 -7 20 -8 16 -2 -3 6 -2 14 4 17 6 4 9 1 8 -6 -2 -6 3 -14
10 -16 6 -3 12 0 12 7 0 6 5 8 13 3 17 -11 67 -12 67 -2 0 5 5 9 11 9 5 0 7
-6 3 -12 -5 -9 -2 -9 9 1 14 11 17 11 17 0 0 -11 2 -11 10 1 9 13 10 13 10 0
0 -13 1 -13 10 0 5 8 10 10 10 4 0 -6 7 -11 15 -11 8 0 12 4 9 9 -3 4 0 8 5 8
6 0 11 -4 11 -10 0 -5 5 -10 11 -10 5 0 7 5 3 11 -4 7 1 7 16 -1 13 -7 20 -8
16 -2 -3 6 -1 14 5 18 7 4 9 3 5 -4 -3 -6 -1 -14 5 -18 6 -3 15 0 20 7 7 12 9
11 9 -1 0 -13 1 -13 10 0 8 12 10 12 10 1 0 -11 3 -11 17 0 15 12 16 12 8 -1
-8 -13 -7 -13 8 -1 14 11 17 11 17 0 0 -11 2 -11 10 1 9 13 10 13 10 0 0 -13
1 -13 10 0 6 10 10 11 10 3 0 -7 5 -13 11 -13 5 0 7 5 3 11 -4 7 1 7 16 -1 13
-7 20 -8 16 -2 -3 6 -2 14 4 17 6 4 9 1 8 -6 -2 -6 3 -14 10 -16 6 -3 12 0 12
7 0 7 5 8 13 3 21 -13 61 -10 75 6 8 9 11 11 8 5 -8 -17 19 -25 34 -11 7 7 10
7 7 2 -7 -14 56 -14 65 -1 5 7 8 5 8 -4 0 -13 1 -13 10 0 5 8 10 10 10 5 0
-12 40 -12 60 0 7 5 11 4 7 -1 -8 -13 56 -13 65 0 5 7 8 5 8 -4 0 -13 1 -13
10 0 5 8 10 10 10 5 0 -12 40 -12 60 0 7 5 11 4 7 -1 -8 -13 56 -13 65 0 5 7
8 5 8 -4 0 -13 1 -13 10 0 5 8 10 10 10 5 0 -12 40 -12 60 0 7 5 11 4 7 -1 -8
-13 56 -13 65 0 5 7 8 5 8 -4 0 -13 1 -13 10 0 5 8 10 10 10 5 0 -12 40 -12
60 0 7 5 11 4 7 -1 -8 -13 56 -13 65 0 5 7 8 5 8 -4 0 -13 1 -13 10 0 5 8 10
10 10 5 0 -12 40 -12 60 0 7 5 11 4 7 -1 -8 -13 56 -13 65 0 5 7 8 5 8 -4 0
-13 1 -13 10 0 5 8 10 10 10 5 0 -12 40 -12 60 0 7 5 11 4 7 -1 -8 -13 56 -13
65 0 5 7 8 5 8 -4 0 -13 1 -13 10 0 5 8 10 10 10 5 0 -12 40 -12 60 0 7 5 11
4 7 -1 -8 -13 56 -13 65 0 5 7 8 5 8 -4 0 -13 1 -13 10 0 5 8 10 10 10 5 0
-12 40 -12 60 0 7 5 11 4 7 -1 -8 -13 56 -13 65 0 5 7 8 5 8 -4 0 -13 1 -13
10 0 5 8 10 10 10 5 0 -12 40 -12 60 0 7 5 11 4 7 -1 -8 -13 56 -13 65 0 5 7
8 5 8 -4 0 -13 1 -13 10 0 5 8 10 10 10 5 0 -12 40 -12 60 0 7 5 11 4 7 -1 -8
-13 56 -13 65 0 5 7 8 5 8 -4 0 -13 1 -13 10 0 5 8 10 10 10 5 0 -12 40 -12
60 0 7 5 11 4 7 -1 -8 -13 56 -13 65 0 5 7 8 5 8 -4 0 -13 1 -13 10 0 5 8 10
10 10 5 0 -12 40 -12 60 0 7 5 11 4 7 -1 -8 -13 56 -13 65 0 5 7 8 5 8 -4 0
-13 1 -13 10 0 5 8 10 10 10 5 0 -12 40 -12 60 0 7 5 11 4 7 -1 -8 -13 56 -13
65 0 5 7 8 5 8 -4 0 -13 1 -13 10 0 8 12 10 12 10 1 0 -10 3 -11 13 -2 8 6 17
8 21 4 11 -11 96 -11 90 -1 -4 6 3 5 14 -1 12 -6 23 -8 25 -4 3 5 5 43 6 86 1
55 -2 77 -11 77 -9 0 -10 2 -2 8 16 10 17 151 1 170 -9 13 -9 14 1 8 9 -5 12
5 12 43 0 30 -5 51 -12 54 -10 4 -10 6 0 6 8 1 12 19 12 56 0 37 -4 55 -12 55
-9 0 -10 2 -2 8 7 4 12 19 12 35 0 21 -6 29 -26 34 -24 6 -25 7 -7 14 13 5 15
8 5 8 -13 1 -13 2 0 12 12 9 10 10 -8 6 -16 -4 -25 0 -30 12 -7 16 -104 17
-1594 17 -1322 -1 -1589 -3 -1593 -14z m-10 -52 c3 -6 -1 -7 -9 -4 -18 7 -21
14 -7 14 6 0 13 -4 16 -10z m0 -60 c3 -5 2 -10 -4 -10 -5 0 -13 5 -16 10 -3 6
-2 10 4 10 5 0 13 -4 16 -10z m-1 -106 c3 -8 2 -12 -4 -9 -6 3 -10 10 -10 16
0 14 7 11 14 -7z m2 -84 c0 -9 -5 -17 -11 -17 -6 0 -11 8 -11 17 0 9 5 17 11
17 6 0 11 -8 11 -17z m4 -144 c0 -3 -4 -8 -10 -11 -5 -3 -10 -1 -10 4 0 6 5
11 10 11 6 0 10 -2 10 -4z m-5 -65 c3 -5 2 -12 -3 -15 -5 -3 -9 1 -9 9 0 17 3
19 12 6z m0 -81 c3 -6 -1 -7 -9 -4 -18 7 -21 14 -7 14 6 0 13 -4 16 -10z m24
-46 c3 -4 -1 -5 -9 -2 -8 3 -20 -2 -25 -9 -9 -12 -11 -11 -11 5 0 14 6 19 19
16 11 -2 22 -6 26 -10z m3228 -36 c-3 -8 -6 -5 -6 6 -1 11 2 17 5 13 3 -3 4
-12 1 -19z m-2292 -6 c-3 -3 -11 0 -18 7 -9 10 -8 11 6 5 10 -3 15 -9 12 -12z
m160 0 c-3 -3 -11 0 -18 7 -9 10 -8 11 6 5 10 -3 15 -9 12 -12z m160 0 c-3 -3
-11 0 -18 7 -9 10 -8 11 6 5 10 -3 15 -9 12 -12z m160 0 c-3 -3 -11 0 -18 7
-9 10 -8 11 6 5 10 -3 15 -9 12 -12z m160 0 c-3 -3 -11 0 -18 7 -9 10 -8 11 6
5 10 -3 15 -9 12 -12z m160 0 c-3 -3 -11 0 -18 7 -9 10 -8 11 6 5 10 -3 15 -9
12 -12z m160 0 c-3 -3 -11 0 -18 7 -9 10 -8 11 6 5 10 -3 15 -9 12 -12z m160
0 c-3 -3 -11 0 -18 7 -9 10 -8 11 6 5 10 -3 15 -9 12 -12z m160 0 c-3 -3 -11
0 -18 7 -9 10 -8 11 6 5 10 -3 15 -9 12 -12z m160 0 c-3 -3 -11 0 -18 7 -9 10
-8 11 6 5 10 -3 15 -9 12 -12z m160 0 c-3 -3 -11 0 -18 7 -9 10 -8 11 6 5 10
-3 15 -9 12 -12z m160 0 c-3 -3 -11 0 -18 7 -9 10 -8 11 6 5 10 -3 15 -9 12
-12z m160 0 c-3 -3 -11 0 -18 7 -9 10 -8 11 6 5 10 -3 15 -9 12 -12z m160 0
c-3 -3 -11 0 -18 7 -9 10 -8 11 6 5 10 -3 15 -9 12 -12z m138 4 c4 -10 1 -13
-8 -9 -8 3 -12 9 -9 14 7 12 11 11 17 -5z"/>
</g>
</svg>
