<?xml version="1.0" encoding="utf-8"?>
<!-- Generator: Adobe Illustrator 24.0.1, SVG Export Plug-In . SVG Version: 6.00 Build 0)  -->
<svg version="1.1" id="Calque_1" xmlns="http://www.w3.org/2000/svg" xmlns:xlink="http://www.w3.org/1999/xlink" x="0px" y="0px"
	 viewBox="0 0 578 361.7" style="enable-background:new 0 0 578 361.7;" xml:space="preserve">
<style type="text/css">
	.st0{fill:#1D1D1B;}
	.st1{fill:none;stroke:#000000;}
</style>
<g>
	<g>
		<path class="st0" d="M63.3,282.8c6.8,17.2-5.7,27.3-21.4,27.2c-12.6-0.2-19.7-10-22.9-21.3c1.4,14.3,2,28.3-2.7,42.8
			c-5.2-0.1-10.5-0.2-15.7-0.3c0-23.6,0-47.2,0-70.7c6.1-0.7,11.8-3.6,15.7-7.4c-0.1,7.2,0.5,14.2,1.2,21
			c0.5-11.9,6.2-21.5,17.2-21.9C49,251.9,56.5,265.4,63.3,282.8z M46.3,282.5c-4.9-17.3-10-28-15.6-27.7c-7.2,0.2-14.2,9.6-12.3,27
			c1.8,16.1,10.7,26,18.9,26.2C44.1,307.9,51.3,299.5,46.3,282.5z"/>
		<path class="st0" d="M142.1,309.2c0,0.1,0,0.2,0,0.3c-16.1,2.5-23.8,0.4-28.6-10.7c1.7,6.4-2.5,11.7-13.6,11.7
			c-14,0-22.1-5.3-25.3-15.3C72,286,78.9,281,90.7,279.6c4.4-0.4,8.8-0.9,13.2-1.4c-1.4-3.4-2.6-6.9-3.2-10.6
			c-1.6-9.7-2.5-15.7-9.8-15.5c-12.6,0.3-17.6,14.5-15.1,23.2c-0.1,0-0.3,0-0.4,0c-13.1-9.4-3.1-23.2,15.9-23.8
			c17.6-0.5,22.1,7.5,25.1,19.6c2.3,9.1,7.8,17.1,11.6,25C132.1,304.9,132.6,308.8,142.1,309.2z M111.7,294.9
			c-2.4-5.2-5.3-10.5-7.7-16.2c-2.2,0.3-4.4,0.6-6.6,0.8c-8.1,1.1-8.9,7.6-5.7,15.8c2.7,6.5,5.9,13.7,12.3,13.7
			C110.8,308.9,115.9,303.9,111.7,294.9z"/>
		<path class="st0" d="M167.3,278.1c-0.1,0-0.2,0-0.3,0c-5.9-8.4-2.2-25.1-8.4-25.3c-4.4,0-10.1,4.9-12.1,10.8
			c-2.2,6-0.6,13.1,2.6,19.1c5,9.2,11.8,17.6,12.9,26.5c-5.1,0-10.2,0.1-15.4,0.1c-1.2-15.6-19.7-29.6-17.3-49
			c5.8-1.1,11.9-4.7,18.2-9.4c-5.2,9.9-4.2,18.3-1,26.1c-5.5-11.7,4.5-26.5,16.4-26.8c7.6-0.2,7.6,4.8,7.5,10.6
			C169.9,266.7,169.3,273.4,167.3,278.1z"/>
		<path class="st0" d="M402.5,273.3c-0.1,0-0.2,0-0.3,0c-1.4-9.5,6.3-25.2-0.3-25.2c-10.3,0.2-26.9,17.1-23.7,29.9
			c1.3,10,6.5,19.9,10.2,30.8c-5.1-0.1-10.2-0.2-15.3-0.3c-7.1-18.7-19.7-34.5-5.9-53.2c7-1.1,15.5-4.6,23.8-8.8
			c-9.4,9-12.9,17.3-13.2,25.5c0.5-12.5,17.7-26,28.9-26.2C419.9,245.4,412.1,263.1,402.5,273.3z"/>
		<path class="st0" d="M231.8,287.4c7.2,13.5,0.9,22.1-11.8,22.3c-15-0.1-29.8-12.2-40.2-27.3c-4.7-7.8-3.2-15.7,3.8-22.1
			c6.6-6.3,18.8-10.9,28.1-11.1c15.3,0,12.7,14.9,7.8,24.3c-0.1,0-0.2,0-0.4,0c-5.1-8.3,1.5-23.6-7.5-23.7
			c-11.9,0.5-26.8,15.4-20.5,27c6.4,13.5,19.8,21.9,31.1,22c7.1-0.1,10.5-3.9,8.9-11.3C231.4,287.4,231.6,287.4,231.8,287.4
			L231.8,287.4z"/>
		<path class="st0" d="M233,281c-10.8-16.8,22-32.6,37.8-32.9c15.4-0.1,8.7,14.4,16.7,31.5c8.6,17.1,4.1,29.3-11,29.5
			C263.5,308.9,243.7,297.6,233,281z M271.4,280c-8.3-19.2,9.2-31.6-1.3-31.3c-8.2,0-31,12.8-21.5,31.9c11.5,18.6,20.3,27.9,27.7,28
			C285.7,308.5,282,298.8,271.4,280z"/>
		<path class="st0" d="M361.3,247.7c-26,22.4-9.2,39.4-0.8,60.5c-5-0.1-10-0.1-14.9-0.2c-3.1-7.5-7.6-14.5-10.7-21.4
			c5.1,13.4,3.7,22.5-7.6,22.5c-11.7-0.1-18.7-6.9-26.1-18.3c-6.4-10.7-11.2-21-2.1-33.3c6.6-1.1,15-4.6,24.2-9
			c-22.3,18.3-13.1,32.3-4.1,47.7c4,6.7,7.8,10,12.1,10c7.3,0,7.7-8.8,0.8-27.6c-1.7-7-1-14.2,4.8-21.9
			C343.6,255.6,352.2,252.1,361.3,247.7z"/>
		<path class="st0" d="M472.4,292c-0.4,14-15.1,20.5-24.3,20.1c-18.7-0.9-38-12.2-28.2-25.3c0.2,0,0.3,0,0.5,0
			c3.4,9.8,15.2,24.2,27.6,24.7c10.1,0.6,16-3.8,15.8-10c-0.3-7.2-7.9-9.3-20.6-13.7c-14.2-4.9-28.4-9.4-26.6-22.5
			c2.9-12.6,22.4-20.3,31-20.4c17.5-0.4,29.8,12.3,18,23.6c-0.2,0-0.3,0-0.5,0c-1-10.2-5.4-23.4-16.8-23c-11,0.1-19.4,6.3-21.2,11.6
			c-1.8,5.7,5.4,8,18.6,12.6C459.1,274.2,472.5,277.7,472.4,292z"/>
	</g>
</g>
<g>
	<path class="st1" d="M51,180.6l-24.2,60.5L0.6,180.6h16.2l17,41.4l16.6-41.4H51z"/>
	<path class="st1" d="M51.9,210c0-18.6,14.4-31,29.5-31s29.5,12.4,29.5,31c0,18.5-14.4,30.9-29.5,30.9S51.9,228.5,51.9,210z
		 M93.8,210c0-20.8-3.3-30.5-12.4-30.5S69,189.2,69,210c0,20.6,3.3,30.4,12.4,30.4S93.8,230.6,93.8,210z"/>
	<path class="st1" d="M120.4,163.4c0-4.8,4.2-8.7,9.8-8.7c5.7,0,9.8,3.9,9.8,8.7c0,4.9-4.1,8.7-9.8,8.7
		C124.6,172.1,120.4,168.3,120.4,163.4z M122.3,187.2c6-0.9,11.8-4.1,15.7-7.9v60.4h-15.7V187.2z"/>
	<path class="st1" d="M203,216.8c-3,15.1-13.4,24.1-26.5,24.1c-17.1,0-27.1-14.1-27.1-30.9c0-17.1,11-31,29.9-31
		c16.1,0,26.9,12.9,17.4,22.7h-0.4c-1.3-9-6.2-22.2-16.5-22.2c-10.6,0.1-15.2,12.4-15.2,24.8c0,14.4,6.5,24.7,19.5,24.8
		c7.7,0,14.3-4.1,18.1-12.3C202.2,216.8,203,216.8,203,216.8z"/>
	<path class="st1" d="M211.1,163.4c0-4.8,4.2-8.7,9.8-8.7c5.7,0,9.8,3.9,9.8,8.7c0,4.9-4.1,8.7-9.8,8.7
		C215.3,172.1,211.1,168.3,211.1,163.4z M213,187.2c6-0.9,11.8-4.1,15.7-7.9v60.4H213V187.2z"/>
	<path class="st1" d="M353.6,200.7v39h-16.1v-47.2c0-7.1-1.8-10.8-6.7-10.8c-6.8,0-12,8.7-12,28.1v29.9h-16.2v-47.2
		c0-7.1-1.8-10.8-6.7-10.8c-6.2,0-11,7.2-11.9,23.1v35h-15.6v-52.6c6-0.9,11.7-4.1,15.6-7.9v19.1c1.6-12.2,6.6-19.6,18.6-19.6
		c11.7,0,15.8,7.2,16.2,20.9c1.4-12.9,6.3-20.9,18.7-20.9C349.3,178.8,353.5,186.4,353.6,200.7z"/>
	<path class="st1" d="M363,210c0-18.6,14.4-31,29.5-31s29.5,12.4,29.5,31c0,18.5-14.4,30.9-29.5,30.9S363,228.5,363,210z M404.9,210
		c0-20.8-3.3-30.5-12.4-30.5s-12.4,9.8-12.4,30.5c0,20.6,3.3,30.4,12.4,30.4S404.9,230.6,404.9,210z"/>
	<path class="st1" d="M484.6,201v38.8h-15.7v-41.4c0-11.3-2.3-16.8-8.1-16.8c-6.7,0-12.8,7.1-13.7,23.6v34.6h-15.6v-52.6
		c6-0.9,11.7-4.1,15.6-7.9v20c1.8-12.7,7.3-20.5,20.3-20.5C478.6,178.8,484.5,186.5,484.6,201z"/>
</g>
<g>
	<path class="st1" d="M53.2,77.1c-2.6,12.7-12,24.4-26.3,24.4C10,101.5,0,87,0,70.2c0-16.9,11-31.4,28.3-31.4
		c16.3,0,23.5,13.5,23.6,26.4h-0.1l0.1,0.1H15.4c0.3,14.5,7.2,24.1,19.7,24.2c7.7,0,15-4.9,17.3-12.4H53.2z M15.4,64.4v0.4h23.2
		c-0.1-13.3-2.7-25.5-10.6-25.5C19.2,39.5,15.4,51.4,15.4,64.4z"/>
	<path class="st1" d="M80.1,101.5H80c-10.6,0-16.7-4.9-16.7-17.6V43.8l-10,1.9v-0.4C64,43,71.3,28,71.8,17.9h0.4
		c4.4,3.5,6.8,8.2,5.8,12.7c-1,4.9-6.8,9.7-19.4,13.6l4.7-0.9l7.3-1.3l8.1-1.5L97,35.7v9.9l-18.2-4.7v40.8c0,6.9,3.1,9.9,7.9,9.9
		c5.6,0,9.5-4.9,11.8-12.4h0.6C96.8,90.5,92.7,101.4,80.1,101.5z"/>
	<path class="st1" d="M192.9,70.1c-0.1,19.2-10.6,31.4-24,31.4c-10.9,0-16.8-11-18.5-23.6V126h-15.8V47.1c6-0.9,11.8-4.1,15.8-7.9
		v22.6c1.7-13.2,7.6-23.1,18.5-23.1C183.1,38.7,192.8,50.9,192.9,70.1z M176.5,70.1c0-19.1-5.9-29.1-11.5-29.1
		c-7.2,0-14.4,9.6-14.4,29.1c0,17.8,7.3,29.1,14.4,29.1C170.7,99.2,176.5,89.2,176.5,70.1z"/>
	<path class="st1" d="M200.6,70.2c0-18.8,14.6-31.4,29.9-31.4s29.9,12.6,29.9,31.4c0,18.7-14.6,31.3-29.9,31.3
		S200.6,88.9,200.6,70.2z M243,70.2c0-21-3.3-30.9-12.6-30.9s-12.6,9.9-12.6,30.9c0,20.9,3.3,30.8,12.6,30.8S243,91.1,243,70.2z"/>
	<path class="st1" d="M323.6,40v60.4h-15.9V78.5c-1.8,14.1-8.5,22.9-20.4,22.9c-12.8,0-17.4-6.7-17.6-19l0.1-34.6
		c6-0.9,11.8-4.1,15.8-7.9v48.4c0,7,2.6,10.3,7.3,10.3c6.9,0,14.7-8.6,14.7-28.6V47.9C313.7,47,319.6,43.8,323.6,40z"/>
	<path class="st1" d="M373.3,65.3h-0.4c0-9.5-1.9-24.4-9.6-24.4c-9.2-0.1-11.9,15.8-12.4,29v30.4h-15.8V47.1
		c6-0.9,11.8-4.1,15.8-7.9v24.6c1-12.7,4.2-25,15.3-25C380.9,38.8,382.9,55.2,373.3,65.3z"/>
	<path class="st1" d="M465.6,77.1c-2.6,12.7-12,24.4-26.3,24.4c-16.9,0-26.9-14.5-26.9-31.3c0-16.9,11-31.4,28.3-31.4
		c16.3,0,23.5,13.5,23.6,26.4h-0.1l0.1,0.1h-36.5c0.3,14.5,7.2,24.1,19.7,24.2c7.7,0,15-4.9,17.3-12.4H465.6z M427.8,64.4v0.4H451
		c-0.1-13.3-2.7-25.5-10.6-25.5C431.6,39.5,427.8,51.4,427.8,64.4z"/>
	<path class="st1" d="M527.5,61.1v39.2h-15.9V58.5c0-11.4-2.3-17-8.2-17c-6.8,0-12.9,7.2-13.8,23.8v35h-15.8V47.1
		c6-0.9,11.8-4.1,15.8-7.9v20.2c1.8-12.8,7.4-20.8,20.5-20.8C521.5,38.7,527.4,46.5,527.5,61.1z"/>
	<path class="st1" d="M48.4,152.3c0,12.7-13.6,19.4-22.4,19.4c-18.3,0-33.3-10-21.8-23.1h0.4c1.3,9.5,9.2,22.7,21.3,22.6
		c9.5,0.1,15.1-4.2,15.1-9.9c0-6.7-6.3-8.2-16.8-12.2c-12-4.4-22.7-8.7-22.7-21.4c0-12.2,12.6-18.8,22-18.8
		c19.1,0,29,11.7,19.4,21.9h-0.4c-0.6-9.4-5.8-21.5-17.9-21.4C13.5,109.2,9,114.8,9,119.8c0,5.4,6.7,7.7,17.8,12
		C38.2,136.2,48.4,139.2,48.4,152.3z"/>
	<path class="st1" d="M117.5,170.2v0.3c-15.6,2.7-24.7,0.4-25.9-12.6c-0.9,7.4-4.7,13.6-15.1,13.6c-13.1,0-21.1-6-21.4-17.6
		c0.3-10.5,9.4-16.1,22-17.7l14.4-1.5v-10.9c0-9.5-3.6-14.5-10.6-14.5c-11.9-0.1-16.3,12.9-17.6,22.4h-0.4
		c-9.6-10.1-0.1-22.9,18.2-22.9c17.2,0,26.3,6.4,26.3,18.6v27.6C107.3,165.2,108.2,169.7,117.5,170.2z M91.5,153.4v-18.2
		c-2.4,0.3-4.9,0.6-7.3,0.9c-8.8,1.2-12.7,8.3-12.7,17.8c0,7.6,2.6,15.9,8.8,15.9C86.9,169.8,91.5,163.9,91.5,153.4z"/>
	<path class="st1" d="M162.9,110.5l-24.5,61.3l-26.5-61.3h16.4l17.2,41.9l16.8-41.9H162.9z"/>
	<path class="st1" d="M163.8,140.2c0-18.8,14.6-31.4,29.9-31.4s29.9,12.6,29.9,31.4c0,18.7-14.6,31.3-29.9,31.3
		S163.8,158.9,163.8,140.2z M206.2,140.2c0-21-3.3-30.9-12.6-30.9s-12.6,9.9-12.6,30.9c0,20.9,3.3,30.8,12.6,30.8
		S206.2,161.1,206.2,140.2z"/>
	<path class="st1" d="M233.1,93c0-4.9,4.2-8.8,9.9-8.8c5.8,0,9.9,4,9.9,8.8c0,5-4.1,8.8-9.9,8.8C237.4,101.9,233.1,98,233.1,93z
		 M235,117.1c6-0.9,11.9-4.1,15.9-7.9v61.1H235V117.1z"/>
	<path class="st1" d="M302.6,135.3h-0.4c0-9.5-1.9-24.4-9.6-24.4c-9.2-0.1-11.9,15.8-12.4,29v30.4h-15.8v-53.2
		c6-0.9,11.8-4.1,15.8-7.9v24.6c1-12.7,4.2-25,15.3-25C310.1,108.8,312.2,125.2,302.6,135.3z"/>
	<path class="st1" d="M401.8,140.1c-0.1,19.2-10.6,31.4-24,31.4c-10.9,0-16.8-11-18.5-23.6V196h-15.8v-78.8c6-0.9,11.8-4.1,15.8-7.9
		v22.6c1.7-13.2,7.6-23.1,18.5-23.1C392,108.7,401.6,120.9,401.8,140.1z M385.4,140.1c0-19.1-5.9-29.1-11.5-29.1
		c-7.2,0-14.4,9.6-14.4,29.1c0,17.8,7.3,29.1,14.4,29.1C379.6,169.2,385.4,159.2,385.4,140.1z"/>
	<path class="st1" d="M411.4,85.7c6-1,11.8-4.2,15.8-8.1v92.7h-15.8V85.7z"/>
	<path class="st1" d="M492.4,110v60.4h-15.9v-21.8c-1.8,14.1-8.5,22.9-20.4,22.9c-12.8,0-17.4-6.7-17.6-19l0.1-34.6
		c6-0.9,11.8-4.1,15.8-7.9v48.4c0,7,2.6,10.3,7.3,10.3c6.9,0,14.7-8.6,14.7-28.6v-22.2C482.5,117,488.4,113.8,492.4,110z"/>
	<path class="st1" d="M550.4,152.3c0,12.7-13.6,19.4-22.4,19.4c-18.3,0-33.3-10-21.8-23.1h0.4c1.3,9.5,9.2,22.7,21.3,22.6
		c9.5,0.1,15.1-4.2,15.1-9.9c0-6.7-6.3-8.2-16.8-12.2c-12-4.4-22.7-8.7-22.7-21.4c0-12.2,12.6-18.8,22-18.8
		c19.1,0,29,11.7,19.4,21.9h-0.4c-0.6-9.4-5.8-21.5-17.9-21.4c-11.1-0.1-15.6,5.5-15.6,10.5c0,5.4,6.7,7.7,17.8,12
		C540.2,136.2,550.4,139.2,550.4,152.3z"/>
</g>
</svg>
