<?xml version="1.0" encoding="utf-8"?>
<!-- Generator: Adobe Illustrator 24.0.1, SVG Export Plug-In . SVG Version: 6.00 Build 0)  -->
<svg version="1.1" id="Calque_1" xmlns="http://www.w3.org/2000/svg" xmlns:xlink="http://www.w3.org/1999/xlink" x="0px" y="0px"
	 viewBox="0 0 578 212.6" style="enable-background:new 0 0 578 212.6;" xml:space="preserve">
<style type="text/css">
	.st0{fill:none;stroke:#000000;}
	.st1{fill:#1D1D1B;}
</style>
<g>
	<g>
		<path d="M728.3,32.9v39.7h-16.1V30.4c0-11.5-2.3-17.3-8.3-17.3c-6.9,0-13.1,7.3-14,24.2v35.5h-16V-13c6.1-1,11.9-4.3,16-8.2v52.4
			c1.8-13,7.5-21.1,20.8-21.1C722.3,10.2,728.2,18.1,728.3,32.9z"/>
		<path d="M791.8,49.2c-2.6,12.9-12.2,24.6-26.6,24.6c-17.1,0-27.3-14.6-27.3-31.7s11.2-31.8,28.7-31.8c16.5,0,23.8,13.6,23.9,26.7
			h-0.2l0.2,0.2h-37c0.2,14.6,7.3,24.4,20,24.6c7.8,0,15.2-5,17.5-12.6L791.8,49.2L791.8,49.2z M753.5,36.3v0.4H777
			c-0.2-13.5-2.7-25.9-10.8-25.9C757.4,11,753.5,23.1,753.5,36.3z"/>
		<path d="M800.1-13c6.1-1,11.9-4.3,16-8.2v93.9h-16V-13z"/>
		<path d="M827.8-13c6.1-1,11.9-4.3,16-8.2v93.9h-16V-13z"/>
		<path d="M853.5,42.2c0-19.1,14.8-31.8,30.3-31.8c15.4,0,30.3,12.7,30.3,31.8c0,19-14.8,31.7-30.3,31.7
			C868.4,73.8,853.5,61.1,853.5,42.2z M896.5,42.2c0-21.3-3.4-31.3-12.7-31.3c-9.4,0-12.7,10-12.7,31.3c0,21.1,3.4,31.1,12.7,31.1
			C893.1,73.4,896.5,63.4,896.5,42.2z"/>
	</g>
	<path class="st0" d="M691.2,143.8H691c-10.8,0-16.9-5-16.9-17.8V85.3L664,87.2v-0.4c10.8-2.3,18.2-17.5,18.7-27.8h0.4
		c4.4,3.5,6.9,8.3,5.8,12.9c-1,5-6.9,9.8-19.6,13.8l4.8-0.9l7.4-1.3l8.2-1.5l18.6-4.8v10l-18.4-4.8v41.2c0,7,3.1,10,8.1,10
		c5.7,0,9.6-5,11.9-12.6h0.6C708.1,132.6,704,143.6,691.2,143.8z"/>
	<path class="st0" d="M773.9,102.9v39.7h-16.1v-42.3c0-11.5-2.3-17.3-8.3-17.3c-6.9,0-13.1,7.3-14,24.2v35.5h-16V56.9
		c6.1-1,11.9-4.3,16-8.2v52.4c1.8-13,7.5-21.1,20.8-21.1C767.8,80.1,773.8,88,773.9,102.9z"/>
	<path class="st0" d="M837.4,119.1c-2.6,12.9-12.2,24.6-26.6,24.6c-17.1,0-27.3-14.6-27.3-31.7s11.2-31.8,28.7-31.8
		c16.5,0,23.8,13.6,23.9,26.7l0,0l0.2,0.2h-37c0.2,14.6,7.3,24.4,20,24.6c7.8,0,15.2-5,17.5-12.6H837.4L837.4,119.1z M799.1,106.2
		v0.4h23.5c-0.2-13.5-2.7-25.9-10.8-25.9C803,80.9,799.1,93,799.1,106.2z"/>
	<path class="st0" d="M884.5,107.2h-0.4c0-9.6-1.9-24.7-9.8-24.7c-9.4-0.2-12.1,16-12.6,29.4v30.7h-16v-54c6.1-0.9,11.9-4.2,16-8.1
		v24.9c1-12.9,4.3-25.3,15.4-25.3C892.1,80.3,894.1,96.8,884.5,107.2z"/>
	<path class="st0" d="M947.7,119.1c-2.6,12.9-12.2,24.6-26.6,24.6c-17.1,0-27.3-14.6-27.3-31.7s11.2-31.8,28.7-31.8
		c16.5,0,23.8,13.6,23.9,26.7h-0.2l0.2,0.2h-37c0.2,14.6,7.3,24.4,20,24.6c7.8,0,15.2-5,17.5-12.6H947.7L947.7,119.1z M909.4,106.2
		v0.4h23.5c-0.2-13.5-2.7-25.9-10.8-25.9C913.3,80.9,909.4,93,909.4,106.2z"/>
	<g>
		<path d="M1094.8,203c0-3.3,2.6-5.9,5.9-5.9s5.8,2.7,5.8,5.9c0,3.3-2.6,5.9-5.8,5.9C1097.3,209,1094.8,206.4,1094.8,203z"/>
	</g>
	<g>
		<path d="M718.2,190.8c0,11.9-12.8,18.2-21.1,18.2c-17.3,0-31.4-9.4-20.5-21.7h0.4c1.2,8.9,8.7,21.4,20,21.2
			c8.9,0.1,14.2-4,14.2-9.3c0-6.3-5.9-7.7-15.8-11.5c-11.3-4.1-21.4-8.2-21.4-20.1c0-11.5,11.8-17.7,20.7-17.7
			c18,0,27.3,11,18.2,20.6h-0.4c-0.6-8.8-5.4-20.3-16.9-20.1c-10.5-0.1-14.7,5.2-14.7,9.9c0,5.1,6.3,7.2,16.8,11.3
			C708.5,175.7,718.2,178.5,718.2,190.8z"/>
		<path d="M744.7,208.9L744.7,208.9c-10.1,0-15.8-4.6-15.8-16.5v-37.8l-9.4,1.8V156c10-2.2,16.9-16.3,17.4-25.8h0.4
			c4.1,3.3,6.4,7.7,5.4,11.9c-1,4.6-6.4,9.2-18.2,12.8l4.5-0.8l6.9-1.2l7.6-1.4l17.3-4.5v9.3l-17.1-4.5v38.4c0,6.5,2.9,9.3,7.5,9.3
			c5.3,0,8.9-4.6,11.1-11.7h0.6C760.4,198.5,756.6,208.8,744.7,208.9z"/>
		<path d="M805.8,174.9h-0.4c0-8.9-1.8-22.9-9-22.9c-8.7-0.1-11.2,14.8-11.7,27.3v28.6h-14.8v-50.1c5.7-0.8,11.1-3.9,14.8-7.5v23.2
			c1-11.9,4-23.5,14.4-23.5C812.9,149.9,814.9,165.4,805.8,174.9z"/>
		<path d="M872.7,207.7v0.2c-14.7,2.5-23.3,0.4-24.4-11.8c-0.8,7-4.5,12.8-14.2,12.8c-12.3,0-19.9-5.7-20.1-16.5
			c0.2-9.9,8.8-15.2,20.8-16.7l13.5-1.4V164c0-8.9-3.4-13.6-10-13.6c-11.2-0.1-15.3,12.2-16.5,21.1h-0.4c-9-9.5-0.1-21.6,17.1-21.6
			c16.2,0,24.7,6,24.7,17.5v25.9C863,203,863.9,207.2,872.7,207.7z M848.2,191.9v-17.1c-2.3,0.2-4.6,0.6-6.9,0.8
			c-8.3,1.1-11.9,7.8-11.9,16.8c0,7.1,2.4,15,8.3,15C843.8,207.3,848.2,201.8,848.2,191.9z"/>
		<path d="M928.3,170.9v36.9h-15v-39.3c0-10.7-2.2-16-7.7-16c-6.4,0-12.2,6.8-13,22.4v32.9h-14.8v-50.1c5.7-0.8,11.1-3.9,14.8-7.5
			v19.1c1.7-12.1,7-19.5,19.3-19.5C922.7,149.8,928.2,157.2,928.3,170.9z"/>
		<path d="M991.1,214.2c0,13.3-16.5,17.7-25.5,17.7c-7.7,0-25.5-2.1-25.5-12.4c0-8.3,11-10.3,21.4-10.9l0.2,0.2
			c-5.7,0.8-8,5.2-8,10.6c0,5.6,5.1,12.1,11.8,12.1c8.2,0,12.8-5.2,12.8-11.9c0-7.8-4.6-11.6-13.6-12.7
			c-16.5-1.9-28.6-2.9-28.6-13.3c0-6.6,5.3-9.8,13.3-10.9c-4.7-2.8-8.3-7.2-8.3-13.8c0-13.5,14.8-19.2,24-19.2h0.1l0.4-0.2
			c9.2,0,17.1-12.4,18.2-21.3h0.4c8.7,11.8-2.7,21-17.1,21.7c9.2,0.6,22.1,6.4,22.1,19.1c0,13.4-14.8,17.7-24,17.7
			c-4.6,0-10.5-1.1-15.3-3.7c-3.9,1-6.9,2.7-6.9,5.9c0,3.7,5.3,4.3,24,6.8C984.1,198.1,991.1,205.2,991.1,214.2z M955.6,169.1
			c0,7.8,1.4,17.4,9.5,17.4s9.5-9.5,9.5-17.4c0-7.8-1.4-18.8-9.5-18.8C957.1,150.3,955.6,161.3,955.6,169.1z"/>
		<path d="M1045.5,186c-2.4,11.9-11.3,22.9-24.7,22.9c-15.9,0-25.3-13.6-25.3-29.4c0-15.9,10.4-29.6,26.7-29.6
			c15.3,0,22.1,12.7,22.2,24.9h-0.1l0.1,0.1H1010c0.2,13.6,6.8,22.7,18.6,22.8c7.2,0,14.1-4.6,16.3-11.7H1045.5z M1010,174v0.4h21.8
			c-0.1-12.5-2.5-24-10-24C1013.6,150.5,1010,161.7,1010,174z"/>
		<path d="M1089.3,174.9h-0.4c0-8.9-1.8-22.9-9-22.9c-8.7-0.1-11.2,14.8-11.7,27.3v28.6h-14.8v-50.1c5.7-0.8,11.1-3.9,14.8-7.5v23.2
			c1-11.9,4-23.5,14.4-23.5C1096.4,149.9,1098.3,165.4,1089.3,174.9z"/>
	</g>
</g>
<g>
	<g>
		<path class="st1" d="M63.3,133.7c6.8,17.2-5.7,27.3-21.4,27.2c-12.6-0.2-19.7-10-22.9-21.3c1.4,14.3,2,28.3-2.7,42.8
			c-5.2-0.1-10.5-0.2-15.7-0.3c0-23.6,0-47.2,0-70.7c6.1-0.7,11.8-3.6,15.7-7.4c-0.1,7.2,0.5,14.2,1.2,21
			c0.5-11.9,6.2-21.5,17.2-21.9C49,102.8,56.5,116.3,63.3,133.7z M46.3,133.4c-4.9-17.3-10-28-15.6-27.7c-7.2,0.2-14.2,9.6-12.3,27
			c1.8,16.1,10.7,26,18.9,26.2C44.1,158.8,51.3,150.4,46.3,133.4z"/>
		<path class="st1" d="M142.1,160.1c0,0.1,0,0.2,0,0.3c-16.1,2.5-23.8,0.4-28.6-10.7c1.7,6.4-2.5,11.7-13.6,11.7
			c-14,0-22.1-5.3-25.3-15.3c-2.6-9.2,4.3-14.2,16.1-15.6c4.4-0.4,8.8-0.9,13.2-1.4c-1.4-3.4-2.6-6.9-3.2-10.6
			c-1.6-9.7-2.5-15.7-9.8-15.5c-12.6,0.3-17.6,14.5-15.1,23.2c-0.1,0-0.3,0-0.4,0c-13.1-9.4-3.1-23.2,15.9-23.8
			c17.6-0.5,22.1,7.5,25.1,19.6c2.3,9.1,7.8,17.1,11.6,25C132.1,155.8,132.6,159.7,142.1,160.1z M111.7,145.8
			c-2.4-5.2-5.3-10.5-7.7-16.2c-2.2,0.3-4.4,0.6-6.6,0.8c-8.1,1.1-8.9,7.6-5.7,15.8c2.7,6.5,5.9,13.7,12.3,13.7
			C110.8,159.8,115.9,154.8,111.7,145.8z"/>
		<path class="st1" d="M167.3,129c-0.1,0-0.2,0-0.3,0c-5.9-8.4-2.2-25.1-8.4-25.3c-4.4,0-10.1,4.9-12.1,10.8
			c-2.2,6-0.6,13.1,2.6,19.1c5,9.2,11.8,17.6,12.9,26.5c-5.1,0-10.2,0.1-15.4,0.1c-1.2-15.6-19.7-29.6-17.3-49
			c5.8-1.1,11.9-4.7,18.2-9.4c-5.2,9.9-4.2,18.3-1,26.1c-5.5-11.7,4.5-26.5,16.4-26.8c7.6-0.2,7.6,4.8,7.5,10.6
			C169.9,117.6,169.3,124.3,167.3,129z"/>
		<path class="st1" d="M402.5,124.2c-0.1,0-0.2,0-0.3,0c-1.4-9.5,6.3-25.2-0.3-25.2c-10.3,0.2-26.9,17.1-23.7,29.9
			c1.3,10,6.5,19.9,10.2,30.8c-5.1-0.1-10.2-0.2-15.3-0.3c-7.1-18.7-19.7-34.5-5.9-53.2c7-1.1,15.5-4.6,23.8-8.8
			c-9.4,9-12.9,17.3-13.2,25.5c0.5-12.5,17.7-26,28.9-26.2C419.9,96.3,412.1,114,402.5,124.2z"/>
		<path class="st1" d="M231.8,138.3c7.2,13.5,0.9,22.1-11.8,22.3c-15-0.1-29.8-12.2-40.2-27.3c-4.7-7.8-3.2-15.7,3.8-22.1
			c6.6-6.3,18.8-10.9,28.1-11.1c15.3,0,12.7,14.9,7.8,24.3c-0.1,0-0.2,0-0.4,0c-5.1-8.3,1.5-23.6-7.5-23.7
			c-11.9,0.5-26.8,15.4-20.5,27c6.4,13.5,19.8,21.9,31.1,22c7.1-0.1,10.5-3.9,8.9-11.3C231.4,138.3,231.6,138.3,231.8,138.3
			C231.8,138.3,231.8,138.3,231.8,138.3z"/>
		<path class="st1" d="M233,131.9c-10.8-16.8,22-32.6,37.8-32.9c15.4-0.1,8.7,14.4,16.7,31.5c8.6,17.1,4.1,29.3-11,29.5
			C263.5,159.8,243.7,148.5,233,131.9z M271.4,130.9c-8.3-19.2,9.2-31.6-1.3-31.3c-8.2,0-31,12.8-21.5,31.9
			c11.5,18.6,20.3,27.9,27.7,28C285.7,159.4,282,149.7,271.4,130.9z"/>
		<path class="st1" d="M361.3,98.6c-26,22.4-9.2,39.4-0.8,60.5c-5-0.1-10-0.1-14.9-0.2c-3.1-7.5-7.6-14.5-10.7-21.4
			c5.1,13.4,3.7,22.5-7.6,22.5c-11.7-0.1-18.7-6.9-26.1-18.3c-6.4-10.7-11.2-21-2.1-33.3c6.6-1.1,15-4.6,24.2-9
			c-22.3,18.3-13.1,32.3-4.1,47.7c4,6.7,7.8,10,12.1,10c7.3,0,7.7-8.8,0.8-27.6c-1.7-7-1-14.2,4.8-21.9
			C343.6,106.5,352.2,103,361.3,98.6z"/>
		<path class="st1" d="M472.4,142.9c-0.4,14-15.1,20.5-24.3,20.1c-18.7-0.9-38-12.2-28.2-25.3c0.2,0,0.3,0,0.5,0
			c3.4,9.8,15.2,24.2,27.6,24.7c10.1,0.6,16-3.8,15.8-10c-0.3-7.2-7.9-9.3-20.6-13.7c-14.2-4.9-28.4-9.4-26.6-22.5
			c2.9-12.6,22.4-20.3,31-20.4c17.5-0.4,29.8,12.3,18,23.6c-0.2,0-0.3,0-0.5,0c-1-10.2-5.4-23.4-16.8-23c-11,0.1-19.4,6.3-21.2,11.6
			c-1.8,5.7,5.4,8,18.6,12.6C459.1,125.1,472.5,128.6,472.4,142.9z"/>
	</g>
</g>
<g>
	<path class="st0" d="M51,31.5L26.8,92L0.6,31.5h16.2l17,41.4l16.6-41.4H51z"/>
	<path class="st0" d="M51.9,60.9c0-18.6,14.4-31,29.5-31c15.1,0,29.5,12.4,29.5,31c0,18.5-14.4,30.9-29.5,30.9
		C66.3,91.8,51.9,79.4,51.9,60.9z M93.8,60.9c0-20.8-3.3-30.5-12.4-30.5S69,40.1,69,60.9c0,20.6,3.3,30.4,12.4,30.4
		S93.8,81.5,93.8,60.9z"/>
	<path class="st0" d="M120.4,14.3c0-4.8,4.2-8.7,9.8-8.7c5.7,0,9.8,3.9,9.8,8.7c0,4.9-4.1,8.7-9.8,8.7
		C124.6,23,120.4,19.2,120.4,14.3z M122.3,38.1c6-0.9,11.8-4.1,15.7-7.9v60.4h-15.7V38.1z"/>
	<path class="st0" d="M203,67.7c-3,15.1-13.4,24.1-26.5,24.1c-17.1,0-27.1-14.1-27.1-30.9c0-17.1,11-31,29.9-31
		c16.1,0,26.9,12.9,17.4,22.7h-0.4c-1.3-9-6.2-22.2-16.5-22.2c-10.6,0.1-15.2,12.4-15.2,24.8c0,14.4,6.5,24.7,19.5,24.8
		c7.7,0,14.3-4.1,18.1-12.3H203z"/>
	<path class="st0" d="M211.1,14.3c0-4.8,4.2-8.7,9.8-8.7c5.7,0,9.8,3.9,9.8,8.7c0,4.9-4.1,8.7-9.8,8.7
		C215.3,23,211.1,19.2,211.1,14.3z M213,38.1c6-0.9,11.8-4.1,15.7-7.9v60.4H213V38.1z"/>
	<path class="st0" d="M353.6,51.6v39h-16.1V43.4c0-7.1-1.8-10.8-6.7-10.8c-6.8,0-12,8.7-12,28.1v29.9h-16.2V43.4
		c0-7.1-1.8-10.8-6.7-10.8c-6.2,0-11,7.2-11.9,23.1v35h-15.6V38.1c6-0.9,11.7-4.1,15.6-7.9v19.1c1.6-12.2,6.6-19.6,18.6-19.6
		c11.7,0,15.8,7.2,16.2,20.9c1.4-12.9,6.3-20.9,18.7-20.9C349.3,29.7,353.5,37.3,353.6,51.6z"/>
	<path class="st0" d="M363,60.9c0-18.6,14.4-31,29.5-31s29.5,12.4,29.5,31c0,18.5-14.4,30.9-29.5,30.9S363,79.4,363,60.9z
		 M404.9,60.9c0-20.8-3.3-30.5-12.4-30.5c-9.1,0-12.4,9.8-12.4,30.5c0,20.6,3.3,30.4,12.4,30.4C401.6,91.3,404.9,81.5,404.9,60.9z"
		/>
	<path class="st0" d="M484.6,51.9v38.8h-15.7V49.3c0-11.3-2.3-16.8-8.1-16.8c-6.7,0-12.8,7.1-13.7,23.6v34.6h-15.6V38.1
		c6-0.9,11.7-4.1,15.6-7.9v20c1.8-12.7,7.3-20.5,20.3-20.5C478.6,29.7,484.5,37.4,484.6,51.9z"/>
</g>
</svg>
