<?xml version="1.0" encoding="utf-8"?>
<!-- Generator: Adobe Illustrator 24.0.1, SVG Export Plug-In . SVG Version: 6.00 Build 0)  -->
<svg version="1.1" id="Calque_1" xmlns="http://www.w3.org/2000/svg" xmlns:xlink="http://www.w3.org/1999/xlink" x="0px" y="0px"
	 viewBox="0 0 578 240.9" style="enable-background:new 0 0 578 240.9;" xml:space="preserve">
<style type="text/css">
	.st0{fill:none;stroke:#000000;}
	.st1{fill:none;stroke:#1D1D1B;stroke-miterlimit:10;}
	.st2{fill:#1D1D1B;}
</style>
<g>
	<g>
		<path d="M728.3,87.3V127h-16.1V84.8c0-11.5-2.3-17.3-8.3-17.3c-6.9,0-13.1,7.3-14,24.2v35.5h-16V41.4c6.1-1,11.9-4.3,16-8.2v52.4
			c1.8-13,7.5-21.1,20.8-21.1C722.3,64.6,728.2,72.5,728.3,87.3z"/>
		<path d="M791.8,103.6c-2.6,12.9-12.2,24.6-26.6,24.6c-17.1,0-27.3-14.6-27.3-31.7s11.2-31.8,28.7-31.8c16.5,0,23.8,13.6,23.9,26.7
			h-0.2l0.2,0.2h-37c0.2,14.6,7.3,24.4,20,24.6c7.8,0,15.2-5,17.5-12.6L791.8,103.6L791.8,103.6z M753.5,90.7v0.4H777
			c-0.2-13.5-2.7-25.9-10.8-25.9C757.4,65.4,753.5,77.5,753.5,90.7z"/>
		<path d="M800.1,41.4c6.1-1,11.9-4.3,16-8.2v93.9h-16V41.4z"/>
		<path d="M827.8,41.4c6.1-1,11.9-4.3,16-8.2v93.9h-16V41.4z"/>
		<path d="M853.5,96.6c0-19.1,14.8-31.8,30.3-31.8c15.4,0,30.3,12.7,30.3,31.8c0,19-14.8,31.7-30.3,31.7
			C868.4,128.2,853.5,115.5,853.5,96.6z M896.5,96.6c0-21.3-3.4-31.3-12.7-31.3c-9.4,0-12.7,10-12.7,31.3c0,21.1,3.4,31.1,12.7,31.1
			C893.1,127.8,896.5,117.8,896.5,96.6z"/>
	</g>
	<path class="st0" d="M691.2,198.2H691c-10.8,0-16.9-5-16.9-17.8v-40.7l-10.1,1.9v-0.4c10.8-2.3,18.2-17.5,18.7-27.8h0.4
		c4.4,3.5,6.9,8.3,5.8,12.9c-1,5-6.9,9.8-19.6,13.8l4.8-0.9l7.4-1.3l8.2-1.5l18.6-4.8v10l-18.4-4.8V178c0,7,3.1,10,8.1,10
		c5.7,0,9.6-5,11.9-12.6h0.6C708.1,187,704,198,691.2,198.2z"/>
	<path class="st0" d="M773.9,157.3V197h-16.1v-42.3c0-11.5-2.3-17.3-8.3-17.3c-6.9,0-13.1,7.3-14,24.2v35.5h-16v-85.8
		c6.1-1,11.9-4.3,16-8.2v52.4c1.8-13,7.5-21.1,20.8-21.1C767.8,134.5,773.8,142.4,773.9,157.3z"/>
	<path class="st0" d="M837.4,173.5c-2.6,12.9-12.2,24.6-26.6,24.6c-17.1,0-27.3-14.6-27.3-31.7s11.2-31.8,28.7-31.8
		c16.5,0,23.8,13.6,23.9,26.7l0,0l0.2,0.2h-37c0.2,14.6,7.3,24.4,20,24.6c7.8,0,15.2-5,17.5-12.6H837.4L837.4,173.5z M799.1,160.6
		v0.4h23.5c-0.2-13.5-2.7-25.9-10.8-25.9C803,135.3,799.1,147.4,799.1,160.6z"/>
	<path class="st0" d="M884.5,161.6h-0.4c0-9.6-1.9-24.7-9.8-24.7c-9.4-0.2-12.1,16-12.6,29.4V197h-16v-54c6.1-0.9,11.9-4.2,16-8.1
		v24.9c1-12.9,4.3-25.3,15.4-25.3C892.1,134.7,894.1,151.2,884.5,161.6z"/>
	<path class="st0" d="M947.7,173.5c-2.6,12.9-12.2,24.6-26.6,24.6c-17.1,0-27.3-14.6-27.3-31.7s11.2-31.8,28.7-31.8
		c16.5,0,23.8,13.6,23.9,26.7h-0.2l0.2,0.2h-37c0.2,14.6,7.3,24.4,20,24.6c7.8,0,15.2-5,17.5-12.6H947.7L947.7,173.5z M909.4,160.6
		v0.4h23.5c-0.2-13.5-2.7-25.9-10.8-25.9C913.3,135.3,909.4,147.4,909.4,160.6z"/>
	<g>
		<path d="M1094.8,257.4c0-3.3,2.6-5.9,5.9-5.9c3.3,0,5.8,2.7,5.8,5.9c0,3.3-2.6,5.9-5.8,5.9
			C1097.3,263.4,1094.8,260.8,1094.8,257.4z"/>
	</g>
	<g>
		<path d="M718.2,245.2c0,11.9-12.8,18.2-21.1,18.2c-17.3,0-31.4-9.4-20.5-21.7h0.4c1.2,8.9,8.7,21.4,20,21.2
			c8.9,0.1,14.2-4,14.2-9.3c0-6.3-5.9-7.7-15.8-11.5C684.1,238,674,233.9,674,222c0-11.5,11.8-17.7,20.7-17.7
			c18,0,27.3,11,18.2,20.6h-0.4c-0.6-8.8-5.4-20.3-16.9-20.1c-10.5-0.1-14.7,5.2-14.7,9.9c0,5.1,6.3,7.2,16.8,11.3
			C708.5,230.1,718.2,232.9,718.2,245.2z"/>
		<path d="M744.7,263.3L744.7,263.3c-10.1,0-15.8-4.6-15.8-16.5V209l-9.4,1.8v-0.4c10-2.2,16.9-16.3,17.4-25.8h0.4
			c4.1,3.3,6.4,7.7,5.4,11.9c-1,4.6-6.4,9.2-18.2,12.8l4.5-0.8l6.9-1.2l7.6-1.4l17.3-4.5v9.3l-17.1-4.5v38.4c0,6.5,2.9,9.3,7.5,9.3
			c5.3,0,8.9-4.6,11.1-11.7h0.6C760.4,252.9,756.6,263.2,744.7,263.3z"/>
		<path d="M805.8,229.3h-0.4c0-8.9-1.8-22.9-9-22.9c-8.7-0.1-11.2,14.8-11.7,27.3v28.6h-14.8v-50.1c5.7-0.8,11.1-3.9,14.8-7.5v23.2
			c1-11.9,4-23.5,14.4-23.5C812.9,204.3,814.9,219.8,805.8,229.3z"/>
		<path d="M872.7,262.1v0.2c-14.7,2.5-23.3,0.4-24.4-11.8c-0.8,7-4.5,12.8-14.2,12.8c-12.3,0-19.9-5.7-20.1-16.5
			c0.2-9.9,8.8-15.2,20.8-16.7l13.5-1.4v-10.3c0-8.9-3.4-13.6-10-13.6c-11.2-0.1-15.3,12.2-16.5,21.1h-0.4
			c-9-9.5-0.1-21.6,17.1-21.6c16.2,0,24.7,6,24.7,17.5v25.9C863,257.4,863.9,261.6,872.7,262.1z M848.2,246.3v-17.1
			c-2.3,0.2-4.6,0.6-6.9,0.8c-8.3,1.1-11.9,7.8-11.9,16.8c0,7.1,2.4,15,8.3,15C843.8,261.7,848.2,256.2,848.2,246.3z"/>
		<path d="M928.3,225.3v36.9h-15v-39.3c0-10.7-2.2-16-7.7-16c-6.4,0-12.2,6.8-13,22.4v32.9h-14.8v-50.1c5.7-0.8,11.1-3.9,14.8-7.5
			v19.1c1.7-12.1,7-19.5,19.3-19.5C922.7,204.2,928.2,211.6,928.3,225.3z"/>
		<path d="M991.1,268.6c0,13.3-16.5,17.7-25.5,17.7c-7.7,0-25.5-2.1-25.5-12.4c0-8.3,11-10.3,21.4-10.9l0.2,0.2
			c-5.7,0.8-8,5.2-8,10.6c0,5.6,5.1,12.1,11.8,12.1c8.2,0,12.8-5.2,12.8-11.9c0-7.8-4.6-11.6-13.6-12.7
			c-16.5-1.9-28.6-2.9-28.6-13.3c0-6.6,5.3-9.8,13.3-10.9c-4.7-2.8-8.3-7.2-8.3-13.8c0-13.5,14.8-19.2,24-19.2h0.1l0.4-0.2
			c9.2,0,17.1-12.4,18.2-21.3h0.4c8.7,11.8-2.7,21-17.1,21.7c9.2,0.6,22.1,6.4,22.1,19.1c0,13.4-14.8,17.7-24,17.7
			c-4.6,0-10.5-1.1-15.3-3.7c-3.9,1-6.9,2.7-6.9,5.9c0,3.7,5.3,4.3,24,6.8C984.1,252.5,991.1,259.6,991.1,268.6z M955.6,223.5
			c0,7.8,1.4,17.4,9.5,17.4c8.1,0,9.5-9.5,9.5-17.4c0-7.8-1.4-18.8-9.5-18.8C957.1,204.7,955.6,215.7,955.6,223.5z"/>
		<path d="M1045.5,240.4c-2.4,11.9-11.3,22.9-24.7,22.9c-15.9,0-25.3-13.6-25.3-29.4c0-15.9,10.4-29.6,26.7-29.6
			c15.3,0,22.1,12.7,22.2,24.9h-0.1l0.1,0.1H1010c0.2,13.6,6.8,22.7,18.6,22.8c7.2,0,14.1-4.6,16.3-11.7H1045.5z M1010,228.4v0.4
			h21.8c-0.1-12.5-2.5-24-10-24C1013.6,204.9,1010,216.1,1010,228.4z"/>
		<path d="M1089.3,229.3h-0.4c0-8.9-1.8-22.9-9-22.9c-8.7-0.1-11.2,14.8-11.7,27.3v28.6h-14.8v-50.1c5.7-0.8,11.1-3.9,14.8-7.5v23.2
			c1-11.9,4-23.5,14.4-23.5C1096.4,204.3,1098.3,219.8,1089.3,229.3z"/>
	</g>
</g>
<g>
	<path class="st1" d="M88.8,90v39.4H72.5V81.7c0-7.2-1.8-10.9-6.8-10.9c-6.9,0-12.1,8.8-12.1,28.4v30.2H37.3V81.7
		c0-7.2-1.8-10.9-6.8-10.9c-6.3,0-11.1,7.3-12,23.3v35.3H2.8v-53c6-0.9,11.8-4.1,15.7-7.9v19.3c1.7-12.3,6.6-19.8,18.8-19.8
		c11.8,0,16,7.3,16.4,21.1c1.4-13,6.4-21.1,18.9-21.1C84.4,67.9,88.6,75.5,88.8,90z"/>
	<path class="st1" d="M97.3,99.3c0-18.8,14.6-31.3,29.8-31.3s29.8,12.5,29.8,31.3c0,18.7-14.6,31.2-29.8,31.2S97.3,118,97.3,99.3z
		 M139.6,99.3c0-21-3.3-30.8-12.5-30.8s-12.5,9.8-12.5,30.8c0,20.8,3.3,30.7,12.5,30.7S139.6,120.1,139.6,99.3z"/>
	<path class="st1" d="M219.1,90.2v39.1h-15.8V87.7c0-11.4-2.3-17-8.2-17c-6.8,0-12.9,7.2-13.8,23.8v34.9h-15.7v-53
		c6-0.9,11.8-4.1,15.7-7.9v20.2c1.8-12.8,7.4-20.7,20.4-20.7C213.1,67.9,219,75.7,219.1,90.2z"/>
	<path class="st2" d="M60.8,169.2c-0.1,19.2-10.6,31.3-23.9,31.3c-10.9,0-16.7-11-18.4-23.5v47.9H2.8v-78.6c6-0.9,11.8-4.1,15.7-7.9
		v22.5c1.7-13.2,7.5-23,18.4-23C51.1,137.9,60.6,150,60.8,169.2z M44.4,169.2c0-19-5.9-29-11.5-29c-7.2,0-14.3,9.6-14.3,29
		c0,17.8,7.3,29,14.3,29C38.7,198.2,44.4,188.2,44.4,169.2z"/>
	<path class="st2" d="M129.8,199.2v0.3c-15.6,2.7-24.7,0.4-25.8-12.5c-0.9,7.4-4.7,13.5-15.1,13.5c-13,0-21.1-6-21.3-17.5
		c0.3-10.5,9.3-16.1,22-17.6l14.3-1.5v-10.9c0-9.5-3.6-14.4-10.6-14.4c-11.9-0.1-16.2,12.9-17.5,22.4h-0.4
		c-9.6-10.1-0.1-22.9,18.1-22.9c17.1,0,26.2,6.4,26.2,18.5V184C119.6,194.2,120.5,198.7,129.8,199.2z M103.8,182.5v-18.1
		c-2.4,0.3-4.9,0.6-7.3,0.9c-8.8,1.2-12.7,8.3-12.7,17.8c0,7.5,2.6,15.8,8.8,15.8C99.2,198.8,103.8,193,103.8,182.5z"/>
	<path class="st2" d="M172.3,164.5H172c0-9.5-1.9-24.3-9.6-24.3c-9.2-0.1-11.9,15.7-12.4,28.9v30.3h-15.7v-53
		c6-0.9,11.8-4.1,15.7-7.9v24.5c1-12.7,4.2-24.9,15.2-24.9C179.9,138,181.9,154.4,172.3,164.5z"/>
	<path class="st2" d="M237.9,176.2c-3.1,15.2-13.5,24.3-26.7,24.3c-17.3,0-27.4-14.2-27.4-31.2c0-17.3,11.1-31.3,30.2-31.3
		c16.2,0,27.1,13,17.5,22.9h-0.4c-1.3-9.1-6.3-22.4-16.6-22.4c-10.7,0.1-15.3,12.5-15.3,25.1c0,14.6,6.5,24.9,19.7,25
		c7.8,0,14.4-4.1,18.3-12.4H237.9z"/>
	<path class="st2" d="M243.3,169.3c0-18.8,14.6-31.3,29.8-31.3c15.2,0,29.8,12.5,29.8,31.3c0,18.7-14.6,31.2-29.8,31.2
		C257.8,200.5,243.3,188,243.3,169.3z M285.6,169.3c0-21-3.3-30.8-12.5-30.8s-12.5,9.8-12.5,30.8c0,20.8,3.3,30.7,12.5,30.7
		S285.6,190.1,285.6,169.3z"/>
	<path class="st2" d="M365.1,139.1v60.2h-15.8v-21.7c-1.8,14.1-8.4,22.9-20.3,22.9c-12.8,0-17.4-6.6-17.5-18.9l0.1-34.5
		c6-0.9,11.8-4.1,15.7-7.9v48.3c0,7,2.6,10.2,7.3,10.2c6.9,0,14.7-8.6,14.7-28.5v-22.1C355.2,146.2,361.1,143,365.1,139.1z"/>
	<path class="st2" d="M422.1,181.3c0,12.7-13.5,19.3-22.4,19.3c-18.3,0-33.2-10-21.7-23h0.4c1.3,9.5,9.2,22.6,21.2,22.5
		c9.5,0.1,15.1-4.2,15.1-9.8c0-6.6-6.3-8.2-16.7-12.1c-12-4.3-22.6-8.7-22.6-21.3c0-12.1,12.5-18.8,22-18.8
		c19,0,28.9,11.6,19.3,21.9h-0.4c-0.6-9.3-5.8-21.5-17.9-21.3c-11.1-0.1-15.6,5.5-15.6,10.5c0,5.4,6.6,7.7,17.8,12
		C411.8,165.3,422.1,168.3,422.1,181.3z"/>
</g>
</svg>
