<?xml version="1.0" encoding="utf-8"?>
<!-- Generator: Adobe Illustrator 24.0.1, SVG Export Plug-In . SVG Version: 6.00 Build 0)  -->
<svg version="1.1" id="Calque_1" xmlns="http://www.w3.org/2000/svg" xmlns:xlink="http://www.w3.org/1999/xlink" x="0px" y="0px"
	 viewBox="0 0 792 319.2" style="enable-background:new 0 0 792 319.2;" xml:space="preserve">
<style type="text/css">
	.st0{fill:none;stroke:#000000;stroke-miterlimit:10;}
</style>
<g>
	<path class="st0" d="M153.6,50.5v62.8h-25.9v-76c0-11.4-2.8-17.3-10.8-17.3c-11,0-19.4,14.1-19.4,45.2v48.1h-26v-76
		c0-11.4-2.9-17.3-10.8-17.3c-10,0-17.7,11.6-19.2,37.1v56.2h-25V28.7c9.6-1.4,18.8-6.5,25.1-12.6v30.8c2.7-19.6,10.6-31.6,30-31.6
		c18.8,0,25.5,11.6,26.1,33.6c2.2-20.8,10.2-33.6,30.2-33.6C146.7,15.3,153.4,27.5,153.6,50.5z"/>
	<path class="st0" d="M168.8,65.4c0-30,23.2-49.9,47.5-49.9s47.5,20,47.5,49.9c0,29.8-23.2,49.7-47.5,49.7S168.8,95.2,168.8,65.4z
		 M236.2,65.4c0-33.4-5.3-49.1-20-49.1s-20,15.7-20,49.1c0,33.2,5.3,48.9,20,48.9S236.2,98.6,236.2,65.4z"/>
	<path class="st0" d="M364.5,50.9v62.4h-25.3V46.9c0-18.1-3.7-27.1-13-27.1c-10.8,0-20.6,11.4-22,37.9v55.6h-25.1V28.7
		c9.6-1.4,18.8-6.5,25.1-12.6v32.2c2.9-20.4,11.8-33,32.6-33C354.9,15.3,364.3,27.7,364.5,50.9z"/>
</g>
<path d="M109.3,172.1c-0.2,30.7-17,50.1-38.2,50.1c-17.4,0-26.8-17.6-29.4-37.6v76.7H16.5V135.5c9.6-1.4,18.8-6.5,25.1-12.7v36
	C44.3,137.7,53.7,122,71,122C93.7,122,109.1,141.4,109.3,172.1z M83.1,172.1c0-30.5-9.4-46.4-18.4-46.4c-11.4,0-22.9,15.3-22.9,46.4
	c0,28.4,11.7,46.4,22.9,46.4C73.9,218.5,83.1,202.5,83.1,172.1z"/>
<g>
	<path d="M225.2,220.8v0.4c-25.5,4.4-40.3,0.6-42.1-20.4c-1.5,12.1-7.7,22.1-24.6,22.1c-21.2,0-34.4-9.8-34.8-28.5
		c0.4-17.1,15.2-26.3,35.9-28.8l23.3-2.5v-17.7c0-15.5-5.9-23.6-17.3-23.6c-19.3-0.2-26.5,21.1-28.5,36.5h-0.7
		c-15.6-16.5-0.2-37.3,29.6-37.3c27.9,0,42.7,10.4,42.7,30.3v44.8C208.6,212.7,210,220,225.2,220.8z M182.9,193.6V164
		c-4,0.4-7.9,1.1-11.9,1.5c-14.4,1.9-20.7,13.6-20.7,28.9c0,12.3,4.1,25.9,14.4,25.9C175.5,220.2,182.9,210.6,182.9,193.6z"/>
	<path d="M296.2,164.1h-0.7c0-15.5-3.1-39.6-15.6-39.6c-15-0.2-19.3,25.6-20.3,47.1V221H234v-86.6c9.8-1.5,19.2-6.7,25.6-12.9v40
		c1.7-20.7,6.9-40.7,24.8-40.7C308.5,121,311.8,147.7,296.2,164.1z"/>
	<path d="M399.4,183.3c-5,24.8-22.1,39.6-43.6,39.6c-28.1,0-44.6-23.1-44.6-50.8c0-28.1,18.1-51.1,49.2-51.1
		c26.5,0,44.2,21.2,28.5,37.3h-0.7c-2.1-14.8-10.3-36.5-27.1-36.5c-17.5,0.2-25,20.4-25,40.8c0,23.8,10.7,40.7,32.1,40.8
		c12.7,0,23.6-6.7,29.8-20.3L399.4,183.3L399.4,183.3z"/>
	<path d="M407.6,172.1c0-30.7,23.7-51.1,48.5-51.1s48.5,20.4,48.5,51.1c0,30.4-23.7,50.8-48.5,50.8
		C431.3,222.9,407.6,202.5,407.6,172.1z M476.5,172.1c0-34.1-5.5-50.3-20.4-50.3c-15,0-20.4,16-20.4,50.3c0,34,5.4,50,20.4,50
		C471.2,222.1,476.5,206.1,476.5,172.1z"/>
	<path d="M607.7,122.9v98.2h-25.9v-35.5c-2.9,22.9-13.7,37.3-33.1,37.3c-20.8,0-28.4-10.8-28.5-30.8l0.2-56.3
		c9.8-1.5,19.2-6.7,25.6-12.9v78.8c0,11.5,4.1,16.7,11.9,16.7c11.2,0,24-14,24-46.5v-36C591.7,134.3,601.3,129.1,607.7,122.9z"/>
	<path d="M688.7,164.1H688c0-15.5-3.1-39.6-15.6-39.6c-15-0.2-19.3,25.6-20.3,47.1V221h-25.6v-86.6c9.8-1.5,19.2-6.7,25.6-12.9v40
		c1.7-20.7,6.9-40.7,24.8-40.7C701,121,704.3,147.7,688.7,164.1z"/>
	<path d="M784,191.7c0,20.7-22.1,31.5-36.5,31.5c-29.8,0-54.2-16.3-35.5-37.5h0.7c2.1,15.5,15,36.9,34.6,36.7
		c15.5,0.2,24.6-6.9,24.6-16c0-10.8-10.3-13.3-27.3-19.8c-19.6-7.1-36.9-14.2-36.9-34.8c0-19.8,20.4-30.7,35.9-30.7
		c31.1,0,47.1,18.9,31.5,35.6h-0.6c-1.1-15.2-9.4-35.1-29.2-34.8c-18.1-0.2-25.5,8.9-25.5,17.1c0,8.8,10.8,12.5,28.9,19.6
		C767.3,165.6,784,170.4,784,191.7z"/>
</g>
</svg>
