<?xml version="1.0" encoding="utf-8"?>
<!-- Generator: Adobe Illustrator 24.0.1, SVG Export Plug-In . SVG Version: 6.00 Build 0)  -->
<svg version="1.1" id="Calque_1" xmlns="http://www.w3.org/2000/svg" xmlns:xlink="http://www.w3.org/1999/xlink" x="0px" y="0px"
	 viewBox="0 0 578 886.3" style="enable-background:new 0 0 578 886.3;" xml:space="preserve">
<style type="text/css">
	.st0{fill:#1D1D1B;}
	.st1{fill:none;stroke:#000000;}
</style>
<g>
	<g>
		<path class="st0" d="M62.7,282.8C69.5,300,57,310.1,41.3,310c-12.6-0.2-19.7-10-22.9-21.3c1.4,14.3,2,28.3-2.7,42.8
			c-5.2-0.1-10.5-0.2-15.7-0.3c0-23.6,0-47.2,0-70.7c6.1-0.7,11.8-3.6,15.7-7.4c-0.1,7.2,0.5,14.2,1.2,21
			c0.5-11.9,6.2-21.5,17.2-21.9C48.4,251.9,55.9,265.4,62.7,282.8z M45.7,282.5c-4.9-17.3-10-28-15.6-27.7
			c-7.2,0.2-14.2,9.6-12.3,27c1.8,16.1,10.7,26,18.9,26.2C43.5,307.9,50.7,299.5,45.7,282.5z"/>
		<path class="st0" d="M141.5,309.2c0,0.1,0,0.2,0,0.3c-16.1,2.5-23.8,0.4-28.6-10.7c1.7,6.4-2.5,11.7-13.6,11.7
			c-14,0-22.1-5.3-25.3-15.3c-2.6-9.2,4.3-14.2,16.1-15.6c4.4-0.4,8.8-0.9,13.2-1.4c-1.4-3.4-2.6-6.9-3.2-10.6
			c-1.6-9.7-2.5-15.7-9.8-15.5c-12.6,0.3-17.6,14.5-15.1,23.2c-0.1,0-0.3,0-0.4,0c-13.1-9.4-3.1-23.2,15.9-23.8
			c17.6-0.5,22.1,7.5,25.1,19.6c2.3,9.1,7.8,17.1,11.6,25C131.5,304.9,132,308.8,141.5,309.2z M111.1,294.9
			c-2.4-5.2-5.3-10.5-7.7-16.2c-2.2,0.3-4.4,0.6-6.6,0.8c-8.1,1.1-8.9,7.6-5.7,15.8c2.7,6.5,5.9,13.7,12.3,13.7
			C110.2,308.9,115.3,303.9,111.1,294.9z"/>
		<path class="st0" d="M166.7,278.1c-0.1,0-0.2,0-0.3,0c-5.9-8.4-2.2-25.1-8.4-25.3c-4.4,0-10.1,4.9-12.1,10.8
			c-2.2,6-0.6,13.1,2.6,19.1c5,9.2,11.8,17.6,12.9,26.5c-5.1,0-10.2,0.1-15.4,0.1c-1.2-15.6-19.7-29.6-17.3-49
			c5.8-1.1,11.9-4.7,18.2-9.4c-5.2,9.9-4.2,18.3-1,26.1c-5.5-11.7,4.5-26.5,16.4-26.8c7.6-0.2,7.6,4.8,7.5,10.6
			C169.3,266.7,168.7,273.4,166.7,278.1z"/>
		<path class="st0" d="M401.9,273.3c-0.1,0-0.2,0-0.3,0c-1.4-9.5,6.3-25.2-0.3-25.2c-10.3,0.2-26.9,17.1-23.7,29.9
			c1.3,10,6.5,19.9,10.2,30.8c-5.1-0.1-10.2-0.2-15.3-0.3c-7.1-18.7-19.7-34.5-5.9-53.2c7-1.1,15.5-4.6,23.8-8.8
			c-9.4,9-12.9,17.3-13.2,25.5c0.5-12.5,17.7-26,28.9-26.2C419.3,245.4,411.5,263.1,401.9,273.3z"/>
		<path class="st0" d="M231.2,287.4c7.2,13.5,0.9,22.1-11.8,22.3c-15-0.1-29.8-12.2-40.2-27.3c-4.7-7.8-3.2-15.7,3.8-22.1
			c6.6-6.3,18.8-10.9,28.1-11.1c15.3,0,12.7,14.9,7.8,24.3c-0.1,0-0.2,0-0.4,0c-5.1-8.3,1.5-23.6-7.5-23.7
			c-11.9,0.5-26.8,15.4-20.5,27c6.4,13.5,19.8,21.9,31.1,22c7.1-0.1,10.5-3.9,8.9-11.3C230.8,287.4,231,287.4,231.2,287.4
			L231.2,287.4z"/>
		<path class="st0" d="M232.4,281c-10.8-16.8,22-32.6,37.8-32.9c15.4-0.1,8.7,14.4,16.7,31.5c8.6,17.1,4.1,29.3-11,29.5
			C262.9,308.9,243.1,297.6,232.4,281z M270.8,280c-8.3-19.2,9.2-31.6-1.3-31.3c-8.2,0-31,12.8-21.5,31.9
			c11.5,18.6,20.3,27.9,27.7,28C285.1,308.5,281.4,298.8,270.8,280z"/>
		<path class="st0" d="M360.7,247.7c-26,22.4-9.2,39.4-0.8,60.5c-5-0.1-10-0.1-14.9-0.2c-3.1-7.5-7.6-14.5-10.7-21.4
			c5.1,13.4,3.7,22.5-7.6,22.5c-11.7-0.1-18.7-6.9-26.1-18.3c-6.4-10.7-11.2-21-2.1-33.3c6.6-1.1,15-4.6,24.2-9
			c-22.3,18.3-13.1,32.3-4.1,47.7c4,6.7,7.8,10,12.1,10c7.3,0,7.7-8.8,0.8-27.6c-1.7-7-1-14.2,4.8-21.9
			C343,255.6,351.6,252.1,360.7,247.7z"/>
		<path class="st0" d="M471.8,292c-0.4,14-15.1,20.5-24.3,20.1c-18.7-0.9-38-12.2-28.2-25.3c0.2,0,0.3,0,0.5,0
			c3.4,9.8,15.2,24.2,27.6,24.7c10.1,0.6,16-3.8,15.8-10c-0.3-7.2-7.9-9.3-20.6-13.7c-14.2-4.9-28.4-9.4-26.6-22.5
			c2.9-12.6,22.4-20.3,31-20.4c17.5-0.4,29.8,12.3,18,23.6c-0.2,0-0.3,0-0.5,0c-1-10.2-5.4-23.4-16.8-23c-11,0.1-19.4,6.3-21.2,11.6
			c-1.8,5.7,5.4,8,18.6,12.6C458.5,274.2,471.9,277.7,471.8,292z"/>
	</g>
</g>
<g>
	<path class="st1" d="M50.4,180.6l-24.2,60.5L0,180.6h16.2l17,41.4l16.6-41.4H50.4z"/>
	<path class="st1" d="M51.3,210c0-18.6,14.4-31,29.5-31s29.5,12.4,29.5,31c0,18.5-14.4,30.9-29.5,30.9S51.3,228.5,51.3,210z
		 M93.2,210c0-20.8-3.3-30.5-12.4-30.5s-12.4,9.7-12.4,30.5c0,20.6,3.3,30.4,12.4,30.4S93.2,230.6,93.2,210z"/>
	<path class="st1" d="M119.8,163.4c0-4.8,4.2-8.7,9.8-8.7c5.7,0,9.8,3.9,9.8,8.7c0,4.9-4.1,8.7-9.8,8.7
		C124,172.1,119.8,168.3,119.8,163.4z M121.7,187.2c6-0.9,11.8-4.1,15.7-7.9v60.4h-15.7V187.2z"/>
	<path class="st1" d="M202.4,216.8c-3,15.1-13.4,24.1-26.5,24.1c-17.1,0-27.1-14.1-27.1-30.9c0-17.1,11-31,29.9-31
		c16.1,0,26.9,12.9,17.4,22.7h-0.4c-1.3-9-6.2-22.2-16.5-22.2c-10.6,0.1-15.2,12.4-15.2,24.8c0,14.4,6.5,24.7,19.5,24.8
		c7.7,0,14.3-4.1,18.1-12.3C201.6,216.8,202.4,216.8,202.4,216.8z"/>
	<path class="st1" d="M210.5,163.4c0-4.8,4.2-8.7,9.8-8.7c5.7,0,9.8,3.9,9.8,8.7c0,4.9-4.1,8.7-9.8,8.7
		C214.7,172.1,210.5,168.3,210.5,163.4z M212.4,187.2c6-0.9,11.8-4.1,15.7-7.9v60.4h-15.7V187.2z"/>
	<path class="st1" d="M353,200.7v39h-16.1v-47.2c0-7.1-1.8-10.8-6.7-10.8c-6.8,0-12,8.7-12,28.1v29.9H302v-47.2
		c0-7.1-1.8-10.8-6.7-10.8c-6.2,0-11,7.2-11.9,23.1v35h-15.6v-52.6c6-0.9,11.7-4.1,15.6-7.9v19.1c1.6-12.2,6.6-19.6,18.6-19.6
		c11.7,0,15.8,7.2,16.2,20.9c1.4-12.9,6.3-20.9,18.7-20.9C348.7,178.8,352.9,186.4,353,200.7z"/>
	<path class="st1" d="M362.4,210c0-18.6,14.4-31,29.5-31s29.5,12.4,29.5,31c0,18.5-14.4,30.9-29.5,30.9S362.4,228.5,362.4,210z
		 M404.3,210c0-20.8-3.3-30.5-12.4-30.5s-12.4,9.8-12.4,30.5c0,20.6,3.3,30.4,12.4,30.4S404.3,230.6,404.3,210z"/>
	<path class="st1" d="M484,201v38.8h-15.7v-41.4c0-11.3-2.3-16.8-8.1-16.8c-6.7,0-12.8,7.1-13.7,23.6v34.6h-15.6v-52.6
		c6-0.9,11.7-4.1,15.6-7.9v20c1.8-12.7,7.3-20.5,20.3-20.5C478,178.8,483.9,186.5,484,201z"/>
</g>
<g>
	<path class="st1" d="M53.2,77.1c-2.6,12.7-12,24.4-26.3,24.4C10,101.5,0,87,0,70.2c0-16.9,11-31.4,28.3-31.4
		c16.3,0,23.5,13.5,23.6,26.4h-0.1l0.1,0.1H15.4c0.3,14.5,7.2,24.1,19.7,24.2c7.7,0,15-4.9,17.3-12.4H53.2z M15.4,64.4v0.4h23.2
		C38.5,51.5,35.9,39.3,28,39.3C19.2,39.5,15.4,51.4,15.4,64.4z"/>
	<path class="st1" d="M80.1,101.5L80.1,101.5c-10.7,0-16.8-4.9-16.8-17.6V43.8l-10,1.9v-0.4C64,43,71.3,28,71.8,17.9h0.4
		c4.4,3.5,6.8,8.2,5.8,12.7c-1,4.9-6.8,9.7-19.4,13.6l4.7-0.9l7.3-1.3l8.1-1.5L97,35.7v9.9l-18.2-4.7v40.8c0,6.9,3.1,9.9,7.9,9.9
		c5.6,0,9.5-4.9,11.8-12.4h0.6C96.8,90.5,92.7,101.4,80.1,101.5z"/>
	<path class="st1" d="M192.9,70.1c-0.1,19.2-10.6,31.4-24,31.4c-10.9,0-16.8-11-18.5-23.6V126h-15.8V47.1c6-0.9,11.8-4.1,15.8-7.9
		v22.6c1.7-13.2,7.6-23.1,18.5-23.1C183.1,38.7,192.8,50.9,192.9,70.1z M176.5,70.1C176.5,51,170.6,41,165,41
		c-7.2,0-14.4,9.6-14.4,29.1c0,17.8,7.3,29.1,14.4,29.1C170.7,99.2,176.5,89.2,176.5,70.1z"/>
	<path class="st1" d="M200.6,70.2c0-18.8,14.6-31.4,29.9-31.4s29.9,12.6,29.9,31.4c0,18.7-14.6,31.3-29.9,31.3
		S200.6,88.9,200.6,70.2z M243,70.2c0-21-3.3-30.9-12.6-30.9s-12.6,9.9-12.6,30.9c0,20.9,3.3,30.8,12.6,30.8S243,91.1,243,70.2z"/>
	<path class="st1" d="M323.6,40v60.4h-15.9V78.5c-1.8,14.1-8.5,22.9-20.4,22.9c-12.8,0-17.4-6.7-17.6-19l0.1-34.6
		c6-0.9,11.8-4.1,15.8-7.9v48.4c0,7,2.6,10.3,7.3,10.3c6.9,0,14.7-8.6,14.7-28.6V47.9C313.7,47,319.6,43.8,323.6,40z"/>
	<path class="st1" d="M373.3,65.3h-0.4c0-9.5-1.9-24.4-9.6-24.4c-9.2-0.1-11.9,15.8-12.4,29v30.4h-15.8V47.1
		c6-0.9,11.8-4.1,15.8-7.9v24.6c1-12.7,4.2-25,15.3-25C380.9,38.8,382.9,55.2,373.3,65.3z"/>
	<path class="st1" d="M465.6,77.1c-2.6,12.7-12,24.4-26.3,24.4c-16.9,0-26.9-14.5-26.9-31.3c0-16.9,11-31.4,28.3-31.4
		c16.3,0,23.5,13.5,23.6,26.4h-0.1l0.1,0.1h-36.5c0.3,14.5,7.2,24.1,19.7,24.2c7.7,0,15-4.9,17.3-12.4H465.6z M427.8,64.4v0.4H451
		c-0.1-13.3-2.7-25.5-10.6-25.5C431.6,39.5,427.8,51.4,427.8,64.4z"/>
	<path class="st1" d="M527.5,61.1v39.2h-15.9V58.5c0-11.4-2.3-17-8.2-17c-6.8,0-12.9,7.2-13.8,23.8v35h-15.8V47.1
		c6-0.9,11.8-4.1,15.8-7.9v20.2c1.8-12.8,7.4-20.8,20.5-20.8C521.5,38.7,527.4,46.5,527.5,61.1z"/>
	<path class="st1" d="M48.4,152.3c0,12.7-13.6,19.4-22.4,19.4c-18.3,0-33.3-10-21.8-23.1h0.4c1.3,9.5,9.2,22.7,21.3,22.6
		c9.5,0.1,15.1-4.2,15.1-9.9c0-6.7-6.3-8.2-16.8-12.2c-12-4.4-22.7-8.7-22.7-21.4c0-12.2,12.6-18.8,22-18.8
		c19.1,0,29,11.7,19.4,21.9h-0.4c-0.6-9.4-5.8-21.5-17.9-21.4C13.5,109.2,9,114.8,9,119.8c0,5.4,6.7,7.7,17.8,12
		C38.2,136.2,48.4,139.2,48.4,152.3z"/>
	<path class="st1" d="M117.5,170.2v0.3c-15.6,2.7-24.7,0.4-25.9-12.6c-0.9,7.4-4.7,13.6-15.1,13.6c-13.1,0-21.1-6-21.4-17.6
		c0.3-10.5,9.4-16.1,22-17.7l14.4-1.5v-10.9c0-9.5-3.6-14.5-10.6-14.5c-11.9-0.1-16.3,12.9-17.6,22.4h-0.4
		c-9.6-10.1-0.1-22.9,18.2-22.9c17.2,0,26.3,6.4,26.3,18.6V155C107.3,165.2,108.2,169.7,117.5,170.2z M91.5,153.4v-18.2
		c-2.4,0.3-4.9,0.6-7.3,0.9c-8.8,1.2-12.7,8.3-12.7,17.8c0,7.6,2.6,15.9,8.8,15.9C86.9,169.8,91.5,163.9,91.5,153.4z"/>
	<path class="st1" d="M162.9,110.5l-24.5,61.3l-26.5-61.3h16.4l17.2,41.9l16.8-41.9C162.3,110.5,162.9,110.5,162.9,110.5z"/>
	<path class="st1" d="M163.8,140.2c0-18.8,14.6-31.4,29.9-31.4s29.9,12.6,29.9,31.4c0,18.7-14.6,31.3-29.9,31.3
		S163.8,158.9,163.8,140.2z M206.2,140.2c0-21-3.3-30.9-12.6-30.9s-12.6,9.9-12.6,30.9c0,20.9,3.3,30.8,12.6,30.8
		S206.2,161.1,206.2,140.2z"/>
	<path class="st1" d="M233.1,93c0-4.9,4.2-8.8,9.9-8.8c5.8,0,9.9,4,9.9,8.8c0,5-4.1,8.8-9.9,8.8C237.4,101.9,233.1,98,233.1,93z
		 M235,117.1c6-0.9,11.9-4.1,15.9-7.9v61.1H235V117.1z"/>
	<path class="st1" d="M302.6,135.3h-0.4c0-9.5-1.9-24.4-9.6-24.4c-9.2-0.1-11.9,15.8-12.4,29v30.4h-15.8v-53.2
		c6-0.9,11.8-4.1,15.8-7.9v24.6c1-12.7,4.2-25,15.3-25C310.1,108.8,312.2,125.2,302.6,135.3z"/>
	<path class="st1" d="M401.8,140.1c-0.1,19.2-10.6,31.4-24,31.4c-10.9,0-16.8-11-18.5-23.6V196h-15.8v-78.8c6-0.9,11.8-4.1,15.8-7.9
		v22.6c1.7-13.2,7.6-23.1,18.5-23.1C392,108.7,401.6,120.9,401.8,140.1z M385.4,140.1c0-19.1-5.9-29.1-11.5-29.1
		c-7.2,0-14.4,9.6-14.4,29.1c0,17.8,7.3,29.1,14.4,29.1C379.6,169.2,385.4,159.2,385.4,140.1z"/>
	<path class="st1" d="M411.4,85.7c6-1,11.8-4.2,15.8-8.1v92.7h-15.8V85.7z"/>
	<path class="st1" d="M492.4,110v60.4h-15.9v-21.8c-1.8,14.1-8.5,22.9-20.4,22.9c-12.8,0-17.4-6.7-17.6-19l0.1-34.6
		c6-0.9,11.8-4.1,15.8-7.9v48.4c0,7,2.6,10.3,7.3,10.3c6.9,0,14.7-8.6,14.7-28.6v-22.2C482.5,117,488.4,113.8,492.4,110z"/>
	<path class="st1" d="M550.4,152.3c0,12.7-13.6,19.4-22.4,19.4c-18.3,0-33.3-10-21.8-23.1h0.4c1.3,9.5,9.2,22.7,21.3,22.6
		c9.5,0.1,15.1-4.2,15.1-9.9c0-6.7-6.3-8.2-16.8-12.2c-12-4.4-22.7-8.7-22.7-21.4c0-12.2,12.6-18.8,22-18.8
		c19.1,0,29,11.7,19.4,21.9h-0.4c-0.6-9.4-5.8-21.5-17.9-21.4c-11.1-0.1-15.6,5.5-15.6,10.5c0,5.4,6.7,7.7,17.8,12
		C540.2,136.2,550.4,139.2,550.4,152.3z"/>
</g>
<text transform="matrix(1 0 0 1 1074.2866 401.0872)" style="font-family:'Orelo-StandardBold'; font-size:126.6481px;">je fais un </text>
<text transform="matrix(1 0 0 1 1074.2866 491.0872)" style="font-family:'Orelo-StandardBold'; font-size:126.6481px;">double</text>
<text transform="matrix(1 0 0 1 1074.2866 581.0872)" style="font-family:'Orelo-StandardBold'; font-size:126.6481px;">mba</text>
<text transform="matrix(1 0 0 1 1074.2866 671.0872)" style="font-family:'Orelo-StandardBold'; font-size:126.6481px;">création &amp; </text>
<text transform="matrix(1 0 0 1 1074.2866 761.0872)" style="font-family:'Orelo-StandardBold'; font-size:126.6481px;">stratégie </text>
<text transform="matrix(1 0 0 1 1074.2866 851.0872)" style="font-family:'Orelo-StandardBold'; font-size:126.6481px;">publicitaire </text>
<text transform="matrix(1 0 0 1 1074.2866 941.0872)" style="font-family:'Orelo-StandardBold'; font-size:126.6481px;">(efap paris) </text>
<text transform="matrix(1 0 0 1 1074.2866 1031.0872)" style="font-family:'Orelo-StandardBold'; font-size:126.6481px;">et advanced </text>
<text transform="matrix(1 0 0 1 1074.2866 1121.0872)" style="font-family:'Orelo-StandardBold'; font-size:126.6481px;">advertising </text>
<text transform="matrix(1 0 0 1 1074.2866 1211.0872)" style="font-family:'Orelo-StandardBold'; font-size:126.6481px;">certificate </text>
<text transform="matrix(1 0 0 1 1074.2866 1301.0872)" style="font-family:'Orelo-StandardBold'; font-size:126.6481px;">(berghs </text>
<text transform="matrix(1 0 0 1 1074.2866 1391.0872)" style="font-family:'Orelo-StandardBold'; font-size:126.6481px;">school of </text>
<text transform="matrix(1 0 0 1 1074.2866 1481.0872)" style="font-family:'Orelo-StandardBold'; font-size:126.6481px;">communication</text>
<text transform="matrix(1 0 0 1 1074.2866 1571.0872)" style="font-family:'Orelo-StandardBold'; font-size:126.6481px;">stockholm)</text>
<g>
	<path class="st1" d="M23.8,329c5.3-1,9.9-3.5,14.9-7.4V386c0,11.4-5.6,18.2-16.7,18.2c-12.3,0-17.3-9.4-18.9-18.2h0.7
		c1.6,5.2,5.4,8.6,11.3,8.6s8.7-4.1,8.7-10.9C23.8,383.7,23.8,329,23.8,329z M21.2,306.4c0-4.6,4-8.3,9.3-8.3c5.4,0,9.4,3.8,9.4,8.3
		c0,4.7-4,8.3-9.4,8.3C25.2,314.7,21.2,311.1,21.2,306.4z"/>
	<path class="st1" d="M97,357.4c-2.4,12-11.4,23-24.8,23c-16,0-25.4-13.7-25.4-29.5c0-16,10.4-29.6,26.7-29.6
		c15.4,0,22.1,12.7,22.3,24.9h-0.1l0.1,0.1H61.3C61.5,360,68,369,79.9,369.2c7.3,0,14.2-4.6,16.3-11.7H97V357.4z M61.3,345.4v0.4
		h21.9c-0.1-12.6-2.5-24.1-10-24.1C64.9,321.9,61.3,333.1,61.3,345.4z"/>
	<path class="st1" d="M148.5,311.8v11h0.4l20.4-0.8v9.3l-20.4-8.1h-0.4v56.1h-15v-56.1h-9v-0.4h9v-6.5c0-16.7,7.9-22.7,22.3-22.7
		c15,0,22.7,12.6,13.7,21.7h-0.4c-1.2-8.6-4.1-21.3-13.1-21.3C148,293.9,148.5,304.6,148.5,311.8z"/>
	<path class="st1" d="M228.5,379.2v0.2c-14.8,2.5-23.4,0.4-24.4-11.9c-0.8,7-4.5,12.8-14.3,12.8c-12.3,0-20-5.7-20.2-16.6
		c0.2-9.9,8.8-15.2,20.8-16.7l13.6-1.5v-10.3c0-9-3.4-13.7-10-13.7c-11.3-0.1-15.4,12.2-16.6,21.2H177c-9.1-9.6-0.1-21.7,17.2-21.7
		c16.2,0,24.8,6.1,24.8,17.5v26C218.8,374.5,219.7,378.7,228.5,379.2z M203.9,363.4v-17.2c-2.3,0.2-4.6,0.6-6.9,0.8
		c-8.3,1.1-12,7.9-12,16.8c0,7.1,2.4,15,8.3,15C199.6,378.8,203.9,373.3,203.9,363.4z"/>
	<path class="st1" d="M233.6,306.4c0-4.6,4-8.3,9.3-8.3c5.4,0,9.3,3.8,9.3,8.3c0,4.7-3.9,8.3-9.3,8.3
		C237.6,314.7,233.6,311.1,233.6,306.4z M235.4,329.1c5.7-0.8,11.3-3.9,15-7.5v57.7h-15V329.1z"/>
	<path class="st1" d="M307,362.3c0,12-12.8,18.3-21.2,18.3c-17.3,0-31.5-9.4-20.6-21.8h0.4c1.2,9,8.7,21.4,20.1,21.3
		c9,0.1,14.3-4,14.3-9.3c0-6.3-5.9-7.7-15.9-11.5c-11.4-4.1-21.4-8.2-21.4-20.2c0-11.5,11.9-17.8,20.8-17.8c18,0,27.3,11,18.3,20.7
		h-0.4c-0.6-8.8-5.4-20.3-16.9-20.2c-10.5-0.1-14.8,5.2-14.8,9.9c0,5.1,6.3,7.3,16.8,11.4C297.3,347.1,307,349.9,307,362.3z"/>
	<path class="st1" d="M392,322.3v57h-15v-20.6c-1.7,13.3-8,21.7-19.2,21.7c-12.1,0-16.5-6.3-16.6-17.9l0.1-32.7
		c5.7-0.8,11.1-3.9,14.9-7.5V368c0,6.7,2.4,9.7,6.9,9.7c6.5,0,13.9-8.1,13.9-27v-20.9C382.6,329,388.2,326,392,322.3z"/>
	<path class="st1" d="M453.5,342.3v37h-15v-39.4c0-10.8-2.2-16.1-7.7-16.1c-6.4,0-12.2,6.8-13.1,22.5v33h-14.9v-50.2
		c5.7-0.8,11.1-3.9,14.9-7.5v19.1c1.7-12.1,7-19.6,19.4-19.6C447.9,321.1,453.4,328.5,453.5,342.3z"/>
	<g>
		<path class="st0" d="M55.5,357.8c0,29.2,0,58.3,0,87.5c-5.2,0-10.3-0.1-15.3-0.2c-2.7-8.6-3.8-15.3-4-21.2
			c-1.7,8.6-2.7,21.4-13,22.6c-6.6,0.4-12.1-5.7-15.9-10.7c-3.9-5.5-6.1-10-6.6-18.9c-0.2-9.1,3.9-19.4,9.1-24.6
			c5.3-5.6,11.6-6.1,16.8-3.3c8.1,4.6,10.2,13.3,10.4,23c1.6-11,4.9-22.1,4.3-42.4C46.4,367.9,51.7,361.5,55.5,357.8z M36.3,417.9
			c1.1-14-1.9-22.6-7-25.7c-4-2-10,1.7-12.7,17.7c-2.9,16.3,4.1,33.4,9.6,33.2C32.9,442.3,35.2,430.1,36.3,417.9z"/>
	</g>
	<g>
		<path class="st0" d="M64.6,416.9c-0.1-9.9,6.5-16.7,11.4-21.4c5.5-4.7,9.1-7.3,16.8-8.2c8-0.5,14.8,6,19.5,11
			c4.8,5.6,7.7,9.6,8.6,18.7c0.1,9.9-6.5,16.6-11.4,21.3c-5.5,4.7-9.1,7.3-16.8,8.2c-8,0.5-14.8-6-19.5-11
			C68.4,429.9,65.6,425.9,64.6,416.9z M101.9,419.8c5.9-14.3,0.6-32-8.8-31.8c-8.9,0.8-4.1,12.3-9.4,26c-5.9,14.3-0.6,31.9,8.9,31.7
			C101.5,444.9,96.7,433.3,101.9,419.8z"/>
	</g>
	<g>
		<path class="st0" d="M180.7,388.3c0,19,0,38,0,57c-5.4,0-10.6-0.1-15.6-0.3c-3.6-8.4-3.9-14.1-3.1-19.3
			c-3.7,8.6-3.9,19.6-15.5,20.7c-12.4-1.4-16.1-7.5-16.6-17.9c0-10.9,0.2-21.8,0.2-32.7c8.2-1.3,13.2-2.8,14.8-7.5
			c8.8,19.5,0.8,24.4-0.7,41.3c-0.7,7.5,2.4,12.7,6.6,12.7c6.6-0.7,8.1-9.7,12.5-22.6c1.5-5.4,3.3-11.3,3.2-20.3
			C171.4,398.4,177,392.1,180.7,388.3z"/>
	</g>
	<g>
		<path class="st0" d="M246.6,416.8c-0.2,9.7-4.5,16.7-8.3,21.5c-4.2,4.8-7.8,7.6-14.3,8.1c-11,0.1-18.1-17.7-17.6-29.3
			c-0.7,7.4-0.9,16.2,0,27.6c-4.9,0.1-9.8,0.3-14.7,0.7c0-26.6,0-53.2,0-79.9c7.6-1.3,12.6-3.1,14.9-7.6c6.8,21.1,4.3,31.2,1.8,45.2
			c3.3-10.3,9.2-13.9,16.7-10.4C233.7,397.9,245.1,398.1,246.6,416.8z M226.8,417.7c1.3-13.7-0.7-22.3-4.9-24.7
			c-4.8-2.5-11.9,0.2-14.6,16.8c-2.9,15,5.1,33.2,12.1,33.3C225,442.8,225.7,431.1,226.8,417.7z"/>
	</g>
	<g>
		<path class="st0" d="M255.6,365.5c3.8-0.9,6.2,1.1,8.5-0.3c2.3-1,4.5-5.4,6.4-7.3c0,29.2,0,58.3,0,87.5c-5,0-9.9,0-14.9,0
			C255.6,418.7,255.6,392.1,255.6,365.5z"/>
	</g>
	<g>
		<path class="st0" d="M329.8,423.4c-2.1,7.1-6.8,11.9-10.6,15.8c-4.1,3.8-7.3,6.6-14.3,7.2c-8.8,0.2-14.7-6.5-18.7-11.5
			c-4-5.6-6.1-9.6-6.8-18c-0.4-8.9,5.3-15.9,9.7-20.8c4.9-4.9,8.7-7.8,17.1-8.8c8.3,0,13.6,5.8,16.9,10.4c3.3,5.1,4.6,9,4.9,15.4
			c-0.1,0-0.1,0.1-0.2,0.1c0.1,0,0.1,0,0.2,0c-16,7.5-20.3-0.4-30.7-2.6c-2.2,9.8,0.2,20.3,11.7,23.3c6.5,1.7,15.5-1.6,19.5-10
			C329,423.7,329.4,423.5,329.8,423.4z M297.5,409.9c0,0.1,0,0.2-0.1,0.3c6.7,1.4,10.8,5.1,17,5.7c3.3-9.4,0.2-27.2-8.3-27.8
			C298.4,389.5,300.2,401.6,297.5,409.9z"/>
	</g>
	<g>
		<path class="st0" d="M444.2,408.1c0,12.4,0,24.8,0,37.3c-5.1,0-10.2,0-15.4,0c-11.8-17-3.2-24.4-0.4-41c1.3-7.5-0.9-12.9-5.3-12.8
			c-6.6,0-6,14.3-14.4,26.6c-3.6,6.9-6.3,13.5,2.2,27.3c-5.2,0-10.3,0-15.5,0c-9.1-24.8,6.5-29.4,5.7-43.2
			c-0.4-6.3-5.3-11.5-9.9-11.5c-6.1,0-4.5,7.2-8.4,19c-2,9-7.1,18.5-5.2,35.7c-5,0-9.9,0-14.9,0c0-16.7,0-33.5,0-50.2
			c8.4-1.2,14.2-3.5,15.2-7.4c4.5,6.8,5.8,12,5.6,17c2.9-9,0.6-17,11.9-17.6c11.4-0.5,21.4,12.6,16.8,23.5c5.1-9.6,4-23.6,16.6-23.5
			C440.3,388.2,443.7,395.1,444.2,408.1z"/>
	</g>
	<g>
		<path class="st0" d="M509.9,416.8c-0.2,9.7-4.5,16.7-8.3,21.5c-4.2,4.8-7.8,7.6-14.3,8.1c-11,0.1-18.1-17.7-17.6-29.3
			c-0.7,7.4-0.9,16.2,0,27.6c-4.9,0.1-9.8,0.3-14.7,0.7c0-26.6,0-53.2,0-79.9c7.6-1.3,12.6-3.1,14.9-7.6c6.8,21.1,4.3,31.2,1.8,45.2
			c3.3-10.3,9.2-13.9,16.7-10.4C497,397.9,508.4,398.1,509.9,416.8z M490.1,417.7c1.3-13.7-0.7-22.3-4.9-24.7
			c-4.8-2.5-11.9,0.2-14.6,16.8c-2.9,15,5.1,33.2,12.1,33.3C488.3,442.8,489,431.1,490.1,417.7z"/>
	</g>
	<g>
		<path class="st0" d="M573.9,445.2c0,0.1,0,0.2,0,0.2c-13.4,3.4-25.9-1-28.5-14c-0.6,6-0.2,14.6-10.3,15
			c-12.8-1.2-19.6-7.4-20.2-16.6c-0.1-10.7,14.2-20.7,23.9-18c3.8,0.7,7,1.8,10.5,2.5c0.9-2.6,1.7-5.5,2-8.9
			c1.1-9.1-5.1-17.8-11.8-17.5c-10,1-10.1,12-13.3,19.3c-0.2,0-0.3,0-0.5,0c-11.4-7.9-0.8-19.5,13.8-20c17.1,0.1,26,10.8,23.8,21.6
			c-1.4,8.7-3.4,15.3-3,22.6C560.7,439.7,564.7,444.9,573.9,445.2z M545.4,427.7c0.5-4.8,2.3-8.6,3.8-12.9c-1.8-0.4-3.5-0.7-5.2-1.2
			c-6.3-1.5-11.7,2.7-13.4,11.6c-1.7,6.7,1.3,18.5,7.5,18.8C544.5,443.8,544.6,435.6,545.4,427.7z"/>
	</g>
	<path class="st1" d="M50.4,489.4c-2.4,12-11.4,23-24.8,23c-16,0-25.4-13.7-25.4-29.5c0-16,10.4-29.6,26.7-29.6
		c15.4,0,22.1,12.7,22.3,24.9h-0.1l0.1,0.1H14.7C15,492,21.5,501,33.4,501.2c7.3,0,14.2-4.6,16.3-11.7h0.7V489.4z M14.7,477.4v0.4
		h21.9c-0.1-12.6-2.5-24.1-10-24.1C18.4,453.9,14.7,465.1,14.7,477.4z"/>
	<path class="st1" d="M108.9,474.3v37h-15v-39.4c0-10.8-2.2-16.1-7.7-16.1c-6.4,0-12.2,6.8-13.1,22.5v33H58.2v-50.2
		c5.7-0.8,11.1-3.9,14.9-7.5v19.1c1.7-12.1,7-19.6,19.4-19.6C103.2,453.1,108.8,460.5,108.9,474.3z"/>
	<path class="st1" d="M199.7,482.8c-0.1,18.2-10,29.6-22.6,29.6c-10.3,0-15.9-10.4-17.4-22.3v45.4h-14.9v-74.4
		c5.7-0.8,11.1-3.9,14.9-7.5v21.3c1.6-12.5,7.1-21.8,17.4-21.8C190.5,453.1,199.6,464.6,199.7,482.8z M184.3,482.8
		c0-18-5.6-27.5-10.9-27.5c-6.8,0-13.6,9.1-13.6,27.5c0,16.8,6.9,27.5,13.6,27.5C178.8,510.2,184.3,500.8,184.3,482.8z"/>
	<path class="st1" d="M259.5,454.3v57h-15v-20.6c-1.7,13.3-8,21.7-19.2,21.7c-12.1,0-16.5-6.3-16.6-17.9l0.1-32.7
		c5.7-0.8,11.1-3.9,14.9-7.5V500c0,6.7,2.4,9.7,6.9,9.7c6.5,0,13.9-8.1,13.9-27v-20.9C250.2,461,255.8,458,259.5,454.3z"/>
	<path class="st1" d="M325.3,482.8c-0.1,18.2-10,29.6-22.6,29.6c-10.3,0-15.9-10.4-17.4-22.3v21.2h-14.9v-79.9
		c5.7-1,11.1-4,14.9-7.6v51.1c1.6-12.5,7.1-21.8,17.4-21.8C316.1,453.1,325.2,464.6,325.3,482.8z M309.8,482.8
		c0-18-5.6-27.5-10.9-27.5c-6.8,0-13.6,9.1-13.6,27.5c0,16.8,6.9,27.5,13.6,27.5C304.4,510.2,309.8,500.8,309.8,482.8z"/>
	<path class="st1" d="M334.4,431.5c5.7-1,11.1-4,14.9-7.6v87.5h-14.9V431.5z"/>
	<path class="st1" d="M360.2,438.4c0-4.6,4-8.3,9.3-8.3c5.4,0,9.3,3.8,9.3,8.3c0,4.7-3.9,8.3-9.3,8.3
		C364.2,446.7,360.2,443.1,360.2,438.4z M362,461.1c5.7-0.8,11.3-3.9,15-7.5v57.7h-15V461.1z"/>
	<path class="st1" d="M439.1,489.4c-2.9,14.4-12.8,23-25.3,23c-16.3,0-25.9-13.4-25.9-29.5c0-16.3,10.5-29.6,28.6-29.6
		c15.4,0,25.7,12.3,16.6,21.7h-0.4c-1.2-8.6-5.9-21.2-15.7-21.2c-10.2,0.1-14.5,11.9-14.5,23.7c0,13.8,6.2,23.6,18.6,23.7
		c7.4,0,13.7-3.9,17.3-11.7h0.7V489.4z"/>
	<path class="st1" d="M446.8,438.4c0-4.6,4-8.3,9.3-8.3c5.4,0,9.3,3.8,9.3,8.3c0,4.7-3.9,8.3-9.3,8.3
		C450.8,446.7,446.8,443.1,446.8,438.4z M448.6,461.1c5.7-0.8,11.3-3.9,15-7.5v57.7h-15V461.1z"/>
	<path class="st1" d="M495.3,512.4h-0.1c-10,0-15.7-4.6-15.7-16.6V458l-9.4,1.8v-0.4c10-2.2,16.9-16.3,17.4-25.9h0.4
		c4.1,3.3,6.4,7.7,5.4,12c-1,4.6-6.4,9.2-18.3,12.8l4.5-0.8l6.9-1.2l7.6-1.5l17.3-4.5v9.3l-17.2-4.5v38.5c0,6.5,2.9,9.3,7.5,9.3
		c5.3,0,9-4.6,11.1-11.7h0.6C511.1,502,507.2,512.3,495.3,512.4z"/>
	<path class="st1" d="M567.2,489.4c-2.4,12-11.4,23-24.8,23c-16,0-25.4-13.7-25.4-29.5c0-16,10.4-29.6,26.7-29.6
		c15.4,0,22.1,12.7,22.3,24.9h-0.1l0.1,0.1h-34.5c0.2,13.7,6.8,22.7,18.6,22.9c7.3,0,14.2-4.6,16.3-11.7h0.8V489.4z M531.5,477.4
		v0.4h21.9c-0.1-12.6-2.5-24.1-10-24.1C535.1,453.9,531.5,465.1,531.5,477.4z M536.7,448.4h-1c4.4-5.3,6.7-10.5,7.7-15.6h14.8
		C552.1,439,545.6,444.2,536.7,448.4z"/>
	<path class="st1" d="M59.1,577.2v0.2c-14.8,2.5-23.4,0.4-24.4-11.9c-0.8,7-4.5,12.8-14.3,12.8c-12.3,0-20-5.7-20.2-16.6
		C0.4,551.8,9,546.5,21,545l13.6-1.5v-10.3c0-9-3.4-13.7-10-13.7C13.3,519.6,9.2,532,8,540.9H7.6c-9.1-9.6-0.1-21.7,17.2-21.7
		c16.2,0,24.8,6.1,24.8,17.5v26C49.5,572.5,50.3,576.7,59.1,577.2z M33.9,514.4c-8.8-4.2-15.4-9.4-21.5-15.6h14.8
		c1.1,5.1,3.4,10.3,7.7,15.6H33.9z M34.6,561.4v-17.2c-2.3,0.2-4.6,0.6-6.9,0.8c-8.3,1.1-12,7.9-12,16.8c0,7.1,2.4,15,8.3,15
		C30.2,576.8,34.6,571.3,34.6,561.4z"/>
	<path class="st1" d="M89.4,497.5c5.7-1,11.1-4,14.9-7.6v87.5H89.4V497.5z"/>
	<path class="st1" d="M134.2,502.1c0,8.6-3.8,19.2-14.5,22.3l-0.2-0.2c8.3-3.5,11-13.3,10.8-19.5c-1,1.7-2.8,2.8-5.6,2.8
		c-5.1,0-8.2-4.4-8.2-8.6c0-5.2,3.8-9,8.8-9C131.3,489.8,134.2,495.8,134.2,502.1z"/>
	<g>
		<path class="st0" d="M188.6,554.8c-2,4.6-4.2,8.3-8.1,13.1c-3.9,4.4-9.6,10-16.7,10.6c-8.1,0.2-12.2-2.1-16.8-7.2
			c-4.2-5-9-12.9-8.6-22.3c0.6-9.2,3-14.3,7.3-19.9c4.3-5.1,10.6-10.7,19.5-9.5c13.6,3.2,20.1,13.4,21.7,24.7c-0.1,0-0.1,0-0.2,0
			c0.1,0.1,0.1,0.1,0.2,0.2c-16.4-4.3-22.5,2.4-32.6,3.1c2.9,12.1,8.5,17.1,18.3,15.9c6.1-1.3,12.1-4.1,15.1-8.9
			C188,554.5,188.3,554.6,188.6,554.8z M154.1,546.6c0,0.1,0,0.2,0.1,0.3c6.4-0.4,11.2-3.2,18.1-4.2c-2.3-8.8-0.6-20.8-7.7-22.7
			C155.5,519.6,151.3,536.2,154.1,546.6z"/>
	</g>
	<g>
		<path class="st0" d="M210.5,513.8c0,3.7,0.3,7.1,0.6,10.2c0.1,0,0.2-0.1,0.3-0.1c5.4-2.3,11.2-5.3,20.2-3.9c0,2.6,0.1,5.2,0.2,7.8
			c-8.8-4.6-14.6-3.3-20.3-3.6c-0.1,0-0.2,0.1-0.3,0.1c1.8,15.9,6.3,26.4,1.3,53.1c-5,0.9-10,1.8-15,2.6c4.8-21.7,2.7-35.5,1-54.6
			c-2.9-0.8-6.1-2.6-10-5.6c0-0.1,0-0.3,0-0.4c3.8,3.1,7.1,4.8,10,5.7c-0.2-2.2-0.4-4.5-0.5-6.9c-1.5-18.1,7-28.5,21.8-25.4
			c13.1,2.9,24.5,15.4,12.1,21.5c-0.2,0-0.3,0-0.5-0.1c-1.9-7.2-3.1-18.6-11.5-21C211.5,492,210.2,507.1,210.5,513.8z"/>
	</g>
	<g>
		<path class="st0" d="M292.4,574.4c0,0.1,0,0.1,0,0.2c-15.5,4.8-22.3,0.7-22.6-12.4c-0.1,7.1-6,16.3-16.1,17.1
			c-11.3,1-18.5-3.8-20.2-16.2c0.9-11.3,13.3-12.4,22-15.4c3.6-1,6.9-2.4,10.4-3.7c-0.6-2.7-1.1-5.4-1.1-8.5c0-8-0.3-15.3-7.1-16
			c-12.1-0.3-15.2,15.8-15,23.8c-0.1,0-0.3-0.1-0.4-0.1c-10.5-12.7-1.9-24.2,15.8-24.4c16.1,2.5,21.1,9.2,21.7,18.1
			c0,7,1.6,13.5,2.6,21.9C283.4,568.2,283.5,574.6,292.4,574.4z M269.4,558.2c-0.7-5.2-2.2-9.4-3.3-13.8c-1.8,0.7-3.5,1.4-5.3,2.1
			c-6.3,2.6-7.9,8.2-7.8,16.2c0.3,6.1-0.5,14.6,5.2,14.2C264.3,576.4,270.9,567.2,269.4,558.2z"/>
	</g>
	<g>
		<path class="st0" d="M352.4,549.9c-1.4,16.1-12.1,19.3-21.2,24c-8.1,2.9-13.9-3.1-17-13.6c1.9,13.4,3.5,24.5-1.9,43.1
			c-5,0.7-9.9,1.5-14.9,2.2c0-27.3,0-54.6,0-81.9c5.9,2.4,10.6-0.6,14.8-5.8c-0.8,11.1-0.6,20,0.1,27.5
			c-0.3-12.8,6.6-27.5,17.4-25.7C341.8,523.1,350.6,532.9,352.4,549.9z M333.8,548.4c-1.3-13.2-3-24.9-8.4-26
			c-7-1.2-14.8,13.6-12,31.1c2.3,16,9.5,21.7,14.6,19.6C332.6,571.1,335.3,562,333.8,548.4z"/>
	</g>
	<path class="st1" d="M14.5,605.8c0,17.5,4.4,37.9,16.8,50.8h-0.6C5.3,636.8,0.2,621.8,0.2,605.8s5.1-31.9,30.5-50.8h0.6
		C18.8,569.2,14.5,589.5,14.5,605.8z"/>
	<path class="st1" d="M91.7,614.8c-0.1,18.2-10,29.6-22.6,29.6c-10.3,0-15.9-10.4-17.4-22.3v45.4H36.8v-74.4
		c5.7-0.8,11.1-3.9,14.9-7.5v21.3c1.6-12.5,7.1-21.8,17.4-21.8C82.5,585.1,91.6,596.6,91.7,614.8z M76.2,614.8
		c0-18-5.6-27.5-10.9-27.5c-6.8,0-13.6,9.1-13.6,27.5c0,16.8,6.9,27.5,13.6,27.5C70.8,642.2,76.2,632.8,76.2,614.8z"/>
	<path class="st1" d="M155.7,643.2v0.2c-14.8,2.5-23.4,0.4-24.4-11.9c-0.8,7-4.5,12.8-14.3,12.8c-12.3,0-20-5.7-20.2-16.6
		c0.2-9.9,8.8-15.2,20.8-16.7l13.6-1.5v-10.3c0-9-3.4-13.7-10-13.7c-11.3-0.1-15.4,12.2-16.6,21.2h-0.4c-9.1-9.6-0.1-21.7,17.2-21.7
		c16.2,0,24.8,6.1,24.8,17.5v26C146,638.5,146.9,642.7,155.7,643.2z M131.1,627.4v-17.2c-2.3,0.2-4.6,0.6-6.9,0.8
		c-8.3,1.1-12,7.9-12,16.8c0,7.1,2.4,15,8.3,15C126.8,642.8,131.1,637.3,131.1,627.4z"/>
	<path class="st1" d="M196.8,610.3h-0.4c0-9-1.8-23-9.1-23c-8.7-0.1-11.3,14.9-11.7,27.3v28.7h-14.9v-50.2
		c5.7-0.8,11.1-3.9,14.9-7.5v23.2c1-12,4-23.6,14.4-23.6C204,585.2,205.9,600.7,196.8,610.3z"/>
	<path class="st1" d="M209.4,570.4c0-4.6,4-8.3,9.3-8.3c5.4,0,9.3,3.8,9.3,8.3c0,4.7-3.9,8.3-9.3,8.3
		C213.4,578.7,209.4,575.1,209.4,570.4z M211.2,593.1c5.7-0.8,11.3-3.9,15-7.5v57.7h-15V593.1z"/>
	<path class="st1" d="M282.9,626.3c0,12-12.8,18.3-21.2,18.3c-17.3,0-31.5-9.4-20.6-21.8h0.4c1.2,9,8.7,21.4,20.1,21.3
		c9,0.1,14.3-4,14.3-9.3c0-6.3-5.9-7.7-15.9-11.5c-11.4-4.1-21.4-8.2-21.4-20.2c0-11.5,11.9-17.8,20.8-17.8c18,0,27.3,11,18.3,20.7
		h-0.4c-0.6-8.8-5.4-20.3-16.9-20.2c-10.5-0.1-14.8,5.2-14.8,9.9c0,5.1,6.3,7.3,16.8,11.4C273.2,611.1,282.9,613.9,282.9,626.3z"/>
	<path class="st1" d="M311.2,605.8c0,16-5.1,31-30.5,50.8h-0.6c12.5-12.9,16.8-33.3,16.8-50.8c0-16.3-4.4-36.7-16.8-50.8h0.6
		C306.1,573.9,311.2,589.8,311.2,605.8z"/>
	<path class="st1" d="M393.8,621.4c-2.4,12-11.4,23-24.8,23c-16,0-25.4-13.7-25.4-29.5c0-16,10.4-29.6,26.7-29.6
		c15.4,0,22.1,12.7,22.3,24.9h-0.1l0.1,0.1h-34.5c0.2,13.7,6.8,22.7,18.6,22.9c7.3,0,14.2-4.6,16.3-11.7h0.8V621.4z M358.1,609.4
		v0.4H380c-0.1-12.6-2.5-24.1-10-24.1C361.8,585.9,358.1,597.1,358.1,609.4z"/>
	<path class="st1" d="M419.2,644.4h-0.1c-10,0-15.7-4.6-15.7-16.6V590l-9.4,1.8v-0.4c10-2.2,16.9-16.3,17.4-25.9h0.4
		c4.1,3.3,6.4,7.7,5.4,12c-1,4.6-6.4,9.2-18.3,12.8l4.5-0.8l6.9-1.2l7.6-1.5l17.3-4.5v9.3l-17.2-4.5v38.5c0,6.5,2.9,9.3,7.5,9.3
		c5.3,0,9-4.6,11.1-11.7h0.6C435,634,431.1,644.3,419.2,644.4z"/>
	<path class="st1" d="M527.9,643.2v0.2c-14.8,2.5-23.4,0.4-24.4-11.9c-0.8,7-4.5,12.8-14.3,12.8c-12.3,0-20-5.7-20.2-16.6
		c0.2-9.9,8.8-15.2,20.8-16.7l13.6-1.5v-10.3c0-9-3.4-13.7-10-13.7c-11.3-0.1-15.4,12.2-16.6,21.2h-0.4c-9.1-9.6-0.1-21.7,17.2-21.7
		c16.2,0,24.8,6.1,24.8,17.5v26C518.2,638.5,519.1,642.7,527.9,643.2z M502.6,580.4c-8.8-4.2-15.4-9.4-21.5-15.6h14.8
		c1.1,5.1,3.4,10.3,7.7,15.6H502.6z M503.3,627.4v-17.2c-2.3,0.2-4.6,0.6-6.9,0.8c-8.3,1.1-12,7.9-12,16.8c0,7.1,2.4,15,8.3,15
		C499,642.8,503.3,637.3,503.3,627.4z"/>
	<path class="st1" d="M2,629.5c5.7-1,11.1-4,14.9-7.6v87.5H2V629.5z"/>
	<path class="st1" d="M84.9,709.2v0.2c-14.8,2.5-23.4,0.4-24.4-11.9c-0.8,7-4.5,12.8-14.3,12.8c-12.3,0-20-5.7-20.2-16.6
		c0.2-9.9,8.8-15.2,20.8-16.7l13.6-1.5v-10.3c0-9-3.4-13.7-10-13.7c-11.3-0.1-15.4,12.2-16.6,21.2h-0.4c-9.1-9.6-0.1-21.7,17.2-21.7
		c16.2,0,24.8,6.1,24.8,17.5v26C75.2,704.5,76.1,708.7,84.9,709.2z M60.4,693.4v-17.2c-2.3,0.2-4.6,0.6-6.9,0.8
		c-8.3,1.1-12,7.9-12,16.8c0,7.1,2.4,15,8.3,15C56,708.8,60.4,703.3,60.4,693.4z"/>
	<g>
		<path class="st0" d="M170.1,683.7c-0.4,20.7-9.7,31.6-22.6,28.3c-10.3-4-14.2-16.5-15.8-26.1c-0.1,6-0.5,12.3-1.4,19.4
			c-5-1.5-10-3-15-4.6c0-21.3,0-42.6,0-63.9c5.8-1.1,10.9-5.5,14.9-10.9c-1.1,19.6,0.6,33.4,1.3,47.3c1-10,5.2-19.1,14.6-22.2
			C158,646.1,170.1,660.6,170.1,683.7z M154.2,679c-1.2-19.1-6.9-26.4-11.6-25c-6.1,2.1-11.4,10.9-10.9,25.6
			c0.5,13.2,5.6,25.8,12.3,28.4C149.5,710,155.5,698.2,154.2,679z"/>
	</g>
	<g>
		<path class="st0" d="M227.6,688.7c-3,12.6-10.8,24.4-24.8,21.7c-14.9-5.1-24.5-16.7-25.4-29.6c0.3-6.5,2.8-11.2,7.2-16.8
			c4.5-5.2,11-11.3,19.5-13.2c14.4-3.6,21,9.1,22,24.2H226c0.1,0.1,0.1,0.1,0.2,0.2c-14.2-1.9-23,1.9-33.7,2.9
			c1.5,11.1,7.6,18.5,18.6,20.4c6.7,0.8,13.2-2.4,15.8-10C227,688.6,227.3,688.7,227.6,688.7z M192.3,677.3c0,0.1,0,0.2,0,0.3
			c6.8-0.6,12.8-2.4,20-3.1c-1.2-12.2-1.3-24.4-8.6-22.9C194.9,654,190.9,667.4,192.3,677.3z"/>
	</g>
	<g>
		<path class="st0" d="M270.4,674.7c-0.1,0-0.3,0-0.4,0c-0.6-9.6-1.6-24.6-8.4-22.7c-9.3,3-11.8,19.5-10.9,29.2
			c0.7,8,1.2,15.9-0.5,26.4c-5-1.4-9.9-2.8-14.9-4.2c0-13.4,0-26.8,0-40.2c5.8-0.4,10.7-4.7,14.8-10c-0.8,9.2-0.4,16.3,0.1,23
			c-0.4-9.9,3.4-24.2,14.3-27.4C277.8,644.1,281.2,664.8,270.4,674.7z"/>
	</g>
	<g>
		<path class="st0" d="M332.8,722.6c-0.1,14.7-16.4,15-25.5,11.7c-7.8-3.2-24.9-11.9-25-19.9c0.3-6.4,12.7-6.1,22.1-6.8
			c0.1,0.1,0.2,0.2,0.2,0.2c-5.3,0.7-7.7,4.3-8,9.5c-0.3,5,3.9,13.7,10.7,16.6c8.3,3.1,13.1-2.4,13-10.8c-0.1-9.7-4.6-15.6-12.9-17
			c-14.7-1.4-29.3-4.5-29.6-13.6c0-5.4,6.8-5.4,14.4-6.7c-4.7-2-8.8-6.3-8.9-11.7c0.1-9.8,13.7-17,22.1-21.4h0.1
			c0.1-0.1,0.2-0.2,0.3-0.4c8.3-3.2,17.7-19.2,19.7-30.3c0.1,0,0.2-0.1,0.4-0.1c8.7,11.2-5,24.4-18.8,30.3
			c8.1-3.5,22.7-0.4,23.2,15.7c-0.7,15.3-16,16.6-23.6,19.1c-4.1,0.7-9.4,0.9-14.3-1c-3.7,1-7,1.9-6.9,4.5
			c-0.1,3.1,6.6,4.6,23.3,4.6C324.4,695.8,333.1,712.2,332.8,722.6z M297.3,673.4c0.4,6.8,2.3,14.5,9.5,13.2
			c7.2-1.1,8.1-10.4,7.9-18.2c-0.3-7.7-1.7-18.4-9.3-15.4C297.8,656.1,296.9,666.7,297.3,673.4z"/>
	</g>
	<g>
		<path class="st0" d="M391.9,673.6c0,14.8,0,29.6,0,44.4c-5-1.7-10-3.5-15-5.2c0.8-17.9-0.1-31.9-0.9-45c-0.6-10.7-3-15.5-8-13.9
			c-5.8,2-10.4,9.1-10.6,21.8c0.4,9.1,0.3,18.5-1.3,29.9c-5-1.7-9.9-3.4-14.9-5.1c0-21.3,0-42.6,0-63.9c5.8-1.1,10.9-5.7,14.9-11.2
			c-1.1,19,0.3,32.4,1.1,45.8c1.2-9.8,5-17.8,16.6-21.4C384.1,646.5,391.9,656.6,391.9,673.6z"/>
	</g>
	<g>
		<path class="st0" d="M446.7,694.5c-0.2,13.4-12.5,18.3-21.2,16.4c-16-5.5-32.2-15.2-19.8-23c0.1,0,0.3,0,0.4,0.1
			c2,6.9,8.4,18.4,19.4,22.3c9,2.4,14.4-1.8,14.2-8.2c-0.2-7.6-6.2-11.2-15.3-13.9c-10.1-2.2-21.6-6.3-21.8-16.5
			c0-7.9,11.4-17.2,20.7-20.2c16.9-5.3,27.6,6.8,17.2,18.5c-0.1,0-0.3,0-0.4,0c-1.2-9.7-4.8-21.1-15.9-18.2
			c-10.6,2.8-14.9,9.5-14.7,13.7c0.2,4.8,6.3,6.3,15.8,7.7C434.8,673.9,446.7,678.9,446.7,694.5z"/>
	</g>
	<g>
		<path class="st0" d="M46,760.5c-0.2,13.4-12.5,18.3-21.2,16.4c-16-5.5-32.2-15.2-19.8-23c0.1,0,0.3,0,0.4,0.1
			c2,6.9,8.4,18.4,19.4,22.3c9,2.4,14.4-1.8,14.2-8.2c-0.2-7.6-6.2-11.2-15.3-13.9c-10.1-2.2-21.6-6.3-21.8-16.5
			c0-7.9,11.4-17.2,20.7-20.2c16.9-5.3,27.6,6.8,17.2,18.5c-0.1,0-0.3,0-0.4,0c-1.2-9.7-4.8-21.1-15.9-18.2
			c-10.6,2.8-14.9,9.5-14.7,13.7c0.2,4.8,6.3,6.3,15.8,7.7C34,739.9,45.9,744.9,46,760.5z"/>
	</g>
	<g>
		<path class="st0" d="M102.8,754.7c-3.4,15.3-12.2,24.4-25.3,21.7c-15.2-5.1-25-16.6-25.9-29.6c0.3-6.7,2.8-11.4,7.5-16.9
			c4.7-5.2,11.7-11.4,21.1-13.4c14.2-4.1,25.5,9.4,15.3,20.4c-0.1,0-0.3,0-0.4,0c-2-9.4-5.3-22-14.6-20c-10.7,3-15.3,16.9-14,26.3
			c1.3,11.3,7.2,19.1,18.6,21.1c6.9,0.8,12.6-1.9,16.7-9.9C102.3,754.6,102.5,754.7,102.8,754.7z"/>
	</g>
	<g>
		<path class="st0" d="M161.3,739.6c0,14.8,0,29.6,0,44.4c-5-1.7-10-3.5-15-5.2c0.8-17.9-0.1-31.9-0.9-45c-0.6-10.7-3-15.5-8-13.9
			c-5.8,2-10.4,9.1-10.6,21.8c0.4,9.1,0.3,18.5-1.3,29.9c-5-1.7-9.9-3.4-14.9-5.1c0-21.3,0-42.6,0-63.9c5.8-1.1,10.9-5.7,14.9-11.2
			c-1.1,19,0.3,32.4,1.1,45.8c1.2-9.8,5-17.8,16.6-21.4C153.5,712.5,161.3,722.6,161.3,739.6z"/>
	</g>
	<g>
		<path class="st0" d="M170.2,746.9c0.4-7.1,3.6-12,8.7-17.5c5.1-5.1,12-10.8,19.5-12.2c13.2-2.8,26.7,6.9,28.2,29.7
			c-0.7,20.3-13.1,31.8-28.2,29.5C185.1,772,171.5,761.1,170.2,746.9z M209,745.6c-2.2-19.1-1.9-29.4-10.7-27.7
			c-9,1.9-13.1,14.1-10.8,30c2,15.5,2.2,25.7,11,28C207.5,777.9,211.4,764.9,209,745.6z"/>
	</g>
	<g>
		<path class="st0" d="M233.9,746.9c0.4-7.1,3.6-12,8.7-17.5c5.1-5.1,12-10.8,19.5-12.2c13.2-2.8,26.7,6.9,28.2,29.7
			c-0.7,20.3-13.1,31.8-28.2,29.5C248.7,772,235.2,761.1,233.9,746.9z M272.6,745.6c-2.2-19.1-1.9-29.4-10.7-27.7
			c-9,1.9-13.1,14.1-10.8,30c2,15.5,2.2,25.7,11,28C271.2,777.9,275.1,764.9,272.6,745.6z"/>
	</g>
	<g>
		<path class="st0" d="M299.3,702.7c5.5-3,10.9-15.8,14.9-23.6c0,35,0,70,0,105c-5-5.8-9.9-11.7-14.9-17.5
			C299.3,745.3,299.3,724,299.3,702.7z"/>
	</g>
	<path class="st1" d="M14.5,803.8c0,17.5,4.4,37.9,16.8,50.8h-0.6C5.3,834.8,0.2,819.8,0.2,803.8s5.1-31.9,30.5-50.8h0.6
		C18.8,767.2,14.5,787.5,14.5,803.8z"/>
	<path class="st1" d="M74.3,824.3c0,12-12.8,18.3-21.2,18.3c-17.3,0-31.5-9.4-20.6-21.8h0.4c1.2,9,8.7,21.4,20.1,21.3
		c9,0.1,14.3-4,14.3-9.3c0-6.3-5.9-7.7-15.9-11.5C40,817.1,30,813,30,801c0-11.5,11.9-17.8,20.8-17.8c18,0,27.3,11,18.3,20.7h-0.4
		c-0.6-8.8-5.4-20.3-16.9-20.2c-10.5-0.1-14.8,5.2-14.8,9.9c0,5.1,6.3,7.3,16.8,11.4C64.6,809.1,74.3,811.9,74.3,824.3z"/>
	<path class="st1" d="M100.9,842.4L100.9,842.4c-10.1,0-15.8-4.6-15.8-16.6V788l-9.4,1.8v-0.4c10-2.2,16.9-16.3,17.4-25.9h0.4
		c4.1,3.3,6.4,7.7,5.4,12c-1,4.6-6.4,9.2-18.3,12.8l4.5-0.8l6.9-1.2l7.6-1.5l17.3-4.5v9.3l-17.2-4.5v38.5c0,6.5,2.9,9.3,7.5,9.3
		c5.3,0,9-4.6,11.1-11.7h0.6C116.6,832,112.7,842.3,100.9,842.4z"/>
	<path class="st1" d="M122.5,812.9c0-17.8,13.8-29.6,28.2-29.6s28.2,11.9,28.2,29.6c0,17.7-13.8,29.5-28.2,29.5
		S122.5,830.6,122.5,812.9z M162.6,812.9c0-19.8-3.1-29.2-11.9-29.2c-8.7,0-11.9,9.3-11.9,29.2c0,19.7,3.1,29,11.9,29
		S162.6,832.6,162.6,812.9z"/>
	<path class="st1" d="M237.4,819.4c-2.9,14.4-12.8,23-25.3,23c-16.3,0-25.9-13.4-25.9-29.5c0-16.3,10.5-29.6,28.6-29.6
		c15.4,0,25.7,12.3,16.6,21.7H231c-1.2-8.6-5.9-21.2-15.7-21.2c-10.2,0.1-14.5,11.9-14.5,23.7c0,13.8,6.2,23.6,18.6,23.7
		c7.4,0,13.7-3.9,17.3-11.7h0.7V819.4z"/>
	<path class="st1" d="M297.1,841.3h-18c-3.9-13.2-10.4-24-19.1-31.6v31.6h-14.9v-78c5.7-1,11.1-4,14.9-7.6v52.8l18.8-23.6h16.5
		l-35,24.2C277.9,820,290.5,831,297.1,841.3z"/>
	<path class="st1" d="M354.4,804.3v37h-15v-39.4c0-10.8-2.2-16.1-7.7-16.1c-6.4,0-12.2,6.8-13.1,22.5v33h-14.9v-79.9
		c5.7-1,11.1-4,14.9-7.6v48.9c1.7-12.1,7-19.6,19.4-19.6C348.7,783.1,354.3,790.5,354.4,804.3z"/>
	<path class="st1" d="M363.3,812.9c0-17.8,13.8-29.6,28.2-29.6c14.4,0,28.2,11.9,28.2,29.6c0,17.7-13.8,29.5-28.2,29.5
		C377.1,842.4,363.3,830.6,363.3,812.9z M403.4,812.9c0-19.8-3.1-29.2-11.9-29.2c-8.7,0-11.9,9.3-11.9,29.2c0,19.7,3.1,29,11.9,29
		C400.2,841.9,403.4,832.6,403.4,812.9z"/>
	<path class="st1" d="M428.8,761.5c5.7-1,11.1-4,14.9-7.6v87.5h-14.9V761.5z"/>
	<path class="st1" d="M536,804.1v37.3h-15.4v-45.1c0-6.8-1.7-10.3-6.4-10.3c-6.5,0-11.5,8.3-11.5,26.9v28.6h-15.5v-45.1
		c0-6.8-1.7-10.3-6.4-10.3c-5.9,0-10.5,6.9-11.4,22v33.4h-14.9v-50.2c5.7-0.8,11.1-3.9,14.9-7.5v18.3c1.6-11.6,6.3-18.8,17.8-18.8
		c11.1,0,15.1,6.9,15.5,20c1.3-12.3,6.1-20,17.9-20C531.9,783.1,535.9,790.4,536,804.1z"/>
	<path class="st1" d="M567,803.8c0,16-5.1,31-30.5,50.8h-0.6c12.5-12.9,16.8-33.3,16.8-50.8c0-16.3-4.4-36.7-16.8-50.8h0.6
		C561.9,771.9,567,787.8,567,803.8z"/>
</g>
</svg>
