<?xml version="1.0" encoding="utf-8"?>
<!-- Generator: Adobe Illustrator 24.0.1, SVG Export Plug-In . SVG Version: 6.00 Build 0)  -->
<svg version="1.1" id="Calque_1" xmlns="http://www.w3.org/2000/svg" xmlns:xlink="http://www.w3.org/1999/xlink" x="0px" y="0px"
	 viewBox="0 0 792 283.5" style="enable-background:new 0 0 792 283.5;" xml:space="preserve">
<style type="text/css">
	.st0{fill:none;stroke:#000000;}
</style>
<g>
	<path class="st0" d="M143.5,205.2h-25.3l-24.7-55.6l-51.8,0.2c-7.8,22.1-11.2,41.2-4.2,55.4H15.6l62.3-143L143.5,205.2z
		 M93.1,148.6L66.8,89.9c-9,21.1-18.3,41-24.7,58.9L93.1,148.6z M90.9,53.5c-14.7-7-25.5-15.7-35.8-25.9h24.5
		c1.8,8.4,5.6,17.1,12.9,25.9H90.9z"/>
	<path class="st0" d="M288.7,157.8c-0.2,30.1-16.7,49.2-37.6,49.2c-17.1,0-26.3-17.3-28.9-37v75.3h-24.7V121.8
		c9.4-1.4,18.5-6.4,24.7-12.5v35.4c2.6-20.7,11.8-36.2,28.9-36.2C273.4,108.6,288.5,127.7,288.7,157.8z M263,157.8
		c0-29.9-9.2-45.6-18.1-45.6c-11.2,0-22.5,15.1-22.5,45.6c0,27.9,11.4,45.6,22.5,45.6C253.9,203.4,263,187.7,263,157.8z"/>
	<path class="st0" d="M363.7,150.4H363c0-14.9-3-38.2-15.1-38.2c-14.5-0.2-18.7,24.7-19.5,45.4v47.6h-24.7v-83.4
		c9.4-1.4,18.5-6.4,24.7-12.5V148c1.6-19.9,6.6-39.2,23.9-39.2C375.5,108.8,378.7,134.5,363.7,150.4z"/>
	<path class="st0" d="M378.2,158c0-29.5,22.9-49.2,46.8-49.2c23.9,0,46.8,19.7,46.8,49.2c0,29.3-22.9,49-46.8,49
		C401.1,207,378.2,187.3,378.2,158z M444.6,158c0-32.9-5.2-48.4-19.7-48.4c-14.5,0-19.7,15.5-19.7,48.4c0,32.7,5.2,48.2,19.7,48.2
		C439.4,206.2,444.6,190.7,444.6,158z"/>
	<path class="st0" d="M578.1,157.8c-0.2,30.1-16.7,49.2-37.6,49.2c-17.1,0-26.3-17.3-28.9-37v75.3h-24.7V121.8
		c9.4-1.4,18.5-6.4,24.7-12.5v35.4c2.6-20.7,11.8-36.2,28.9-36.2C562.8,108.6,577.9,127.7,578.1,157.8z M552.4,157.8
		c0-29.9-9.2-45.6-18.1-45.6c-11.2,0-22.5,15.1-22.5,45.6c0,27.9,11.4,45.6,22.5,45.6C543.3,203.4,552.4,187.7,552.4,157.8z"/>
	<path class="st0" d="M590.2,158c0-29.5,22.9-49.2,46.8-49.2c23.9,0,46.8,19.7,46.8,49.2c0,29.3-22.9,49-46.8,49
		C613.1,207,590.2,187.3,590.2,158z M656.7,158c0-32.9-5.2-48.4-19.7-48.4c-14.5,0-19.7,15.5-19.7,48.4c0,32.7,5.2,48.2,19.7,48.2
		C651.5,206.2,656.7,190.7,656.7,158z"/>
	<path class="st0" d="M769.6,176.9c0,19.9-21.3,30.3-35.1,30.3c-28.7,0-52.2-15.7-34.2-36.2h0.6c2,14.9,14.5,35.6,33.3,35.4
		c14.9,0.2,23.7-6.6,23.7-15.5c0-10.4-9.8-12.9-26.3-19.1c-18.9-6.8-35.5-13.7-35.5-33.5c0-19.1,19.7-29.5,34.5-29.5
		c29.9,0,45.4,18.3,30.3,34.3h-0.6c-1-14.7-9-33.7-28.1-33.5c-17.5-0.2-24.5,8.6-24.5,16.5c0,8.4,10.4,12.1,27.9,18.9
		C753.6,151.8,769.6,156.4,769.6,176.9z"/>
</g>
</svg>
