<?xml version="1.0" encoding="utf-8"?>
<!-- Generator: Adobe Illustrator 24.0.1, SVG Export Plug-In . SVG Version: 6.00 Build 0)  -->
<svg version="1.1" id="Calque_1" xmlns="http://www.w3.org/2000/svg" xmlns:xlink="http://www.w3.org/1999/xlink" x="0px" y="0px"
	 viewBox="0 0 1088.7 283.5" style="enable-background:new 0 0 1088.7 283.5;" xml:space="preserve">
<style type="text/css">
	.st0{fill:none;stroke:#000000;}
</style>
<g>
	<path class="st0" d="M212.4,101.4c0,35.3-35.3,49.2-65.8,49.2h-35.3v78.2H79.8V52.2h66.8C177.1,52.2,212.4,65.9,212.4,101.4z
		 M180.4,101.4c0-29-16.9-48.2-40.1-48.2h-29v96.3h21.4C159.7,149.6,180.4,130.4,180.4,101.4z"/>
	<path class="st0" d="M333,228.5v0.5c-30.8,5.3-48.7,0.7-50.9-24.7c-1.8,14.6-9.3,26.7-29.7,26.7c-25.7,0-41.6-11.8-42.1-34.5
		c0.5-20.7,18.4-31.8,43.4-34.8l28.2-3v-21.4c0-18.7-7.1-28.5-20.9-28.5c-23.4-0.2-32,25.5-34.5,44.1h-0.8
		c-18.9-19.9-0.2-45.1,35.8-45.1c33.8,0,51.7,12.6,51.7,36.6v54.2C312.9,218.7,314.6,227.5,333,228.5z M281.8,195.5v-35.8
		c-4.8,0.5-9.6,1.3-14.4,1.8c-17.4,2.3-25,16.4-25,35c0,14.9,5,31.3,17.4,31.3C272.8,227.7,281.8,216.1,281.8,195.5z"/>
	<path class="st0" d="M418.8,159.9h-0.8c0-18.7-3.8-47.9-18.9-47.9c-18.1-0.3-23.4,31-24.5,57v59.8h-31V124.1
		c11.9-1.8,23.2-8.1,31-15.6v48.4c2-25,8.3-49.2,30-49.2C433.7,107.7,437.7,140,418.8,159.9z"/>
	<path class="st0" d="M543.7,183.1c-6.1,30-26.7,47.9-52.7,47.9c-34,0-54-28-54-61.5c0-34,21.9-61.8,59.5-61.8
		c32,0,53.5,25.7,34.5,45.1h-0.8c-2.5-17.9-12.4-44.1-32.8-44.1c-21.2,0.3-30.3,24.7-30.3,49.4c0,28.8,12.9,49.2,38.8,49.4
		c15.4,0,28.5-8.1,36.1-24.5H543.7z"/>
	<path class="st0" d="M553.6,169.5c0-37.1,28.7-61.8,58.7-61.8c30,0,58.7,24.7,58.7,61.8c0,36.8-28.7,61.5-58.7,61.5
		C582.3,231,553.6,206.3,553.6,169.5z M637,169.5c0-41.3-6.6-60.8-24.7-60.8c-18.2,0-24.7,19.4-24.7,60.8c0,41.1,6.5,60.5,24.7,60.5
		C630.5,230,637,210.6,637,169.5z"/>
	<path class="st0" d="M795.7,110v118.8h-31.3v-42.9c-3.5,27.7-16.6,45.1-40.1,45.1c-25.2,0-34.3-13.1-34.5-37.3l0.2-68.1
		c11.9-1.8,23.2-8.1,31-15.6v95.3c0,13.9,5,20.2,14.4,20.2c13.6,0,29-16.9,29-56.2v-43.6C776.3,123.8,787.9,117.5,795.7,110z"/>
	<path class="st0" d="M893.6,159.9h-0.8c0-18.7-3.8-47.9-18.9-47.9c-18.1-0.3-23.4,31-24.5,57v59.8h-31V124.1
		c11.9-1.8,23.2-8.1,31-15.6v48.4c2-25,8.3-49.2,30-49.2C908.5,107.7,912.5,140,893.6,159.9z"/>
	<path class="st0" d="M1008.9,193.2c0,25-26.7,38.1-44.1,38.1c-36.1,0-65.6-19.7-42.9-45.4h0.8c2.5,18.7,18.2,44.6,41.9,44.4
		c18.7,0.3,29.8-8.3,29.8-19.4c0-13.1-12.4-16.1-33-23.9c-23.7-8.6-44.6-17.2-44.6-42.1c0-24,24.7-37.1,43.4-37.1
		c37.6,0,57,22.9,38.1,43.1h-0.7c-1.3-18.4-11.4-42.4-35.3-42.1c-21.9-0.2-30.8,10.8-30.8,20.7c0,10.6,13.1,15.1,35,23.7
		C988.7,161.7,1008.9,167.5,1008.9,193.2z"/>
</g>
</svg>
