<?xml version="1.0" encoding="utf-8"?>
<!-- Generator: Adobe Illustrator 24.0.1, SVG Export Plug-In . SVG Version: 6.00 Build 0)  -->
<svg version="1.1" id="Calque_1" xmlns="http://www.w3.org/2000/svg" xmlns:xlink="http://www.w3.org/1999/xlink" x="0px" y="0px"
	 viewBox="0 0 792 319.2" style="enable-background:new 0 0 792 319.2;" xml:space="preserve">
<style type="text/css">
	.st0{fill:none;stroke:#000000;stroke-miterlimit:10;}
</style>
<g>
	<path class="st0" d="M143.1,48.4v58h-23.9V36.2c0-10.5-2.6-16-10-16c-10.2,0-17.9,13-17.9,41.8v44.4h-24V36.2c0-10.5-2.6-16-10-16
		c-9.2,0-16.4,10.7-17.7,34.3v51.9H16.5V28.3c8.9-1.3,17.3-6,23.1-11.7V45c2.5-18.1,9.8-29.2,27.7-29.2c17.3,0,23.5,10.7,24.1,31.1
		c2.1-19.2,9.4-31.1,27.9-31.1C136.7,15.8,142.9,27.1,143.1,48.4z"/>
	<path class="st0" d="M235.2,72.3c-3.8,18.6-17.7,35.8-38.6,35.8c-24.8,0-39.5-21.3-39.5-45.9c0-24.8,16.2-46.1,41.6-46.1
		c23.9,0,34.4,19.8,34.6,38.8h-0.2l0.2,0.2h-53.6c0.4,21.3,10.5,35.4,29,35.6c11.3,0,22-7.2,25.4-18.3h1.1V72.3z M179.7,53.7v0.6
		h34.1c-0.2-19.6-4-37.5-15.6-37.5C185.4,17,179.7,34.5,179.7,53.7z"/>
</g>
<g>
	<path d="M98.2,171.2c-4.6,23-20.5,36.7-40.4,36.7c-26.1,0-41.4-21.5-41.4-47.2c0-26.1,16.8-47.4,45.6-47.4
		c24.6,0,41,19.7,26.5,34.6H88c-1.9-13.7-9.5-33.8-25.1-33.8C46.7,114.3,39.7,133,39.7,152c0,22,9.9,37.7,29.8,37.9
		c11.8,0,21.8-6.2,27.6-18.8h1.1V171.2z"/>
	<path d="M105.8,160.7c0-28.4,22.1-47.4,45-47.4s45,18.9,45,47.4c0,28.2-22,47.2-45,47.2S105.8,188.9,105.8,160.7z M169.8,160.7
		c0-31.7-5-46.6-18.9-46.6S132,129,132,160.7c0,31.5,5,46.4,18.9,46.4S169.8,192.2,169.8,160.7z"/>
	<path d="M291.4,147v59.1h-24v-63c0-17.2-3.5-25.7-12.4-25.7c-10.2,0-19.5,10.8-20.9,35.9v52.8h-23.8v-80.2
		c9.1-1.4,17.8-6.2,23.8-12v30.5c2.7-19.3,11.2-31.3,30.9-31.3C282.3,113.2,291.2,125,291.4,147z"/>
	<path d="M340.6,207.9h-0.2c-16.1,0-25.1-7.3-25.1-26.5v-60.5l-15.1,2.9v-0.6c16.1-3.5,27.1-26.1,27.8-41.4h0.6
		c6.6,5.2,10.2,12.4,8.7,19.1c-1.5,7.3-10.2,14.7-29.2,20.5l7.1-1.4l11-1.9l12.2-2.3l27.6-7.1v14.9l-27.4-7.2v61.5
		c0,10.4,4.6,14.9,12,14.9c8.5,0,14.3-7.3,17.8-18.7h1C365.7,191.3,359.5,207.7,340.6,207.9z"/>
	<path d="M470.9,205.9v0.4c-23.6,4.1-37.3,0.6-39-18.9c-1.4,11.2-7.2,20.5-22.8,20.5c-19.7,0-31.9-9.1-32.3-26.5
		c0.4-15.8,14.1-24.4,33.3-26.7l21.6-2.3V136c0-14.3-5.4-21.8-16-21.8c-18-0.2-24.6,19.5-26.5,33.8h-0.6
		c-14.5-15.3-0.2-34.6,27.4-34.6c25.9,0,39.6,9.7,39.6,28V183C455.4,198.4,456.8,205.2,470.9,205.9z M431.7,180.6v-27.4
		c-3.7,0.4-7.3,1-11,1.4c-13.3,1.7-19.1,12.6-19.1,26.9c0,11.4,3.9,24,13.3,24C424.7,205.4,431.7,196.5,431.7,180.6z"/>
	<path d="M553.3,171.2c-4.6,23-20.5,36.7-40.4,36.7c-26.1,0-41.4-21.5-41.4-47.2c0-26.1,16.8-47.4,45.6-47.4
		c24.6,0,41,19.7,26.5,34.6H543c-1.9-13.7-9.5-33.8-25.1-33.8c-16.2,0.2-23.2,18.9-23.2,37.9c0,22,9.9,37.7,29.8,37.9
		c11.8,0,21.8-6.2,27.7-18.8h1.1V171.2z"/>
	<path d="M594.1,207.9h-0.2c-16.1,0-25.1-7.3-25.1-26.5v-60.5l-15.1,2.9v-0.6c16.1-3.5,27.1-26.1,27.8-41.4h0.6
		c6.6,5.2,10.2,12.4,8.7,19.1c-1.5,7.3-10.2,14.7-29.2,20.5l7.1-1.4l11-1.9l12.2-2.3l27.6-7.1v14.9l-27.4-7.2v61.5
		c0,10.4,4.6,14.9,12,14.9c8.5,0,14.3-7.3,17.8-18.7h1C619.3,191.3,613.1,207.7,594.1,207.9z"/>
	<path d="M709,171.2c-3.9,19.1-18.2,36.7-39.6,36.7c-25.5,0-40.6-21.8-40.6-47.2c0-25.5,16.6-47.4,42.7-47.4
		c24.5,0,35.4,20.3,35.6,39.8h-0.2l0.2,0.2H652c0.4,21.8,10.8,36.3,29.8,36.5c11.6,0,22.6-7.4,26.1-18.8h1.1V171.2z M652,152v0.6h35
		c-0.2-20.1-4.1-38.5-16-38.5C657.8,114.3,652,132.3,652,152z"/>
	<path d="M779,153.4h-0.6c0-14.3-2.9-36.7-14.5-36.7c-13.9-0.2-18,23.8-18.8,43.7v45.8h-23.8V126c9.1-1.4,17.8-6.2,23.8-12v37.1
		c1.5-19.1,6.4-37.7,23-37.7C790.4,113.4,793.5,138.1,779,153.4z"/>
</g>
</svg>
