<?xml version="1.0" encoding="utf-8"?>
<!-- Generator: Adobe Illustrator 24.0.1, SVG Export Plug-In . SVG Version: 6.00 Build 0)  -->
<svg version="1.1" id="Calque_1" xmlns="http://www.w3.org/2000/svg" xmlns:xlink="http://www.w3.org/1999/xlink" x="0px" y="0px"
	 viewBox="0 0 578 176.6" style="enable-background:new 0 0 578 176.6;" xml:space="preserve">
<style type="text/css">
	.st0{fill:none;stroke:#000000;}
	.st1{fill:#1D1D1B;}
</style>
<g>
	<g>
		<path d="M728.3,87.3V127h-16.1V84.8c0-11.5-2.3-17.3-8.3-17.3c-6.9,0-13.1,7.3-14,24.2v35.5h-16V41.4c6.1-1,11.9-4.3,16-8.2v52.4
			c1.8-13,7.5-21.1,20.8-21.1C722.3,64.6,728.2,72.5,728.3,87.3z"/>
		<path d="M791.8,103.6c-2.6,12.9-12.2,24.6-26.6,24.6c-17.1,0-27.3-14.6-27.3-31.7s11.2-31.8,28.7-31.8c16.5,0,23.8,13.6,23.9,26.7
			h-0.2l0.2,0.2h-37c0.2,14.6,7.3,24.4,20,24.6c7.8,0,15.2-5,17.5-12.6L791.8,103.6L791.8,103.6z M753.5,90.7v0.4H777
			c-0.2-13.5-2.7-25.9-10.8-25.9C757.4,65.4,753.5,77.5,753.5,90.7z"/>
		<path d="M800.1,41.4c6.1-1,11.9-4.3,16-8.2v93.9h-16V41.4z"/>
		<path d="M827.8,41.4c6.1-1,11.9-4.3,16-8.2v93.9h-16V41.4z"/>
		<path d="M853.5,96.6c0-19.1,14.8-31.8,30.3-31.8c15.4,0,30.3,12.7,30.3,31.8c0,19-14.8,31.7-30.3,31.7
			C868.4,128.2,853.5,115.5,853.5,96.6z M896.5,96.6c0-21.3-3.4-31.3-12.7-31.3c-9.4,0-12.7,10-12.7,31.3c0,21.1,3.4,31.1,12.7,31.1
			C893.1,127.8,896.5,117.8,896.5,96.6z"/>
	</g>
	<path class="st0" d="M691.2,198.2H691c-10.8,0-16.9-5-16.9-17.8v-40.7l-10.1,1.9v-0.4c10.8-2.3,18.2-17.5,18.7-27.8h0.4
		c4.4,3.5,6.9,8.3,5.8,12.9c-1,5-6.9,9.8-19.6,13.8l4.8-0.9l7.4-1.3l8.2-1.5l18.6-4.8v10l-18.4-4.8V178c0,7,3.1,10,8.1,10
		c5.7,0,9.6-5,11.9-12.6h0.6C708.1,187,704,198,691.2,198.2z"/>
	<path class="st0" d="M773.9,157.3V197h-16.1v-42.3c0-11.5-2.3-17.3-8.3-17.3c-6.9,0-13.1,7.3-14,24.2v35.5h-16v-85.8
		c6.1-1,11.9-4.3,16-8.2v52.4c1.8-13,7.5-21.1,20.8-21.1C767.8,134.5,773.8,142.4,773.9,157.3z"/>
	<path class="st0" d="M837.4,173.5c-2.6,12.9-12.2,24.6-26.6,24.6c-17.1,0-27.3-14.6-27.3-31.7s11.2-31.8,28.7-31.8
		c16.5,0,23.8,13.6,23.9,26.7l0,0l0.2,0.2h-37c0.2,14.6,7.3,24.4,20,24.6c7.8,0,15.2-5,17.5-12.6H837.4L837.4,173.5z M799.1,160.6
		v0.4h23.5c-0.2-13.5-2.7-25.9-10.8-25.9C803,135.3,799.1,147.4,799.1,160.6z"/>
	<path class="st0" d="M884.5,161.6h-0.4c0-9.6-1.9-24.7-9.8-24.7c-9.4-0.2-12.1,16-12.6,29.4V197h-16v-54c6.1-0.9,11.9-4.2,16-8.1
		v24.9c1-12.9,4.3-25.3,15.4-25.3C892.1,134.7,894.1,151.2,884.5,161.6z"/>
	<path class="st0" d="M947.7,173.5c-2.6,12.9-12.2,24.6-26.6,24.6c-17.1,0-27.3-14.6-27.3-31.7s11.2-31.8,28.7-31.8
		c16.5,0,23.8,13.6,23.9,26.7h-0.2l0.2,0.2h-37c0.2,14.6,7.3,24.4,20,24.6c7.8,0,15.2-5,17.5-12.6H947.7L947.7,173.5z M909.4,160.6
		v0.4h23.5c-0.2-13.5-2.7-25.9-10.8-25.9C913.3,135.3,909.4,147.4,909.4,160.6z"/>
	<g>
		<path d="M1094.8,257.4c0-3.3,2.6-5.9,5.9-5.9c3.3,0,5.8,2.7,5.8,5.9c0,3.3-2.6,5.9-5.8,5.9
			C1097.3,263.4,1094.8,260.8,1094.8,257.4z"/>
	</g>
	<g>
		<path d="M718.2,245.2c0,11.9-12.8,18.2-21.1,18.2c-17.3,0-31.4-9.4-20.5-21.7h0.4c1.2,8.9,8.7,21.4,20,21.2
			c8.9,0.1,14.2-4,14.2-9.3c0-6.3-5.9-7.7-15.8-11.5C684.1,238,674,233.9,674,222c0-11.5,11.8-17.7,20.7-17.7
			c18,0,27.3,11,18.2,20.6h-0.4c-0.6-8.8-5.4-20.3-16.9-20.1c-10.5-0.1-14.7,5.2-14.7,9.9c0,5.1,6.3,7.2,16.8,11.3
			C708.5,230.1,718.2,232.9,718.2,245.2z"/>
		<path d="M744.7,263.3L744.7,263.3c-10.1,0-15.8-4.6-15.8-16.5V209l-9.4,1.8v-0.4c10-2.2,16.9-16.3,17.4-25.8h0.4
			c4.1,3.3,6.4,7.7,5.4,11.9c-1,4.6-6.4,9.2-18.2,12.8l4.5-0.8l6.9-1.2l7.6-1.4l17.3-4.5v9.3l-17.1-4.5v38.4c0,6.5,2.9,9.3,7.5,9.3
			c5.3,0,8.9-4.6,11.1-11.7h0.6C760.4,252.9,756.6,263.2,744.7,263.3z"/>
		<path d="M805.8,229.3h-0.4c0-8.9-1.8-22.9-9-22.9c-8.7-0.1-11.2,14.8-11.7,27.3v28.6h-14.8v-50.1c5.7-0.8,11.1-3.9,14.8-7.5v23.2
			c1-11.9,4-23.5,14.4-23.5C812.9,204.3,814.9,219.8,805.8,229.3z"/>
		<path d="M872.7,262.1v0.2c-14.7,2.5-23.3,0.4-24.4-11.8c-0.8,7-4.5,12.8-14.2,12.8c-12.3,0-19.9-5.7-20.1-16.5
			c0.2-9.9,8.8-15.2,20.8-16.7l13.5-1.4v-10.3c0-8.9-3.4-13.6-10-13.6c-11.2-0.1-15.3,12.2-16.5,21.1h-0.4
			c-9-9.5-0.1-21.6,17.1-21.6c16.2,0,24.7,6,24.7,17.5v25.9C863,257.4,863.9,261.6,872.7,262.1z M848.2,246.3v-17.1
			c-2.3,0.2-4.6,0.6-6.9,0.8c-8.3,1.1-11.9,7.8-11.9,16.8c0,7.1,2.4,15,8.3,15C843.8,261.7,848.2,256.2,848.2,246.3z"/>
		<path d="M928.3,225.3v36.9h-15v-39.3c0-10.7-2.2-16-7.7-16c-6.4,0-12.2,6.8-13,22.4v32.9h-14.8v-50.1c5.7-0.8,11.1-3.9,14.8-7.5
			v19.1c1.7-12.1,7-19.5,19.3-19.5C922.7,204.2,928.2,211.6,928.3,225.3z"/>
		<path d="M991.1,268.6c0,13.3-16.5,17.7-25.5,17.7c-7.7,0-25.5-2.1-25.5-12.4c0-8.3,11-10.3,21.4-10.9l0.2,0.2
			c-5.7,0.8-8,5.2-8,10.6c0,5.6,5.1,12.1,11.8,12.1c8.2,0,12.8-5.2,12.8-11.9c0-7.8-4.6-11.6-13.6-12.7
			c-16.5-1.9-28.6-2.9-28.6-13.3c0-6.6,5.3-9.8,13.3-10.9c-4.7-2.8-8.3-7.2-8.3-13.8c0-13.5,14.8-19.2,24-19.2h0.1l0.4-0.2
			c9.2,0,17.1-12.4,18.2-21.3h0.4c8.7,11.8-2.7,21-17.1,21.7c9.2,0.6,22.1,6.4,22.1,19.1c0,13.4-14.8,17.7-24,17.7
			c-4.6,0-10.5-1.1-15.3-3.7c-3.9,1-6.9,2.7-6.9,5.9c0,3.7,5.3,4.3,24,6.8C984.1,252.5,991.1,259.6,991.1,268.6z M955.6,223.5
			c0,7.8,1.4,17.4,9.5,17.4c8.1,0,9.5-9.5,9.5-17.4c0-7.8-1.4-18.8-9.5-18.8C957.1,204.7,955.6,215.7,955.6,223.5z"/>
		<path d="M1045.5,240.4c-2.4,11.9-11.3,22.9-24.7,22.9c-15.9,0-25.3-13.6-25.3-29.4c0-15.9,10.4-29.6,26.7-29.6
			c15.3,0,22.1,12.7,22.2,24.9h-0.1l0.1,0.1H1010c0.2,13.6,6.8,22.7,18.6,22.8c7.2,0,14.1-4.6,16.3-11.7H1045.5z M1010,228.4v0.4
			h21.8c-0.1-12.5-2.5-24-10-24C1013.6,204.9,1010,216.1,1010,228.4z"/>
		<path d="M1089.3,229.3h-0.4c0-8.9-1.8-22.9-9-22.9c-8.7-0.1-11.2,14.8-11.7,27.3v28.6h-14.8v-50.1c5.7-0.8,11.1-3.9,14.8-7.5v23.2
			c1-11.9,4-23.5,14.4-23.5C1096.4,204.3,1098.3,219.8,1089.3,229.3z"/>
	</g>
</g>
<g>
	<g>
		<path class="st1" d="M59.3,131c-9.7,13.1-17.6,22.7-31.1,22c-17.4-1-26.8-12.5-27.4-25.8c-0.3-13.9,15.9-25.5,39.4-25.9
			c21.2-0.3,34.1,9.5,18.5,17.4c-0.1,0-0.3,0-0.4,0c2.7-7.1-3.8-17.2-17.3-17c-13.2,0.4-19.1,10.2-21,20.2
			c-1.9,11.5,3.5,20.2,16.5,20.3c7.8,0,14.7-4,22-11.1C58.8,131,59.1,131,59.3,131z"/>
		<path class="st1" d="M68,125.2c10.2-15.1,25.8-24.5,41.9-24.8c8-0.1,17.8,2.5,21.7,6.6c4.2,4.2,2.5,10.1-5.2,17.8
			C110.1,140,105.5,155.7,90,155C73.6,154.3,57.5,140,68,125.2z M110.2,124.8c16.8-16.7,10.1-23.8-0.2-24
			c-10.2,0.3-10.7,7.4-24.3,24.1c-13.5,17-5.1,29.4,4.2,29.5C99.5,155.1,94.2,142,110.2,124.8z"/>
		<path class="st1" d="M189.8,118.5c-12.3,10.3-26.1,21.3-9.3,38.1c-5.2-0.2-10.4-0.3-15.6-0.5c-15.5-17.7,1.3-29,13.4-39.9
			c10.2-8.8,7.6-13.5,2.1-13.6c-6.7,0.1-11.7,5.6-27.7,18.6c-9.9,9.3-19.7,19.6-9.5,34.2c-5.2-0.2-10.4-0.3-15.5-0.5
			c-12.7-21.7,16.3-34.3,22.3-48c6.3-0.7,13.2-3.1,16.9-6.2c0.6,5.6-3.8,10.6-9.3,15.9c12.7-9.8,16.6-16.2,29.3-16.2
			C197.9,100.4,204.6,107.1,189.8,118.5z"/>
		<path class="st1" d="M213.6,159.1c0,0-0.1,0-0.1,0c-9.5-0.1-29.1-7.8-27.5-20.5c2.5-13.1,24.4-22.4,30-33.7
			c-3.3,0.5-6.6,1-9.9,1.5c0.1-0.1,0.1-0.2,0.2-0.3c11.5-1.6,24.1-14.2-0.9-27.2c0.1,0,0.3,0,0.4,0c12.3,4.1,21.5,9.5,23.1,14
			c2,4.9-4.3,9.2-17.3,12.3c1.6-0.2,3.1-0.5,4.7-0.7c2.4-0.3,4.7-0.7,7.1-1c2.6-0.4,5.2-0.8,7.7-1.3c5.9-1.3,11.6-2.8,17.1-4.3
			c0.1,3.2-1.2,6.1-3.3,9c-4.2-1.5-8.8-2.9-13.8-4.4c-3.9,12-27.1,21.3-31,34.3c-1.8,6.6,4.1,10.3,8.3,10.4
			c5.4,0.2,4.4-5.3,9.4-12.1c0.2,0,0.4,0,0.5,0C209.4,145.1,225.2,159.1,213.6,159.1z"/>
		<path class="st1" d="M297.8,160.3c0.2,0.1,0.4,0.2,0.6,0.3c-4.5,1.5-10.6,1.4-19.2-1.1c-8.2-2.5-18.9-7.4-23.2-14.2
			c2.9,7.6,14.5,15.6,4,15.3c-12.4-0.3-37.4-9.2-37.6-20.7c1.5-10.2,17.2-14.1,28.4-15.1c4.5-0.3,8.9-0.6,13.4-0.8
			c3.5-3.1,7.5-6.1,11.2-9.2c9.9-8.1,8.2-13.3,2.1-13.2c-9.1,0.1-21.4,11.7-33.8,19.2c-0.1,0-0.2,0-0.3,0
			c4.1-8.3,19.6-19.4,34.5-19.7c15.2,0,20.5,6.7,7,17.2c-9.6,7.9-19,15.5-15.9,24.6C273.1,153.2,288.3,159.4,297.8,160.3z
			 M254.4,140.7c-0.7-5.9,3.6-11.2,9.3-16.3c-2.3,0.1-4.7,0.4-6.9,0.5c-7.9,0.8-20.1,6.3-20,15.6c-0.9,7.2,16.5,17.7,23.5,18.1
			C267.5,158.8,255.9,151,254.4,140.7z"/>
		<path class="st1" d="M330.7,137.7c-5.2,14.2,14.1,25.6,0.2,25.2c-8-0.2-26.3-5.2-37.5-11.6c-11.7-6.5-16.3-14.3-9.5-21.6
			c6.6-7.5,18.3-14.1,27.9-19.5c10-5.2,17.7-9.2,26.3-9.2c15.4,0,13.4,13.7-4.9,22.4c-0.1,0-0.2,0-0.3,0c7.8-8.1,15.7-21.7,5.4-21.8
			c-8.2,0.5-23.4,12.9-36.3,23.5c-15,12.5,1.7,23.6,15.4,24.4c8.1,0.3,8.4-3.9,12.7-11.7C330.2,137.7,330.4,137.7,330.7,137.7z"/>
		<path class="st1" d="M385.9,164.6c0,0-0.1,0-0.1,0c-8.9-0.2-34.6-7.1-42.3-19.9c-6.6-13.4,11.6-24.6,22.4-38.7
			c-3.5,0.7-7,1.4-10.5,2.1c0.1-0.1,0.2-0.3,0.3-0.4c11.7-2.2,31.2-18.6,21.9-34.4c0.1,0,0.3,0,0.4,0c7.3,5.1,10.7,11.6,8.5,17.2
			c-2.1,6.1-10.8,11.8-25.2,15.9c1.7-0.3,3.3-0.7,5-1c2.5-0.5,5-1,7.6-1.5c2.8-0.6,5.6-1.2,8.4-1.8c6.7-1.9,13.3-3.9,19.8-5.9
			c-1.7,3.9-4.1,7.6-6.7,11.2c-4.5-1.6-8.9-3.2-13.2-4.8c-9.7,15.1-28.1,26.8-23.8,40.4c2.6,6.9,11.2,10.4,15.9,10.5
			c6.1,0.2,2.9-5,4.3-12.5c0.2,0,0.5,0,0.7,0C376.3,152,397,164.7,385.9,164.6z"/>
		<path class="st1" d="M447.2,139.9c-4.2,13.6,3.1,26.8-9.4,26.4c-17.1-0.7-60.2-18-51.1-34.1c3.1-8.3,13-16.2,22-22.5
			c9.4-6.3,17.9-10.9,26.4-11.3c16.2-0.6,15.8,14.7,11.9,28.5c-0.1,0-0.1,0-0.2,0c0,0,0.1,0.1,0.1,0.1c-14.6,0.2-28.5,0.3-41.7,0.3
			c-7.4,14.5,11.2,25,25.4,25.6c8.7,0.2,13.2-5,15.6-13.2C446.5,139.9,446.9,139.9,447.2,139.9z M405.7,126.6
			c-0.1,0.1-0.1,0.3-0.2,0.4c8.4,0,17-0.1,26-0.1c5.5-13.9,11.3-27.9,3-27.7C426.8,99.8,413.4,113.6,405.7,126.6z"/>
		<path class="st1" d="M507.1,125.8c-0.2,0-0.4,0-0.5,0c0.2-11.2-1-28.7-9.4-28.2c-9.5,0.6-18.3,19.4-20.5,34.2
			c-0.9,11.4,1,22.8,9.3,34.7c-5.4-0.2-10.8-0.3-16.2-0.5c-21.2-20.8-13.2-39-5.7-59.4c7-1.3,14.6-5.4,19.9-10.3
			c-2.2,9.8-5,19.2-6.5,28.5c4.1-14.3,11.6-29.2,23.1-30C516.2,93.6,520.7,113.3,507.1,125.8z"/>
	</g>
</g>
<g>
	<path class="st0" d="M59.5,55.8c-0.1,19.4-10.7,31.7-24.2,31.7c-11,0-16.9-11.1-18.6-23.8v48.5H0.8V32.7c6.1-0.9,11.9-4.1,15.9-8
		v22.8c1.7-13.3,7.6-23.3,18.6-23.3C49.7,24.2,59.4,36.4,59.5,55.8z M43,55.8c0-19.3-5.9-29.3-11.6-29.3c-7.2,0-14.5,9.7-14.5,29.3
		c0,18,7.4,29.4,14.5,29.4C37.2,85.2,43,75.1,43,55.8z"/>
	<path class="st0" d="M67.3,56c0-19,14.7-31.7,30.1-31.7S127.6,37,127.6,56c0,18.9-14.7,31.6-30.1,31.6S67.3,74.8,67.3,56z
		 M110.1,56c0-21.2-3.4-31.2-12.7-31.2c-9.3,0-12.7,10-12.7,31.2c0,21.1,3.4,31,12.7,31C106.8,87,110.1,77,110.1,56z"/>
	<path class="st0" d="M191.5,25.4v60.9h-16v-22c-1.8,14.2-8.5,23.1-20.6,23.1c-12.9,0-17.6-6.7-17.7-19.1l0.1-34.9
		c6.1-0.9,11.9-4.1,15.9-8v48.9c0,7.1,2.6,10.3,7.4,10.3c7,0,14.9-8.7,14.9-28.8V33.5C181.6,32.6,187.5,29.3,191.5,25.4z"/>
	<path class="st0" d="M241.7,51h-0.4c0-9.6-1.9-24.6-9.7-24.6c-9.3-0.1-12,15.9-12.5,29.2v30.6h-15.9V32.7c6.1-0.9,11.9-4.1,15.9-8
		v24.8c1-12.8,4.3-25.2,15.4-25.2C249.3,24.3,251.4,40.8,241.7,51z"/>
	<path class="st0" d="M370.2,46.5v39.8h-16.4V38.1c0-7.2-1.8-11-6.8-11c-7,0-12.3,8.9-12.3,28.7v30.5H318V38.1c0-7.2-1.8-11-6.9-11
		c-6.3,0-11.3,7.4-12.2,23.5v35.7h-15.9V32.7c6.1-0.9,11.9-4.1,15.9-8v19.5c1.7-12.4,6.7-20,19-20c11.9,0,16.2,7.4,16.6,21.3
		c1.4-13.2,6.5-21.3,19.1-21.3C365.8,24.2,370,31.9,370.2,46.5z"/>
	<path class="st0" d="M433.4,62.9c-2.6,12.8-12.2,24.6-26.5,24.6c-17.1,0-27.2-14.6-27.2-31.6c0-17.1,11.1-31.7,28.6-31.7
		c16.4,0,23.7,13.6,23.8,26.6H432l0.1,0.1h-36.9c0.3,14.6,7.2,24.3,19.9,24.4c7.8,0,15.1-4.9,17.5-12.5H433.4z M395.3,50.1v0.4h23.4
		c-0.1-13.4-2.7-25.7-10.7-25.7C399.2,24.9,395.3,37,395.3,50.1z"/>
</g>
</svg>
