<?xml version="1.0" encoding="utf-8"?>
<!-- Generator: Adobe Illustrator 24.0.1, SVG Export Plug-In . SVG Version: 6.00 Build 0)  -->
<svg version="1.1" id="Calque_1" xmlns="http://www.w3.org/2000/svg" xmlns:xlink="http://www.w3.org/1999/xlink" x="0px" y="0px"
	 viewBox="0 0 578 913.8" style="enable-background:new 0 0 578 913.8;" xml:space="preserve">
<style type="text/css">
	.st0{fill:none;stroke:#000000;}
</style>
<g>
	<g>
		<path d="M60.3,131c-9.7,13.1-17.6,22.7-31.1,22c-17.4-1-26.8-12.5-27.4-25.8c-0.3-13.9,15.9-25.5,39.4-25.9
			c21.2-0.3,34.1,9.5,18.5,17.4c-0.1,0-0.3,0-0.4,0c2.7-7.1-3.8-17.2-17.3-17c-13.2,0.4-19.1,10.2-21,20.2
			c-1.9,11.5,3.5,20.2,16.5,20.3c7.8,0,14.7-4,22-11.1C59.8,131,60.1,131,60.3,131z"/>
		<path d="M69,125.2c10.2-15.1,25.8-24.5,41.9-24.8c8-0.1,17.8,2.5,21.7,6.6c4.2,4.2,2.5,10.1-5.2,17.8
			C111.1,140,106.5,155.7,91,155C74.6,154.3,58.5,140,69,125.2z M111.2,124.8c16.8-16.7,10.1-23.8-0.2-24
			c-10.2,0.3-10.7,7.4-24.3,24.1c-13.5,17-5.1,29.4,4.2,29.5C100.5,155.1,95.2,142,111.2,124.8z"/>
		<path d="M190.8,118.5c-12.3,10.3-26.1,21.3-9.3,38.1c-5.2-0.2-10.4-0.3-15.6-0.5c-15.5-17.7,1.3-29,13.4-39.9
			c10.2-8.8,7.6-13.5,2.1-13.6c-6.7,0.1-11.7,5.6-27.7,18.6c-9.9,9.3-19.7,19.6-9.5,34.2c-5.2-0.2-10.4-0.3-15.5-0.5
			c-12.7-21.7,16.3-34.3,22.3-48c6.3-0.7,13.2-3.1,16.9-6.2c0.6,5.6-3.8,10.6-9.3,15.9c12.7-9.8,16.6-16.2,29.3-16.2
			C198.9,100.4,205.6,107.1,190.8,118.5z"/>
		<path d="M214.6,159.1h-0.1c-9.5-0.1-29.1-7.8-27.5-20.5c2.5-13.1,24.4-22.4,30-33.7c-3.3,0.5-6.6,1-9.9,1.5
			c0.1-0.1,0.1-0.2,0.2-0.3c11.5-1.6,24.1-14.2-0.9-27.2c0.1,0,0.3,0,0.4,0c12.3,4.1,21.5,9.5,23.1,14c2,4.9-4.3,9.2-17.3,12.3
			c1.6-0.2,3.1-0.5,4.7-0.7c2.4-0.3,4.7-0.7,7.1-1c2.6-0.4,5.2-0.8,7.7-1.3c5.9-1.3,11.6-2.8,17.1-4.3c0.1,3.2-1.2,6.1-3.3,9
			c-4.2-1.5-8.8-2.9-13.8-4.4c-3.9,12-27.1,21.3-31,34.3c-1.8,6.6,4.1,10.3,8.3,10.4c5.4,0.2,4.4-5.3,9.4-12.1c0.2,0,0.4,0,0.5,0
			C210.4,145.1,226.2,159.1,214.6,159.1z"/>
		<path d="M298.8,160.3c0.2,0.1,0.4,0.2,0.6,0.3c-4.5,1.5-10.6,1.4-19.2-1.1c-8.2-2.5-18.9-7.4-23.2-14.2c2.9,7.6,14.5,15.6,4,15.3
			c-12.4-0.3-37.4-9.2-37.6-20.7c1.5-10.2,17.2-14.1,28.4-15.1c4.5-0.3,8.9-0.6,13.4-0.8c3.5-3.1,7.5-6.1,11.2-9.2
			c9.9-8.1,8.2-13.3,2.1-13.2c-9.1,0.1-21.4,11.7-33.8,19.2c-0.1,0-0.2,0-0.3,0c4.1-8.3,19.6-19.4,34.5-19.7c15.2,0,20.5,6.7,7,17.2
			c-9.6,7.9-19,15.5-15.9,24.6C274.1,153.2,289.3,159.4,298.8,160.3z M255.4,140.7c-0.7-5.9,3.6-11.2,9.3-16.3
			c-2.3,0.1-4.7,0.4-6.9,0.5c-7.9,0.8-20.1,6.3-20,15.6c-0.9,7.2,16.5,17.7,23.5,18.1C268.5,158.8,256.9,151,255.4,140.7z"/>
		<path d="M331.7,137.7c-5.2,14.2,14.1,25.6,0.2,25.2c-8-0.2-26.3-5.2-37.5-11.6c-11.7-6.5-16.3-14.3-9.5-21.6
			c6.6-7.5,18.3-14.1,27.9-19.5c10-5.2,17.7-9.2,26.3-9.2c15.4,0,13.4,13.7-4.9,22.4c-0.1,0-0.2,0-0.3,0c7.8-8.1,15.7-21.7,5.4-21.8
			c-8.2,0.5-23.4,12.9-36.3,23.5c-15,12.5,1.7,23.6,15.4,24.4c8.1,0.3,8.4-3.9,12.7-11.7C331.2,137.7,331.4,137.7,331.7,137.7z"/>
		<path d="M386.9,164.6h-0.1c-8.9-0.2-34.6-7.1-42.3-19.9c-6.6-13.4,11.6-24.6,22.4-38.7c-3.5,0.7-7,1.4-10.5,2.1
			c0.1-0.1,0.2-0.3,0.3-0.4c11.7-2.2,31.2-18.6,21.9-34.4c0.1,0,0.3,0,0.4,0c7.3,5.1,10.7,11.6,8.5,17.2
			c-2.1,6.1-10.8,11.8-25.2,15.9c1.7-0.3,3.3-0.7,5-1c2.5-0.5,5-1,7.6-1.5c2.8-0.6,5.6-1.2,8.4-1.8c6.7-1.9,13.3-3.9,19.8-5.9
			c-1.7,3.9-4.1,7.6-6.7,11.2c-4.5-1.6-8.9-3.2-13.2-4.8c-9.7,15.1-28.1,26.8-23.8,40.4c2.6,6.9,11.2,10.4,15.9,10.5
			c6.1,0.2,2.9-5,4.3-12.5c0.2,0,0.5,0,0.7,0C377.3,152,398,164.7,386.9,164.6z"/>
		<path d="M448.2,139.9c-4.2,13.6,3.1,26.8-9.4,26.4c-17.1-0.7-60.2-18-51.1-34.1c3.1-8.3,13-16.2,22-22.5
			c9.4-6.3,17.9-10.9,26.4-11.3c16.2-0.6,15.8,14.7,11.9,28.5c-0.1,0-0.1,0-0.2,0l0.1,0.1c-14.6,0.2-28.5,0.3-41.7,0.3
			c-7.4,14.5,11.2,25,25.4,25.6c8.7,0.2,13.2-5,15.6-13.2C447.5,139.9,447.9,139.9,448.2,139.9z M406.7,126.6
			c-0.1,0.1-0.1,0.3-0.2,0.4c8.4,0,17-0.1,26-0.1c5.5-13.9,11.3-27.9,3-27.7C427.8,99.8,414.4,113.6,406.7,126.6z"/>
		<path d="M508.1,125.8c-0.2,0-0.4,0-0.5,0c0.2-11.2-1-28.7-9.4-28.2c-9.5,0.6-18.3,19.4-20.5,34.2c-0.9,11.4,1,22.8,9.3,34.7
			c-5.4-0.2-10.8-0.3-16.2-0.5c-21.2-20.8-13.2-39-5.7-59.4c7-1.3,14.6-5.4,19.9-10.3c-2.2,9.8-5,19.2-6.5,28.5
			c4.1-14.3,11.6-29.2,23.1-30C517.2,93.6,521.7,113.3,508.1,125.8z"/>
	</g>
</g>
<g>
	<path class="st0" d="M60.5,55.8c-0.1,19.4-10.7,31.7-24.2,31.7c-11,0-16.9-11.1-18.6-23.8v48.5H1.8V32.7c6.1-0.9,11.9-4.1,15.9-8
		v22.8c1.7-13.3,7.6-23.3,18.6-23.3C50.7,24.2,60.4,36.4,60.5,55.8z M44,55.8c0-19.3-5.9-29.3-11.6-29.3c-7.2,0-14.5,9.7-14.5,29.3
		c0,18,7.4,29.4,14.5,29.4C38.2,85.2,44,75.1,44,55.8z"/>
	<path class="st0" d="M68.3,56c0-19,14.7-31.7,30.1-31.7S128.6,37,128.6,56c0,18.9-14.7,31.6-30.1,31.6S68.3,74.8,68.3,56z
		 M111.1,56c0-21.2-3.4-31.2-12.7-31.2S85.7,34.8,85.7,56c0,21.1,3.4,31,12.7,31C107.8,87,111.1,77,111.1,56z"/>
	<path class="st0" d="M192.5,25.4v60.9h-16v-22c-1.8,14.2-8.5,23.1-20.6,23.1c-12.9,0-17.6-6.7-17.7-19.1l0.1-34.9
		c6.1-0.9,11.9-4.1,15.9-8v48.9c0,7.1,2.6,10.3,7.4,10.3c7,0,14.9-8.7,14.9-28.8V33.5C182.6,32.6,188.5,29.3,192.5,25.4z"/>
	<path class="st0" d="M242.7,51h-0.4c0-9.6-1.9-24.6-9.7-24.6c-9.3-0.1-12,15.9-12.5,29.2v30.6h-15.9V32.7c6.1-0.9,11.9-4.1,15.9-8
		v24.8c1-12.8,4.3-25.2,15.4-25.2C250.3,24.3,252.4,40.8,242.7,51z"/>
	<path class="st0" d="M371.2,46.5v39.8h-16.4V38.1c0-7.2-1.8-11-6.8-11c-7,0-12.3,8.9-12.3,28.7v30.5H319V38.1c0-7.2-1.8-11-6.9-11
		c-6.3,0-11.3,7.4-12.2,23.5v35.7H284V32.7c6.1-0.9,11.9-4.1,15.9-8v19.5c1.7-12.4,6.7-20,19-20c11.9,0,16.2,7.4,16.6,21.3
		c1.4-13.2,6.5-21.3,19.1-21.3C366.8,24.2,371,31.9,371.2,46.5z"/>
	<path class="st0" d="M434.4,62.9c-2.6,12.8-12.2,24.6-26.5,24.6c-17.1,0-27.2-14.6-27.2-31.6c0-17.1,11.1-31.7,28.6-31.7
		c16.4,0,23.7,13.6,23.8,26.6H433l0.1,0.1h-36.9c0.3,14.6,7.2,24.3,19.9,24.4c7.8,0,15.1-4.9,17.5-12.5L434.4,62.9L434.4,62.9z
		 M396.3,50.1v0.4h23.4c-0.1-13.4-2.7-25.7-10.7-25.7C400.2,24.9,396.3,37,396.3,50.1z"/>
</g>
<path class="st0" d="M55.4,201.4C52.3,216.8,41.7,226,28.4,226c-17.5,0-27.7-14.4-27.7-31.6c0-17.5,11.3-31.7,30.6-31.7
	c16.5,0,27.5,13.2,17.7,23.2h-0.4c-1.3-9.2-6.3-22.7-16.8-22.7c-10.9,0.1-15.5,12.7-15.5,25.4c0,14.8,6.6,25.3,20,25.4
	c7.9,0,14.6-4.1,18.5-12.6H55.4z"/>
<path class="st0" d="M77.6,144.2c0,9.2-4,20.6-15.5,23.8l-0.3-0.3c8.9-3.8,11.8-14.2,11.5-20.9c-1,1.8-3,3-6,3
	c-5.4,0-8.8-4.7-8.8-9.2c0-5.6,4-9.6,9.5-9.6C74.5,131.1,77.6,137.5,77.6,144.2z"/>
<path class="st0" d="M135.9,201.4c-2.6,12.8-12.2,24.6-26.6,24.6c-17.1,0-27.2-14.6-27.2-31.6c0-17.1,11.1-31.7,28.6-31.7
	c16.5,0,23.7,13.6,23.8,26.7h-0.1l0.1,0.1H97.7c0.3,14.6,7.3,24.4,20,24.5c7.8,0,15.2-4.9,17.5-12.6H135.9z M97.7,188.5v0.4h23.4
	c-0.1-13.5-2.7-25.8-10.8-25.8C101.5,163.3,97.7,175.3,97.7,188.5z"/>
<path class="st0" d="M191.1,206.5c0,12.8-13.7,19.6-22.7,19.6c-18.5,0-33.7-10.1-22-23.3h0.4c1.3,9.6,9.3,22.9,21.5,22.8
	c9.6,0.1,15.3-4.3,15.3-10c0-6.7-6.3-8.3-17-12.3c-12.2-4.4-22.9-8.8-22.9-21.6c0-12.3,12.7-19,22.3-19c19.3,0,29.3,11.8,19.6,22.2
	h-0.4c-0.6-9.5-5.8-21.8-18.1-21.6c-11.3-0.1-15.8,5.6-15.8,10.6c0,5.4,6.7,7.8,18,12.2C180.7,190.3,191.1,193.3,191.1,206.5z"/>
<path class="st0" d="M219.6,226h-0.1c-10.8,0-16.8-4.9-16.8-17.7v-40.5l-10.1,1.9v-0.4c10.8-2.3,18.1-17.5,18.7-27.7h0.4
	c4.4,3.5,6.9,8.3,5.8,12.8c-1,4.9-6.9,9.8-19.6,13.7l4.8-0.9l7.4-1.3l8.2-1.6l18.5-4.8v10l-18.4-4.8v41.2c0,7,3.1,10,8,10
	c5.7,0,9.6-4.9,11.9-12.6h0.6C236.4,214.8,232.3,225.8,219.6,226z"/>
<path class="st0" d="M294.7,152.5v11.8h0.4l21.9-0.9v10l-21.9-8.7h-0.4v60.1h-16.1v-60.1h-9.6v-0.4h9.6v-7
	c0-17.9,8.4-24.4,23.8-24.4c16.1,0,24.4,13.5,14.6,23.2h-0.4c-1.3-9.2-4.4-22.8-14-22.8C294.2,133.3,294.7,144.7,294.7,152.5z"/>
<path class="st0" d="M380.3,224.7v0.3c-15.8,2.7-25,0.4-26.2-12.7c-0.9,7.5-4.8,13.7-15.3,13.7c-13.2,0-21.4-6.1-21.6-17.7
	c0.3-10.6,9.5-16.3,22.3-17.9l14.5-1.6v-11c0-9.6-3.6-14.6-10.8-14.6c-12-0.1-16.5,13.1-17.7,22.7h-0.4
	c-9.7-10.2-0.1-23.2,18.4-23.2c17.4,0,26.6,6.5,26.6,18.8v27.9C370,219.6,370.9,224.2,380.3,224.7z M354,207.7v-18.4
	c-2.5,0.3-4.9,0.6-7.4,0.9c-8.9,1.2-12.8,8.4-12.8,18c0,7.6,2.6,16.1,8.9,16.1C349.4,224.3,354,218.3,354,207.7z"/>
<path class="st0" d="M435.5,201.4c-3.1,15.4-13.7,24.6-27.1,24.6c-17.5,0-27.7-14.4-27.7-31.6c0-17.5,11.3-31.7,30.6-31.7
	c16.5,0,27.5,13.2,17.7,23.2h-0.4c-1.3-9.2-6.3-22.7-16.8-22.7c-10.9,0.1-15.5,12.7-15.5,25.4c0,14.8,6.6,25.3,20,25.4
	c7.9,0,14.6-4.1,18.5-12.6H435.5z"/>
<path class="st0" d="M443.8,146.7c0-4.9,4.3-8.9,10-8.9c5.8,0,10,4,10,8.9c0,5.1-4.1,8.9-10,8.9
	C448.1,155.6,443.8,151.7,443.8,146.7z M445.8,171c6.1-0.9,12-4.1,16.1-8v61.8h-16.1V171z"/>
<path class="st0" d="M475.4,139.3c6.1-1,11.9-4.3,15.9-8.2v93.7h-15.9V139.3z"/>
<path class="st0" d="M554.8,201.4c-2.6,12.8-12.2,24.6-26.6,24.6c-17.1,0-27.2-14.6-27.2-31.6c0-17.1,11.1-31.7,28.6-31.7
	c16.5,0,23.7,13.6,23.8,26.7h-0.1l0.1,0.1h-36.9c0.3,14.6,7.3,24.4,20,24.5c7.8,0,15.2-4.9,17.5-12.6H554.8z M516.6,188.5v0.4h23.4
	c-0.1-13.5-2.7-25.8-10.8-25.8C520.5,163.3,516.6,175.3,516.6,188.5z"/>
<path class="st0" d="M2.6,216.7c0-4.9,4.3-8.9,10-8.9c5.8,0,10,4,10,8.9c0,5.1-4.1,8.9-10,8.9C6.8,225.6,2.6,221.7,2.6,216.7z
	 M4.5,241c6.1-0.9,12-4.1,16.1-8v61.8H4.5V241z"/>
<path class="st0" d="M34.2,209.3c6.1-1,11.9-4.3,15.9-8.2v93.7H34.2V209.3z"/>
<path class="st0" d="M108.7,222.5v11.8h0.4l21.9-0.9v10l-21.9-8.7h-0.4v60.1H92.6v-60.1H83v-0.4h9.6v-7c0-17.9,8.4-24.4,23.8-24.4
	c16.1,0,24.4,13.5,14.6,23.2h-0.4c-1.3-9.2-4.4-22.8-14-22.8C108.2,203.3,108.7,214.7,108.7,222.5z"/>
<path class="st0" d="M194.3,294.7v0.3c-15.8,2.7-25,0.4-26.2-12.7c-0.9,7.5-4.8,13.7-15.3,13.7c-13.2,0-21.4-6.1-21.6-17.7
	c0.3-10.6,9.5-16.3,22.3-17.9l14.5-1.6v-11c0-9.6-3.6-14.6-10.8-14.6c-12-0.1-16.5,13.1-17.7,22.7h-0.4
	c-9.7-10.2-0.1-23.2,18.4-23.2c17.4,0,26.6,6.5,26.6,18.8v27.9C183.9,289.6,184.8,294.2,194.3,294.7z M168,277.7v-18.4
	c-2.5,0.3-4.9,0.6-7.4,0.9c-8.9,1.2-12.8,8.4-12.8,18c0,7.6,2.6,16.1,8.9,16.1C163.3,294.3,168,288.3,168,277.7z"/>
<path class="st0" d="M252.1,233.8v61H236v-22c-1.8,14.3-8.5,23.2-20.6,23.2c-13,0-17.6-6.7-17.7-19.2l0.1-35
	c6.1-0.9,11.9-4.1,15.9-8v49c0,7.1,2.6,10.4,7.4,10.4c7,0,14.9-8.7,14.9-28.9v-22.4C242.1,240.9,248.1,237.7,252.1,233.8z"/>
<path class="st0" d="M284.2,296h-0.1c-10.8,0-16.8-4.9-16.8-17.7v-40.5l-10.1,1.9v-0.4c10.8-2.3,18.1-17.5,18.7-27.7h0.4
	c4.4,3.5,6.9,8.3,5.8,12.8c-1,4.9-6.9,9.8-19.6,13.7l4.8-0.9l7.4-1.3l8.2-1.6l18.5-4.8v10l-18.4-4.8v41.2c0,7,3.1,10,8,10
	c5.7,0,9.6-4.9,11.9-12.6h0.6C301.1,284.8,296.9,295.8,284.2,296z"/>
<path class="st0" d="M54.4,341.4C51.8,354.2,42.2,366,27.8,366c-17.1,0-27.2-14.6-27.2-31.6c0-17.1,11.1-31.7,28.6-31.7
	c16.5,0,23.7,13.6,23.8,26.7H53l0.1,0.1H16.2c0.3,14.6,7.3,24.4,20,24.5c7.8,0,15.2-4.9,17.5-12.6H54.4z M16.2,328.5v0.4h23.4
	c-0.1-13.5-2.7-25.8-10.8-25.8C20.1,303.3,16.2,315.3,16.2,328.5z"/>
<path class="st0" d="M117,325.2v39.6h-16.1v-42.2c0-11.5-2.3-17.2-8.3-17.2c-6.9,0-13.1,7.3-14,24.1v35.4H62.7V311
	c6.1-0.9,11.9-4.1,15.9-8v20.5c1.8-13,7.5-21,20.7-21C110.9,302.5,116.8,310.4,117,325.2z"/>
<path class="st0" d="M173.1,304.3l-24.7,61.9l-26.8-61.9h16.6l17.4,42.4l17-42.4H173.1z"/>
<path class="st0" d="M174,334.4c0-19,14.8-31.7,30.2-31.7s30.2,12.7,30.2,31.7c0,18.9-14.8,31.6-30.2,31.6S174,353.3,174,334.4z
	 M216.8,334.4c0-21.2-3.4-31.2-12.7-31.2c-9.3,0-12.7,10-12.7,31.2c0,21.1,3.4,31.1,12.7,31.1C213.5,365.4,216.8,355.5,216.8,334.4z
	"/>
<path class="st0" d="M287.1,304.3l-24.7,61.9l-8.7,24.5h-14.4l22.8-25.1l-26.8-61.3H252l17.2,42.4l17-42.4H287.1z"/>
<path class="st0" d="M341.5,341.4c-2.6,12.8-12.2,24.6-26.6,24.6c-17.1,0-27.2-14.6-27.2-31.6c0-17.1,11.1-31.7,28.6-31.7
	c16.5,0,23.7,13.6,23.8,26.7H340l0.1,0.1h-36.9c0.3,14.6,7.3,24.4,20,24.5c7.8,0,15.2-4.9,17.5-12.6H341.5z M303.3,328.5v0.4h23.4
	c-0.1-13.5-2.7-25.8-10.8-25.8C307.1,303.3,303.3,315.3,303.3,328.5z"/>
<path class="st0" d="M388.4,329.4H388c0-9.6-1.9-24.6-9.7-24.6c-9.3-0.1-12,15.9-12.6,29.3v30.7h-15.9V311c6.1-0.9,11.9-4.1,15.9-8
	v24.9c1-12.8,4.3-25.3,15.4-25.3C396,302.6,398.1,319.2,388.4,329.4z"/>
<path class="st0" d="M484.1,303.8v61H468v-22c-1.8,14.3-8.5,23.2-20.6,23.2c-13,0-17.6-6.7-17.7-19.2l0.1-35
	c6.1-0.9,11.9-4.1,15.9-8v49c0,7.1,2.6,10.4,7.4,10.4c7,0,14.9-8.7,14.9-28.9v-22.4C474.1,310.9,480.1,307.7,484.1,303.8z"/>
<path class="st0" d="M550,325.2v39.6H534v-42.2c0-11.5-2.3-17.2-8.3-17.2c-6.9,0-13.1,7.3-14,24.1v35.4h-15.9V311
	c6.1-0.9,11.9-4.1,15.9-8v20.5c1.8-13,7.5-21,20.7-21C544,302.5,549.9,310.4,550,325.2z"/>
<path class="st0" d="M54.4,411.4C51.8,424.2,42.2,436,27.8,436c-17.1,0-27.2-14.6-27.2-31.6c0-17.1,11.1-31.7,28.6-31.7
	c16.5,0,23.7,13.6,23.8,26.7H53l0.1,0.1H16.2c0.3,14.6,7.3,24.4,20,24.5c7.8,0,15.2-4.9,17.5-12.6H54.4z M16.2,398.5v0.4h23.4
	c-0.1-13.5-2.7-25.8-10.8-25.8C20.1,373.3,16.2,385.3,16.2,398.5z"/>
<path class="st0" d="M149.9,394.9v39.9h-16.5v-48.3c0-7.3-1.8-11-6.9-11c-7,0-12.3,8.9-12.3,28.8v30.6H97.7v-48.3
	c0-7.3-1.8-11-6.9-11c-6.3,0-11.3,7.4-12.2,23.6v35.8H62.7V381c6.1-0.9,11.9-4.1,15.9-8v19.6c1.7-12.4,6.7-20.1,19-20.1
	c11.9,0,16.2,7.4,16.6,21.4c1.4-13.2,6.5-21.4,19.2-21.4C145.5,372.5,149.7,380.3,149.9,394.9z"/>
<path class="st0" d="M222.5,434.7v0.3c-15.8,2.7-25,0.4-26.2-12.7c-0.9,7.5-4.8,13.7-15.3,13.7c-13.2,0-21.4-6.1-21.6-17.7
	c0.3-10.6,9.5-16.3,22.3-17.9l14.5-1.6v-11c0-9.6-3.6-14.6-10.8-14.6c-12-0.1-16.5,13.1-17.7,22.7h-0.4
	c-9.7-10.2-0.1-23.2,18.4-23.2c17.4,0,26.6,6.5,26.6,18.8v27.9C212.2,429.6,213.1,434.2,222.5,434.7z M196.2,417.7v-18.4
	c-2.5,0.3-4.9,0.6-7.4,0.9c-8.9,1.2-12.8,8.4-12.8,18c0,7.6,2.6,16.1,8.9,16.1C191.6,434.3,196.2,428.3,196.2,417.7z"/>
<path class="st0" d="M228,356.7c0-4.9,4.3-8.9,10-8.9c5.8,0,10,4,10,8.9c0,5.1-4.1,8.9-10,8.9C232.3,365.6,228,361.7,228,356.7z
	 M229.9,381c6.1-0.9,12-4.1,16.1-8v61.8h-16.1V381z"/>
<path class="st0" d="M259.6,349.3c6.1-1,11.9-4.3,15.9-8.2v93.7h-15.9V349.3z"/>
<path class="st0" d="M375.3,434.7v0.3c-15.8,2.7-25,0.4-26.2-12.7c-0.9,7.5-4.8,13.7-15.3,13.7c-13.2,0-21.4-6.1-21.6-17.7
	c0.3-10.6,9.5-16.3,22.3-17.9l14.5-1.6v-11c0-9.6-3.6-14.6-10.8-14.6c-12-0.1-16.5,13.1-17.7,22.7h-0.4
	c-9.7-10.2-0.1-23.2,18.4-23.2c17.4,0,26.6,6.5,26.6,18.8v27.9C364.9,429.6,365.8,434.2,375.3,434.7z M348.2,367.4
	c-9.5-4.5-16.5-10.1-23.1-16.7H341c1.2,5.4,3.6,11,8.3,16.7H348.2z M349,417.7v-18.4c-2.5,0.3-4.9,0.6-7.4,0.9
	c-8.9,1.2-12.8,8.4-12.8,18c0,7.6,2.6,16.1,8.9,16.1C344.3,434.3,349,428.3,349,417.7z"/>
<g>
	<g>
		<path d="M65.4,464.8c1.1,12.7,1.6,25.2,1.6,37.6c-5.9,0-11.9,0.1-18.1,0.2c0-13.4-0.5-26.9-1.5-40.5c-0.9-11.2-4.1-16.9-10.7-16.9
			c-7.6-0.1-14,7.1-14.6,23.7c0.4,11.6,0.5,23.1,0.6,34.6c-6.4,0.3-13,0.7-19.7,1.2c0-28.4-0.1-56.9-0.3-85.4
			c6.4-1,12.2-4.3,15.9-8.2c1.6,17.5,2.7,34.8,3.3,51.9c1.7-12.8,7.6-20.7,22-20.6C56.3,442.6,64,450.6,65.4,464.8z"/>
		<path d="M132.7,482.8c-2.1,12-11.9,22.1-26.6,21.5c-17.5-0.7-28.4-14.3-29.5-30.5c-1-16.3,8.5-30.5,26.4-30
			c16.9,0.5,26.7,14.7,27.7,27.3c0,0-0.1,0-0.1,0c0,0,0.1,0.1,0.1,0.1c-12.3-0.7-24.9-1.3-37.9-1.7c1.4,14,8.9,23.2,21.8,24
			c7.9,0.4,15.2-3.7,17.3-10.8C132.2,482.7,132.4,482.8,132.7,482.8z M92.7,468.7c0,0.1,0,0.2,0,0.4c8.2,0.3,16.3,0.6,24.3,1
			c-1.2-12.9-6.2-25.5-14.4-25.8C93.6,444.2,91.7,456.1,92.7,468.7z"/>
		<path d="M131.1,420.2c5.8-1.1,10.6-4.6,13.3-9.1c10.8,35.9,13.1,66.4,11.6,95.1c-5-0.4-10.1-0.8-15.2-1.1
			C141.8,479,139.7,451.5,131.1,420.2z"/>
		<path d="M158.7,420.5c5.8-1.1,10.6-4.8,13.4-9.4c10.2,37.2,11.8,68.3,9.8,97.2c-4.9-0.4-9.8-0.8-14.8-1.2
			C168.5,480.8,167,452.9,158.7,420.5z"/>
		<path d="M191.5,479.9c-0.5-18.8,11.5-32.3,26.4-31.9c14.8,0.3,30.1,15.3,29.3,34.9c-0.7,19.5-15.6,30.5-29.4,29.5
			C204,511.2,191.9,498.5,191.5,479.9z M231.2,482.3c0.3-21.8-4.4-33.5-13.2-33.6c-9.1-0.4-10.4,11-10.2,32.3
			c-0.1,21,1.6,30.2,10.1,31C226.2,512.5,230.7,503.7,231.2,482.3z"/>
		<path d="M341.4,479.4c-0.7,13.3-9.6,24.8-18.8,28.9c-8.5,3.4-17.7,0.7-16.8-11.9c0.9-10.9,1.6-22.2,1.9-34c4.9-1,9.7-4.2,12.9-7.9
			c-0.3,14.4-1.1,28.2-2.2,41.4c-0.5,7.8,0.4,12.3,4.3,12.2c6.2-2.8,7.6-13.5,8.4-28c1.4-23.7-9.7-41.7-31.7-41.4
			c-19.7,0.2-33.2,19.2-34,42.7c-1.1,27.2,10.5,44,33.8,44.6c0,0.2,0,0.4-0.1,0.6c-27.9-0.6-45.4-18.1-44.5-45.5
			c0.5-24.3,20.4-42.9,45.3-43.2C323.3,437.8,342.8,455,341.4,479.4z M306.7,483.2c-0.8,13.7-6.8,27-16.9,27
			c-10.4-0.1-17.2-10-16.4-26.7c0.8-16.8,7.9-28.3,19.3-28.4C303,454.9,307.7,468.2,306.7,483.2z M306.2,483.2
			c1-17.1-4.9-26.2-10.4-26c-4.6,0-9,9.6-9.9,26.3c-1,16.8,2.5,24.8,7,24.8C298.5,508.3,305.3,498.9,306.2,483.2z"/>
		<path d="M69.9,517.6c-0.7,24.8-3,49.5-5.3,75.4c-5.4,0.4-10.9,0.8-16.4,1.3c1.1-15.6,2.1-30.9,2.9-46
			c-2.7,11.8-9.7,22.5-21.8,23.9c-15,1.7-27.9-8.5-28.1-28c0.1-19.5,12.5-32.9,29.6-33.6c12.8-0.6,19.5,8.5,21.1,20.4
			c0.2-6.9,0.4-13.8,0.5-20.6C56.8,513.9,63.3,516.8,69.9,517.6z M51.3,543.8c0.1-2.7,0.2-5.3,0.4-8c-0.5-15.8-8.2-23.5-16-23.2
			c-6.9,0.3-14.1,10.5-14.4,29.5c-0.3,18.9,6.3,28,12.6,27.4C41.3,568.7,49.4,558.7,51.3,543.8z"/>
		<path d="M137.6,513.2c-1.1,18.5-3.6,36.6-6.3,55.1c-5-0.2-10-0.4-15.1-0.6c0.9-6.7,1.8-13.4,2.6-20.1
			c-3.3,12.8-10.8,20.9-22.6,20.9c-12.7,0.1-16.9-6-16.1-17.7c1-10.9,1.8-21.6,2.2-32.4c6.5-0.8,12.7-3.6,17-7.1
			c-0.5,15-1.8,29.9-3.4,44.9c-0.7,6.6,1.5,9.6,6.2,9.6c6.8,0,15.5-7.7,17.6-26c0.7-6.8,1.3-13.5,1.8-20.3
			C127.6,519,133.5,516.5,137.6,513.2z"/>
		<path d="M192,551.8c-4.2,11.2-14.4,20.8-27.2,19.7c-15.3-1.3-22.5-15-20.6-30.2c1.9-15.3,13.5-27.8,29.6-26.5
			c15.2,1.3,20.4,14.4,18.7,26.1c0,0-0.1,0-0.1,0c0,0,0.1,0.1,0.1,0.1c-11-1-22.1-2.1-33.4-3c-1.5,13.1,3.5,22.2,14.8,23.4
			c6.9,0.6,14.2-3.1,17.4-9.7C191.6,551.8,191.8,551.8,192,551.8z M159.2,537.3c0,0.1,0,0.2,0,0.3c7.2,0.6,14.3,1.2,21.3,1.9
			c1.6-12,0.3-23.5-7.1-24.1C165.3,514.8,160.8,525.5,159.2,537.3z"/>
		<path d="M250.1,542.1c-1.8,12.1-3.7,23.9-5.4,35.7c-4.9-0.4-9.8-0.8-14.6-1.2c1.9-12.5,4-25,5.9-37.9c1.5-10.5,0.1-16.1-5.3-16.4
			c-6.2-0.5-12.4,5.9-15.5,21c-1.6,10.6-3.4,21-5.1,31.5c-4.7-0.5-9.5-0.9-14.2-1.4c2.6-15.9,5.4-31.7,7.4-48.1
			c5.6-0.3,11.1-2.9,15.2-6.2c-0.7,6.3-1.5,12.6-2.5,18.8c3.3-11.6,9.2-18.7,21.1-17.9C247.5,520.7,252,528.5,250.1,542.1z"/>
		<path d="M275.4,580.8c0,0-0.1,0-0.1,0c-10.3-0.5-15.4-5.3-13.7-16.9c1.8-12.2,3.7-24.6,5.3-37.4c-3.2,0.5-6.3,1-9.4,1.4
			c0-0.1,0-0.2,0-0.4c10-1.6,18.6-16,20-26.4c0.1,0,0.2,0,0.4,0c3.8,3.6,5.6,8.3,4.1,12.8c-1.5,4.8-7.5,9.5-19.5,12.7
			c1.5-0.2,3-0.5,4.5-0.7c2.3-0.3,4.6-0.7,6.9-1c2.6-0.4,5.1-0.9,7.7-1.3c5.9-1.4,11.8-3,17.8-4.6c-0.4,3.3-0.7,6.5-1.1,9.7
			c-5.6-1.5-11.2-3.1-16.7-4.7c-1.6,13.2-3.4,25.9-5.1,38.4c-0.9,6.4,1.7,9.2,6.5,9.4c5.5,0.2,9.8-4.2,12.9-11.3c0.2,0,0.4,0,0.6,0
			C292.9,571.3,287.6,581.2,275.4,580.8z"/>
		<path d="M310.2,506.1c0.5-4.9,4.8-9.2,10.3-9.5c5.6-0.3,9.3,3.6,8.9,8.5c-0.4,5.1-4.8,9.2-10.5,9.5
			C313.5,514.9,309.8,511.2,310.2,506.1z M309.7,530.1c6-1,12.2-4.4,16.5-8.5c-1.9,20.3-4,39.7-5.5,58.9c-5.6,0.1-11.1,0.1-16.5,0.1
			C305.7,564,307.8,547.4,309.7,530.1z"/>
		<path d="M397.7,535.2c0,13.2,0,26.4,0,39.6c-6.6,0.9-13.1,1.6-19.5,2.2c0.3-13.8,0.6-27.7,1-41.6c0.3-11.4-2.1-16.7-8.5-15.9
			c-7.4,1-14.3,9-16.3,25.5c-0.7,11.5-1.4,22.8-1.9,34.1c-5.9,0.4-11.8,0.7-17.5,0.9c1.1-16.9,2.6-33.9,4-51.5
			c6.3-1.4,12.6-5.1,17-9.5c-0.4,6.8-0.8,13.5-1.3,20.2c2.8-12.9,9.1-21.5,23.4-23.5C390.6,513.8,397.5,520.4,397.7,535.2z"/>
		<path d="M2.9,559.1c7.5-2,14.5-6,19.3-10.3c-0.6,30.6-1.8,61.4-2.7,93.1c-5.5,0.8-11.1,1.7-16.8,2.7C2.8,616,2.8,587.5,2.9,559.1z
			"/>
		<path d="M84.6,612.1c-3.8,12.8-13.7,25.4-27.8,26.6c-16.8,1.4-26.6-12.1-25.9-29c0.6-17.1,13.9-32.9,32.3-34
			c17.1-0.9,22.6,11.9,21.4,24.6c0,0-0.1,0-0.1,0c0,0,0.1,0.1,0.1,0.1c-11.9,0.4-24.2,1.2-37,2.5c-0.7,14.5,5.9,23.5,18.3,22.8
			c7.6-0.6,15.1-5.9,18.1-13.6C84.1,612.1,84.4,612.1,84.6,612.1z M47.6,602c0,0.1,0,0.3,0,0.4c8.1-0.8,16-1.4,23.8-1.9
			c1.1-13.2-0.3-24.8-8.7-24.3C53.5,576.9,48.5,589,47.6,602z"/>
		<path d="M174.2,598.9c-1.6,12.2-2.9,24.8-3.4,38.1c-5-0.3-10-0.5-15-0.8c0.8-16.2,2.6-31.4,4.8-46.2c1-6.6-0.1-10.1-4.7-10.5
			c-6.3-0.4-12.5,7.2-14.8,26c-1.2,9.7-2.2,19.7-2.8,30c-5.1-0.1-10.1-0.3-15.2-0.3c1.1-16.5,3-32,5.1-47c0.9-6.8-0.2-10.3-4.9-10.4
			c-5.9-0.2-11.5,6.4-14.3,22c-1.4,11.4-2.6,23.2-3.5,35.5c-5,0.1-9.9,0.2-15,0.3c1.3-18.5,3.4-36,5.4-52.9c6-0.9,11.9-3.9,16.2-7.4
			c-0.8,6-1.6,12.2-2.4,18.4c3-11.8,8.9-18.7,20.3-18.3c11,0.6,13.8,7.5,12.4,20.5c3-12.3,8.8-19.3,20.1-18.4
			C173.3,578.2,175.9,585.5,174.2,598.9z"/>
		<path d="M238.4,641.5c0,0.1,0,0.2,0,0.2c-15,1.6-23.8-1.4-24.5-13.9c-1.1,7-4.8,12.8-14.5,12.1c-12.2-0.8-19.6-7.4-19-18.6
			c1.1-10.1,10-14.6,21.7-15c4.4-0.1,8.8-0.2,13.3-0.2c0.4-3.3,0.7-6.7,1.2-10c1.1-8.6-1.4-13.4-7.8-14c-10.7-1.2-16.5,10.3-18.7,19
			c-0.1,0-0.2,0-0.3,0c-7.5-10.2,2.9-21,19.4-19.4c15.5,1.5,23,7.9,21.7,19c-0.9,8.4-1.6,16.8-2,25.5
			C228.4,635.9,229.3,640.4,238.4,641.5z M214,623.6c0.3-5.7,0.8-11.4,1.4-17c-2.3,0-4.5,0.2-6.8,0.2c-8.2,0.3-12.5,6.7-13.1,15.7
			c-0.5,7.2,1.7,15.6,7.6,16C209.2,639,213.5,633.5,214,623.6z"/>
		<path d="M249.3,570.8c0.7-4.4,5.1-7.7,10.4-7.4c5.4,0.3,8.7,4.1,8.1,8.6c-0.6,4.6-5,7.8-10.4,7.5
			C252.1,579.1,248.7,575.3,249.3,570.8z M248.2,592.7c5.8-0.4,11.7-2.9,15.9-6.2c-2.2,18.5-3.6,37-3,56.5c-5.3-0.3-10.5-0.7-15.7-1
			C245.1,625,246.3,608.8,248.2,592.7z"/>
		<path d="M314.5,612.5c-0.1,0-0.3,0-0.4,0c0.2-8.9-0.9-22.7-8.8-22.8c-9.5-0.2-13.5,14.3-14.5,26.5c-0.4,9.4-0.4,18.8,0.1,28.5
			c-5.5-0.2-10.9-0.5-16.2-0.8c-0.7-16.9,0.2-33.2,1.7-49.4c6-0.5,12-3.2,16.4-6.7c-0.7,7.6-1.3,15.1-1.7,22.7
			c1.7-11.7,5.9-22.8,17.3-22.8C323.7,587.7,325.2,603.1,314.5,612.5z"/>
		<path d="M386.7,622.1c-3.2,12.9-14.8,24.9-31.3,25c-19.6,0.1-31.2-14.1-30.9-29.9c0.4-15.9,13-29.5,32.8-30.9
			c18.8-1.3,27.8,11,27.9,24c-0.1,0-0.1,0-0.2,0c0.1,0,0.1,0.1,0.2,0.1c-15.2,1.1-29.6,1.7-43.4,2c0.1,13.8,8.1,23.1,23.1,22.9
			c9.2-0.2,18.1-5.4,21-13.2C386,622.1,386.3,622.1,386.7,622.1z M341.7,611.6c0,0.1,0,0.2,0,0.4c8.8-0.2,17.8-0.5,27.1-1
			c-0.1-13.1-2.9-24.7-12-24.1C346.7,587.6,341.9,599.1,341.7,611.6z"/>
		<path d="M2.6,705.9c0-5.2,4.2-9.8,9.5-10.2c5.2-0.4,9.3,3.9,9.3,9.5c0,5.7-4.1,10.2-9.3,10.2C6.7,715.4,2.6,711.2,2.6,705.9z"/>
		<path d="M84.6,686.5c-2.7,18-12.4,29.6-25.9,29.4c-17.6-0.3-28-16.3-27.6-34.5c0.2-18.6,12.4-34.8,31.3-36.3
			c16-1.2,25.5,12.5,16.1,24c-0.1,0-0.2,0-0.4,0c-1.1-10.2-5-24.3-15.2-23.5c-10.6,0.9-16,14.5-16.3,28.3
			c-0.4,16,6.2,27.7,19.4,27.7c7.8-0.1,14.2-5.2,17.8-15.1C84.1,686.5,84.3,686.5,84.6,686.5z"/>
		<path d="M89.4,678.4c0.1-21.6,15.1-35.1,29.3-35.1c14.3,0.2,26.9,13.4,28.2,34.9c1.5,21.4-10.2,37.9-25.9,37.8
			C105.4,715.9,89.2,699.8,89.4,678.4z M130.3,678c-0.8-24.1-2.9-34-11.7-34.2c-8.5,0.1-12.7,10.1-12.5,34.2
			c0.4,24.2,5.5,37.4,14.8,37.3C130.4,715.5,131.4,702.2,130.3,678z"/>
		<path d="M238.5,671.3c1.8,13.6,4.7,28,9.1,43.4c-5.5,0-11,0-16.4,0c-5.2-19-8.2-36.4-9.5-52.8c-0.6-7.4-2.4-11.1-7.2-11.5
			c-6.4-0.3-11.8,7.8-9.2,29.2c1.5,11.1,3.7,22.7,6.7,35c-5.5,0-11,0-16.6,0c-4.5-19.7-6.8-37.7-7.6-54.5c-0.4-7.6-2-11.4-6.7-11.7
			c-5.8-0.3-10.7,6.7-10.4,24.4c0.9,13.1,2.8,26.9,5.7,41.8c-5.3,0-10.6,0-15.9,0c-4-22.5-5.4-42.8-5.4-61.6
			c5.6-0.8,11-3.9,14.8-7.7c-0.1,6.6,0,13.5,0.4,20.5c1-13.3,5.9-20.7,17.2-20c11.1,0.7,14.9,8.1,16.6,22.8
			c0.1-13.8,4.9-21.4,16.8-20.7C232.4,648.7,236.5,656.3,238.5,671.3z"/>
	</g>
</g>
<path class="st0" d="M0.6,754.4c0-19,14.8-31.7,30.2-31.7S61,735.3,61,754.4c0,18.9-14.8,31.6-30.2,31.6S0.6,773.3,0.6,754.4z
	 M43.5,754.4c0-21.2-3.4-31.2-12.7-31.2c-9.3,0-12.7,10-12.7,31.2c0,21.1,3.4,31.1,12.7,31.1C40.1,785.4,43.5,775.5,43.5,754.4z"/>
<path class="st0" d="M125,723.8v61h-16.1v-22c-1.8,14.3-8.5,23.2-20.6,23.2c-13,0-17.6-6.7-17.7-19.2l0.1-35
	c6.1-0.9,11.9-4.1,15.9-8v49c0,7.1,2.6,10.4,7.4,10.4c7,0,14.9-8.7,14.9-28.9v-22.4C115,730.9,121,727.7,125,723.8z"/>
<path class="st0" d="M164.4,730.9c5.7-1,10.6-3.8,15.9-7.9v68.9c0,12.2-6,19.4-17.9,19.4c-13.2,0-18.5-10.1-20.2-19.4h0.8
	c1.7,5.6,5.8,9.2,12,9.2c6.3,0,9.3-4.4,9.3-11.7V730.9z M161.7,706.7c0-4.9,4.3-8.9,10-8.9c5.8,0,10.1,4,10.1,8.9
	c0,5.1-4.3,8.9-10.1,8.9C165.9,715.6,161.7,711.7,161.7,706.7z"/>
<path class="st0" d="M246.2,723.8v61h-16.1v-22c-1.8,14.3-8.5,23.2-20.6,23.2c-13,0-17.6-6.7-17.7-19.2l0.1-35
	c6.1-0.9,11.9-4.1,15.9-8v49c0,7.1,2.6,10.4,7.4,10.4c7,0,14.9-8.7,14.9-28.9v-22.4C236.3,730.9,242.2,727.7,246.2,723.8z"/>
<path class="st0" d="M304.9,766.5c0,12.8-13.7,19.6-22.7,19.6c-18.5,0-33.7-10.1-22-23.3h0.4c1.3,9.6,9.3,22.9,21.5,22.8
	c9.6,0.1,15.3-4.3,15.3-10c0-6.7-6.3-8.3-17-12.3c-12.2-4.4-22.9-8.8-22.9-21.6c0-12.3,12.7-19,22.3-19c19.3,0,29.3,11.8,19.6,22.2
	H299c-0.6-9.5-5.8-21.8-18.1-21.6c-11.3-0.1-15.8,5.6-15.8,10.6c0,5.4,6.7,7.8,18,12.2C294.6,750.3,304.9,753.3,304.9,766.5z"/>
<path class="st0" d="M333.4,786h-0.1c-10.8,0-16.8-4.9-16.8-17.7v-40.5l-10.1,1.9v-0.4c10.8-2.3,18.1-17.5,18.7-27.7h0.4
	c4.4,3.5,6.9,8.3,5.8,12.8c-1,4.9-6.9,9.8-19.6,13.7l4.8-0.9l7.4-1.3l8.2-1.6l18.5-4.8v10l-18.4-4.8v41.2c0,7,3.1,10,8,10
	c5.7,0,9.6-4.9,11.9-12.6h0.6C350.3,774.8,346.1,785.8,333.4,786z"/>
<path class="st0" d="M410.4,761.4c-2.6,12.8-12.2,24.6-26.6,24.6c-17.1,0-27.2-14.6-27.2-31.6c0-17.1,11.1-31.7,28.6-31.7
	c16.5,0,23.7,13.6,23.8,26.7H409l0.1,0.1h-36.9c0.3,14.6,7.3,24.4,20,24.5c7.8,0,15.2-4.9,17.5-12.6H410.4z M372.2,748.5v0.4h23.4
	c-0.1-13.5-2.7-25.8-10.8-25.8C376.1,723.3,372.2,735.3,372.2,748.5z"/>
<g>
	<path d="M55.4,829.9c-7.4,13.5-14.8,20.6-27.1,26c-9.6,2.3-16-3.7-20.3-9.1c-4.3-6-6.6-11.6-7.4-22.4c-0.4-11.5,5.9-20.5,10.9-25.7
		c5.6-5.2,9.7-6.5,19.7-5.4c8.8,2.5,15.3,8.6,18.7,12.9c3.3,4.7,3.5,7.7-2.3,14.2c-0.1,0-0.3,0.1-0.4,0.1c0.1-5.5-3.5-22-15.3-26.2
		c-10.3-1-8.6,12-11.6,21.6c-2.5,11.9-0.6,23.6,12.2,25c7.2,0.6,15.2-2.1,21.7-10.6C54.6,830.2,55,830.1,55.4,829.9z"/>
</g>
<g>
	<path d="M63.7,761.6c4.1,1.9,6.7,6.6,9.1,8c2.4,1.8,4.7,0.2,6.8,1c0,25,0,50,0,74.9c-5.3,6.2-10.6,12.5-15.9,18.7
		C63.7,830,63.7,795.8,63.7,761.6z"/>
</g>
<g>
	<path d="M91.3,769.8c0.5-6.3,4.5-6.7,10-2c6,6.1,9.9,13.8,10,15.9c-0.1,3.6-4.5,15.2-8.8,6.2C98.3,781,91.3,775.7,91.3,769.8z
		 M94.3,796.9c4.2-2.3,6.4,2.7,8.5,4.9c2,2.6,4,2.5,6.2-1.8c-0.5,17.6-1.3,29.7,0.3,47.8c-5.4,4.7-10.7,9.3-16.1,14
		C93.1,834.2,94.1,815.4,94.3,796.9z"/>
</g>
<g>
	<path d="M180.1,808.1c0,21.2,0,42.5,0,63.7c-5.3,1.6-10.6,3.2-15.9,4.8c-6.4-18.6-4.4-27.5-2-38.8c-3.6,8.3-9.7,13.2-17.8,12.1
		c-8.9-2.9-20.8-4.4-22.8-28.2c0.1-12.4,4.7-21.2,8.6-26.1c4.4-5,8.1-6.3,15.5-4.7c11.4,3.2,19.3,20.8,19,32.3
		c0.7-6.8,0.8-15.1-0.4-25.9C168.9,804.4,173.7,809.1,180.1,808.1z M162.8,834.4c0.4-2.1,0.8-4.3,1.2-6.7
		c1.7-14.1-6.6-30.2-13.4-32.1c-6-1.5-6.2,9.9-7.8,25.5c-1.9,16.1,0.2,26.1,4.8,27.4C152.6,849.7,159.4,845.6,162.8,834.4z"/>
</g>
<g>
	<path d="M246,800c0,16.3,0,32.5,0,48.8c-5.8,1.2-11.3,2.2-16.7,3.2c-3.6-8.6-3.8-14.2-2.9-19.3c-3.9,8-4.6,21.2-17.1,25.3
		c-13.3,1.6-17.2-5.3-17.7-19c0-14,0.2-28,0.2-42c9-0.6,14.3-1.7,15.9-6c10.1,21.9,1.4,28.1-0.5,47.8c-0.8,8.8,2.4,14.2,6.9,13.2
		c7-2.4,9.2-13.3,13.8-25.3c1.5-5.2,3.3-10.9,3.1-19.7C236.1,807.3,241.9,802.3,246,800z"/>
</g>
<g>
	<path d="M309.5,829.9c-2.1,6.4-7.1,10.7-11.1,15c-4.4,4.2-8,8.5-15.4,10.9c-9.4,2.3-15.6-3.8-19.9-9.2c-4.2-6.1-6.5-11.6-7.3-22.3
		c-0.4-11.3,5.8-20.3,10.5-25.5c5.3-5.3,9.1-6.8,18.1-5.8c8.9,2,14.6,9.1,18.1,14c3.5,5.4,4.9,8.6,5.2,14.1c-0.1,0-0.1,0-0.2,0.1
		c0.1,0,0.1,0,0.2,0c-16.8,7-21.1-2-32.5-4.5c-2.4,11.8,0.1,23,12.4,24.3c7,0.7,16.5-3.2,20.6-10.6
		C308.6,830.2,309.1,830.1,309.5,829.9z M275.3,815.9c0,0.1,0,0.2-0.1,0.3c7.2,1.7,11.6,5.9,18.2,7c3.4-8.8-0.2-26.8-9.2-29.5
		C275.9,792.9,278.2,805.9,275.3,815.9z"/>
</g>
<g>
	<path d="M354.8,823.2c-0.1,0-0.3,0.1-0.4,0.1c1.2-6.2,0.5-21.9-7.6-25.6c-8.3-0.8-6.8,14.7-11.2,23.5c-1.9,8.1-4.5,17.3-1.9,35.4
		c-5.3,1.5-10.6,3-15.9,4.4c0-21.5,0-43,0-64.5c9.1-0.6,14-0.8,16.1-5.1c4.1,11.5,4,18.4,2.8,24.9c3.6-8.3,1.2-22.9,12.4-21.2
		C363.7,802.3,367,809.5,354.8,823.2z"/>
</g>
<g>
	<path d="M397.8,769.8c0.5-6.3,4.5-6.7,10-2c6,6.1,9.9,13.8,10,15.9c-0.1,3.6-4.5,15.2-8.8,6.2C404.8,781,397.8,775.7,397.8,769.8z
		 M400.8,796.9c4.2-2.3,6.4,2.7,8.5,4.9c2,2.6,4,2.5,6.2-1.8c-0.5,17.6-1.3,29.7,0.3,47.8c-5.4,4.7-10.7,9.3-16.1,14
		C399.6,834.2,400.6,815.4,400.8,796.9z"/>
</g>
<g>
	<path d="M482.3,829.9c-7.4,13.5-14.8,20.6-27.1,26c-9.6,2.3-16-3.7-20.3-9.1c-4.3-6-6.6-11.6-7.4-22.4
		c-0.4-11.5,5.9-20.5,10.9-25.7c5.6-5.2,9.7-6.5,19.7-5.4c8.8,2.5,15.3,8.6,18.7,12.9c3.3,4.7,3.5,7.7-2.3,14.2
		c-0.1,0-0.3,0.1-0.4,0.1c0.1-5.5-3.5-22-15.3-26.2c-10.3-1-8.6,12-11.6,21.6c-2.5,11.9-0.6,23.6,12.2,25
		c7.2,0.6,15.2-2.1,21.7-10.6C481.5,830.2,481.9,830.1,482.3,829.9z"/>
</g>
<g>
	<path d="M490.6,769.8c0.5-6.3,4.5-6.7,10-2c6,6.1,9.9,13.8,10,15.9c-0.1,3.6-4.5,15.2-8.8,6.2C497.6,781,490.5,775.7,490.6,769.8z
		 M493.6,796.9c4.2-2.3,6.4,2.7,8.5,4.9c2,2.6,4,2.5,6.2-1.8c-0.5,17.6-1.3,29.7,0.3,47.8c-5.4,4.7-10.7,9.3-16.1,14
		C492.4,834.2,493.4,815.4,493.6,796.9z"/>
</g>
</svg>
