<?xml version="1.0" encoding="utf-8"?>
<!-- Generator: Adobe Illustrator 24.0.1, SVG Export Plug-In . SVG Version: 6.00 Build 0)  -->
<svg version="1.1" id="Calque_1" xmlns="http://www.w3.org/2000/svg" xmlns:xlink="http://www.w3.org/1999/xlink" x="0px" y="0px"
	 viewBox="0 0 1088.7 283.5" style="enable-background:new 0 0 1088.7 283.5;" xml:space="preserve">
<g>
	<path d="M85.7,70.1C85.7,81.1,75,84.9,68,84.9c-14.4,0-26.4-8.1-17-18.6h0.3c1,7.6,7.3,18.3,16.6,18.3c7.5,0.1,11.8-3.5,11.8-8.8
		c0-7.7-6.3-8.8-13.1-11.4c-7.7-2.9-17.9-5.5-17.9-15.5c0-10.7,9.9-14.4,17.9-14.4c14.6,0,22.5,10.1,14.7,18.3H81
		c-0.6-7.5-4.6-18.1-14.4-18c-7.3-0.1-11.9,3.7-11.9,9.1c0,6.6,6.5,8.1,13.7,10.9C75.7,57.5,85.7,59.6,85.7,70.1z"/>
	<path d="M89.3,67.8c0-10.3,8-17.2,16.3-17.2c8.3,0,16.3,6.9,16.3,17.2c0,10.2-8,17.1-16.3,17.1C97.3,84.8,89.3,78,89.3,67.8z
		 M112.5,67.8c0-11.5-1.8-16.9-6.9-16.9s-6.9,5.4-6.9,16.9c0,11.4,1.8,16.8,6.9,16.8S112.5,79.2,112.5,67.8z"/>
	<path d="M155.7,71.5c-1.7,8.3-7.4,13.3-14.6,13.3c-9.5,0-15-7.8-15-17.1c0-9.5,6.1-17.2,16.5-17.2c8.9,0,14.8,7.1,9.6,12.5H152
		c-0.7-5-3.4-12.3-9.1-12.3c-5.9,0.1-8.4,6.9-8.4,13.7c0,8,3.6,13.7,10.8,13.7c4.3,0,7.9-2.2,10-6.8H155.7z"/>
	<path d="M160.2,42c0-2.7,2.3-4.8,5.4-4.8c3.2,0,5.4,2.2,5.4,4.8c0,2.7-2.2,4.8-5.4,4.8C162.5,46.8,160.2,44.7,160.2,42z
		 M161.3,55.2c3.3-0.5,6.5-2.2,8.7-4.3v33.4h-8.7V55.2z"/>
	<path d="M210.3,84.1v0.1c-8.5,1.5-13.5,0.2-14.1-6.9c-0.5,4.1-2.6,7.4-8.3,7.4c-7.1,0-11.6-3.3-11.7-9.6c0.1-5.7,5.1-8.8,12-9.7
		l7.8-0.8v-6c0-5.2-2-7.9-5.8-7.9c-6.5-0.1-8.9,7.1-9.6,12.3h-0.2c-5.3-5.5-0.1-12.5,9.9-12.5c9.4,0,14.4,3.5,14.4,10.2v15.1
		C204.7,81.4,205.2,83.9,210.3,84.1z M196.1,75V65c-1.3,0.1-2.7,0.4-4,0.5c-4.8,0.6-6.9,4.6-6.9,9.7c0,4.1,1.4,8.7,4.8,8.7
		C193.6,83.9,196.1,80.7,196.1,75z"/>
	<path d="M212.7,38c3.3-0.6,6.4-2.3,8.6-4.4v50.6h-8.6V38z"/>
</g>
<g>
	<path d="M146.7,159.5c0,34.4-27.4,55.8-61,55.8H53.1v-112h32.6C119.3,103.3,146.7,124.6,146.7,159.5z M125.1,159.5
		c0-34.4-15.2-55.5-39.4-55.5H73.1v110.7h12.6C109.9,214.7,125.1,193.7,125.1,159.5z"/>
	<path d="M190.7,118.9c0-6.1,5.3-11,12.3-11c7.2,0,12.3,5,12.3,11c0,6.2-5.1,11-12.3,11C196,129.9,190.7,125.1,190.7,118.9z
		 M193.1,148.9c7.5-1.1,14.9-5.1,19.8-9.9v76.3h-19.8V148.9z"/>
	<path d="M319.8,192.8c0,15.8-17,24.2-28,24.2c-22.9,0-41.6-12.5-27.2-28.8h0.5c1.6,11.8,11.5,28.3,26.6,28.2
		c11.8,0.2,18.9-5.3,18.9-12.3c0-8.3-7.8-10.2-21-15.2c-15-5.4-28.3-10.9-28.3-26.7c0-15.2,15.7-23.5,27.5-23.5
		c23.8,0,36.2,14.6,24.2,27.4h-0.5c-0.8-11.7-7.2-26.9-22.4-26.7c-13.9-0.2-19.5,6.9-19.5,13.1c0,6.7,8.3,9.6,22.2,15
		C307,172.8,319.8,176.5,319.8,192.8z"/>
	<path d="M387,216.8h-0.2c-13.3,0-20.8-6.1-20.8-21.9v-50.1l-12.5,2.4v-0.5c13.3-2.9,22.4-21.6,23-34.2h0.5
		c5.4,4.3,8.5,10.2,7.2,15.8c-1.3,6.1-8.5,12.2-24.2,17l5.9-1.1l9.1-1.6l10.1-1.9l22.9-5.9V147l-22.7-5.9V192
		c0,8.6,3.8,12.3,9.9,12.3c7,0,11.8-6.1,14.7-15.5h0.8C407.8,203,402.7,216.6,387,216.8z"/>
	<path d="M526.9,215.2v0.3c-19.5,3.4-30.9,0.5-32.3-15.7c-1.1,9.3-5.9,17-18.9,17c-16.3,0-26.4-7.5-26.7-21.9
		c0.3-13.1,11.7-20.2,27.5-22.1l17.9-1.9v-13.6c0-11.8-4.5-18.1-13.3-18.1c-14.9-0.2-20.3,16.2-21.9,28h-0.5
		c-12-12.6-0.2-28.6,22.7-28.6c21.4,0,32.8,8,32.8,23.2v34.4C514.1,208.9,515.2,214.5,526.9,215.2z M494.4,194.2v-22.7
		c-3,0.3-6.1,0.8-9.1,1.1c-11,1.4-15.8,10.4-15.8,22.2c0,9.4,3.2,19.8,11,19.8C488.6,214.7,494.4,207.3,494.4,194.2z"/>
	<path d="M632.6,166.4v49h-19.8v-52.2c0-14.2-2.9-21.3-10.2-21.3c-8.5,0-16.2,9-17.3,29.8v43.7h-19.7v-66.4
		c7.5-1.1,14.7-5.1,19.7-9.9v25.3c2.2-16,9.3-25.9,25.6-25.9C625.1,138.4,632.5,148.1,632.6,166.4z"/>
	<path d="M744.1,186.4c-3.8,19-17,30.4-33.4,30.4c-21.6,0-34.2-17.8-34.2-39c0-21.6,13.9-39.2,37.8-39.2c20.3,0,33.9,16.3,21.9,28.6
		h-0.5c-1.6-11.4-7.8-28-20.8-28c-13.4,0.2-19.2,15.7-19.2,31.4c0,18.2,8.2,31.2,24.6,31.4c9.8,0,18.1-5.1,22.9-15.5H744.1z"/>
	<path d="M786.4,118.9c0-6.1,5.3-11,12.3-11c7.2,0,12.3,5,12.3,11c0,6.2-5.1,11-12.3,11C791.7,129.9,786.4,125.1,786.4,118.9z
		 M788.8,148.9c7.5-1.1,14.9-5.1,19.8-9.9v76.3h-19.8V148.9z"/>
	<path d="M924.5,166.4v49h-19.8v-52.2c0-14.2-2.9-21.3-10.2-21.3c-8.5,0-16.2,9-17.3,29.8v43.7h-19.7v-66.4
		c7.5-1.1,14.7-5.1,19.7-9.9v25.3c2.2-16,9.3-25.9,25.6-25.9C916.9,138.4,924.3,148.1,924.5,166.4z"/>
	<path d="M1039.7,223.8c0,17.6-21.9,23.5-33.8,23.5c-10.2,0-33.8-2.7-33.8-16.5c0-11,14.6-13.6,28.3-14.4l0.3,0.3
		c-7.5,1.1-10.6,6.9-10.6,14.1c0,7.4,6.7,16,15.7,16c10.9,0,17-6.9,17-15.8c0-10.4-6.1-15.4-18.1-16.8c-21.9-2.6-37.9-3.8-37.9-17.6
		c0-8.8,7-13,17.6-14.4c-6.2-3.7-11-9.6-11-18.2c0-17.9,19.7-25.4,31.8-25.4h0.2l0.5-0.3c12.2,0,22.7-16.5,24.2-28.3h0.5
		c11.5,15.7-3.5,27.8-22.7,28.8c12.2,0.8,29.3,8.5,29.3,25.3c0,17.8-19.7,23.5-31.8,23.5c-6.1,0-13.9-1.4-20.3-5
		c-5.1,1.3-9.1,3.5-9.1,7.8c0,5,7,5.8,31.8,9C1030.4,202.4,1039.7,211.8,1039.7,223.8z M992.6,164c0,10.4,1.9,23,12.6,23
		c10.7,0,12.6-12.6,12.6-23c0-10.4-1.9-25-12.6-25C994.5,139,992.6,153.6,992.6,164z"/>
</g>
</svg>
