<?xml version="1.0" encoding="utf-8"?>
<!-- Generator: Adobe Illustrator 24.0.1, SVG Export Plug-In . SVG Version: 6.00 Build 0)  -->
<svg version="1.1" id="Calque_1" xmlns="http://www.w3.org/2000/svg" xmlns:xlink="http://www.w3.org/1999/xlink" x="0px" y="0px"
	 viewBox="0 0 578 318.1" style="enable-background:new 0 0 578 318.1;" xml:space="preserve">
<style type="text/css">
	.st0{fill:none;stroke:#000000;}
</style>
<g>
	<path d="M67.5,87.3v39.7H51.4V84.8c0-11.5-2.3-17.3-8.3-17.3c-6.9,0-13.1,7.3-14,24.2v35.5h-16V41.4c6.1-1,11.9-4.3,16-8.2v52.4
		c1.8-13,7.5-21.1,20.8-21.1C61.5,64.6,67.4,72.5,67.5,87.3z"/>
	<path d="M131,103.6c-2.6,12.9-12.2,24.6-26.6,24.6c-17.1,0-27.3-14.6-27.3-31.7c0-17.1,11.2-31.8,28.7-31.8
		c16.5,0,23.8,13.6,23.9,26.7h-0.2l0.2,0.2h-37c0.2,14.6,7.3,24.4,20,24.6c7.8,0,15.2-5,17.5-12.6L131,103.6L131,103.6z M92.7,90.7
		v0.4h23.5c-0.2-13.5-2.7-25.9-10.8-25.9C96.6,65.4,92.7,77.5,92.7,90.7z"/>
	<path d="M139.3,41.4c6.1-1,11.9-4.3,16-8.2v93.9h-16V41.4z"/>
	<path d="M167,41.4c6.1-1,11.9-4.3,16-8.2v93.9h-16V41.4z"/>
	<path d="M192.7,96.6c0-19.1,14.8-31.8,30.3-31.8c15.4,0,30.3,12.7,30.3,31.8c0,19-14.8,31.7-30.3,31.7
		C207.6,128.2,192.7,115.5,192.7,96.6z M235.7,96.6c0-21.3-3.4-31.3-12.7-31.3c-9.4,0-12.7,10-12.7,31.3c0,21.1,3.4,31.1,12.7,31.1
		C232.3,127.8,235.7,117.8,235.7,96.6z"/>
</g>
<path class="st0" d="M30.4,198.2h-0.2c-10.8,0-16.9-5-16.9-17.8v-40.7l-10.1,1.9v-0.4c10.8-2.3,18.2-17.5,18.7-27.8h0.4
	c4.4,3.5,6.9,8.3,5.8,12.9c-1,5-6.9,9.8-19.6,13.8l4.8-0.9l7.4-1.3l8.2-1.5l18.6-4.8v10l-18.4-4.8V178c0,7,3.1,10,8.1,10
	c5.7,0,9.6-5,11.9-12.6h0.6C47.3,187,43.2,198,30.4,198.2z"/>
<path class="st0" d="M113.1,157.3V197H97v-42.3c0-11.5-2.3-17.3-8.3-17.3c-6.9,0-13.1,7.3-14,24.2v35.5h-16v-85.8
	c6.1-1,11.9-4.3,16-8.2v52.4c1.8-13,7.5-21.1,20.8-21.1C107,134.5,113,142.4,113.1,157.3z"/>
<path class="st0" d="M176.6,173.5c-2.6,12.9-12.2,24.6-26.6,24.6c-17.1,0-27.3-14.6-27.3-31.7c0-17.1,11.2-31.8,28.7-31.8
	c16.5,0,23.8,13.6,23.9,26.7l0,0l0.2,0.2h-37c0.2,14.6,7.3,24.4,20,24.6c7.8,0,15.2-5,17.5-12.6L176.6,173.5L176.6,173.5z
	 M138.3,160.6v0.4h23.5c-0.2-13.5-2.7-25.9-10.8-25.9C142.2,135.3,138.3,147.4,138.3,160.6z"/>
<path class="st0" d="M223.7,161.6h-0.4c0-9.6-1.9-24.7-9.8-24.7c-9.4-0.2-12.1,16-12.6,29.4V197h-16V143c6.1-0.9,11.9-4.2,16-8.1
	v24.9c1-12.9,4.3-25.3,15.4-25.3C231.3,134.7,233.3,151.2,223.7,161.6z"/>
<path class="st0" d="M286.9,173.5c-2.6,12.9-12.2,24.6-26.6,24.6c-17.1,0-27.3-14.6-27.3-31.7c0-17.1,11.2-31.8,28.7-31.8
	c16.5,0,23.8,13.6,23.9,26.7h-0.2l0.2,0.2h-37c0.2,14.6,7.3,24.4,20,24.6c7.8,0,15.2-5,17.5-12.6L286.9,173.5L286.9,173.5z
	 M248.6,160.6v0.4h23.5c-0.2-13.5-2.7-25.9-10.8-25.9C252.5,135.3,248.6,147.4,248.6,160.6z"/>
<g>
	<path d="M434,257.4c0-3.3,2.6-5.9,5.9-5.9c3.3,0,5.8,2.7,5.8,5.9c0,3.3-2.6,5.9-5.8,5.9C436.5,263.4,434,260.8,434,257.4z"/>
</g>
<g>
	<path d="M57.4,245.2c0,11.9-12.8,18.2-21.1,18.2c-17.3,0-31.4-9.4-20.5-21.7h0.4c1.2,8.9,8.7,21.4,20,21.2c8.9,0.1,14.2-4,14.2-9.3
		c0-6.3-5.9-7.7-15.8-11.5c-11.3-4.1-21.4-8.2-21.4-20.1c0-11.5,11.8-17.7,20.7-17.7c18,0,27.3,11,18.2,20.6h-0.4
		c-0.6-8.8-5.4-20.3-16.9-20.1c-10.5-0.1-14.7,5.2-14.7,9.9c0,5.1,6.3,7.2,16.8,11.3C47.7,230.1,57.4,232.9,57.4,245.2z"/>
	<path d="M83.9,263.3h-0.1c-10,0-15.7-4.6-15.7-16.5V209l-9.4,1.8v-0.4c10-2.2,16.9-16.3,17.4-25.8h0.4c4.1,3.3,6.4,7.7,5.4,11.9
		c-1,4.6-6.4,9.2-18.2,12.8l4.5-0.8l6.9-1.2l7.6-1.4l17.3-4.5v9.3l-17.1-4.5v38.4c0,6.5,2.9,9.3,7.5,9.3c5.3,0,8.9-4.6,11.1-11.7
		h0.6C99.6,252.9,95.8,263.2,83.9,263.3z"/>
	<path d="M145,229.3h-0.4c0-8.9-1.8-22.9-9-22.9c-8.7-0.1-11.2,14.8-11.7,27.3v28.6h-14.8v-50.1c5.7-0.8,11.1-3.9,14.8-7.5v23.2
		c1-11.9,4-23.5,14.4-23.5C152.1,204.3,154.1,219.8,145,229.3z"/>
	<path d="M211.9,262.1v0.2c-14.7,2.5-23.3,0.4-24.4-11.8c-0.8,7-4.5,12.8-14.2,12.8c-12.3,0-19.9-5.7-20.1-16.5
		c0.2-9.9,8.8-15.2,20.8-16.7l13.5-1.4v-10.3c0-8.9-3.4-13.6-10-13.6c-11.2-0.1-15.3,12.2-16.5,21.1h-0.4c-9-9.5-0.1-21.6,17.1-21.6
		c16.2,0,24.7,6,24.7,17.5v25.9C202.2,257.4,203.1,261.6,211.9,262.1z M187.4,246.3v-17.1c-2.3,0.2-4.6,0.6-6.9,0.8
		c-8.3,1.1-11.9,7.8-11.9,16.8c0,7.1,2.4,15,8.3,15C183,261.7,187.4,256.2,187.4,246.3z"/>
	<path d="M267.5,225.3v36.9h-15v-39.3c0-10.7-2.2-16-7.7-16c-6.4,0-12.2,6.8-13,22.4v32.9H217v-50.1c5.7-0.8,11.1-3.9,14.8-7.5v19.1
		c1.7-12.1,7-19.5,19.3-19.5C261.9,204.2,267.4,211.6,267.5,225.3z"/>
	<path d="M330.3,268.6c0,13.3-16.5,17.7-25.5,17.7c-7.7,0-25.5-2.1-25.5-12.4c0-8.3,11-10.3,21.4-10.9l0.2,0.2
		c-5.7,0.8-8,5.2-8,10.6c0,5.6,5.1,12.1,11.8,12.1c8.2,0,12.8-5.2,12.8-11.9c0-7.8-4.6-11.6-13.6-12.7c-16.5-1.9-28.6-2.9-28.6-13.3
		c0-6.6,5.3-9.8,13.3-10.9c-4.7-2.8-8.3-7.2-8.3-13.8c0-13.5,14.8-19.2,24-19.2h0.1l0.4-0.2c9.2,0,17.1-12.4,18.2-21.3h0.4
		c8.7,11.8-2.7,21-17.1,21.7c9.2,0.6,22.1,6.4,22.1,19.1c0,13.4-14.8,17.7-24,17.7c-4.6,0-10.5-1.1-15.3-3.7c-3.9,1-6.9,2.7-6.9,5.9
		c0,3.7,5.3,4.3,24,6.8C323.3,252.5,330.3,259.6,330.3,268.6z M294.8,223.5c0,7.8,1.4,17.4,9.5,17.4c8.1,0,9.5-9.5,9.5-17.4
		c0-7.8-1.4-18.8-9.5-18.8C296.3,204.7,294.8,215.7,294.8,223.5z"/>
	<path d="M384.7,240.4c-2.4,11.9-11.3,22.9-24.7,22.9c-15.9,0-25.3-13.6-25.3-29.4c0-15.9,10.4-29.6,26.7-29.6
		c15.3,0,22.1,12.7,22.2,24.9h-0.1l0.1,0.1h-34.4c0.2,13.6,6.8,22.7,18.6,22.8c7.2,0,14.1-4.6,16.3-11.7H384.7z M349.2,228.4v0.4
		H371c-0.1-12.5-2.5-24-10-24C352.8,204.9,349.2,216.1,349.2,228.4z"/>
	<path d="M428.5,229.3h-0.4c0-8.9-1.8-22.9-9-22.9c-8.7-0.1-11.2,14.8-11.7,27.3v28.6h-14.8v-50.1c5.7-0.8,11.1-3.9,14.8-7.5v23.2
		c1-11.9,4-23.5,14.4-23.5C435.6,204.3,437.5,219.8,428.5,229.3z"/>
</g>
</svg>
