<?xml version="1.0" encoding="utf-8"?>
<!-- Generator: Adobe Illustrator 24.0.1, SVG Export Plug-In . SVG Version: 6.00 Build 0)  -->
<svg version="1.1" id="Calque_1" xmlns="http://www.w3.org/2000/svg" xmlns:xlink="http://www.w3.org/1999/xlink" x="0px" y="0px"
	 viewBox="0 0 578 318.1" style="enable-background:new 0 0 578 318.1;" xml:space="preserve">
<style type="text/css">
	.st0{fill:none;stroke:#000000;}
	.st1{opacity:0.9;fill-rule:evenodd;clip-rule:evenodd;enable-background:new    ;}
	.st2{fill:none;stroke:#000000;stroke-width:0.2;stroke-linecap:square;}
	.st3{fill-rule:evenodd;clip-rule:evenodd;}
</style>
<g>
	<path d="M86.2,76.3v51.3H65.4V73c0-14.9-3-22.3-10.7-22.3c-8.9,0-16.9,9.4-18.1,31.2v45.8H16V17c7.9-1.3,15.4-5.5,20.6-10.6v67.7
		c2.3-16.8,9.7-27.2,26.8-27.2C78.4,47,86.1,57.2,86.2,76.3z"/>
	<path d="M168.2,97.3c-3.4,16.6-15.8,31.8-34.4,31.8c-22.1,0-35.2-18.9-35.2-40.9c0-22.1,14.4-41.1,37-41.1
		c21.3,0,30.7,17.6,30.8,34.5h-0.2l0.2,0.2h-47.8c0.3,18.9,9.4,31.5,25.8,31.7c10.1,0,19.6-6.4,22.6-16.3h1.2V97.3z M118.8,80.7v0.5
		h30.3c-0.2-17.4-3.5-33.4-13.9-33.4C123.8,48,118.8,63.6,118.8,80.7z"/>
	<path d="M178.9,17c7.9-1.3,15.4-5.5,20.6-10.6v121.2h-20.6V17z"/>
	<path d="M214.7,17c7.9-1.3,15.4-5.5,20.6-10.6v121.2h-20.6V17z"/>
	<path d="M247.8,88.2c0-24.6,19.1-41.1,39.1-41.1c19.9,0,39.1,16.4,39.1,41.1c0,24.5-19.1,40.9-39.1,40.9
		C267,129.1,247.8,112.7,247.8,88.2z M303.3,88.2c0-27.5-4.4-40.4-16.4-40.4c-12.1,0-16.4,12.9-16.4,40.4c0,27.3,4.4,40.2,16.4,40.2
		C299,128.5,303.3,115.6,303.3,88.2z"/>
</g>
<g>
	<path class="st0" d="M38.3,269.4h-0.2c-13.9,0-21.8-6.4-21.8-23v-52.5l-13.1,2.5v-0.5c13.9-3,23.5-22.6,24.1-35.9h0.5
		c5.7,4.5,8.9,10.7,7.5,16.6C34,183,26.4,189.3,10,194.4l6.2-1.2l9.6-1.7l10.6-2l24-6.2v12.9L36.6,190v53.3c0,9.1,4,12.9,10.4,12.9
		c7.4,0,12.4-6.4,15.4-16.3h0.8C60.1,254.9,54.8,269.2,38.3,269.4z"/>
	<path class="st0" d="M145.1,216.6v51.3h-20.8v-54.6c0-14.9-3-22.3-10.7-22.3c-8.9,0-16.9,9.4-18.1,31.2V268H74.9V157.2
		c7.9-1.3,15.4-5.5,20.6-10.6v67.7c2.3-16.8,9.7-27.2,26.8-27.2C137.2,187.2,145,197.4,145.1,216.6z"/>
	<path class="st0" d="M227.1,237.5c-3.4,16.6-15.8,31.8-34.4,31.8c-22.1,0-35.2-18.9-35.2-40.9c0-22.1,14.4-41.1,37-41.1
		c21.3,0,30.7,17.6,30.8,34.5h0l0.2,0.2h-47.8c0.3,18.9,9.4,31.5,25.8,31.7c10.1,0,19.6-6.4,22.6-16.3L227.1,237.5L227.1,237.5z
		 M177.6,220.9v0.5h30.3C207.7,204,204.4,188,194,188C182.7,188.2,177.6,203.8,177.6,220.9z"/>
	<path class="st0" d="M287.8,222.1h-0.5c0-12.4-2.5-31.9-12.6-31.9c-12.1-0.2-15.6,20.6-16.3,37.9v39.7h-20.6v-69.6
		c7.9-1.2,15.4-5.4,20.6-10.4V220c1.3-16.6,5.5-32.7,19.9-32.7C297.7,187.4,300.3,208.8,287.8,222.1z"/>
	<path class="st0" d="M369.4,237.5c-3.4,16.6-15.8,31.8-34.4,31.8c-22.1,0-35.2-18.9-35.2-40.9c0-22.1,14.4-41.1,37-41.1
		c21.3,0,30.7,17.6,30.8,34.5h-0.2l0.2,0.2h-47.8c0.3,18.9,9.4,31.5,25.8,31.7c10.1,0,19.6-6.4,22.6-16.3L369.4,237.5L369.4,237.5z
		 M320,220.9v0.5h30.3c-0.2-17.4-3.5-33.4-13.9-33.4C325,188.2,320,203.8,320,220.9z"/>
	<g>
		<path d="M374.5,261.6c0-4.2,3.4-7.6,7.6-7.6c4.2,0,7.5,3.5,7.5,7.6c0,4.3-3.4,7.6-7.5,7.6C377.8,269.3,374.5,265.9,374.5,261.6z"
			/>
	</g>
</g>
<g>
	<path d="M25.9,300.1c-0.7-1.1-1.6-1.8-2.9-1.8v8.3h-1.5v-8.3c-1.3,0-2.2,0.6-2.9,1.8v-1.9h7.2V300.1z"/>
	<path d="M31.7,303v3.7h-1.5v-3.9c0-1.1-0.2-1.6-0.8-1.6c-0.6,0-1.2,0.7-1.3,2.2v3.3h-1.5v-7.9c0.6-0.1,1.1-0.4,1.5-0.8v4.8
		c0.2-1.2,0.7-1.9,1.9-1.9C31.2,300.9,31.7,301.6,31.7,303z"/>
	<path d="M32.8,299.4c0-0.5,0.4-0.8,0.9-0.8c0.5,0,0.9,0.4,0.9,0.8c0,0.5-0.4,0.8-0.9,0.8C33.2,300.2,32.8,299.9,32.8,299.4z
		 M33,301.6c0.6-0.1,1.1-0.4,1.5-0.7v5.7H33V301.6z"/>
	<path d="M40.1,304.9c0,1.2-1.3,1.8-2.1,1.8c-1.7,0-3.1-0.9-2-2.2h0c0.1,0.9,0.9,2.1,2,2.1c0.9,0,1.4-0.4,1.4-0.9
		c0-0.6-0.6-0.8-1.6-1.1c-1.1-0.4-2.1-0.8-2.1-2c0-1.1,1.2-1.8,2.1-1.8c1.8,0,2.7,1.1,1.8,2.1h0c-0.1-0.9-0.5-2-1.7-2
		c-1,0-1.5,0.5-1.5,1c0,0.5,0.6,0.7,1.7,1.1C39.1,303.4,40.1,303.7,40.1,304.9z"/>
	<path d="M43.5,299.4c0-0.5,0.4-0.8,0.9-0.8c0.5,0,0.9,0.4,0.9,0.8c0,0.5-0.4,0.8-0.9,0.8C43.9,300.2,43.5,299.9,43.5,299.4z
		 M43.7,301.6c0.6-0.1,1.1-0.4,1.5-0.7v5.7h-1.5V301.6z"/>
	<path d="M50.8,304.9c0,1.2-1.3,1.8-2.1,1.8c-1.7,0-3.1-0.9-2-2.2h0c0.1,0.9,0.9,2.1,2,2.1c0.9,0,1.4-0.4,1.4-0.9
		c0-0.6-0.6-0.8-1.6-1.1c-1.1-0.4-2.1-0.8-2.1-2c0-1.1,1.2-1.8,2.1-1.8c1.8,0,2.7,1.1,1.8,2.1h0c-0.1-0.9-0.5-2-1.7-2
		c-1,0-1.5,0.5-1.5,1c0,0.5,0.6,0.7,1.7,1.1C49.8,303.4,50.8,303.7,50.8,304.9z"/>
	<path d="M59.5,306.8l-1.7-3.9l-1.6,3.9l-2.5-5.7h1.5l1.6,3.9l1.6-3.9h0.1l1.6,3.9l1.6-3.9h0.1L59.5,306.8z"/>
	<path d="M67.5,303v3.7H66v-3.9c0-1.1-0.2-1.6-0.8-1.6c-0.6,0-1.2,0.7-1.3,2.2v3.3h-1.5v-7.9c0.6-0.1,1.1-0.4,1.5-0.8v4.8
		c0.2-1.2,0.7-1.9,1.9-1.9C66.9,300.9,67.5,301.6,67.5,303z"/>
	<path d="M74.2,306.6L74.2,306.6c-1.5,0.3-2.3,0.1-2.4-1.2c-0.1,0.7-0.4,1.3-1.4,1.3c-1.2,0-2-0.6-2-1.6c0-1,0.9-1.5,2.1-1.7
		l1.3-0.1v-1c0-0.9-0.3-1.4-1-1.4c-1.1,0-1.5,1.2-1.6,2.1h0c-0.9-0.9,0-2.1,1.7-2.1c1.6,0,2.5,0.6,2.5,1.7v2.6
		C73.3,306.1,73.4,306.6,74.2,306.6z M71.8,305v-1.7c-0.2,0-0.5,0.1-0.7,0.1c-0.8,0.1-1.2,0.8-1.2,1.7c0,0.7,0.2,1.5,0.8,1.5
		C71.4,306.6,71.8,306,71.8,305z"/>
	<path d="M76.4,306.7L76.4,306.7c-1,0-1.6-0.5-1.6-1.6v-3.8l-0.9,0.2v0c1-0.2,1.7-1.6,1.7-2.6h0c0.4,0.3,0.6,0.8,0.5,1.2
		c-0.1,0.5-0.6,0.9-1.8,1.3l0.4-0.1l0.7-0.1l0.8-0.1l1.7-0.4v0.9l-1.7-0.4v3.8c0,0.6,0.3,0.9,0.7,0.9c0.5,0,0.9-0.5,1.1-1.2h0.1
		C78,305.7,77.6,306.7,76.4,306.7z"/>
	<path d="M81.5,298.2H83v8.4h-1.5V298.2z"/>
	<path d="M91.9,298v8.7h-1.5v-2.1c-0.2,1.2-0.7,2.2-1.7,2.2c-1.2,0-2.2-1.1-2.2-2.9c0-1.8,0.9-2.9,2.2-2.9c1,0,1.6,0.9,1.7,2.2v-4.3
		C91,298.6,91.5,298.3,91.9,298z M90.4,303.8c0-1.8-0.7-2.7-1.3-2.7c-0.5,0-1.1,0.9-1.1,2.7s0.6,2.7,1.1,2.7
		C89.7,306.5,90.4,305.5,90.4,303.8z"/>
	<path d="M92.8,303.8c0-1.8,1.4-2.9,2.8-2.9s2.8,1.2,2.8,2.9c0,1.8-1.4,2.9-2.8,2.9S92.8,305.6,92.8,303.8z M96.8,303.8
		c0-2-0.3-2.9-1.2-2.9c-0.9,0-1.2,0.9-1.2,2.9c0,2,0.3,2.9,1.2,2.9C96.4,306.7,96.8,305.8,96.8,303.8z"/>
	<path d="M103,302.9c0,1.7,0.4,3.8,1.7,5h-0.1c-2.5-2-3-3.5-3-5s0.5-3.2,3-5h0.1C103.4,299.3,103,301.3,103,302.9z"/>
	<path d="M109.9,298v8.7h-1.5v-2.1c-0.2,1.2-0.7,2.2-1.7,2.2c-1.2,0-2.2-1.1-2.2-2.9c0-1.8,0.9-2.9,2.2-2.9c1,0,1.6,0.9,1.7,2.2
		v-4.3C109,298.6,109.6,298.3,109.9,298z M108.5,303.8c0-1.8-0.7-2.7-1.3-2.7c-0.5,0-1.1,0.9-1.1,2.7s0.6,2.7,1.1,2.7
		C107.8,306.5,108.5,305.5,108.5,303.8z"/>
	<path d="M110.8,303.8c0-1.8,1.4-2.9,2.8-2.9s2.8,1.2,2.8,2.9c0,1.8-1.4,2.9-2.8,2.9S110.8,305.6,110.8,303.8z M114.8,303.8
		c0-2-0.3-2.9-1.2-2.9c-0.9,0-1.2,0.9-1.2,2.9c0,2,0.3,2.9,1.2,2.9C114.5,306.7,114.8,305.8,114.8,303.8z"/>
	<path d="M125.1,298v8.7h-1.5v-2.1c-0.2,1.2-0.7,2.2-1.7,2.2c-1.2,0-2.2-1.1-2.2-2.9c0-1.8,0.9-2.9,2.2-2.9c1,0,1.6,0.9,1.7,2.2
		v-4.3C124.2,298.6,124.8,298.3,125.1,298z M123.7,303.8c0-1.8-0.7-2.7-1.3-2.7c-0.5,0-1.1,0.9-1.1,2.7s0.6,2.7,1.1,2.7
		C123,306.5,123.7,305.5,123.7,303.8z"/>
	<path d="M126,303.8c0-1.8,1.4-2.9,2.8-2.9s2.8,1.2,2.8,2.9c0,1.8-1.4,2.9-2.8,2.9S126,305.6,126,303.8z M130,303.8
		c0-2-0.3-2.9-1.2-2.9c-0.9,0-1.2,0.9-1.2,2.9c0,2,0.3,2.9,1.2,2.9C129.7,306.7,130,305.8,130,303.8z"/>
	<path d="M140.3,298v8.7h-1.5v-2.1c-0.2,1.2-0.7,2.2-1.7,2.2c-1.2,0-2.2-1.1-2.2-2.9c0-1.8,0.9-2.9,2.2-2.9c1,0,1.6,0.9,1.7,2.2
		v-4.3C139.4,298.6,140,298.3,140.3,298z M138.9,303.8c0-1.8-0.7-2.7-1.3-2.7c-0.5,0-1.1,0.9-1.1,2.7s0.6,2.7,1.1,2.7
		C138.2,306.5,138.9,305.5,138.9,303.8z"/>
	<path d="M141.2,303.8c0-1.8,1.4-2.9,2.8-2.9s2.8,1.2,2.8,2.9c0,1.8-1.4,2.9-2.8,2.9S141.2,305.6,141.2,303.8z M145.2,303.8
		c0-2-0.3-2.9-1.2-2.9c-0.9,0-1.2,0.9-1.2,2.9c0,2,0.3,2.9,1.2,2.9C144.9,306.7,145.2,305.8,145.2,303.8z"/>
	<path d="M153,298v8.7h-1.5v-2.1c-0.2,1.2-0.7,2.2-1.7,2.2c-1.2,0-2.2-1.1-2.2-2.9c0-1.8,0.9-2.9,2.2-2.9c1,0,1.6,0.9,1.7,2.2v-4.3
		C152.1,298.6,152.7,298.3,153,298z M151.5,303.8c0-1.8-0.7-2.7-1.3-2.7c-0.5,0-1.1,0.9-1.1,2.7s0.6,2.7,1.1,2.7
		C150.9,306.5,151.5,305.5,151.5,303.8z"/>
	<path d="M153.9,303.8c0-1.8,1.4-2.9,2.8-2.9s2.8,1.2,2.8,2.9c0,1.8-1.4,2.9-2.8,2.9S153.9,305.6,153.9,303.8z M157.9,303.8
		c0-2-0.3-2.9-1.2-2.9c-0.9,0-1.2,0.9-1.2,2.9c0,2,0.3,2.9,1.2,2.9C157.6,306.7,157.9,305.8,157.9,303.8z"/>
	<path d="M180,302.9c0,1.6-0.5,3.1-3,5h-0.1c1.2-1.3,1.7-3.3,1.7-5c0-1.6-0.4-3.6-1.7-5h0.1C179.4,299.7,180,301.3,180,302.9z"/>
</g>
<g>
	<g>
		<g id="g12994_1_" transform="translate(-427.1495,-34.28441)">
			<path id="path12112_1_" class="st1" d="M590,337.8c-0.6,0.3-0.9,0.9-0.7,1.4c0.2,0.5,0.9,0.6,1.6,0.3c0.7-0.3,1.1-0.9,0.9-1.4
				s-0.9-0.6-1.6-0.3C590.1,337.7,590,337.7,590,337.8z"/>
			<path id="path12114_1_" class="st2" d="M591.7,338.2v-6"/>
			<path id="path12116_1_" class="st3" d="M591.7,332.4c-0.1,1.1,0.9,1.5,1.3,2.1c0.5,0.5,0.6,1.1,0.6,1.6c0,0.1,0,0.8-0.5,1.4
				c0.6-1.6,0-2.2-0.5-2.7C592.1,334.2,591.6,333.6,591.7,332.4z"/>
		</g>
	</g>
	<g>
		<g id="g12994_2_" transform="translate(-427.1495,-34.28441)">
			<path id="path12112_2_" class="st1" d="M594.5,336.4c-0.6,0.3-0.9,0.9-0.7,1.4c0.2,0.5,0.9,0.6,1.6,0.3c0.7-0.3,1.1-0.9,0.9-1.4
				c-0.2-0.5-0.9-0.6-1.6-0.3C594.6,336.4,594.5,336.4,594.5,336.4z"/>
			<path id="path12114_2_" class="st2" d="M596.2,336.9v-6"/>
			<path id="path12116_2_" class="st3" d="M596.2,331.1c-0.1,1.1,0.9,1.5,1.3,2.1c0.5,0.5,0.6,1.1,0.6,1.6c0,0.1,0,0.8-0.5,1.4
				c0.6-1.6,0-2.2-0.5-2.7C596.6,332.8,596.1,332.3,596.2,331.1z"/>
		</g>
	</g>
	<g>
		<g id="g12994_3_" transform="translate(-427.1495,-34.28441)">
			<path id="path12112_3_" class="st1" d="M597.1,339.4c-0.6,0.3-0.9,0.9-0.7,1.4c0.2,0.5,0.9,0.6,1.6,0.3c0.7-0.3,1.1-0.9,0.9-1.4
				c-0.2-0.5-0.9-0.6-1.6-0.3C597.2,339.3,597.1,339.4,597.1,339.4z"/>
			<path id="path12114_3_" class="st2" d="M598.8,339.9v-6"/>
			<path id="path12116_3_" class="st3" d="M598.8,334c-0.1,1.1,0.9,1.5,1.3,2.1c0.5,0.5,0.6,1.1,0.6,1.6c0,0.1,0,0.8-0.5,1.4
				c0.6-1.6,0-2.2-0.5-2.7C599.2,335.8,598.7,335.2,598.8,334z"/>
		</g>
	</g>
</g>
</svg>
