<?xml version="1.0" encoding="utf-8"?>
<!-- Generator: Adobe Illustrator 24.0.1, SVG Export Plug-In . SVG Version: 6.00 Build 0)  -->
<svg version="1.1" id="Calque_1" xmlns="http://www.w3.org/2000/svg" xmlns:xlink="http://www.w3.org/1999/xlink" x="0px" y="0px"
	 viewBox="0 0 578 318.1" style="enable-background:new 0 0 578 318.1;" xml:space="preserve">
<style type="text/css">
	.st0{fill:none;stroke:#000000;}
</style>
<g>
	<path d="M86.2,76.3v51.3H65.4V73c0-14.9-3-22.3-10.7-22.3c-8.9,0-16.9,9.4-18.1,31.2v45.8H16V17c7.9-1.3,15.4-5.5,20.6-10.6v67.7
		c2.3-16.8,9.7-27.2,26.8-27.2C78.4,47,86.1,57.2,86.2,76.3z"/>
	<path d="M168.2,97.3c-3.4,16.6-15.8,31.8-34.4,31.8c-22.1,0-35.2-18.9-35.2-40.9c0-22.1,14.4-41.1,37-41.1
		c21.3,0,30.7,17.6,30.8,34.5h-0.2l0.2,0.2h-47.8c0.3,18.9,9.4,31.5,25.8,31.7c10.1,0,19.6-6.4,22.6-16.3h1.2V97.3z M118.8,80.7v0.5
		h30.3c-0.2-17.4-3.5-33.4-13.9-33.4C123.8,48,118.8,63.6,118.8,80.7z"/>
	<path d="M178.9,17c7.9-1.3,15.4-5.5,20.6-10.6v121.2h-20.6V17z"/>
	<path d="M214.7,17c7.9-1.3,15.4-5.5,20.6-10.6v121.2h-20.6V17z"/>
	<path d="M247.8,88.2c0-24.6,19.1-41.1,39.1-41.1c19.9,0,39.1,16.4,39.1,41.1c0,24.5-19.1,40.9-39.1,40.9
		C267,129.1,247.8,112.7,247.8,88.2z M303.3,88.2c0-27.5-4.4-40.4-16.4-40.4c-12.1,0-16.4,12.9-16.4,40.4c0,27.3,4.4,40.2,16.4,40.2
		C299,128.5,303.3,115.6,303.3,88.2z"/>
</g>
<g>
	<path class="st0" d="M38.3,269.4h-0.2c-13.9,0-21.8-6.4-21.8-23v-52.5l-13.1,2.5v-0.5c13.9-3,23.5-22.6,24.1-35.9h0.5
		c5.7,4.5,8.9,10.7,7.5,16.6C34,183,26.4,189.3,10,194.4l6.2-1.2l9.6-1.7l10.6-2l24-6.2v12.9L36.6,190v53.3c0,9.1,4,12.9,10.4,12.9
		c7.4,0,12.4-6.4,15.4-16.3h0.8C60.1,254.9,54.8,269.2,38.3,269.4z"/>
	<path class="st0" d="M145.1,216.6v51.3h-20.8v-54.6c0-14.9-3-22.3-10.7-22.3c-8.9,0-16.9,9.4-18.1,31.2V268H74.9V157.2
		c7.9-1.3,15.4-5.5,20.6-10.6v67.7c2.3-16.8,9.7-27.2,26.8-27.2C137.2,187.2,145,197.4,145.1,216.6z"/>
	<path class="st0" d="M227.1,237.5c-3.4,16.6-15.8,31.8-34.4,31.8c-22.1,0-35.2-18.9-35.2-40.9c0-22.1,14.4-41.1,37-41.1
		c21.3,0,30.7,17.6,30.8,34.5l0,0l0.2,0.2h-47.8c0.3,18.9,9.4,31.5,25.8,31.7c10.1,0,19.6-6.4,22.6-16.3L227.1,237.5L227.1,237.5z
		 M177.6,220.9v0.5h30.3C207.7,204,204.4,188,194,188C182.7,188.2,177.6,203.8,177.6,220.9z"/>
	<path class="st0" d="M287.8,222.1h-0.5c0-12.4-2.5-31.9-12.6-31.9c-12.1-0.2-15.6,20.6-16.3,37.9v39.7h-20.6v-69.6
		c7.9-1.2,15.4-5.4,20.6-10.4V220c1.3-16.6,5.5-32.7,19.9-32.7C297.7,187.4,300.3,208.8,287.8,222.1z"/>
	<path class="st0" d="M369.4,237.5c-3.4,16.6-15.8,31.8-34.4,31.8c-22.1,0-35.2-18.9-35.2-40.9c0-22.1,14.4-41.1,37-41.1
		c21.3,0,30.7,17.6,30.8,34.5h-0.2l0.2,0.2h-47.8c0.3,18.9,9.4,31.5,25.8,31.7c10.1,0,19.6-6.4,22.6-16.3L369.4,237.5L369.4,237.5z
		 M320,220.9v0.5h30.3c-0.2-17.4-3.5-33.4-13.9-33.4C325,188.2,320,203.8,320,220.9z"/>
	<g>
		<path d="M374.5,261.6c0-4.2,3.4-7.6,7.6-7.6s7.5,3.5,7.5,7.6c0,4.3-3.4,7.6-7.5,7.6C377.8,269.3,374.5,265.9,374.5,261.6z"/>
	</g>
</g>
<path d="M374.5,261.6c0-4.2,3.3-7.6,7.6-7.6c4.2,0,7.5,3.4,7.5,7.6c0,4.3-3.3,7.6-7.5,7.6C377.8,269.2,374.5,265.9,374.5,261.6z
	 M374.7,146.6h14.7c-3.7,32.3-6.7,70.1-7.1,102.4h-0.4C381.4,216.7,378.5,178.9,374.7,146.6z"/>
</svg>
