<?xml version="1.0" encoding="utf-8"?>
<!-- Generator: Adobe Illustrator 24.0.1, SVG Export Plug-In . SVG Version: 6.00 Build 0)  -->
<svg version="1.1" id="Calque_1" xmlns="http://www.w3.org/2000/svg" xmlns:xlink="http://www.w3.org/1999/xlink" x="0px" y="0px"
	 viewBox="0 0 578 318.1" style="enable-background:new 0 0 578 318.1;" xml:space="preserve">
<style type="text/css">
	.st0{fill:none;stroke:#000000;}
</style>
<g>
	<path d="M-428.1,87.3V127h-16.1V84.8c0-11.5-2.3-17.3-8.3-17.3c-6.9,0-13.1,7.3-14,24.2v35.5h-16V41.4c6.1-1,11.9-4.3,16-8.2v52.4
		c1.8-13,7.5-21.1,20.8-21.1C-434.1,64.6-428.2,72.5-428.1,87.3z"/>
	<path d="M-364.6,103.6c-2.6,12.9-12.2,24.6-26.6,24.6c-17.1,0-27.3-14.6-27.3-31.7s11.2-31.8,28.7-31.8c16.5,0,23.8,13.6,23.9,26.7
		h-0.2l0.2,0.2h-37c0.2,14.6,7.3,24.4,20,24.6c7.8,0,15.2-5,17.5-12.6L-364.6,103.6L-364.6,103.6z M-402.9,90.7v0.4h23.5
		c-0.2-13.5-2.7-25.9-10.8-25.9C-399,65.4-402.9,77.5-402.9,90.7z"/>
	<path d="M-356.3,41.4c6.1-1,11.9-4.3,16-8.2v93.9h-16V41.4z"/>
	<path d="M-328.6,41.4c6.1-1,11.9-4.3,16-8.2v93.9h-16V41.4z"/>
	<path d="M-302.9,96.6c0-19.1,14.8-31.8,30.3-31.8c15.4,0,30.3,12.7,30.3,31.8c0,19-14.8,31.7-30.3,31.7
		C-288,128.2-302.9,115.5-302.9,96.6z M-259.9,96.6c0-21.3-3.4-31.3-12.7-31.3c-9.4,0-12.7,10-12.7,31.3c0,21.1,3.4,31.1,12.7,31.1
		C-263.3,127.8-259.9,117.8-259.9,96.6z"/>
</g>
<path class="st0" d="M-465.2,198.2h-0.2c-10.8,0-16.9-5-16.9-17.8v-40.7l-10.1,1.9v-0.4c10.8-2.3,18.2-17.5,18.7-27.8h0.4
	c4.4,3.5,6.9,8.3,5.8,12.9c-1,5-6.9,9.8-19.6,13.8l4.8-0.9l7.4-1.3l8.2-1.5l18.6-4.8v10l-18.4-4.8V178c0,7,3.1,10,8.1,10
	c5.7,0,9.6-5,11.9-12.6h0.6C-448.3,187-452.4,198-465.2,198.2z"/>
<path class="st0" d="M-382.5,157.3V197h-16.1v-42.3c0-11.5-2.3-17.3-8.3-17.3c-6.9,0-13.1,7.3-14,24.2v35.5h-16v-85.8
	c6.1-1,11.9-4.3,16-8.2v52.4c1.8-13,7.5-21.1,20.8-21.1C-388.6,134.5-382.6,142.4-382.5,157.3z"/>
<path class="st0" d="M-319,173.5c-2.6,12.9-12.2,24.6-26.6,24.6c-17.1,0-27.3-14.6-27.3-31.7s11.2-31.8,28.7-31.8
	c16.5,0,23.8,13.6,23.9,26.7l0,0l0.2,0.2h-37c0.2,14.6,7.3,24.4,20,24.6c7.8,0,15.2-5,17.5-12.6H-319L-319,173.5z M-357.3,160.6v0.4
	h23.5c-0.2-13.5-2.7-25.9-10.8-25.9C-353.4,135.3-357.3,147.4-357.3,160.6z"/>
<path class="st0" d="M-271.9,161.6h-0.4c0-9.6-1.9-24.7-9.8-24.7c-9.4-0.2-12.1,16-12.6,29.4V197h-16v-54c6.1-0.9,11.9-4.2,16-8.1
	v24.9c1-12.9,4.3-25.3,15.4-25.3C-264.3,134.7-262.3,151.2-271.9,161.6z"/>
<path class="st0" d="M-208.7,173.5c-2.6,12.9-12.2,24.6-26.6,24.6c-17.1,0-27.3-14.6-27.3-31.7s11.2-31.8,28.7-31.8
	c16.5,0,23.8,13.6,23.9,26.7h-0.2l0.2,0.2h-37c0.2,14.6,7.3,24.4,20,24.6c7.8,0,15.2-5,17.5-12.6H-208.7L-208.7,173.5z M-247,160.6
	v0.4h23.5c-0.2-13.5-2.7-25.9-10.8-25.9C-243.1,135.3-247,147.4-247,160.6z"/>
<g>
	<path d="M-61.6,257.4c0-3.3,2.6-5.9,5.9-5.9s5.8,2.7,5.8,5.9c0,3.3-2.6,5.9-5.8,5.9C-59.1,263.4-61.6,260.8-61.6,257.4z"/>
</g>
<g>
	<path d="M-438.2,245.2c0,11.9-12.8,18.2-21.1,18.2c-17.3,0-31.4-9.4-20.5-21.7h0.4c1.2,8.9,8.7,21.4,20,21.2
		c8.9,0.1,14.2-4,14.2-9.3c0-6.3-5.9-7.7-15.8-11.5c-11.3-4.1-21.4-8.2-21.4-20.1c0-11.5,11.8-17.7,20.7-17.7
		c18,0,27.3,11,18.2,20.6h-0.4c-0.6-8.8-5.4-20.3-16.9-20.1c-10.5-0.1-14.7,5.2-14.7,9.9c0,5.1,6.3,7.2,16.8,11.3
		C-447.9,230.1-438.2,232.9-438.2,245.2z"/>
	<path d="M-411.7,263.3h-0.1c-10,0-15.7-4.6-15.7-16.5V209l-9.4,1.8v-0.4c10-2.2,16.9-16.3,17.4-25.8h0.4c4.1,3.3,6.4,7.7,5.4,11.9
		c-1,4.6-6.4,9.2-18.2,12.8l4.5-0.8l6.9-1.2l7.6-1.4l17.3-4.5v9.3l-17.1-4.5v38.4c0,6.5,2.9,9.3,7.5,9.3c5.3,0,8.9-4.6,11.1-11.7
		h0.6C-396,252.9-399.8,263.2-411.7,263.3z"/>
	<path d="M-350.6,229.3h-0.4c0-8.9-1.8-22.9-9-22.9c-8.7-0.1-11.2,14.8-11.7,27.3v28.6h-14.8v-50.1c5.7-0.8,11.1-3.9,14.8-7.5v23.2
		c1-11.9,4-23.5,14.4-23.5C-343.5,204.3-341.5,219.8-350.6,229.3z"/>
	<path d="M-283.7,262.1v0.2c-14.7,2.5-23.3,0.4-24.4-11.8c-0.8,7-4.5,12.8-14.2,12.8c-12.3,0-19.9-5.7-20.1-16.5
		c0.2-9.9,8.8-15.2,20.8-16.7l13.5-1.4v-10.3c0-8.9-3.4-13.6-10-13.6c-11.2-0.1-15.3,12.2-16.5,21.1h-0.4c-9-9.5-0.1-21.6,17.1-21.6
		c16.2,0,24.7,6,24.7,17.5v25.9C-293.4,257.4-292.5,261.6-283.7,262.1z M-308.2,246.3v-17.1c-2.3,0.2-4.6,0.6-6.9,0.8
		c-8.3,1.1-11.9,7.8-11.9,16.8c0,7.1,2.4,15,8.3,15C-312.6,261.7-308.2,256.2-308.2,246.3z"/>
	<path d="M-228.1,225.3v36.9h-15v-39.3c0-10.7-2.2-16-7.7-16c-6.4,0-12.2,6.8-13,22.4v32.9h-14.8v-50.1c5.7-0.8,11.1-3.9,14.8-7.5
		v19.1c1.7-12.1,7-19.5,19.3-19.5C-233.7,204.2-228.2,211.6-228.1,225.3z"/>
	<path d="M-165.3,268.6c0,13.3-16.5,17.7-25.5,17.7c-7.7,0-25.5-2.1-25.5-12.4c0-8.3,11-10.3,21.4-10.9l0.2,0.2
		c-5.7,0.8-8,5.2-8,10.6c0,5.6,5.1,12.1,11.8,12.1c8.2,0,12.8-5.2,12.8-11.9c0-7.8-4.6-11.6-13.6-12.7c-16.5-1.9-28.6-2.9-28.6-13.3
		c0-6.6,5.3-9.8,13.3-10.9c-4.7-2.8-8.3-7.2-8.3-13.8c0-13.5,14.8-19.2,24-19.2h0.1l0.4-0.2c9.2,0,17.1-12.4,18.2-21.3h0.4
		c8.7,11.8-2.7,21-17.1,21.7c9.2,0.6,22.1,6.4,22.1,19.1c0,13.4-14.8,17.7-24,17.7c-4.6,0-10.5-1.1-15.3-3.7c-3.9,1-6.9,2.7-6.9,5.9
		c0,3.7,5.3,4.3,24,6.8C-172.3,252.5-165.3,259.6-165.3,268.6z M-200.8,223.5c0,7.8,1.4,17.4,9.5,17.4s9.5-9.5,9.5-17.4
		c0-7.8-1.4-18.8-9.5-18.8C-199.3,204.7-200.8,215.7-200.8,223.5z"/>
	<path d="M-110.9,240.4c-2.4,11.9-11.3,22.9-24.7,22.9c-15.9,0-25.3-13.6-25.3-29.4c0-15.9,10.4-29.6,26.7-29.6
		c15.3,0,22.1,12.7,22.2,24.9h-0.1l0.1,0.1h-34.4c0.2,13.6,6.8,22.7,18.6,22.8c7.2,0,14.1-4.6,16.3-11.7H-110.9z M-146.4,228.4v0.4
		h21.8c-0.1-12.5-2.5-24-10-24C-142.8,204.9-146.4,216.1-146.4,228.4z"/>
	<path d="M-67.1,229.3h-0.4c0-8.9-1.8-22.9-9-22.9c-8.7-0.1-11.2,14.8-11.7,27.3v28.6H-103v-50.1c5.7-0.8,11.1-3.9,14.8-7.5v23.2
		c1-11.9,4-23.5,14.4-23.5C-60,204.3-58.1,219.8-67.1,229.3z"/>
</g>
<g>
	<path class="st0" d="M58.8,126.6c-0.1,19.4-10.8,31.7-24.2,31.7c-11,0-17-11.1-18.7-23.8v22.7H0V71.7c6.1-1,11.9-4.3,15.9-8.2v54.7
		c1.7-13.3,7.6-23.3,18.7-23.3C49,94.9,58.7,107.2,58.8,126.6z M42.2,126.6c0-19.3-6-29.4-11.7-29.4c-7.3,0-14.5,9.7-14.5,29.4
		c0,18,7.4,29.4,14.5,29.4C36.4,156,42.2,145.9,42.2,126.6z"/>
	<path class="st0" d="M68.5,79.1c0-4.9,4.3-8.9,10-8.9c5.8,0,10,4,10,8.9c0,5.1-4.1,8.9-10,8.9C72.8,88,68.5,84.1,68.5,79.1z
		 M70.5,103.4c6.1-0.9,12.1-4.1,16.1-8v61.8H70.5V103.4z"/>
	<path class="st0" d="M152,133.7c-2.6,12.8-12.2,24.6-26.6,24.6c-17.1,0-27.2-14.6-27.2-31.6c0-17.1,11.1-31.7,28.6-31.7
		c16.5,0,23.7,13.6,23.8,26.7h-0.1l0.1,0.1h-36.9c0.3,14.6,7.3,24.4,20,24.5c7.8,0,15.2-4.9,17.5-12.6H152z M113.8,120.9v0.4h23.5
		c-0.1-13.5-2.7-25.8-10.8-25.8C117.7,95.6,113.8,107.7,113.8,120.9z"/>
	<path class="st0" d="M214.6,117.5v39.7h-16.1v-42.2c0-11.5-2.3-17.2-8.3-17.2c-6.9,0-13.1,7.3-14,24.1v35.4h-15.9v-53.8
		c6.1-0.9,11.9-4.1,15.9-8v20.5c1.8-13,7.5-21,20.7-21C208.5,94.9,214.4,102.8,214.6,117.5z"/>
	<path class="st0" d="M253.1,71.7c6.1-1,11.9-4.3,15.9-8.2v93.7h-15.9V71.7z"/>
	<path class="st0" d="M332.5,133.7c-2.6,12.8-12.2,24.6-26.6,24.6c-17.1,0-27.2-14.6-27.2-31.6c0-17.1,11.1-31.7,28.6-31.7
		c16.5,0,23.7,13.6,23.8,26.7h-0.1l0.1,0.1h-36.9c0.3,14.6,7.3,24.4,20,24.5c7.8,0,15.2-4.9,17.5-12.6H332.5z M294.3,120.9v0.4h23.5
		c-0.1-13.5-2.7-25.8-10.8-25.8C298.1,95.6,294.3,107.7,294.3,120.9z"/>
	<path d="M58.8,196.6c-0.1,19.4-10.8,31.7-24.2,31.7c-11,0-17-11.1-18.7-23.8v22.7H0v-85.5c6.1-1,11.9-4.3,15.9-8.2v54.7
		c1.7-13.3,7.6-23.3,18.7-23.3C49,164.9,58.7,177.2,58.8,196.6z M42.2,196.6c0-19.3-6-29.4-11.7-29.4c-7.3,0-14.5,9.7-14.5,29.4
		c0,18,7.4,29.4,14.5,29.4C36.4,226,42.2,215.9,42.2,196.6z"/>
	<path d="M66.6,196.7c0-19,14.8-31.7,30.2-31.7s30.2,12.7,30.2,31.7c0,18.9-14.8,31.6-30.2,31.6S66.6,215.7,66.6,196.7z
		 M109.5,196.7c0-21.3-3.4-31.2-12.7-31.2c-9.3,0-12.7,10-12.7,31.2c0,21.1,3.4,31.1,12.7,31.1C106.1,227.8,109.5,217.9,109.5,196.7
		z"/>
	<path d="M191,187.5v39.7h-16.1v-42.2c0-11.5-2.3-17.2-8.3-17.2c-6.9,0-13.1,7.3-14,24.1v35.4h-15.9v-53.8c6.1-0.9,11.9-4.1,15.9-8
		v20.5c1.8-13,7.5-21,20.7-21C184.9,164.9,190.9,172.8,191,187.5z"/>
	<path d="M202.7,173.3c5.7-1,10.6-3.8,15.9-7.9v68.9c0,12.2-6,19.4-17.9,19.4c-13.2,0-18.5-10.1-20.2-19.4h0.8
		c1.7,5.6,5.8,9.2,12.1,9.2c6.3,0,9.3-4.4,9.3-11.7V173.3z M199.9,149.1c0-4.9,4.3-8.9,10-8.9c5.8,0,10.1,4,10.1,8.9
		c0,5.1-4.3,8.9-10.1,8.9C204.2,158,199.9,154.1,199.9,149.1z"/>
	<path d="M227.3,196.7c0-19,14.8-31.7,30.2-31.7s30.2,12.7,30.2,31.7c0,18.9-14.8,31.6-30.2,31.6S227.3,215.7,227.3,196.7z
		 M270.2,196.7c0-21.3-3.4-31.2-12.7-31.2c-9.3,0-12.7,10-12.7,31.2c0,21.1,3.4,31.1,12.7,31.1C266.8,227.8,270.2,217.9,270.2,196.7
		z"/>
	<path d="M351.7,166.2v61h-16.1v-22c-1.8,14.3-8.6,23.2-20.6,23.2c-13,0-17.6-6.7-17.8-19.2l0.1-35c6.1-0.9,11.9-4.1,15.9-8v49
		c0,7.1,2.6,10.4,7.4,10.4c7,0,14.9-8.7,14.9-28.9v-22.4C341.7,173.3,347.6,170,351.7,166.2z"/>
	<path d="M401.9,191.8h-0.4c0-9.6-1.9-24.6-9.7-24.6c-9.3-0.1-12.1,15.9-12.6,29.3v30.7h-15.9v-53.8c6.1-0.9,11.9-4.1,15.9-8v24.9
		c1-12.8,4.3-25.3,15.4-25.3C409.6,165,411.7,181.6,401.9,191.8z"/>
	<path d="M411.3,218.4c0-5.2,4.1-9.5,9.5-9.5c5.2,0,9.3,4.3,9.3,9.5c0,5.3-4.1,9.5-9.3,9.5C415.4,227.8,411.3,223.7,411.3,218.4z"/>
</g>
</svg>
