<?xml version="1.0" encoding="utf-8"?>
<!-- Generator: Adobe Illustrator 24.0.1, SVG Export Plug-In . SVG Version: 6.00 Build 0)  -->
<svg version="1.1" id="Calque_1" xmlns="http://www.w3.org/2000/svg" xmlns:xlink="http://www.w3.org/1999/xlink" x="0px" y="0px"
	 viewBox="0 0 841.9 200.6" style="enable-background:new 0 0 841.9 200.6;" xml:space="preserve">
<g>
	<g>
		<path d="M45.4,89.4c0,13.4-4.8,26.7-4.3,41c-3.7-0.1-7.5-0.2-11.2-0.3c-0.1-8.3,1.1-16.4,2.1-24.4c-2.2,6.2-7,11.6-14.6,11.5
			C7.9,117.1,0.2,111,0,101.5c0.1-9.5,7.7-15.7,18.7-15.9C27,85.4,32,90.1,32.9,96.5c0.3-3.6,0.4-7.3,0.1-10.9
			C36.3,87.5,40.8,89.1,45.4,89.4z M32.3,103.2c0.2-1.4,0.3-2.8,0.4-4.2c0-8.4-5.6-12.4-10.7-12.3c-4.5,0.1-9,5.1-9.4,14.7
			c-0.4,9.5,3.6,14.6,7.7,14.7C25,116.1,30.5,111.1,32.3,103.2z"/>
		<path d="M120.1,84.8c1.2,10.8-5.3,21.3-8.1,32.7c-3.7,0-7.4-0.1-11.2-0.1c1-4.1,2.4-8,3.7-11.9c-4,7.6-9.9,12.5-18.2,12.4
			c-9-0.1-11.6-3.8-9.9-10.3c1.7-6.1,3.3-12.1,3.5-18.1c4.6-0.5,9-2.2,11.8-4.3c0.9,8.5-2.2,16.9-4.7,25.5c-1.1,3.8,0.3,5.6,3.7,5.6
			c4.8,0.1,11.7-4.7,15.4-15.4c1.2-3.9,2.2-7.8,2.4-11.8C112.8,88.6,117.3,86.9,120.1,84.8z"/>
		<path d="M184.2,104.9c-5.6,7.2-14.2,14.1-23.9,13.9c-12-0.2-16-8.7-11.9-17.9c4.2-9.2,11.6-17.2,24-17.4
			c12.1-0.1,17.6,7.4,14,14.6c0,0-0.1,0-0.1,0c0,0,0,0,0.1,0.1c-8.6,0-17.3,0-26,0c-3.1,7.9-0.9,13.5,7.9,13.7
			c5.3,0.1,11.5-2.7,15.3-7C183.9,104.9,184,104.9,184.2,104.9z M160.7,97.7c0,0.1-0.1,0.1-0.1,0.2c5.5,0,11,0,16.5,0
			c3.4-7.4,1-14.2-4.9-14.1C166,84,163.7,90.6,160.7,97.7z"/>
		<path d="M255,95.8c-3.7,7.7-9.4,15.4-11.2,23.6c-3.6-0.1-7.2-0.1-10.8-0.2c2-8.7,8.2-16.8,11.7-24.9c2.9-6.7,0.9-10-3.2-10
			c-5,0.1-8.5,4.3-14,13.9c-3.4,6.7-7.8,13.5-9.6,20.8c-3.6-0.1-7.2-0.1-10.8-0.2c2.7-10.9,11.3-20.8,13-31
			c4.4-0.5,8.8-2.4,11.5-4.7c0.2,4-0.9,7.9-2.5,11.8c4.5-7.4,7.7-12.1,17.1-12.2C254.1,82.5,259.2,87.2,255,95.8z"/>
		<path d="M288.4,121C288.4,121,288.4,121,288.4,121c-7.2-0.1-11.5-3.5-7.5-11.3c4.2-8.3,10.4-16.2,11.7-24.4
			c-2.4,0.4-4.8,0.8-7.2,1.2c0-0.1,0-0.2,0-0.2c8-1.4,14.2-10.8,8-17.6c0.1,0,0.2,0,0.3,0c5.1,2.3,8.6,5.4,8.7,8.2
			c0.2,3.1-4,6.2-13.2,8.7c1.1-0.2,2.3-0.4,3.4-0.6c1.7-0.3,3.5-0.6,5.2-0.8c1.9-0.3,3.8-0.7,5.7-1c4.3-1,8.6-2.1,12.8-3.1
			c0.1,2.1-0.1,4.2-0.6,6.2c-3.9-1-8-1.9-12.1-2.9c-0.8,8.5-7,16.6-11.6,25c-2.3,4.3-0.8,6.2,2.5,6.3c3.8,0.1,7.5-3,11.7-7.7
			c0.1,0,0.3,0,0.4,0C300.7,114,296.8,121.1,288.4,121z"/>
		<path d="M344.2,71.1c-1.7-3.4-1.5-6.3,2.5-6.4c4.1-0.1,9.7,2.7,11.3,6.1c1.7,3.5-1,6.1-5,6.2C349.1,77,346,74.5,344.2,71.1z
			 M346.5,87c4.3-0.6,9-2.7,12.1-5.2c-1.6,13.4-16.1,25.8-17.2,39.5c-3.6-0.1-7.2-0.1-10.8-0.2C331.8,109.2,342.8,98.4,346.5,87z"/>
		<path d="M420.6,96.1c-5.2,8.8-11.3,17.4-11.1,26.6c-3.6-0.1-7.2-0.2-10.8-0.2c-0.1-9.7,6.9-18.8,12.2-28.1
			c4.4-7.6,3.5-11.5-0.4-11.5c-4.7,0-9.5,5-17,16c-4.7,7.7-9.6,15.3-9.7,23.3c-3.6-0.1-7.1-0.1-10.7-0.2
			c0.4-12.2,11.7-23.3,16.1-35.1c4.3-0.6,9.1-2.8,12.2-5.4c-0.8,4.6-3,9.1-5.6,13.6c6.3-8.4,10.7-14,19.7-14.1
			C423.2,80.7,426.6,86.3,420.6,96.1z"/>
		<path d="M453.5,60.3c1.6-0.3,2.6-1.2,3-2.3c20.1,24.9-13.9,43.7-12.1,65.4c-1.5,0-3-0.1-4.5-0.1C438.4,102.3,470.3,84,453.5,60.3z
			"/>
		<path d="M509.9,111c-5,8.1-9.7,14.4-18.1,14.2c-11.2-0.4-19.7-10.1-11.8-22.7c7.9-12.5,18.6-22.3,28.9-22.6
			c9.9-0.1,12.5,8.5,6.5,19.1c0,0-0.1,0-0.1,0c0,0.1,0,0.1,0,0.2c-9.7,0-19.3-0.1-28.9-0.1c-0.5,0.7-0.9,1.4-1.3,2.1
			c-7.3,11.8-1.4,20,8.2,20.3c6.8,0.1,12.1-4.1,16.2-10.5C509.6,111,509.7,111,509.9,111z M486.6,98.8c8.3,0,16.7,0.1,25.1,0.1
			c6-10.6,4.7-18.8-2.9-18.7C501.2,80.5,493.7,88.4,486.6,98.8z"/>
		<path d="M605.2,95.5c-4.9,10.4-9.4,20.6-7,31.1c-1.6,0-3.2-0.1-4.8-0.1c-2.5-11,2.6-21.5,7.8-32.5c4.2-8.6,4.4-14.5-3-14.4
			c-8.1,0.2-17.3,10.1-24.1,23.5c-3.4,7.6-5.8,15.1-4.1,22.9c-1.6,0-3.1-0.1-4.7-0.1c-2.3-10.8,3.2-21.1,8.7-31.8
			c4.4-8.4,4.4-14.2-2.9-14.1c-7.5,0.1-15.5,8.5-22.6,20c-4.4,8.5-7.9,16.8-6.2,25.5c-1.5,0-3.1-0.1-4.6-0.1
			c-2.8-14.6,9.4-28.2,15.1-43.1c1.7-0.2,3.6-1,5.2-2c-1.9,5.5-4.8,10.9-7.6,16.2c7.2-10.2,14.5-17.3,22.6-17.4
			c9.5-0.2,10.1,6.4,4.9,16.5c-0.3,0.5-0.5,1-0.8,1.6c7-10.8,14.7-18.3,23-18.5C609.7,78.5,610.2,85.2,605.2,95.5z"/>
		<path d="M671.7,128.1c0,0.1,0,0.1,0,0.2c-8.5,1.4-14.4-1.1-14-11.1c0,0,0-0.1,0-0.1c-1.7,6.8-4.6,11.4-13.1,11.3
			c-9.7-0.2-17.5-5.6-16.1-13.9c1.6-8.1,10-13.1,20.7-14.2c4.2-0.3,8.6-0.7,12.9-1.1c0.8-2.2,1.6-4.4,2.5-6.6
			c3.8-9.6,1.5-14.8-6-14.6c-9.6,0.2-17.8,11.6-20.7,17c-0.1,0-0.2,0-0.3,0c1.2-7.5,8.9-17.1,21.2-17.4c10.3-0.2,14.2,5.2,10.3,15.2
			c-3.1,8.2-6,16.3-6.6,24.3C662.1,125.6,665.4,127.9,671.7,128.1z M658.2,113.4c0.7-4.6,2.2-9.3,3.8-14c-3.8,0.3-7.5,0.7-11.3,1.1
			c-9.3,1-16,6.2-17.4,13.9c-1.3,7.2,4.4,12.9,12,13.1C653.6,127.7,656.8,122.2,658.2,113.4z"/>
		<path d="M712.7,61c0.1-2.2,1.7-4.1,3.6-4.2c2-0.1,3.4,1.8,3.3,4c-0.2,2.3-1.8,4.1-3.8,4.1C713.8,65,712.5,63.4,712.7,61z
			 M710.3,80c1.8-0.3,3.7-1.2,5.1-2.3c-4.6,17.4-12.2,33.9-8.7,50.8c-1.6,0-3.2-0.1-4.8-0.1C698.5,112.3,705.6,96.6,710.3,80z"/>
		<path d="M773.3,95.1c-0.1,0-0.2,0-0.3,0c1-6.1,1.4-18.8-6.5-18.7c-8.6,0.1-15.6,13.5-19,26.3c-1.6,8.8-2.3,17.5-0.9,26.4
			c-1.7,0-3.3,0-5-0.1c-2.8-16.5,2.5-32.8,6.2-49.7c1.8-0.3,3.7-1.2,5.2-2.4c-1.6,7.8-3.5,15.4-5,22.9c3.8-12.4,10.4-24.2,19.3-24.4
			C778,75.2,777.2,86.6,773.3,95.1z"/>
		<path d="M841.9,113.1c-2.2,10.4-9.5,18.2-19,18.1c-12.4-0.3-21.6-12.2-20.3-28.4c1.5-16.1,10.5-28.3,21.9-28.7
			c10.4-0.3,16.6,10.1,17.1,23.7c0,0-0.1,0-0.1,0c0,0.1,0.1,0.2,0.1,0.2c-11.3,0.1-22.5,0.3-33.6,0.4c-0.2,0.9-0.2,1.7-0.3,2.7
			c-1.1,15.1,6.3,25.3,17.2,25.5c7.8,0.1,14.5-5.3,16.6-13.4C841.6,113.1,841.8,113.1,841.9,113.1z M808,98
			c9.6-0.1,19.3-0.2,29.1-0.3c-0.4-13.6-4.9-23.5-12.8-23.2C816.1,74.9,809.9,84.6,808,98z"/>
	</g>
</g>
<g>
	<g>
		<path d="M115.7,484.9c0,10.2-3.6,20.3-3.3,31.2c-2.8-0.1-5.7-0.2-8.5-0.3c-0.1-6.4,0.8-12.5,1.6-18.6c-1.7,4.7-5.3,8.8-11.2,8.8
			c-7.2-0.1-13-4.7-13.2-12c0.1-7.3,5.8-12,14.3-12.1c6.3-0.1,10.1,3.5,10.8,8.3c0.2-2.8,0.3-5.5,0.1-8.3
			C108.8,483.5,112.2,484.6,115.7,484.9z M105.7,495.4c0.1-1.1,0.2-2.1,0.3-3.2c0-6.4-4.3-9.5-8.2-9.4c-3.4,0.1-6.8,3.9-7.1,11.2
			c-0.3,7.3,2.7,11.1,5.8,11.2C100.2,505.2,104.3,501.5,105.7,495.4z"/>
		<path d="M172.6,481.4c0.9,8.2-4,16.2-6.2,24.9c-2.8,0-5.7-0.1-8.5-0.1c0.8-3.1,1.8-6.1,2.8-9.1c-3.1,5.8-7.5,9.5-13.9,9.4
			c-6.9-0.1-8.9-2.9-7.6-7.8c1.3-4.6,2.5-9.2,2.7-13.8c3.5-0.4,6.9-1.7,9-3.3c0.7,6.5-1.7,12.8-3.6,19.4c-0.8,2.9,0.3,4.3,2.8,4.3
			c3.6,0.1,8.9-3.6,11.7-11.7c0.9-3,1.7-6,1.8-8.9C167.1,484.3,170.5,483,172.6,481.4z"/>
		<path d="M221.5,496.7c-4.3,5.5-10.8,10.7-18.2,10.6c-9.1-0.2-12.2-6.6-9.1-13.6c3.2-7,8.9-13.1,18.3-13.3
			c9.2-0.1,13.4,5.6,10.7,11.1c0,0,0,0-0.1,0c0,0,0,0,0,0.1c-6.6,0-13.1,0-19.8,0c-2.4,6-0.7,10.3,6,10.4c4.1,0,8.8-2.1,11.7-5.4
			C221.2,496.7,221.3,496.7,221.5,496.7z M203.5,491.3c0,0.1,0,0.1-0.1,0.2c4.2,0,8.4,0,12.6,0c2.6-5.6,0.8-10.8-3.8-10.8
			C207.6,480.8,205.8,485.8,203.5,491.3z"/>
		<path d="M275.4,489.8c-2.9,5.9-7.2,11.7-8.5,18c-2.7,0-5.5-0.1-8.2-0.1c1.5-6.6,6.2-12.8,8.9-19c2.2-5.1,0.6-7.6-2.5-7.6
			c-3.8,0-6.5,3.3-10.6,10.6c-2.6,5.1-5.9,10.3-7.3,15.8c-2.7,0-5.5-0.1-8.2-0.1c2.1-8.3,8.7-15.8,9.9-23.6c3.3-0.4,6.7-1.8,8.7-3.6
			c0.2,3-0.6,6-1.9,9c3.4-5.6,5.9-9.2,13-9.3C274.7,479.7,278.6,483.2,275.4,489.8z"/>
		<path d="M300.8,509C300.8,509,300.8,509,300.8,509c-5.5-0.1-8.7-2.6-5.7-8.6c3.2-6.3,7.9-12.3,9-18.6c-1.8,0.3-3.6,0.6-5.5,0.9
			c0-0.1,0-0.1,0-0.2c6.1-1.1,10.8-8.2,6.1-13.4c0.1,0,0.1,0,0.2,0c3.9,1.7,6.6,4.1,6.6,6.3c0.1,2.4-3.1,4.8-10,6.6
			c0.9-0.1,1.7-0.3,2.6-0.4c1.3-0.2,2.6-0.4,4-0.6c1.5-0.3,2.9-0.5,4.3-0.8c3.3-0.8,6.5-1.6,9.7-2.4c0.1,1.6-0.1,3.2-0.5,4.8
			c-3-0.7-6.1-1.5-9.2-2.2c-0.6,6.5-5.4,12.6-8.8,19c-1.7,3.3-0.6,4.7,1.9,4.8c2.9,0,5.7-2.3,8.9-5.9c0.1,0,0.2,0,0.3,0
			C310.2,503.6,307.2,509,300.8,509z"/>
		<path d="M343.9,471c-1.3-2.6-1.1-4.8,1.9-4.9c3.1-0.1,7.4,2.1,8.6,4.7c1.3,2.7-0.8,4.7-3.8,4.7C347.6,475.5,345.2,473.6,343.9,471
			z M345.6,483.1c3.3-0.5,6.9-2,9.2-4c-1.2,10.2-12.3,19.6-13.1,30.1c-2.7-0.1-5.5-0.1-8.2-0.2C334.4,500,342.8,491.8,345.6,483.1z"
			/>
		<path d="M402,490c-4,6.7-8.7,13.3-8.5,20.2c-2.7-0.1-5.5-0.1-8.2-0.2c-0.1-7.4,5.3-14.3,9.3-21.4c3.4-5.8,2.7-8.8-0.3-8.8
			c-3.6,0-7.2,3.8-13,12.1c-3.6,5.8-7.3,11.6-7.4,17.8c-2.7-0.1-5.4-0.1-8.1-0.2c0.3-9.3,8.9-17.7,12.3-26.7
			c3.3-0.5,6.9-2.1,9.3-4.1c-0.6,3.5-2.3,6.9-4.3,10.3c4.8-6.4,8.2-10.6,15-10.7C404.1,478.3,406.6,482.5,402,490z"/>
		<path d="M427.1,462.8c1.2-0.2,2-0.9,2.3-1.8c15.4,18.9-10.6,33.3-9.2,49.8c-1.1,0-2.3,0-3.4-0.1
			C415.6,494.7,439.9,480.8,427.1,462.8z"/>
		<path d="M470,501.4c-3.8,6.2-7.4,10.9-13.8,10.8c-8.6-0.3-15-7.7-8.9-17.3c6-9.5,14.2-17,22.1-17.2c7.6-0.1,9.5,6.5,4.9,14.6
			c0,0,0,0-0.1,0c0,0,0,0.1,0,0.1c-7.4,0-14.7,0-22-0.1c-0.4,0.6-0.7,1-1,1.6c-5.6,9-1.1,15.2,6.2,15.5c5.1,0.1,9.2-3.1,12.4-8
			C469.8,501.4,469.9,501.4,470,501.4z M452.3,492.1c6.4,0,12.7,0,19.1,0.1c4.6-8.1,3.6-14.3-2.2-14.3
			C463.5,478.1,457.7,484.1,452.3,492.1z"/>
		<path d="M542.6,489.5c-3.7,7.9-7.2,15.7-5.3,23.6c-1.2,0-2.4,0-3.6-0.1c-1.9-8.3,2-16.4,6-24.7c3.2-6.5,3.3-11.1-2.3-11
			c-6.2,0.1-13.1,7.7-18.3,17.9c-2.6,5.8-4.4,11.5-3.1,17.4c-1.2,0-2.4,0-3.6-0.1c-1.8-8.2,2.5-16.1,6.6-24.2
			c3.4-6.4,3.4-10.8-2.2-10.7c-5.7,0.1-11.8,6.5-17.2,15.2c-3.3,6.4-6.1,12.8-4.8,19.4c-1.2,0-2.3,0-3.5-0.1
			c-2.1-11.1,7.2-21.5,11.5-32.8c1.3-0.2,2.8-0.8,3.9-1.6c-1.4,4.2-3.7,8.3-5.8,12.3c5.5-7.8,11-13.1,17.3-13.2
			c7.3-0.1,7.7,4.9,3.7,12.6c-0.2,0.4-0.4,0.8-0.6,1.2c5.4-8.2,11.2-13.9,17.5-14.1C546,476.6,546.5,481.7,542.6,489.5z"/>
		<path d="M593.3,514.4c0,0.1,0,0.1,0,0.2c-6.5,1.1-11-0.8-10.7-8.5c0,0,0-0.1,0-0.1c-1.3,5.2-3.5,8.7-10,8.6
			c-7.4-0.1-13.3-4.2-12.3-10.6c1.2-6.1,7.6-10,15.8-10.8c3.2-0.2,6.5-0.6,9.8-0.8c0.6-1.7,1.2-3.3,1.9-5c2.9-7.3,1.2-11.2-4.5-11.1
			c-7.3,0.2-13.6,8.8-15.8,13c-0.1,0-0.1,0-0.2,0c0.9-5.7,6.8-13,16.1-13.2c7.9-0.2,10.8,4,7.8,11.6c-2.4,6.2-4.6,12.4-5.1,18.5
			C585.9,512.5,588.4,514.2,593.3,514.4z M583,503.2c0.6-3.5,1.7-7.1,2.9-10.6c-2.9,0.2-5.7,0.6-8.6,0.8c-7,0.7-12.2,4.7-13.2,10.6
			c-1,5.5,3.4,9.8,9.1,9.9C579.5,514,581.9,509.9,583,503.2z"/>
		<path d="M624.5,463.3c0.1-1.7,1.3-3.1,2.7-3.2c1.5,0,2.6,1.4,2.5,3c-0.1,1.8-1.4,3.1-2.9,3.1C625.4,466.4,624.4,465.1,624.5,463.3
			z M622.6,477.8c1.4-0.2,2.8-0.9,3.9-1.8c-3.5,13.3-9.3,25.8-6.7,38.6c-1.2,0-2.4,0-3.7-0.1C613.6,502.3,619.1,490.4,622.6,477.8z"
			/>
		<path d="M670.6,489.2c-0.1,0-0.1,0-0.2,0c0.8-4.6,1.1-14.3-4.9-14.2c-6.5,0.1-11.9,10.2-14.5,20c-1.2,6.7-1.8,13.3-0.7,20.1
			c-1.3,0-2.5,0-3.8-0.1c-2.1-12.6,1.9-25,4.8-37.8c1.4-0.2,2.8-0.9,3.9-1.8c-1.2,5.9-2.7,11.7-3.9,17.5c2.9-9.4,7.9-18.4,14.7-18.6
			C674.3,474.1,673.5,482.8,670.6,489.2z"/>
		<path d="M723.9,502.9c-1.7,7.9-7.3,13.9-14.5,13.8c-9.5-0.2-16.5-9.3-15.5-21.6c1.1-12.2,8-21.5,16.6-21.9
			c7.9-0.2,12.7,7.7,13.1,18c0,0-0.1,0-0.1,0c0,0.1,0.1,0.1,0.1,0.2c-8.6,0.1-17.1,0.2-25.6,0.3c-0.1,0.7-0.2,1.3-0.2,2
			c-0.9,11.5,4.8,19.3,13.1,19.4c5.9,0.1,11-4,12.6-10.2C723.7,502.9,723.8,502.9,723.9,502.9z M698.1,491.4
			c7.3-0.1,14.7-0.2,22.2-0.3c-0.3-10.3-3.7-17.9-9.7-17.7C704.3,473.8,699.6,481.2,698.1,491.4z"/>
	</g>
</g>
</svg>
