<?xml version="1.0" encoding="utf-8"?>
<!-- Generator: Adobe Illustrator 24.0.1, SVG Export Plug-In . SVG Version: 6.00 Build 0)  -->
<svg version="1.1" id="Calque_1" xmlns="http://www.w3.org/2000/svg" xmlns:xlink="http://www.w3.org/1999/xlink" x="0px" y="0px"
	 viewBox="0 0 841.9 200.6" style="enable-background:new 0 0 841.9 200.6;" xml:space="preserve">
<g>
	<g>
		<path d="M45.4,89.4c0,13.4-4.8,26.7-4.3,41c-3.7-0.1-7.5-0.2-11.2-0.3c-0.1-8.3,1.1-16.4,2.1-24.4c-2.2,6.2-7,11.6-14.6,11.5
			C7.9,117.1,0.2,111,0,101.5c0.1-9.5,7.7-15.7,18.7-15.9C27,85.4,32,90.1,32.9,96.5c0.3-3.6,0.4-7.3,0.1-10.9
			C36.3,87.5,40.8,89.1,45.4,89.4z M32.3,103.2c0.2-1.4,0.3-2.8,0.4-4.2c0-8.4-5.6-12.4-10.7-12.3c-4.5,0.1-9,5.1-9.4,14.7
			c-0.4,9.5,3.6,14.6,7.7,14.7C25,116.1,30.5,111.1,32.3,103.2z"/>
		<path d="M120.1,84.8c1.2,10.8-5.3,21.3-8.1,32.7c-3.7,0-7.4-0.1-11.2-0.1c1-4.1,2.4-8,3.7-11.9c-4,7.6-9.9,12.5-18.2,12.4
			c-9-0.1-11.6-3.8-9.9-10.3c1.7-6.1,3.3-12.1,3.5-18.1c4.6-0.5,9-2.2,11.8-4.3c0.9,8.5-2.2,16.9-4.7,25.5c-1.1,3.8,0.3,5.6,3.7,5.6
			c4.8,0.1,11.7-4.7,15.4-15.4c1.2-3.9,2.2-7.8,2.4-11.8C112.8,88.6,117.3,86.9,120.1,84.8z"/>
		<path d="M184.2,104.9c-5.6,7.2-14.2,14.1-23.9,13.9c-12-0.2-16-8.7-11.9-17.9c4.2-9.2,11.6-17.2,24-17.4
			c12.1-0.1,17.6,7.4,14,14.6c0,0-0.1,0-0.1,0c0,0,0,0,0.1,0.1c-8.6,0-17.3,0-26,0c-3.1,7.9-0.9,13.5,7.9,13.7
			c5.3,0.1,11.5-2.7,15.3-7C183.9,104.9,184,104.9,184.2,104.9z M160.7,97.7c0,0.1-0.1,0.1-0.1,0.2c5.5,0,11,0,16.5,0
			c3.4-7.4,1-14.2-4.9-14.1C166,84,163.7,90.6,160.7,97.7z"/>
		<path d="M255,95.8c-3.7,7.7-9.4,15.4-11.2,23.6c-3.6-0.1-7.2-0.1-10.8-0.2c2-8.7,8.2-16.8,11.7-24.9c2.9-6.7,0.9-10-3.2-10
			c-5,0.1-8.5,4.3-14,13.9c-3.4,6.7-7.8,13.5-9.6,20.8c-3.6-0.1-7.2-0.1-10.8-0.2c2.7-10.9,11.3-20.8,13-31
			c4.4-0.5,8.8-2.4,11.5-4.7c0.2,4-0.9,7.9-2.5,11.8c4.5-7.4,7.7-12.1,17.1-12.2C254.1,82.5,259.2,87.2,255,95.8z"/>
		<path d="M288.4,121C288.4,121,288.4,121,288.4,121c-7.2-0.1-11.5-3.5-7.5-11.3c4.2-8.3,10.4-16.2,11.7-24.4
			c-2.4,0.4-4.8,0.8-7.2,1.2c0-0.1,0-0.2,0-0.2c8-1.4,14.2-10.8,8-17.6c0.1,0,0.2,0,0.3,0c5.1,2.3,8.6,5.4,8.7,8.2
			c0.2,3.1-4,6.2-13.2,8.7c1.1-0.2,2.3-0.4,3.4-0.6c1.7-0.3,3.5-0.6,5.2-0.8c1.9-0.3,3.8-0.7,5.7-1c4.3-1,8.6-2.1,12.8-3.1
			c0.1,2.1-0.1,4.2-0.6,6.2c-3.9-1-8-1.9-12.1-2.9c-0.8,8.5-7,16.6-11.6,25c-2.3,4.3-0.8,6.2,2.5,6.3c3.8,0.1,7.5-3,11.7-7.7
			c0.1,0,0.3,0,0.4,0C300.7,114,296.8,121.1,288.4,121z"/>
		<path d="M344.2,71.1c-1.7-3.4-1.5-6.3,2.5-6.4c4.1-0.1,9.7,2.7,11.3,6.1c1.7,3.5-1,6.1-5,6.2C349.1,77,346,74.5,344.2,71.1z
			 M346.5,87c4.3-0.6,9-2.7,12.1-5.2c-1.6,13.4-16.1,25.8-17.2,39.5c-3.6-0.1-7.2-0.1-10.8-0.2C331.8,109.2,342.8,98.4,346.5,87z"/>
		<path d="M420.6,96.1c-5.2,8.8-11.3,17.4-11.1,26.6c-3.6-0.1-7.2-0.2-10.8-0.2c-0.1-9.7,6.9-18.8,12.2-28.1
			c4.4-7.6,3.5-11.5-0.4-11.5c-4.7,0-9.5,5-17,16c-4.7,7.7-9.6,15.3-9.7,23.3c-3.6-0.1-7.1-0.1-10.7-0.2
			c0.4-12.2,11.7-23.3,16.1-35.1c4.3-0.6,9.1-2.8,12.2-5.4c-0.8,4.6-3,9.1-5.6,13.6c6.3-8.4,10.7-14,19.7-14.1
			C423.2,80.7,426.6,86.3,420.6,96.1z"/>
		<path d="M453.5,60.3c1.6-0.3,2.6-1.2,3-2.3c20.1,24.9-13.9,43.7-12.1,65.4c-1.5,0-3-0.1-4.5-0.1C438.4,102.3,470.3,84,453.5,60.3z
			"/>
		<path d="M509.9,111c-5,8.1-9.7,14.4-18.1,14.2c-11.2-0.4-19.7-10.1-11.8-22.7c7.9-12.5,18.6-22.3,28.9-22.6
			c9.9-0.1,12.5,8.5,6.5,19.1c0,0-0.1,0-0.1,0c0,0.1,0,0.1,0,0.2c-9.7,0-19.3-0.1-28.9-0.1c-0.5,0.7-0.9,1.4-1.3,2.1
			c-7.3,11.8-1.4,20,8.2,20.3c6.8,0.1,12.1-4.1,16.2-10.5C509.6,111,509.7,111,509.9,111z M486.6,98.8c8.3,0,16.7,0.1,25.1,0.1
			c6-10.6,4.7-18.8-2.9-18.7C501.2,80.5,493.7,88.4,486.6,98.8z"/>
		<path d="M605.2,95.5c-4.9,10.4-9.4,20.6-7,31.1c-1.6,0-3.2-0.1-4.8-0.1c-2.5-11,2.6-21.5,7.8-32.5c4.2-8.6,4.4-14.5-3-14.4
			c-8.1,0.2-17.3,10.1-24.1,23.5c-3.4,7.6-5.8,15.1-4.1,22.9c-1.6,0-3.1-0.1-4.7-0.1c-2.3-10.8,3.2-21.1,8.7-31.8
			c4.4-8.4,4.4-14.2-2.9-14.1c-7.5,0.1-15.5,8.5-22.6,20c-4.4,8.5-7.9,16.8-6.2,25.5c-1.5,0-3.1-0.1-4.6-0.1
			c-2.8-14.6,9.4-28.2,15.1-43.1c1.7-0.2,3.6-1,5.2-2c-1.9,5.5-4.8,10.9-7.6,16.2c7.2-10.2,14.5-17.3,22.6-17.4
			c9.5-0.2,10.1,6.4,4.9,16.5c-0.3,0.5-0.5,1-0.8,1.6c7-10.8,14.7-18.3,23-18.5C609.7,78.5,610.2,85.2,605.2,95.5z"/>
		<path d="M671.7,128.1c0,0.1,0,0.1,0,0.2c-8.5,1.4-14.4-1.1-14-11.1c0,0,0-0.1,0-0.1c-1.7,6.8-4.6,11.4-13.1,11.3
			c-9.7-0.2-17.5-5.6-16.1-13.9c1.6-8.1,10-13.1,20.7-14.2c4.2-0.3,8.6-0.7,12.9-1.1c0.8-2.2,1.6-4.4,2.5-6.6
			c3.8-9.6,1.5-14.8-6-14.6c-9.6,0.2-17.8,11.6-20.7,17c-0.1,0-0.2,0-0.3,0c1.2-7.5,8.9-17.1,21.2-17.4c10.3-0.2,14.2,5.2,10.3,15.2
			c-3.1,8.2-6,16.3-6.6,24.3C662.1,125.6,665.4,127.9,671.7,128.1z M658.2,113.4c0.7-4.6,2.2-9.3,3.8-14c-3.8,0.3-7.5,0.7-11.3,1.1
			c-9.3,1-16,6.2-17.4,13.9c-1.3,7.2,4.4,12.9,12,13.1C653.6,127.7,656.8,122.2,658.2,113.4z"/>
		<path d="M712.7,61c0.1-2.2,1.7-4.1,3.6-4.2c2-0.1,3.4,1.8,3.3,4c-0.2,2.3-1.8,4.1-3.8,4.1C713.8,65,712.5,63.4,712.7,61z
			 M710.3,80c1.8-0.3,3.7-1.2,5.1-2.3c-4.6,17.4-12.2,33.9-8.7,50.8c-1.6,0-3.2-0.1-4.8-0.1C698.5,112.3,705.6,96.6,710.3,80z"/>
		<path d="M773.3,95.1c-0.1,0-0.2,0-0.3,0c1-6.1,1.4-18.8-6.5-18.7c-8.6,0.1-15.6,13.5-19,26.3c-1.6,8.8-2.3,17.5-0.9,26.4
			c-1.7,0-3.3,0-5-0.1c-2.8-16.5,2.5-32.8,6.2-49.7c1.8-0.3,3.7-1.2,5.2-2.4c-1.6,7.8-3.5,15.4-5,22.9c3.8-12.4,10.4-24.2,19.3-24.4
			C778,75.2,777.2,86.6,773.3,95.1z"/>
		<path d="M841.9,113.1c-2.2,10.4-9.5,18.2-19,18.1c-12.4-0.3-21.6-12.2-20.3-28.4c1.5-16.1,10.5-28.3,21.9-28.7
			c10.4-0.3,16.6,10.1,17.1,23.7c0,0-0.1,0-0.1,0c0,0.1,0.1,0.2,0.1,0.2c-11.3,0.1-22.5,0.3-33.6,0.4c-0.2,0.9-0.2,1.7-0.3,2.7
			c-1.1,15.1,6.3,25.3,17.2,25.5c7.8,0.1,14.5-5.3,16.6-13.4C841.6,113.1,841.8,113.1,841.9,113.1z M808,98
			c9.6-0.1,19.3-0.2,29.1-0.3c-0.4-13.6-4.9-23.5-12.8-23.2C816.1,74.9,809.9,84.6,808,98z"/>
	</g>
</g>
</svg>
