<?xml version="1.0" encoding="utf-8"?>
<!-- Generator: Adobe Illustrator 24.0.1, SVG Export Plug-In . SVG Version: 6.00 Build 0)  -->
<svg version="1.1" id="Calque_1" xmlns="http://www.w3.org/2000/svg" xmlns:xlink="http://www.w3.org/1999/xlink" x="0px" y="0px"
	 viewBox="0 0 578 823.8" style="enable-background:new 0 0 578 823.8;" xml:space="preserve">
<style type="text/css">
	.st0{fill:none;stroke:#000000;}
	.st1{fill:none;stroke:#1D1D1B;stroke-miterlimit:10;}
	.st2{fill:#1D1D1B;}
</style>
<g>
	<g>
		<path d="M728.3,129.7v39.7h-16.1v-42.2c0-11.5-2.3-17.3-8.3-17.3c-6.9,0-13.1,7.3-14,24.2v35.5h-16V83.8c6.1-1,11.9-4.3,16-8.2
			V128c1.8-13,7.5-21.1,20.8-21.1C722.3,107,728.2,114.9,728.3,129.7z"/>
		<path d="M791.8,146c-2.6,12.9-12.2,24.6-26.6,24.6c-17.1,0-27.3-14.6-27.3-31.7s11.2-31.8,28.7-31.8c16.5,0,23.8,13.6,23.9,26.7
			h-0.2l0.2,0.2h-37c0.2,14.6,7.3,24.4,20,24.6c7.8,0,15.2-5,17.5-12.6L791.8,146L791.8,146z M753.5,133.1v0.4H777
			c-0.2-13.5-2.7-25.9-10.8-25.9C757.4,107.8,753.5,119.9,753.5,133.1z"/>
		<path d="M800.1,83.8c6.1-1,11.9-4.3,16-8.2v93.9h-16V83.8z"/>
		<path d="M827.8,83.8c6.1-1,11.9-4.3,16-8.2v93.9h-16V83.8z"/>
		<path d="M853.5,139c0-19.1,14.8-31.8,30.3-31.8c15.4,0,30.3,12.7,30.3,31.8c0,19-14.8,31.7-30.3,31.7
			C868.4,170.6,853.5,157.9,853.5,139z M896.5,139c0-21.3-3.4-31.3-12.7-31.3c-9.4,0-12.7,10-12.7,31.3c0,21.1,3.4,31.1,12.7,31.1
			C893.1,170.2,896.5,160.2,896.5,139z"/>
	</g>
	<path class="st0" d="M691.2,240.6H691c-10.8,0-16.9-5-16.9-17.8v-40.7L664,184v-0.4c10.8-2.3,18.2-17.5,18.7-27.8h0.4
		c4.4,3.5,6.9,8.3,5.8,12.9c-1,5-6.9,9.8-19.6,13.8l4.8-0.9l7.4-1.3l8.2-1.5l18.6-4.8v10l-18.4-4.8v41.2c0,7,3.1,10,8.1,10
		c5.7,0,9.6-5,11.9-12.6h0.6C708.1,229.4,704,240.4,691.2,240.6z"/>
	<path class="st0" d="M773.9,199.7v39.7h-16.1v-42.3c0-11.5-2.3-17.3-8.3-17.3c-6.9,0-13.1,7.3-14,24.2v35.5h-16v-85.8
		c6.1-1,11.9-4.3,16-8.2v52.4c1.8-13,7.5-21.1,20.8-21.1C767.8,176.9,773.8,184.8,773.9,199.7z"/>
	<path class="st0" d="M837.4,215.9c-2.6,12.9-12.2,24.6-26.6,24.6c-17.1,0-27.3-14.6-27.3-31.7s11.2-31.8,28.7-31.8
		c16.5,0,23.8,13.6,23.9,26.7l0,0l0.2,0.2h-37c0.2,14.6,7.3,24.4,20,24.6c7.8,0,15.2-5,17.5-12.6H837.4L837.4,215.9z M799.1,203v0.4
		h23.5c-0.2-13.5-2.7-25.9-10.8-25.9C803,177.7,799.1,189.8,799.1,203z"/>
	<path class="st0" d="M884.5,204h-0.4c0-9.6-1.9-24.7-9.8-24.7c-9.4-0.2-12.1,16-12.6,29.4v30.7h-16v-54c6.1-0.9,11.9-4.2,16-8.1
		v24.9c1-12.9,4.3-25.3,15.4-25.3C892.1,177.1,894.1,193.6,884.5,204z"/>
	<path class="st0" d="M947.7,215.9c-2.6,12.9-12.2,24.6-26.6,24.6c-17.1,0-27.3-14.6-27.3-31.7S905,177,922.5,177
		c16.5,0,23.8,13.6,23.9,26.7h-0.2l0.2,0.2h-37c0.2,14.6,7.3,24.4,20,24.6c7.8,0,15.2-5,17.5-12.6H947.7L947.7,215.9z M909.4,203
		v0.4h23.5c-0.2-13.5-2.7-25.9-10.8-25.9C913.3,177.7,909.4,189.8,909.4,203z"/>
	<g>
		<path d="M1094.8,299.8c0-3.3,2.6-5.9,5.9-5.9s5.8,2.7,5.8,5.9c0,3.3-2.6,5.9-5.8,5.9C1097.3,305.8,1094.8,303.2,1094.8,299.8z"/>
	</g>
	<g>
		<path d="M718.2,287.6c0,11.9-12.8,18.2-21.1,18.2c-17.3,0-31.4-9.4-20.5-21.7h0.4c1.2,8.9,8.7,21.4,20,21.2
			c8.9,0.1,14.2-4,14.2-9.3c0-6.3-5.9-7.7-15.8-11.5c-11.3-4.1-21.4-8.2-21.4-20.1c0-11.5,11.8-17.7,20.7-17.7
			c18,0,27.3,11,18.2,20.6h-0.4c-0.6-8.8-5.4-20.3-16.9-20.1c-10.5-0.1-14.7,5.2-14.7,9.9c0,5.1,6.3,7.2,16.8,11.3
			C708.5,272.5,718.2,275.3,718.2,287.6z"/>
		<path d="M744.7,305.7L744.7,305.7c-10.1,0-15.8-4.6-15.8-16.5v-37.8l-9.4,1.8v-0.4c10-2.2,16.9-16.3,17.4-25.8h0.4
			c4.1,3.3,6.4,7.7,5.4,11.9c-1,4.6-6.4,9.2-18.2,12.8l4.5-0.8l6.9-1.2l7.6-1.4l17.3-4.5v9.3l-17.1-4.5V287c0,6.5,2.9,9.3,7.5,9.3
			c5.3,0,8.9-4.6,11.1-11.7h0.6C760.4,295.3,756.6,305.6,744.7,305.7z"/>
		<path d="M805.8,271.7h-0.4c0-8.9-1.8-22.9-9-22.9c-8.7-0.1-11.2,14.8-11.7,27.3v28.6h-14.8v-50.1c5.7-0.8,11.1-3.9,14.8-7.5v23.2
			c1-11.9,4-23.5,14.4-23.5C812.9,246.7,814.9,262.2,805.8,271.7z"/>
		<path d="M872.7,304.5v0.2c-14.7,2.5-23.3,0.4-24.4-11.8c-0.8,7-4.5,12.8-14.2,12.8c-12.3,0-19.9-5.7-20.1-16.5
			c0.2-9.9,8.8-15.2,20.8-16.7l13.5-1.4v-10.3c0-8.9-3.4-13.6-10-13.6c-11.2-0.1-15.3,12.2-16.5,21.1h-0.4
			c-9-9.5-0.1-21.6,17.1-21.6c16.2,0,24.7,6,24.7,17.5v25.9C863,299.8,863.9,304,872.7,304.5z M848.2,288.7v-17.1
			c-2.3,0.2-4.6,0.6-6.9,0.8c-8.3,1.1-11.9,7.8-11.9,16.8c0,7.1,2.4,15,8.3,15C843.8,304.1,848.2,298.6,848.2,288.7z"/>
		<path d="M928.3,267.7v36.9h-15v-39.3c0-10.7-2.2-16-7.7-16c-6.4,0-12.2,6.8-13,22.4v32.9h-14.8v-50.1c5.7-0.8,11.1-3.9,14.8-7.5
			v19.1c1.7-12.1,7-19.5,19.3-19.5C922.7,246.6,928.2,254,928.3,267.7z"/>
		<path d="M991.1,311c0,13.3-16.5,17.7-25.5,17.7c-7.7,0-25.5-2.1-25.5-12.4c0-8.3,11-10.3,21.4-10.9l0.2,0.2c-5.7,0.8-8,5.2-8,10.6
			c0,5.6,5.1,12.1,11.8,12.1c8.2,0,12.8-5.2,12.8-11.9c0-7.8-4.6-11.6-13.6-12.7c-16.5-1.9-28.6-2.9-28.6-13.3
			c0-6.6,5.3-9.8,13.3-10.9c-4.7-2.8-8.3-7.2-8.3-13.8c0-13.5,14.8-19.2,24-19.2h0.1l0.4-0.2c9.2,0,17.1-12.4,18.2-21.3h0.4
			c8.7,11.8-2.7,21-17.1,21.7c9.2,0.6,22.1,6.4,22.1,19.1c0,13.4-14.8,17.7-24,17.7c-4.6,0-10.5-1.1-15.3-3.7
			c-3.9,1-6.9,2.7-6.9,5.9c0,3.7,5.3,4.3,24,6.8C984.1,294.9,991.1,302,991.1,311z M955.6,265.9c0,7.8,1.4,17.4,9.5,17.4
			s9.5-9.5,9.5-17.4c0-7.8-1.4-18.8-9.5-18.8C957.1,247.1,955.6,258.1,955.6,265.9z"/>
		<path d="M1045.5,282.8c-2.4,11.9-11.3,22.9-24.7,22.9c-15.9,0-25.3-13.6-25.3-29.4c0-15.9,10.4-29.6,26.7-29.6
			c15.3,0,22.1,12.7,22.2,24.9h-0.1l0.1,0.1H1010c0.2,13.6,6.8,22.7,18.6,22.8c7.2,0,14.1-4.6,16.3-11.7H1045.5z M1010,270.8v0.4
			h21.8c-0.1-12.5-2.5-24-10-24C1013.6,247.3,1010,258.5,1010,270.8z"/>
		<path d="M1089.3,271.7h-0.4c0-8.9-1.8-22.9-9-22.9c-8.7-0.1-11.2,14.8-11.7,27.3v28.6h-14.8v-50.1c5.7-0.8,11.1-3.9,14.8-7.5v23.2
			c1-11.9,4-23.5,14.4-23.5C1096.4,246.7,1098.3,262.2,1089.3,271.7z"/>
	</g>
</g>
<g>
	<path class="st1" d="M58,138.1c-0.1,19.2-10.6,31.3-23.9,31.3c-10.9,0-16.7-11-18.4-23.5v22.4H0V83.9c6-1,11.8-4.2,15.7-8.1v53.9
		c1.7-13.2,7.5-23,18.4-23C48.3,106.8,57.9,118.9,58,138.1z M41.6,138.1c0-19-5.9-29-11.5-29c-7.2,0-14.3,9.6-14.3,29
		c0,17.8,7.3,29,14.3,29C35.9,167.1,41.6,157.1,41.6,138.1z"/>
	<path class="st1" d="M66.7,91.2c0-4.9,4.2-8.8,9.8-8.8c5.8,0,9.8,4,9.8,8.8c0,5-4.1,8.8-9.8,8.8C70.9,100,66.7,96.2,66.7,91.2z
		 M68.6,115.2c6-0.9,11.9-4.1,15.8-7.9v61H68.6V115.2z"/>
	<path class="st1" d="M148.1,145.1c-2.6,12.7-12,24.3-26.2,24.3c-16.9,0-26.8-14.4-26.8-31.2c0-16.9,11-31.3,28.2-31.3
		c16.2,0,23.4,13.4,23.5,26.3h-0.1l0.1,0.1h-36.4c0.3,14.4,7.2,24,19.7,24.2c7.7,0,15-4.9,17.3-12.4
		C147.4,145.1,148.1,145.1,148.1,145.1z M110.4,132.5v0.4h23.1c-0.1-13.3-2.7-25.4-10.6-25.4C114.2,107.5,110.4,119.4,110.4,132.5z"
		/>
	<path class="st1" d="M208.9,129.1v39.1h-15.8v-41.6c0-11.4-2.3-17-8.2-17c-6.8,0-12.9,7.2-13.8,23.8v34.9h-15.7v-53
		c6-0.9,11.8-4.1,15.7-7.9v20.2c1.8-12.8,7.4-20.7,20.4-20.7C202.9,106.8,208.8,114.6,208.9,129.1z"/>
	<path class="st1" d="M245.1,83.9c6-1,11.8-4.2,15.7-8.1v92.4h-15.7V83.9z"/>
	<path class="st1" d="M322.5,145.1c-2.6,12.7-12,24.3-26.2,24.3c-16.9,0-26.8-14.4-26.8-31.2c0-16.9,11-31.3,28.2-31.3
		c16.2,0,23.4,13.4,23.5,26.3h-0.1l0.1,0.1h-36.4c0.3,14.4,7.2,24,19.7,24.2c7.7,0,15-4.9,17.3-12.4
		C321.8,145.1,322.5,145.1,322.5,145.1z M284.8,132.5v0.4h23.1c-0.1-13.3-2.7-25.4-10.6-25.4C288.7,107.5,284.8,119.4,284.8,132.5z"
		/>
</g>
<g>
	<path class="st2" d="M58,208.1c-0.1,19.2-10.6,31.3-23.9,31.3c-10.9,0-16.7-11-18.4-23.5v22.4H0v-84.4c6-1,11.8-4.2,15.7-8.1v53.9
		c1.7-13.2,7.5-23,18.4-23C48.3,176.8,57.9,188.9,58,208.1z M41.6,208.1c0-19-5.9-29-11.5-29c-7.2,0-14.3,9.6-14.3,29
		c0,17.8,7.3,29,14.3,29C35.9,237.1,41.6,227.1,41.6,208.1z"/>
	<path class="st2" d="M64.8,208.2c0-18.8,14.6-31.3,29.8-31.3s29.8,12.5,29.8,31.3c0,18.7-14.6,31.2-29.8,31.2
		C79.3,239.4,64.8,226.9,64.8,208.2z M107.1,208.2c0-21-3.3-30.8-12.5-30.8s-12.5,9.8-12.5,30.8c0,20.8,3.3,30.7,12.5,30.7
		S107.1,229,107.1,208.2z"/>
	<path class="st2" d="M186.5,199.1v39.1h-15.8v-41.7c0-11.4-2.3-17-8.2-17c-6.8,0-12.9,7.2-13.8,23.8v34.9H133v-53
		c6-0.9,11.8-4.1,15.7-7.9v20.2c1.8-12.8,7.4-20.7,20.4-20.7C180.5,176.8,186.4,184.6,186.5,199.1z"/>
	<path class="st2" d="M197.8,185.1c5.6-1,10.5-3.7,15.7-7.8v68c0,12-5.9,19.2-17.6,19.2c-13,0-18.3-10-19.9-19.2h0.8
		c1.7,5.5,5.8,9.1,11.9,9.1c6.3,0,9.2-4.3,9.2-11.5L197.8,185.1L197.8,185.1z M195.1,161.2c0-4.9,4.2-8.8,9.8-8.8c5.8,0,10,4,10,8.8
		c0,5-4.2,8.8-10,8.8C199.3,170,195.1,166.2,195.1,161.2z"/>
	<path class="st2" d="M222.2,208.2c0-18.8,14.6-31.3,29.8-31.3c15.2,0,29.8,12.5,29.8,31.3c0,18.7-14.6,31.2-29.8,31.2
		C236.8,239.4,222.2,226.9,222.2,208.2z M264.5,208.2c0-21-3.3-30.8-12.5-30.8c-9.2,0-12.5,9.8-12.5,30.8c0,20.8,3.3,30.7,12.5,30.7
		C261.2,238.9,264.5,229,264.5,208.2z"/>
	<path class="st2" d="M344,178.1v60.2h-15.8v-21.7c-1.8,14.1-8.4,22.9-20.3,22.9c-12.8,0-17.4-6.6-17.5-18.9l0.1-34.5
		c6-0.9,11.8-4.1,15.7-7.9v48.2c0,7,2.6,10.2,7.3,10.2c6.9,0,14.7-8.6,14.7-28.5V186C334.2,185.1,340,181.9,344,178.1z"/>
	<path class="st2" d="M392.7,203.4h-0.4c0-9.5-1.9-24.3-9.6-24.3c-9.2-0.1-11.9,15.7-12.4,28.9v30.3h-15.7v-53
		c6-0.9,11.8-4.1,15.7-7.9v24.5c1-12.7,4.2-24.9,15.2-24.9C400.2,176.9,402.3,193.3,392.7,203.4z"/>
</g>
<path class="st1" d="M18.8,228.8c0,9.1-4,20.3-15.3,23.5L3.2,252c8.8-3.7,11.6-14.1,11.4-20.6c-1,1.8-2.9,2.9-5.9,2.9
	c-5.4,0-8.7-4.6-8.7-9.1c0-5.5,4-9.5,9.3-9.5C15.7,215.8,18.8,222.1,18.8,228.8z"/>
<g>
	<path class="st1" d="M86,268.9v39.4H69.7v-47.7c0-7.2-1.8-10.9-6.8-10.9c-6.9,0-12.1,8.8-12.1,28.4v30.2H34.5v-47.7
		c0-7.2-1.8-10.9-6.8-10.9c-6.3,0-11.1,7.3-12,23.3v35.3H0v-53c6-0.9,11.8-4.1,15.7-7.9v19.3c1.7-12.3,6.6-19.8,18.8-19.8
		c11.8,0,16,7.3,16.4,21.1c1.4-13,6.4-21.1,18.9-21.1C81.6,246.8,85.8,254.4,86,268.9z"/>
	<path class="st1" d="M94.5,278.2c0-18.8,14.6-31.3,29.8-31.3s29.8,12.5,29.8,31.3c0,18.7-14.6,31.2-29.8,31.2
		S94.5,296.9,94.5,278.2z M136.8,278.2c0-21-3.3-30.8-12.5-30.8s-12.5,9.8-12.5,30.8c0,20.8,3.3,30.7,12.5,30.7
		S136.8,299,136.8,278.2z"/>
	<path class="st1" d="M162.8,231.2c0-4.9,4.2-8.8,9.8-8.8c5.8,0,9.8,4,9.8,8.8c0,5-4.1,8.8-9.8,8.8C167,240,162.8,236.2,162.8,231.2
		z M164.7,255.2c6-0.9,11.9-4.1,15.8-7.9v61h-15.8V255.2z"/>
	<path class="st1" d="M270.9,285.1c-3.1,15.2-13.5,24.3-26.7,24.3c-17.3,0-27.4-14.2-27.4-31.2c0-17.3,11.1-31.3,30.2-31.3
		c16.2,0,27.1,13,17.5,22.9h-0.4c-1.3-9.1-6.3-22.4-16.6-22.4c-10.7,0.1-15.3,12.5-15.3,25c0,14.6,6.5,24.9,19.7,25
		c7.8,0,14.4-4.1,18.3-12.4h0.7V285.1z"/>
	<path class="st1" d="M358.7,285.1c-2.6,12.7-12,24.3-26.2,24.3c-16.9,0-26.8-14.4-26.8-31.2c0-16.9,11-31.3,28.2-31.3
		c16.2,0,23.4,13.4,23.5,26.3h-0.1l0.1,0.1H321c0.3,14.4,7.2,24,19.7,24.2c7.7,0,15-4.9,17.3-12.4H358.7L358.7,285.1z M321,272.5
		v0.4h23.1c-0.1-13.3-2.7-25.4-10.6-25.4C324.8,247.5,321,259.4,321,272.5z"/>
	<path class="st1" d="M412.4,290.2c0,12.7-13.5,19.3-22.4,19.3c-18.3,0-33.2-10-21.7-23h0.4c1.3,9.5,9.2,22.6,21.2,22.5
		c9.5,0.1,15.1-4.2,15.1-9.8c0-6.6-6.3-8.2-16.7-12.1c-12-4.3-22.6-8.7-22.6-21.3c0-12.1,12.5-18.8,22-18.8
		c19,0,28.9,11.6,19.3,21.9h-0.4c-0.6-9.3-5.8-21.5-17.9-21.3c-11.1-0.1-15.6,5.5-15.6,10.5c0,5.4,6.6,7.7,17.8,12
		C402.1,274.3,412.4,277.2,412.4,290.2z"/>
	<path class="st1" d="M442.1,309.4H442c-10.6,0-16.6-4.9-16.6-17.5v-40l-10,1.9v-0.4c10.6-2.3,17.9-17.3,18.4-27.4h0.4
		c4.3,3.5,6.8,8.2,5.8,12.7c-1,4.9-6.8,9.7-19.3,13.5l4.7-0.9l7.3-1.3l8.1-1.5l18.3-4.7v9.8l-18.1-4.7v40.6c0,6.9,3.1,9.8,7.9,9.8
		c5.6,0,9.5-4.9,11.8-12.4h0.6C458.8,298.4,454.7,309.3,442.1,309.4z"/>
</g>
<g>
	<path class="st2" d="M57.8,325.2v78.6H42.1v-47c-1.8,12.1-7.7,22.6-18.3,22.6c-13.2,0-23.6-12.1-23.8-31.3
		c0.1-19.2,9.6-31.3,23.8-31.3c10.6,0,16.5,9.5,18.3,22v-21.5C46.1,321.1,51.8,324.3,57.8,325.2z M42.1,352v-8.3
		c-1-16.5-7.7-24.7-14.2-24.7c-5.8,0-11.6,10-11.6,29s5.9,29,11.5,29C34.3,377.1,41.1,367.5,42.1,352z"/>
	<path class="st2" d="M122.9,318.1v60.2h-15.8v-21.7c-1.8,14.1-8.4,22.9-20.3,22.9c-12.8,0-17.4-6.6-17.5-18.9l0.1-34.5
		c6-0.9,11.8-4.1,15.7-7.9v48.2c0,7,2.6,10.2,7.3,10.2c6.9,0,14.7-8.6,14.7-28.5V326C113,325.1,118.9,321.9,122.9,318.1z"/>
	<path class="st2" d="M185.5,355.1c-2.6,12.7-12,24.3-26.2,24.3c-16.9,0-26.8-14.4-26.8-31.2c0-16.9,11-31.3,28.2-31.3
		c16.2,0,23.4,13.4,23.5,26.3h-0.1l0.1,0.1h-36.4c0.3,14.4,7.2,24,19.7,24.2c7.7,0,15-4.9,17.3-12.4H185.5z M147.8,342.5v0.4h23.1
		c-0.1-13.3-2.7-25.4-10.6-25.4C151.6,317.5,147.8,329.4,147.8,342.5z"/>
	<path class="st2" d="M247.2,339.1v39.1h-15.8v-41.7c0-11.4-2.3-17-8.2-17c-6.8,0-12.9,7.2-13.8,23.8v34.9h-15.7v-53
		c6-0.9,11.8-4.1,15.7-7.9v20.2c1.8-12.8,7.4-20.7,20.4-20.7C241.2,316.8,247.1,324.6,247.2,339.1z"/>
	<path class="st2" d="M279.7,379.4h-0.1c-10.6,0-16.6-4.9-16.6-17.5v-40l-10,1.9v-0.4c10.6-2.3,17.9-17.3,18.4-27.4h0.4
		c4.3,3.5,6.8,8.2,5.8,12.7c-1,4.9-6.8,9.7-19.3,13.5l4.7-0.9l7.3-1.3l8.1-1.5l18.3-4.7v9.8l-18.1-4.7v40.6c0,6.9,3.1,9.8,7.9,9.8
		c5.6,0,9.5-4.9,11.8-12.4h0.6C296.3,368.4,292.2,379.3,279.7,379.4z"/>
	<path class="st2" d="M307.5,301.2c0-4.9,4.2-8.8,9.8-8.8c5.8,0,9.8,4,9.8,8.8c0,5-4.1,8.8-9.8,8.8
		C311.8,310,307.5,306.2,307.5,301.2z M309.5,325.2c6-0.9,11.9-4.1,15.8-7.9v61h-15.8V325.2z"/>
	<path class="st2" d="M392.3,339.1v39.1h-15.8v-41.7c0-11.4-2.3-17-8.2-17c-6.8,0-12.9,7.2-13.8,23.8v34.9h-15.7v-53
		c6-0.9,11.8-4.1,15.7-7.9v20.2c1.8-12.8,7.4-20.7,20.4-20.7C386.3,316.8,392.1,324.6,392.3,339.1z"/>
</g>
<g>
	<path class="st2" d="M0,363.9c6-1,11.8-4.2,15.7-8.1v92.4H0V363.9z"/>
	<path class="st2" d="M78.3,425.1c-2.6,12.7-12,24.3-26.2,24.3c-16.9,0-26.8-14.4-26.8-31.2c0-16.9,11-31.3,28.2-31.3
		c16.2,0,23.4,13.4,23.5,26.3h-0.1l0.1,0.1H40.6c0.3,14.4,7.2,24,19.7,24.2c7.7,0,15-4.9,17.3-12.4H78.3z M40.6,412.5v0.4h23.1
		c-0.1-13.3-2.7-25.4-10.6-25.4C44.4,387.5,40.6,399.4,40.6,412.5z"/>
	<path class="st2" d="M172.5,408.9v39.4h-16.2v-47.7c0-7.2-1.8-10.9-6.8-10.9c-6.9,0-12.1,8.8-12.1,28.4v30.2H121v-47.7
		c0-7.2-1.8-10.9-6.8-10.9c-6.3,0-11.1,7.3-12,23.3v35.3H86.5v-53c6-0.9,11.8-4.1,15.7-7.9v19.3c1.7-12.3,6.6-19.8,18.8-19.8
		c11.8,0,16,7.3,16.4,21.1c1.4-13,6.4-21.1,18.9-21.1C168.1,386.8,172.4,394.4,172.5,408.9z"/>
	<path class="st2" d="M244.2,448.1v0.3c-15.6,2.7-24.7,0.4-25.8-12.5c-0.9,7.4-4.7,13.5-15.1,13.5c-13,0-21.1-6-21.3-17.5
		c0.3-10.5,9.3-16.1,22-17.6l14.3-1.5v-10.9c0-9.5-3.6-14.4-10.6-14.4c-11.9-0.1-16.2,12.9-17.5,22.4h-0.5
		c-9.6-10.1-0.1-22.9,18.1-22.9c17.1,0,26.2,6.4,26.2,18.5V433C234,443.1,234.9,447.6,244.2,448.1z M218.2,431.4v-18.1
		c-2.4,0.3-4.9,0.6-7.3,0.9c-8.8,1.2-12.7,8.3-12.7,17.8c0,7.5,2.6,15.8,8.8,15.8C213.6,447.7,218.2,441.9,218.2,431.4z"/>
	<path class="st2" d="M249.6,371.2c0-4.9,4.2-8.8,9.8-8.8c5.8,0,9.8,4,9.8,8.8c0,5-4.1,8.8-9.8,8.8
		C253.8,380,249.6,376.2,249.6,371.2z M251.5,395.2c6-0.9,11.9-4.1,15.8-7.9v61h-15.8V395.2z"/>
	<path class="st2" d="M318.8,413.4h-0.4c0-9.5-1.9-24.3-9.6-24.3c-9.2-0.1-11.9,15.7-12.4,28.9v30.3h-15.7v-53
		c6-0.9,11.8-4.1,15.7-7.9v24.5c1-12.7,4.2-24.9,15.2-24.9C326.4,386.9,328.4,403.3,318.8,413.4z"/>
	<path class="st2" d="M384.3,425.1c-2.6,12.7-12,24.3-26.2,24.3c-16.9,0-26.8-14.4-26.8-31.2c0-16.9,11-31.3,28.2-31.3
		c16.2,0,23.4,13.4,23.5,26.3h-0.1l0.1,0.1h-36.4c0.3,14.4,7.2,24,19.7,24.2c7.7,0,15-4.9,17.3-12.4H384.3z M346.6,412.5v0.4h23.1
		c-0.1-13.3-2.7-25.4-10.6-25.4C350.4,387.5,346.6,399.4,346.6,412.5z"/>
</g>
<g>
	<path class="st1" d="M21.8,465.1c5.6-1,10.5-3.7,15.7-7.8v68c0,12-5.9,19.2-17.6,19.2c-13,0-18.3-10-19.9-19.2h0.8
		c1.7,5.5,5.8,9.1,11.9,9.1c6.3,0,9.2-4.3,9.2-11.5v-57.8H21.8z M19.1,441.2c0-4.9,4.2-8.8,9.8-8.8c5.8,0,10,4,10,8.8
		c0,5-4.2,8.8-10,8.8C23.4,450,19.1,446.2,19.1,441.2z"/>
	<path class="st1" d="M100.2,495.1c-2.6,12.7-12,24.3-26.2,24.3c-16.9,0-26.8-14.4-26.8-31.2c0-16.9,11-31.3,28.2-31.3
		c16.2,0,23.4,13.4,23.5,26.3h-0.1l0.1,0.1H62.5c0.3,14.4,7.2,24,19.7,24.2c7.7,0,15-4.9,17.3-12.4H100.2z M62.5,482.5v0.4h23.1
		c-0.1-13.3-2.7-25.4-10.6-25.4C66.3,457.5,62.5,469.4,62.5,482.5z"/>
	<path class="st1" d="M181.3,500.2c0,12.7-13.5,19.3-22.4,19.3c-18.3,0-33.2-10-21.7-23h0.4c1.3,9.5,9.2,22.6,21.2,22.5
		c9.5,0.1,15.1-4.2,15.1-9.8c0-6.6-6.3-8.2-16.7-12.1c-12-4.3-22.6-8.7-22.6-21.3c0-12.1,12.5-18.8,22-18.8
		c19,0,28.9,11.6,19.3,21.9h-0.4c-0.6-9.3-5.8-21.5-17.9-21.3c-11.1-0.1-15.6,5.5-15.6,10.5c0,5.4,6.6,7.7,17.8,12
		C171.1,484.3,181.3,487.2,181.3,500.2z"/>
	<path class="st1" d="M244.5,458.1v60.2h-15.8v-21.7c-1.8,14.1-8.4,22.9-20.3,22.9c-12.8,0-17.4-6.6-17.5-18.9l0.1-34.5
		c6-0.9,11.8-4.1,15.7-7.9v48.2c0,7,2.6,10.2,7.3,10.2c6.9,0,14.7-8.6,14.7-28.5V466C234.6,465.1,240.5,461.9,244.5,458.1z"/>
	<path class="st1" d="M256,441.2c0-4.9,4.2-8.8,9.8-8.8c5.8,0,9.8,4,9.8,8.8c0,5-4.1,8.8-9.8,8.8C260.2,450,256,446.2,256,441.2z
		 M257.9,465.2c6-0.9,11.9-4.1,15.8-7.9v61h-15.8V465.2z"/>
	<path class="st1" d="M333.5,500.2c0,12.7-13.5,19.3-22.4,19.3c-18.3,0-33.2-10-21.7-23h0.4c1.3,9.5,9.2,22.6,21.2,22.5
		c9.5,0.1,15.1-4.2,15.1-9.8c0-6.6-6.3-8.2-16.7-12.1c-12-4.3-22.6-8.7-22.6-21.3c0-12.1,12.5-18.8,22-18.8
		c19,0,28.9,11.6,19.3,21.9h-0.4c-0.6-9.3-5.8-21.5-17.9-21.3c-11.1-0.1-15.6,5.5-15.6,10.5c0,5.4,6.6,7.7,17.8,12
		C323.3,484.3,333.5,487.2,333.5,500.2z"/>
</g>
<g>
	<path class="st2" d="M57.9,495.8v92.4H42.2v-22.4c-1.6,12.6-7.5,23.6-18.4,23.6c-13.2,0-23.6-12.1-23.8-31.3
		c0.1-19.2,9.6-31.3,23.8-31.3c10.9,0,16.7,9.8,18.4,23v-45.9C48.2,502.9,54,499.7,57.9,495.8z M42.2,558.1c0-19.4-7.3-29-14.3-29
		c-5.8,0-11.6,10-11.6,29s5.9,29,11.5,29C34.8,587.1,42.2,575.9,42.2,558.1z"/>
	<path class="st2" d="M69.4,511.2c0-4.9,4.2-8.8,9.8-8.8c5.8,0,9.8,4,9.8,8.8c0,5-4.1,8.8-9.8,8.8C73.7,520,69.4,516.2,69.4,511.2z
		 M71.4,535.2c6-0.9,11.9-4.1,15.8-7.9v61H71.4V535.2z"/>
	<path class="st2" d="M138.7,553.4h-0.4c0-9.5-1.9-24.3-9.6-24.3c-9.2-0.1-11.9,15.7-12.4,28.9v30.3h-15.7v-53
		c6-0.9,11.8-4.1,15.7-7.9v24.5c1-12.7,4.2-24.9,15.2-24.9C146.3,526.9,148.3,543.3,138.7,553.4z"/>
	<path class="st2" d="M204.2,565.1c-2.6,12.7-12,24.3-26.2,24.3c-16.9,0-26.8-14.4-26.8-31.2c0-16.9,11-31.3,28.2-31.3
		c16.2,0,23.4,13.4,23.5,26.3h-0.1l0.1,0.1h-36.4c0.3,14.4,7.2,24,19.7,24.2c7.7,0,15-4.9,17.3-12.4L204.2,565.1L204.2,565.1z
		 M166.4,552.5v0.4h23.1c-0.1-13.3-2.7-25.4-10.6-25.4C170.3,527.5,166.4,539.4,166.4,552.5z"/>
	<path class="st2" d="M264.5,565.1c-3.1,15.2-13.5,24.3-26.7,24.3c-17.3,0-27.4-14.2-27.4-31.2c0-17.3,11.1-31.3,30.2-31.3
		c16.2,0,27.1,13,17.5,22.9h-0.4c-1.3-9.1-6.3-22.4-16.6-22.4c-10.7,0.1-15.3,12.5-15.3,25c0,14.6,6.5,24.9,19.7,25
		c7.8,0,14.4-4.1,18.3-12.4h0.7V565.1z"/>
	<path class="st2" d="M293.7,589.4h-0.1c-10.6,0-16.6-4.9-16.6-17.5v-40l-10,1.9v-0.4c10.6-2.3,17.9-17.3,18.4-27.4h0.4
		c4.3,3.5,6.8,8.2,5.8,12.7c-1,4.9-6.8,9.7-19.3,13.5l4.7-0.9l7.3-1.3l8.1-1.5l18.3-4.7v9.8l-18.1-4.7v40.6c0,6.9,3.1,9.8,7.9,9.8
		c5.6,0,9.5-4.9,11.8-12.4h0.6C310.4,578.4,306.3,589.3,293.7,589.4z"/>
	<path class="st2" d="M372.7,565.1c-2.6,12.7-12,24.3-26.2,24.3c-16.9,0-26.8-14.4-26.8-31.2c0-16.9,11-31.3,28.2-31.3
		c16.2,0,23.4,13.4,23.5,26.3h-0.1l0.1,0.1H335c0.3,14.4,7.2,24,19.7,24.2c7.7,0,15-4.9,17.3-12.4L372.7,565.1L372.7,565.1z
		 M335,552.5v0.4h23.2c-0.1-13.3-2.7-25.4-10.6-25.4C338.9,527.5,335,539.4,335,552.5z"/>
	<path class="st2" d="M434.4,528.1v60.2h-15.8v-21.7c-1.8,14.1-8.4,22.9-20.3,22.9c-12.8,0-17.4-6.6-17.5-18.9l0.1-34.5
		c6-0.9,11.8-4.1,15.7-7.9v48.2c0,7,2.6,10.2,7.3,10.2c6.9,0,14.7-8.6,14.7-28.5V536C424.6,535.1,430.5,531.9,434.4,528.1z"/>
	<path class="st2" d="M484,553.4h-0.4c0-9.5-1.9-24.3-9.6-24.3c-9.2-0.1-11.9,15.7-12.4,28.9v30.3h-15.7v-53
		c6-0.9,11.8-4.1,15.7-7.9v24.5c1-12.7,4.2-24.9,15.2-24.9C491.6,526.9,493.6,543.3,484,553.4z"/>
</g>
<g>
	<path class="st2" d="M62.2,658.1v0.3c-15.6,2.7-24.7,0.4-25.8-12.5c-0.9,7.4-4.8,13.5-15.1,13.5c-13,0-21.1-6-21.3-17.5
		c0.3-10.5,9.3-16.1,22-17.6l14.3-1.5v-10.9c0-9.5-3.6-14.4-10.6-14.4c-11.9-0.1-16.2,12.9-17.5,22.4H7.8
		C-1.8,609.8,7.7,597,25.9,597c17.1,0,26.2,6.4,26.2,18.5V643C52,653.1,52.9,657.6,62.2,658.1z M36.2,641.4v-18.1
		c-2.4,0.3-4.9,0.6-7.3,0.9c-8.8,1.2-12.7,8.3-12.7,17.8c0,7.5,2.6,15.8,8.8,15.8C31.6,657.7,36.2,651.9,36.2,641.4z"/>
	<path class="st2" d="M105.6,623.4h-0.4c0-9.5-1.9-24.3-9.6-24.3c-9.2-0.1-11.9,15.7-12.4,28.9v30.3H67.5v-53
		c6-0.9,11.8-4.1,15.7-7.9v24.5c1-12.7,4.2-24.9,15.2-24.9C113.2,596.9,115.2,613.3,105.6,623.4z"/>
	<path class="st2" d="M141,659.4h-0.1c-10.6,0-16.6-4.9-16.6-17.5v-40l-10,1.9v-0.4c10.6-2.3,17.9-17.3,18.4-27.4h0.4
		c4.3,3.5,6.8,8.2,5.8,12.7c-1,4.9-6.8,9.7-19.3,13.5l4.7-0.9l7.3-1.3l8.1-1.5l18.3-4.7v9.8l-18.1-4.7v40.6c0,6.9,3.1,9.8,7.9,9.8
		c5.6,0,9.5-4.9,11.8-12.4h0.6C157.6,648.4,153.6,659.3,141,659.4z"/>
	<path class="st2" d="M168.9,581.2c0-4.9,4.2-8.8,9.8-8.8c5.8,0,9.8,4,9.8,8.8c0,5-4.1,8.8-9.8,8.8
		C173.1,590,168.9,586.2,168.9,581.2z M170.8,605.2c6-0.9,11.9-4.1,15.8-7.9v61h-15.8V605.2z"/>
	<path class="st2" d="M246.5,640.2c0,12.7-13.5,19.3-22.4,19.3c-18.3,0-33.2-10-21.7-23h0.4c1.3,9.5,9.2,22.6,21.2,22.5
		c9.5,0.1,15.1-4.2,15.1-9.8c0-6.6-6.3-8.2-16.7-12.1c-12-4.3-22.6-8.7-22.6-21.3c0-12.1,12.5-18.8,22-18.8
		c19,0,28.9,11.6,19.3,21.9h-0.5c-0.6-9.3-5.8-21.5-17.9-21.3c-11.1-0.1-15.6,5.5-15.6,10.5c0,5.4,6.6,7.7,17.8,12
		C236.2,624.3,246.5,627.2,246.5,640.2z"/>
	<path class="st2" d="M277.1,659.4H277c-10.6,0-16.6-4.9-16.6-17.5v-40l-10,1.9v-0.4c10.6-2.3,17.9-17.3,18.4-27.4h0.4
		c4.3,3.5,6.8,8.2,5.8,12.7c-1,4.9-6.8,9.7-19.3,13.5l4.7-0.9l7.3-1.3l8.1-1.5l18.3-4.7v9.8l-18.1-4.7v40.6c0,6.9,3.1,9.8,7.9,9.8
		c5.6,0,9.5-4.9,11.8-12.4h0.6C293.8,648.4,289.7,659.3,277.1,659.4z"/>
	<path class="st2" d="M305,581.2c0-4.9,4.2-8.8,9.8-8.8c5.8,0,9.8,4,9.8,8.8c0,5-4.1,8.8-9.8,8.8C309.2,590,305,586.2,305,581.2z
		 M306.9,605.2c6-0.9,11.9-4.1,15.8-7.9v61h-15.8V605.2z"/>
	<path class="st2" d="M392.5,605.2v78.6h-15.7v-47c-1.8,12.1-7.7,22.6-18.3,22.6c-13.2,0-23.6-12.1-23.8-31.3
		c0.1-19.2,9.6-31.3,23.8-31.3c10.6,0,16.5,9.5,18.3,22v-21.5C380.8,601.1,386.5,604.3,392.5,605.2z M376.8,632v-8.3
		c-1-16.5-7.7-24.7-14.2-24.7c-5.8,0-11.6,10-11.6,29s5.9,29,11.5,29C369,657.1,375.8,647.5,376.8,632z"/>
	<path class="st2" d="M457.6,598.1v60.2h-15.8v-21.7c-1.8,14.1-8.4,22.9-20.3,22.9c-12.8,0-17.4-6.6-17.5-18.9l0.1-34.5
		c6-0.9,11.8-4.1,15.7-7.9v48.2c0,7,2.6,10.2,7.3,10.2c6.9,0,14.7-8.6,14.7-28.5V606C447.8,605.1,453.6,601.9,457.6,598.1z"/>
	<path class="st2" d="M520.2,635.1c-2.6,12.7-12,24.3-26.2,24.3c-16.9,0-26.8-14.4-26.8-31.2c0-16.9,11-31.3,28.2-31.3
		c16.2,0,23.4,13.4,23.5,26.3h-0.1l0.1,0.1h-36.4c0.3,14.4,7.2,24,19.7,24.2c7.7,0,15-4.9,17.3-12.4L520.2,635.1L520.2,635.1z
		 M482.5,622.5v0.4h23.1c-0.1-13.3-2.7-25.4-10.6-25.4C486.3,597.5,482.5,609.4,482.5,622.5z"/>
</g>
<g>
	<path class="st1" d="M25.3,656.9v11.6h0.4l21.6-0.9v9.8l-21.6-8.6h-0.4v59.3H9.5v-59.3H0v-0.4h9.5v-6.9c0-17.6,8.3-24,23.5-24
		c15.8,0,24,13.3,14.4,22.9H47c-1.3-9.1-4.3-22.5-13.8-22.5C24.8,638,25.3,649.3,25.3,656.9z"/>
	<path class="st1" d="M97.3,693.4h-0.4c0-9.5-1.9-24.3-9.6-24.3c-9.2-0.1-11.9,15.7-12.4,28.9v30.3H59.2v-53
		c6-0.9,11.8-4.1,15.7-7.9v24.5c1-12.7,4.2-24.9,15.2-24.9C104.8,666.9,106.9,683.3,97.3,693.4z"/>
	<path class="st1" d="M162.7,705.1c-2.6,12.7-12,24.3-26.2,24.3c-16.9,0-26.8-14.4-26.8-31.2c0-16.9,11-31.3,28.2-31.3
		c16.2,0,23.4,13.4,23.5,26.3h-0.1l0.1,0.1H125c0.3,14.4,7.2,24,19.7,24.2c7.7,0,15-4.9,17.3-12.4L162.7,705.1L162.7,705.1z
		 M125,692.5v0.4h23.1c-0.1-13.3-2.7-25.4-10.6-25.4C128.9,667.5,125,679.4,125,692.5z"/>
	<path class="st1" d="M222,705.1c-2.6,12.7-12,24.3-26.2,24.3c-16.9,0-26.8-14.4-26.8-31.2c0-16.9,11-31.3,28.2-31.3
		c16.2,0,23.4,13.4,23.5,26.3h-0.1l0.1,0.1h-36.4c0.3,14.4,7.2,24,19.7,24.2c7.7,0,15-4.9,17.3-12.4L222,705.1L222,705.1z
		 M184.3,692.5v0.4h23.1c-0.1-13.3-2.7-25.4-10.6-25.4C188.2,667.5,184.3,679.4,184.3,692.5z"/>
	<path class="st1" d="M230.2,643.9c6-1,11.8-4.2,15.7-8.1v92.4h-15.7V643.9z"/>
	<path class="st1" d="M317.7,728.1v0.3c-15.6,2.7-24.7,0.4-25.8-12.5c-0.9,7.4-4.7,13.5-15.1,13.5c-13,0-21.1-6-21.3-17.5
		c0.3-10.5,9.3-16.1,22-17.6l14.3-1.5v-10.9c0-9.5-3.6-14.4-10.6-14.4c-11.9-0.1-16.2,12.9-17.5,22.4h-0.4
		c-9.6-10.1-0.1-22.9,18.1-22.9c17.1,0,26.2,6.4,26.2,18.5V713C307.5,723.1,308.4,727.6,317.7,728.1z M291.8,711.4v-18.1
		c-2.4,0.3-4.9,0.6-7.3,0.9c-8.8,1.2-12.7,8.3-12.7,17.8c0,7.5,2.6,15.8,8.8,15.8C287.2,727.7,291.8,721.9,291.8,711.4z"/>
	<path class="st1" d="M376.7,689.1v39.1h-15.8v-41.7c0-11.4-2.3-17-8.2-17c-6.8,0-12.9,7.2-13.8,23.8v34.9h-15.7v-53
		c6-0.9,11.8-4.1,15.7-7.9v20.2c1.8-12.8,7.4-20.7,20.4-20.7C370.7,666.8,376.5,674.6,376.7,689.1z"/>
	<path class="st1" d="M440.2,705.1c-3.1,15.2-13.5,24.3-26.7,24.3c-17.3,0-27.4-14.2-27.4-31.2c0-17.3,11.1-31.3,30.2-31.3
		c16.2,0,27.1,13,17.5,22.9h-0.4c-1.3-9.1-6.3-22.4-16.6-22.4c-10.7,0.1-15.3,12.5-15.3,25c0,14.6,6.5,24.9,19.7,25
		c7.8,0,14.4-4.1,18.3-12.4h0.7V705.1z"/>
	<path class="st1" d="M499.5,705.1c-2.6,12.7-12,24.3-26.2,24.3c-16.9,0-26.8-14.4-26.8-31.2c0-16.9,11-31.3,28.2-31.3
		c16.2,0,23.4,13.4,23.5,26.3h-0.1l0.1,0.1h-36.4c0.3,14.4,7.2,24,19.7,24.2c7.7,0,15-4.9,17.3-12.4L499.5,705.1L499.5,705.1z
		 M461.8,692.5v0.4h23.1c-0.1-13.3-2.7-25.4-10.6-25.4C465.6,667.5,461.8,679.4,461.8,692.5z"/>
</g>
<g>
	<path class="st1" d="M62.2,798.1v0.3c-15.6,2.7-24.7,0.4-25.8-12.5c-0.9,7.4-4.8,13.5-15.1,13.5c-13,0-21.1-6-21.3-17.5
		c0.3-10.5,9.3-16.1,22-17.6l14.3-1.5v-10.9c0-9.5-3.6-14.4-10.6-14.4c-11.9-0.1-16.2,12.9-17.5,22.4H7.8
		C-1.8,749.8,7.7,737,25.9,737c17.1,0,26.2,6.4,26.2,18.5V783C52,793.1,52.9,797.6,62.2,798.1z M35.5,731.8
		c-9.3-4.5-16.2-10-22.8-16.5h15.6c1.2,5.4,3.6,10.9,8.2,16.5H35.5z M36.2,781.4v-18.1c-2.4,0.3-4.9,0.6-7.3,0.9
		c-8.8,1.2-12.7,8.3-12.7,17.8c0,7.5,2.6,15.8,8.8,15.8C31.6,797.7,36.2,791.9,36.2,781.4z"/>
	<path class="st1" d="M152.2,768.1c-0.1,19.2-10.6,31.3-23.9,31.3c-10.9,0-16.7-11-18.4-23.5v47.9H94.2v-78.6
		c6-0.9,11.8-4.1,15.7-7.9v22.5c1.7-13.2,7.5-23,18.4-23C142.4,736.8,152,748.9,152.2,768.1z M135.8,768.1c0-19-5.9-29-11.5-29
		c-7.2,0-14.3,9.6-14.3,29c0,17.8,7.3,29,14.3,29C130,797.1,135.8,787.1,135.8,768.1z"/>
	<path class="st1" d="M222.1,798.1v0.3c-15.6,2.7-24.7,0.4-25.8-12.5c-0.9,7.4-4.7,13.5-15.1,13.5c-13,0-21.1-6-21.3-17.5
		c0.3-10.5,9.3-16.1,22-17.6l14.3-1.5v-10.9c0-9.5-3.6-14.4-10.6-14.4c-11.9-0.1-16.2,12.9-17.5,22.4h-0.5
		c-9.6-10.1-0.1-22.9,18.1-22.9c17.1,0,26.2,6.4,26.2,18.5V783C211.8,793.1,212.7,797.6,222.1,798.1z M196.1,781.4v-18.1
		c-2.4,0.3-4.9,0.6-7.3,0.9c-8.8,1.2-12.7,8.3-12.7,17.8c0,7.5,2.6,15.8,8.8,15.8C191.5,797.7,196.1,791.9,196.1,781.4z"/>
	<path class="st1" d="M265.5,763.4h-0.4c0-9.5-1.9-24.3-9.6-24.3c-9.2-0.1-11.9,15.7-12.4,28.9v30.3h-15.7v-53
		c6-0.9,11.8-4.1,15.7-7.9v24.5c1-12.7,4.2-24.9,15.2-24.9C273.1,736.9,275.1,753.3,265.5,763.4z"/>
	<path class="st1" d="M279.8,721.2c0-4.9,4.2-8.8,9.8-8.8c5.8,0,9.8,4,9.8,8.8c0,5-4.1,8.8-9.8,8.8C284,730,279.8,726.2,279.8,721.2
		z M281.7,745.2c6-0.9,11.9-4.1,15.8-7.9v61h-15.8V745.2z"/>
	<path class="st1" d="M357.4,780.2c0,12.7-13.5,19.3-22.4,19.3c-18.3,0-33.2-10-21.7-23h0.4c1.3,9.5,9.2,22.6,21.2,22.5
		c9.5,0.1,15.1-4.2,15.1-9.8c0-6.6-6.3-8.2-16.7-12.1c-12-4.3-22.6-8.7-22.6-21.3c0-12.1,12.5-18.8,22-18.8
		c19,0,28.9,11.6,19.3,21.9h-0.4c-0.6-9.3-5.8-21.5-17.9-21.3c-11.1-0.1-15.6,5.5-15.6,10.5c0,5.4,6.6,7.7,17.8,12
		C347.2,764.3,357.4,767.2,357.4,780.2z"/>
</g>
</svg>
