<?xml version="1.0" encoding="utf-8"?>
<!-- Generator: Adobe Illustrator 24.0.1, SVG Export Plug-In . SVG Version: 6.00 Build 0)  -->
<svg version="1.1" id="Calque_1" xmlns="http://www.w3.org/2000/svg" xmlns:xlink="http://www.w3.org/1999/xlink" x="0px" y="0px"
	 viewBox="0 0 578 798.1" style="enable-background:new 0 0 578 798.1;" xml:space="preserve">
<style type="text/css">
	.st0{fill:none;stroke:#000000;}
	.st1{fill:none;stroke:#1D1D1B;stroke-miterlimit:10;}
	.st2{fill:#1D1D1B;}
</style>
<g>
	<g>
		<path d="M728.3,87.3V127h-16.1V84.8c0-11.5-2.3-17.3-8.3-17.3c-6.9,0-13.1,7.3-14,24.2v35.5h-16V41.4c6.1-1,11.9-4.3,16-8.2v52.4
			c1.8-13,7.5-21.1,20.8-21.1C722.3,64.6,728.2,72.5,728.3,87.3z"/>
		<path d="M791.8,103.6c-2.6,12.9-12.2,24.6-26.6,24.6c-17.1,0-27.3-14.6-27.3-31.7s11.2-31.8,28.7-31.8c16.5,0,23.8,13.6,23.9,26.7
			h-0.2l0.2,0.2h-37c0.2,14.6,7.3,24.4,20,24.6c7.8,0,15.2-5,17.5-12.6L791.8,103.6L791.8,103.6z M753.5,90.7v0.4H777
			c-0.2-13.5-2.7-25.9-10.8-25.9C757.4,65.4,753.5,77.5,753.5,90.7z"/>
		<path d="M800.1,41.4c6.1-1,11.9-4.3,16-8.2v93.9h-16V41.4z"/>
		<path d="M827.8,41.4c6.1-1,11.9-4.3,16-8.2v93.9h-16V41.4z"/>
		<path d="M853.5,96.6c0-19.1,14.8-31.8,30.3-31.8c15.4,0,30.3,12.7,30.3,31.8c0,19-14.8,31.7-30.3,31.7
			C868.4,128.2,853.5,115.5,853.5,96.6z M896.5,96.6c0-21.3-3.4-31.3-12.7-31.3c-9.4,0-12.7,10-12.7,31.3c0,21.1,3.4,31.1,12.7,31.1
			C893.1,127.8,896.5,117.8,896.5,96.6z"/>
	</g>
	<path class="st0" d="M691.2,198.2H691c-10.8,0-16.9-5-16.9-17.8v-40.7l-10.1,1.9v-0.4c10.8-2.3,18.2-17.5,18.7-27.8h0.4
		c4.4,3.5,6.9,8.3,5.8,12.9c-1,5-6.9,9.8-19.6,13.8l4.8-0.9l7.4-1.3l8.2-1.5l18.6-4.8v10l-18.4-4.8V178c0,7,3.1,10,8.1,10
		c5.7,0,9.6-5,11.9-12.6h0.6C708.1,187,704,198,691.2,198.2z"/>
	<path class="st0" d="M773.9,157.3V197h-16.1v-42.3c0-11.5-2.3-17.3-8.3-17.3c-6.9,0-13.1,7.3-14,24.2v35.5h-16v-85.8
		c6.1-1,11.9-4.3,16-8.2v52.4c1.8-13,7.5-21.1,20.8-21.1C767.8,134.5,773.8,142.4,773.9,157.3z"/>
	<path class="st0" d="M837.4,173.5c-2.6,12.9-12.2,24.6-26.6,24.6c-17.1,0-27.3-14.6-27.3-31.7s11.2-31.8,28.7-31.8
		c16.5,0,23.8,13.6,23.9,26.7l0,0l0.2,0.2h-37c0.2,14.6,7.3,24.4,20,24.6c7.8,0,15.2-5,17.5-12.6H837.4L837.4,173.5z M799.1,160.6
		v0.4h23.5c-0.2-13.5-2.7-25.9-10.8-25.9C803,135.3,799.1,147.4,799.1,160.6z"/>
	<path class="st0" d="M884.5,161.6h-0.4c0-9.6-1.9-24.7-9.8-24.7c-9.4-0.2-12.1,16-12.6,29.4V197h-16v-54c6.1-0.9,11.9-4.2,16-8.1
		v24.9c1-12.9,4.3-25.3,15.4-25.3C892.1,134.7,894.1,151.2,884.5,161.6z"/>
	<path class="st0" d="M947.7,173.5c-2.6,12.9-12.2,24.6-26.6,24.6c-17.1,0-27.3-14.6-27.3-31.7s11.2-31.8,28.7-31.8
		c16.5,0,23.8,13.6,23.9,26.7h-0.2l0.2,0.2h-37c0.2,14.6,7.3,24.4,20,24.6c7.8,0,15.2-5,17.5-12.6H947.7L947.7,173.5z M909.4,160.6
		v0.4h23.5c-0.2-13.5-2.7-25.9-10.8-25.9C913.3,135.3,909.4,147.4,909.4,160.6z"/>
	<g>
		<path d="M1094.8,257.4c0-3.3,2.6-5.9,5.9-5.9c3.3,0,5.8,2.7,5.8,5.9c0,3.3-2.6,5.9-5.8,5.9
			C1097.3,263.4,1094.8,260.8,1094.8,257.4z"/>
	</g>
	<g>
		<path d="M718.2,245.2c0,11.9-12.8,18.2-21.1,18.2c-17.3,0-31.4-9.4-20.5-21.7h0.4c1.2,8.9,8.7,21.4,20,21.2
			c8.9,0.1,14.2-4,14.2-9.3c0-6.3-5.9-7.7-15.8-11.5C684.1,238,674,233.9,674,222c0-11.5,11.8-17.7,20.7-17.7
			c18,0,27.3,11,18.2,20.6h-0.4c-0.6-8.8-5.4-20.3-16.9-20.1c-10.5-0.1-14.7,5.2-14.7,9.9c0,5.1,6.3,7.2,16.8,11.3
			C708.5,230.1,718.2,232.9,718.2,245.2z"/>
		<path d="M744.7,263.3L744.7,263.3c-10.1,0-15.8-4.6-15.8-16.5V209l-9.4,1.8v-0.4c10-2.2,16.9-16.3,17.4-25.8h0.4
			c4.1,3.3,6.4,7.7,5.4,11.9c-1,4.6-6.4,9.2-18.2,12.8l4.5-0.8l6.9-1.2l7.6-1.4l17.3-4.5v9.3l-17.1-4.5v38.4c0,6.5,2.9,9.3,7.5,9.3
			c5.3,0,8.9-4.6,11.1-11.7h0.6C760.4,252.9,756.6,263.2,744.7,263.3z"/>
		<path d="M805.8,229.3h-0.4c0-8.9-1.8-22.9-9-22.9c-8.7-0.1-11.2,14.8-11.7,27.3v28.6h-14.8v-50.1c5.7-0.8,11.1-3.9,14.8-7.5v23.2
			c1-11.9,4-23.5,14.4-23.5C812.9,204.3,814.9,219.8,805.8,229.3z"/>
		<path d="M872.7,262.1v0.2c-14.7,2.5-23.3,0.4-24.4-11.8c-0.8,7-4.5,12.8-14.2,12.8c-12.3,0-19.9-5.7-20.1-16.5
			c0.2-9.9,8.8-15.2,20.8-16.7l13.5-1.4v-10.3c0-8.9-3.4-13.6-10-13.6c-11.2-0.1-15.3,12.2-16.5,21.1h-0.4
			c-9-9.5-0.1-21.6,17.1-21.6c16.2,0,24.7,6,24.7,17.5v25.9C863,257.4,863.9,261.6,872.7,262.1z M848.2,246.3v-17.1
			c-2.3,0.2-4.6,0.6-6.9,0.8c-8.3,1.1-11.9,7.8-11.9,16.8c0,7.1,2.4,15,8.3,15C843.8,261.7,848.2,256.2,848.2,246.3z"/>
		<path d="M928.3,225.3v36.9h-15v-39.3c0-10.7-2.2-16-7.7-16c-6.4,0-12.2,6.8-13,22.4v32.9h-14.8v-50.1c5.7-0.8,11.1-3.9,14.8-7.5
			v19.1c1.7-12.1,7-19.5,19.3-19.5C922.7,204.2,928.2,211.6,928.3,225.3z"/>
		<path d="M991.1,268.6c0,13.3-16.5,17.7-25.5,17.7c-7.7,0-25.5-2.1-25.5-12.4c0-8.3,11-10.3,21.4-10.9l0.2,0.2
			c-5.7,0.8-8,5.2-8,10.6c0,5.6,5.1,12.1,11.8,12.1c8.2,0,12.8-5.2,12.8-11.9c0-7.8-4.6-11.6-13.6-12.7
			c-16.5-1.9-28.6-2.9-28.6-13.3c0-6.6,5.3-9.8,13.3-10.9c-4.7-2.8-8.3-7.2-8.3-13.8c0-13.5,14.8-19.2,24-19.2h0.1l0.4-0.2
			c9.2,0,17.1-12.4,18.2-21.3h0.4c8.7,11.8-2.7,21-17.1,21.7c9.2,0.6,22.1,6.4,22.1,19.1c0,13.4-14.8,17.7-24,17.7
			c-4.6,0-10.5-1.1-15.3-3.7c-3.9,1-6.9,2.7-6.9,5.9c0,3.7,5.3,4.3,24,6.8C984.1,252.5,991.1,259.6,991.1,268.6z M955.6,223.5
			c0,7.8,1.4,17.4,9.5,17.4c8.1,0,9.5-9.5,9.5-17.4c0-7.8-1.4-18.8-9.5-18.8C957.1,204.7,955.6,215.7,955.6,223.5z"/>
		<path d="M1045.5,240.4c-2.4,11.9-11.3,22.9-24.7,22.9c-15.9,0-25.3-13.6-25.3-29.4c0-15.9,10.4-29.6,26.7-29.6
			c15.3,0,22.1,12.7,22.2,24.9h-0.1l0.1,0.1H1010c0.2,13.6,6.8,22.7,18.6,22.8c7.2,0,14.1-4.6,16.3-11.7H1045.5z M1010,228.4v0.4
			h21.8c-0.1-12.5-2.5-24-10-24C1013.6,204.9,1010,216.1,1010,228.4z"/>
		<path d="M1089.3,229.3h-0.4c0-8.9-1.8-22.9-9-22.9c-8.7-0.1-11.2,14.8-11.7,27.3v28.6h-14.8v-50.1c5.7-0.8,11.1-3.9,14.8-7.5v23.2
			c1-11.9,4-23.5,14.4-23.5C1096.4,204.3,1098.3,219.8,1089.3,229.3z"/>
	</g>
</g>
<path class="st1" d="M79.3,95.7C79.2,114.9,68.7,127,55.4,127c-10.9,0-16.7-11-18.4-23.5v22.4H21.3V41.5c6-1,11.8-4.2,15.7-8.1v53.9
	c1.7-13.2,7.5-23,18.4-23C69.6,64.4,79.2,76.5,79.3,95.7z M62.9,95.7c0-19-5.9-29-11.5-29c-7.2,0-14.3,9.6-14.3,29
	c0,17.8,7.3,29,14.3,29C57.2,124.7,62.9,114.7,62.9,95.7z"/>
<path class="st1" d="M88,48.8c0-4.9,4.2-8.8,9.8-8.8c5.8,0,9.8,4,9.8,8.8c0,5-4.1,8.8-9.8,8.8C92.2,57.6,88,53.8,88,48.8z
	 M89.9,72.8c6-0.9,11.9-4.1,15.8-7.9v61H89.9V72.8z"/>
<path class="st1" d="M169.4,102.7c-2.6,12.7-12,24.3-26.2,24.3c-16.9,0-26.8-14.4-26.8-31.2c0-16.9,11-31.3,28.2-31.3
	c16.2,0,23.4,13.4,23.5,26.3H168l0.1,0.1h-36.4c0.3,14.4,7.2,24,19.7,24.2c7.7,0,15-4.9,17.3-12.4H169.4z M131.7,90.1v0.4h23.1
	c-0.1-13.3-2.7-25.4-10.6-25.4C135.5,65.1,131.7,77,131.7,90.1z"/>
<path class="st1" d="M230.2,86.7v39.1h-15.8V84.2c0-11.4-2.3-17-8.2-17c-6.8,0-12.9,7.2-13.8,23.8v34.9h-15.7v-53
	c6-0.9,11.8-4.1,15.7-7.9v20.2c1.8-12.8,7.4-20.7,20.4-20.7C224.2,64.4,230.1,72.2,230.2,86.7z"/>
<path class="st1" d="M266.4,41.5c6-1,11.8-4.2,15.7-8.1v92.4h-15.7V41.5z"/>
<path class="st1" d="M343.8,102.7c-2.6,12.7-12,24.3-26.2,24.3c-16.9,0-26.8-14.4-26.8-31.2c0-16.9,11-31.3,28.2-31.3
	c16.2,0,23.4,13.4,23.5,26.3h-0.1l0.1,0.1h-36.4c0.3,14.4,7.2,24,19.7,24.2c7.7,0,15-4.9,17.3-12.4H343.8z M306.1,90.1v0.4h23.1
	c-0.1-13.3-2.7-25.4-10.6-25.4C310,65.1,306.1,77,306.1,90.1z"/>
<path class="st2" d="M79.3,165.7C79.2,184.9,68.7,197,55.4,197c-10.9,0-16.7-11-18.4-23.5v22.4H21.3v-84.4c6-1,11.8-4.2,15.7-8.1
	v53.9c1.7-13.2,7.5-23,18.4-23C69.6,134.4,79.2,146.5,79.3,165.7z M62.9,165.7c0-19-5.9-29-11.5-29c-7.2,0-14.3,9.6-14.3,29
	c0,17.8,7.3,29,14.3,29C57.2,194.7,62.9,184.7,62.9,165.7z"/>
<path class="st2" d="M86.1,165.8c0-18.8,14.6-31.3,29.8-31.3c15.2,0,29.8,12.5,29.8,31.3c0,18.7-14.6,31.2-29.8,31.2
	C100.6,197,86.1,184.5,86.1,165.8z M128.4,165.8c0-21-3.3-30.8-12.5-30.8s-12.5,9.8-12.5,30.8c0,20.8,3.3,30.7,12.5,30.7
	S128.4,186.6,128.4,165.8z"/>
<path class="st2" d="M207.8,156.7v39.1H192v-41.7c0-11.4-2.3-17-8.2-17c-6.8,0-12.9,7.2-13.8,23.8v34.9h-15.7v-53
	c6-0.9,11.8-4.1,15.7-7.9v20.2c1.8-12.8,7.4-20.7,20.4-20.7C201.8,134.4,207.7,142.2,207.8,156.7z"/>
<path class="st2" d="M219.1,142.7c5.6-1,10.5-3.7,15.7-7.8v68c0,12-5.9,19.2-17.6,19.2c-13,0-18.3-10-19.9-19.2h0.8
	c1.7,5.5,5.8,9.1,11.9,9.1c6.3,0,9.2-4.3,9.2-11.5V142.7z M216.4,118.8c0-4.9,4.2-8.8,9.8-8.8c5.8,0,10,4,10,8.8c0,5-4.2,8.8-10,8.8
	C220.6,127.6,216.4,123.8,216.4,118.8z"/>
<path class="st2" d="M243.5,165.8c0-18.8,14.6-31.3,29.8-31.3c15.2,0,29.8,12.5,29.8,31.3c0,18.7-14.6,31.2-29.8,31.2
	C258.1,197,243.5,184.5,243.5,165.8z M285.8,165.8c0-21-3.3-30.8-12.5-30.8s-12.5,9.8-12.5,30.8c0,20.8,3.3,30.7,12.5,30.7
	S285.8,186.6,285.8,165.8z"/>
<path class="st2" d="M365.3,135.7v60.2h-15.8v-21.7c-1.8,14.1-8.4,22.9-20.3,22.9c-12.8,0-17.4-6.6-17.5-18.9l0.1-34.5
	c6-0.9,11.8-4.1,15.7-7.9V184c0,7,2.6,10.2,7.3,10.2c6.9,0,14.7-8.6,14.7-28.5v-22.1C355.5,142.7,361.3,139.5,365.3,135.7z"/>
<path class="st2" d="M414,161h-0.4c0-9.5-1.9-24.3-9.6-24.3c-9.2-0.1-11.9,15.7-12.4,28.9v30.3h-15.7v-53c6-0.9,11.8-4.1,15.7-7.9
	v24.5c1-12.7,4.2-24.9,15.2-24.9C421.5,134.5,423.6,150.9,414,161z"/>
<path class="st1" d="M107.3,226.5v39.4H91v-47.7c0-7.2-1.8-10.9-6.8-10.9c-6.9,0-12.1,8.8-12.1,28.4v30.2H55.8v-47.7
	c0-7.2-1.8-10.9-6.8-10.9c-6.3,0-11.1,7.3-12,23.3v35.3H21.3v-53c6-0.9,11.8-4.1,15.7-7.9v19.3c1.7-12.3,6.6-19.8,18.8-19.8
	c11.8,0,16,7.3,16.4,21.1c1.4-13,6.4-21.1,18.9-21.1C102.9,204.4,107.1,212,107.3,226.5z"/>
<path class="st1" d="M115.8,235.8c0-18.8,14.6-31.3,29.8-31.3s29.8,12.5,29.8,31.3c0,18.7-14.6,31.2-29.8,31.2
	S115.8,254.5,115.8,235.8z M158.1,235.8c0-21-3.3-30.8-12.5-30.8s-12.5,9.8-12.5,30.8c0,20.8,3.3,30.7,12.5,30.7
	S158.1,256.6,158.1,235.8z"/>
<path class="st1" d="M184.1,188.8c0-4.9,4.2-8.8,9.8-8.8c5.8,0,9.8,4,9.8,8.8c0,5-4.1,8.8-9.8,8.8
	C188.3,197.6,184.1,193.8,184.1,188.8z M186,212.8c6-0.9,11.9-4.1,15.8-7.9v61H186V212.8z"/>
<path class="st1" d="M292.2,242.7c-3.1,15.2-13.5,24.3-26.7,24.3c-17.3,0-27.4-14.2-27.4-31.2c0-17.3,11.1-31.3,30.2-31.3
	c16.2,0,27.1,13,17.5,22.9h-0.4c-1.3-9.1-6.3-22.4-16.6-22.4c-10.7,0.1-15.3,12.5-15.3,25c0,14.6,6.5,24.9,19.7,25
	c7.8,0,14.4-4.1,18.3-12.4H292.2z"/>
<path class="st1" d="M318.3,186.4c0,9.1-4,20.3-15.3,23.5l-0.3-0.3c8.8-3.7,11.6-14.1,11.4-20.6c-1,1.8-2.9,2.9-5.9,2.9
	c-5.4,0-8.7-4.6-8.7-9.1c0-5.5,4-9.5,9.3-9.5C315.2,173.4,318.3,179.7,318.3,186.4z"/>
<path class="st1" d="M380,242.7c-2.6,12.7-12,24.3-26.2,24.3c-16.9,0-26.8-14.4-26.8-31.2c0-16.9,11-31.3,28.2-31.3
	c16.2,0,23.4,13.4,23.5,26.3h-0.1l0.1,0.1h-36.4c0.3,14.4,7.2,24,19.7,24.2c7.7,0,15-4.9,17.3-12.4H380z M342.3,230.1v0.4h23.1
	c-0.1-13.3-2.7-25.4-10.6-25.4C346.1,205.1,342.3,217,342.3,230.1z"/>
<path class="st1" d="M433.7,247.8c0,12.7-13.5,19.3-22.4,19.3c-18.3,0-33.2-10-21.7-23h0.4c1.3,9.5,9.2,22.6,21.2,22.5
	c9.5,0.1,15.1-4.2,15.1-9.8c0-6.6-6.3-8.2-16.7-12.1c-12-4.3-22.6-8.7-22.6-21.3c0-12.1,12.5-18.8,22-18.8c19,0,28.9,11.6,19.3,21.9
	h-0.4c-0.6-9.3-5.8-21.5-17.9-21.3c-11.1-0.1-15.6,5.5-15.6,10.5c0,5.4,6.6,7.7,17.8,12C423.4,231.9,433.7,234.8,433.7,247.8z"/>
<path class="st1" d="M463.4,267h-0.1c-10.6,0-16.6-4.9-16.6-17.5v-40l-10,1.9V211c10.6-2.3,17.9-17.3,18.4-27.4h0.4
	c4.3,3.5,6.8,8.2,5.8,12.7c-1,4.9-6.8,9.7-19.3,13.5l4.7-0.9l7.3-1.3l8.1-1.5l18.3-4.7v9.8l-18.1-4.7v40.6c0,6.9,3.1,9.8,7.9,9.8
	c5.6,0,9.5-4.9,11.8-12.4h0.6C480.1,256,476,266.9,463.4,267z"/>
<path class="st2" d="M77.6,282.8v78.6H61.9v-47c-1.8,12.1-7.7,22.6-18.3,22.6c-13.2,0-23.6-12.1-23.8-31.3
	c0.1-19.2,9.6-31.3,23.8-31.3c10.6,0,16.5,9.5,18.3,22v-21.5C65.9,278.7,71.6,281.9,77.6,282.8z M61.9,309.6v-8.3
	c-1-16.5-7.7-24.7-14.2-24.7c-5.8,0-11.6,10-11.6,29c0,19,5.9,29,11.5,29C54.1,334.7,60.9,325.1,61.9,309.6z"/>
<path class="st2" d="M142.7,275.7v60.2h-15.8v-21.7c-1.8,14.1-8.4,22.9-20.3,22.9c-12.8,0-17.4-6.6-17.5-18.9l0.1-34.5
	c6-0.9,11.8-4.1,15.7-7.9V324c0,7,2.6,10.2,7.3,10.2c6.9,0,14.7-8.6,14.7-28.5v-22.1C132.8,282.7,138.7,279.5,142.7,275.7z"/>
<path class="st2" d="M205.3,312.7c-2.6,12.7-12,24.3-26.2,24.3c-16.9,0-26.8-14.4-26.8-31.2c0-16.9,11-31.3,28.2-31.3
	c16.2,0,23.4,13.4,23.5,26.3h-0.1l0.1,0.1h-36.4c0.3,14.4,7.2,24,19.7,24.2c7.7,0,15-4.9,17.3-12.4H205.3z M167.6,300.1v0.4h23.1
	c-0.1-13.3-2.7-25.4-10.6-25.4C171.4,275.1,167.6,287,167.6,300.1z"/>
<path class="st2" d="M267,296.7v39.1h-15.8v-41.7c0-11.4-2.3-17-8.2-17c-6.8,0-12.9,7.2-13.8,23.8v34.9h-15.7v-53
	c6-0.9,11.8-4.1,15.7-7.9v20.2c1.8-12.8,7.4-20.7,20.4-20.7C261,274.4,266.9,282.2,267,296.7z"/>
<path class="st2" d="M299.5,337h-0.1c-10.6,0-16.6-4.9-16.6-17.5v-40l-10,1.9V281c10.6-2.3,17.9-17.3,18.4-27.4h0.4
	c4.3,3.5,6.8,8.2,5.8,12.7c-1,4.9-6.8,9.7-19.3,13.5l4.7-0.9l7.3-1.3l8.1-1.5l18.3-4.7v9.8l-18.1-4.7v40.6c0,6.9,3.1,9.8,7.9,9.8
	c5.6,0,9.5-4.9,11.8-12.4h0.6C316.1,326,312,336.9,299.5,337z"/>
<path class="st2" d="M327.3,258.8c0-4.9,4.2-8.8,9.8-8.8c5.8,0,9.8,4,9.8,8.8c0,5-4.1,8.8-9.8,8.8
	C331.6,267.6,327.3,263.8,327.3,258.8z M329.3,282.8c6-0.9,11.9-4.1,15.8-7.9v61h-15.8V282.8z"/>
<path class="st2" d="M412.1,296.7v39.1h-15.8v-41.7c0-11.4-2.3-17-8.2-17c-6.8,0-12.9,7.2-13.8,23.8v34.9h-15.7v-53
	c6-0.9,11.8-4.1,15.7-7.9v20.2c1.8-12.8,7.4-20.7,20.4-20.7C406.1,274.4,411.9,282.2,412.1,296.7z"/>
<path class="st2" d="M21.3,321.5c6-1,11.8-4.2,15.7-8.1v92.4H21.3V321.5z"/>
<path class="st2" d="M99.6,382.7C97,395.4,87.6,407,73.4,407c-16.9,0-26.8-14.4-26.8-31.2c0-16.9,11-31.3,28.2-31.3
	c16.2,0,23.4,13.4,23.5,26.3h-0.1l0.1,0.1H61.9c0.3,14.4,7.2,24,19.7,24.2c7.7,0,15-4.9,17.3-12.4H99.6z M61.9,370.1v0.4H85
	c-0.1-13.3-2.7-25.4-10.6-25.4C65.7,345.1,61.9,357,61.9,370.1z"/>
<path class="st2" d="M193.8,366.5v39.4h-16.2v-47.7c0-7.2-1.8-10.9-6.8-10.9c-6.9,0-12.1,8.8-12.1,28.4v30.2h-16.4v-47.7
	c0-7.2-1.8-10.9-6.8-10.9c-6.3,0-11.1,7.3-12,23.3v35.3h-15.7v-53c6-0.9,11.8-4.1,15.7-7.9v19.3c1.7-12.3,6.6-19.8,18.8-19.8
	c11.8,0,16,7.3,16.4,21.1c1.4-13,6.4-21.1,18.9-21.1C189.4,344.4,193.7,352,193.8,366.5z"/>
<path class="st2" d="M265.5,405.7v0.3c-15.6,2.7-24.7,0.4-25.8-12.5c-0.9,7.4-4.7,13.5-15.1,13.5c-13,0-21.1-6-21.3-17.5
	c0.3-10.5,9.3-16.1,22-17.6l14.3-1.5v-10.9c0-9.5-3.6-14.4-10.6-14.4c-11.9-0.1-16.2,12.9-17.5,22.4H211
	c-9.6-10.1-0.1-22.9,18.1-22.9c17.1,0,26.2,6.4,26.2,18.5v27.5C255.3,400.7,256.2,405.2,265.5,405.7z M239.5,389v-18.1
	c-2.4,0.3-4.9,0.6-7.3,0.9c-8.8,1.2-12.7,8.3-12.7,17.8c0,7.5,2.6,15.8,8.8,15.8C234.9,405.3,239.5,399.5,239.5,389z"/>
<path class="st2" d="M270.9,328.8c0-4.9,4.2-8.8,9.8-8.8c5.8,0,9.8,4,9.8,8.8c0,5-4.1,8.8-9.8,8.8
	C275.1,337.6,270.9,333.8,270.9,328.8z M272.8,352.8c6-0.9,11.9-4.1,15.8-7.9v61h-15.8V352.8z"/>
<path class="st2" d="M340.1,371h-0.4c0-9.5-1.9-24.3-9.6-24.3c-9.2-0.1-11.9,15.7-12.4,28.9v30.3H302v-53c6-0.9,11.8-4.1,15.7-7.9
	v24.5c1-12.7,4.2-24.9,15.2-24.9C347.7,344.5,349.7,360.9,340.1,371z"/>
<path class="st2" d="M405.6,382.7c-2.6,12.7-12,24.3-26.2,24.3c-16.9,0-26.8-14.4-26.8-31.2c0-16.9,11-31.3,28.2-31.3
	c16.2,0,23.4,13.4,23.5,26.3h-0.1l0.1,0.1h-36.4c0.3,14.4,7.2,24,19.7,24.2c7.7,0,15-4.9,17.3-12.4H405.6z M367.9,370.1v0.4H391
	c-0.1-13.3-2.7-25.4-10.6-25.4C371.7,345.1,367.9,357,367.9,370.1z"/>
<path class="st1" d="M22,422.7c5.6-1,10.5-3.7,15.7-7.8v68c0,12-5.9,19.2-17.6,19.2c-13,0-18.3-10-19.9-19.2h0.8
	c1.7,5.5,5.8,9.1,11.9,9.1c6.3,0,9.2-4.3,9.2-11.5V422.7z M19.3,398.8c0-4.9,4.2-8.8,9.8-8.8c5.8,0,10,4,10,8.8c0,5-4.2,8.8-10,8.8
	C23.6,407.6,19.3,403.8,19.3,398.8z"/>
<path class="st1" d="M100.4,452.7c-2.6,12.7-12,24.3-26.2,24.3c-16.9,0-26.8-14.4-26.8-31.2c0-16.9,11-31.3,28.2-31.3
	c16.2,0,23.4,13.4,23.5,26.3H99l0.1,0.1H62.7c0.3,14.4,7.2,24,19.7,24.2c7.7,0,15-4.9,17.3-12.4H100.4z M62.7,440.1v0.4h23.1
	c-0.1-13.3-2.7-25.4-10.6-25.4C66.5,415.1,62.7,427,62.7,440.1z"/>
<path class="st1" d="M181.5,457.8c0,12.7-13.5,19.3-22.4,19.3c-18.3,0-33.2-10-21.7-23h0.4c1.3,9.5,9.2,22.6,21.2,22.5
	c9.5,0.1,15.1-4.2,15.1-9.8c0-6.6-6.3-8.2-16.7-12.1c-12-4.3-22.6-8.7-22.6-21.3c0-12.1,12.5-18.8,22-18.8c19,0,28.9,11.6,19.3,21.9
	h-0.4c-0.6-9.3-5.8-21.5-17.9-21.3c-11.1-0.1-15.6,5.5-15.6,10.5c0,5.4,6.6,7.7,17.8,12C171.3,441.9,181.5,444.8,181.5,457.8z"/>
<path class="st1" d="M244.7,415.7v60.2h-15.8v-21.7c-1.8,14.1-8.4,22.9-20.3,22.9c-12.8,0-17.4-6.6-17.5-18.9l0.1-34.5
	c6-0.9,11.8-4.1,15.7-7.9V464c0,7,2.6,10.2,7.3,10.2c6.9,0,14.7-8.6,14.7-28.5v-22.1C234.8,422.7,240.7,419.5,244.7,415.7z"/>
<path class="st1" d="M256.2,398.8c0-4.9,4.2-8.8,9.8-8.8c5.8,0,9.8,4,9.8,8.8c0,5-4.1,8.8-9.8,8.8
	C260.4,407.6,256.2,403.8,256.2,398.8z M258.1,422.8c6-0.9,11.9-4.1,15.8-7.9v61h-15.8V422.8z"/>
<path class="st1" d="M333.7,457.8c0,12.7-13.5,19.3-22.4,19.3c-18.3,0-33.2-10-21.7-23h0.4c1.3,9.5,9.2,22.6,21.2,22.5
	c9.5,0.1,15.1-4.2,15.1-9.8c0-6.6-6.3-8.2-16.7-12.1c-12-4.3-22.6-8.7-22.6-21.3c0-12.1,12.5-18.8,22-18.8c19,0,28.9,11.6,19.3,21.9
	h-0.4c-0.6-9.3-5.8-21.5-17.9-21.3c-11.1-0.1-15.6,5.5-15.6,10.5c0,5.4,6.6,7.7,17.8,12C323.5,441.9,333.7,444.8,333.7,457.8z"/>
<path class="st2" d="M77.7,453.4v92.4H62v-22.4C60.4,536,54.5,547,43.6,547c-13.2,0-23.6-12.1-23.8-31.3
	c0.1-19.2,9.6-31.3,23.8-31.3c10.9,0,16.7,9.8,18.4,23v-45.9C68,460.5,73.8,457.3,77.7,453.4z M62,515.7c0-19.4-7.3-29-14.3-29
	c-5.8,0-11.6,10-11.6,29c0,19,5.9,29,11.5,29C54.6,544.7,62,533.5,62,515.7z"/>
<path class="st2" d="M89.2,468.8c0-4.9,4.2-8.8,9.8-8.8c5.8,0,9.8,4,9.8,8.8c0,5-4.1,8.8-9.8,8.8C93.5,477.6,89.2,473.8,89.2,468.8z
	 M91.2,492.8c6-0.9,11.9-4.1,15.8-7.9v61H91.2V492.8z"/>
<path class="st2" d="M158.5,511h-0.4c0-9.5-1.9-24.3-9.6-24.3c-9.2-0.1-11.9,15.7-12.4,28.9v30.3h-15.7v-53c6-0.9,11.8-4.1,15.7-7.9
	v24.5c1-12.7,4.2-24.9,15.2-24.9C166.1,484.5,168.1,500.9,158.5,511z"/>
<path class="st2" d="M224,522.7c-2.6,12.7-12,24.3-26.2,24.3c-16.9,0-26.8-14.4-26.8-31.2c0-16.9,11-31.3,28.2-31.3
	c16.2,0,23.4,13.4,23.5,26.3h-0.1l0.1,0.1h-36.4c0.3,14.4,7.2,24,19.7,24.2c7.7,0,15-4.9,17.3-12.4H224z M186.2,510.1v0.4h23.1
	c-0.1-13.3-2.7-25.4-10.6-25.4C190.1,485.1,186.2,497,186.2,510.1z"/>
<path class="st2" d="M284.3,522.7c-3.1,15.2-13.5,24.3-26.7,24.3c-17.3,0-27.4-14.2-27.4-31.2c0-17.3,11.1-31.3,30.2-31.3
	c16.2,0,27.1,13,17.5,22.9h-0.4c-1.3-9.1-6.3-22.4-16.6-22.4c-10.7,0.1-15.3,12.5-15.3,25c0,14.6,6.5,24.9,19.7,25
	c7.8,0,14.4-4.1,18.3-12.4H284.3z"/>
<path class="st2" d="M313.5,547h-0.1c-10.6,0-16.6-4.9-16.6-17.5v-40l-10,1.9V491c10.6-2.3,17.9-17.3,18.4-27.4h0.4
	c4.3,3.5,6.8,8.2,5.8,12.7c-1,4.9-6.8,9.7-19.3,13.5l4.7-0.9l7.3-1.3l8.1-1.5l18.3-4.7v9.8l-18.1-4.7v40.6c0,6.9,3.1,9.8,7.9,9.8
	c5.6,0,9.5-4.9,11.8-12.4h0.6C330.2,536,326.1,546.9,313.5,547z"/>
<path class="st2" d="M392.5,522.7c-2.6,12.7-12,24.3-26.2,24.3c-16.9,0-26.8-14.4-26.8-31.2c0-16.9,11-31.3,28.2-31.3
	c16.2,0,23.4,13.4,23.5,26.3h-0.1l0.1,0.1h-36.4c0.3,14.4,7.2,24,19.7,24.2c7.7,0,15-4.9,17.3-12.4H392.5z M354.8,510.1v0.4H378
	c-0.1-13.3-2.7-25.4-10.6-25.4C358.7,485.1,354.8,497,354.8,510.1z"/>
<path class="st2" d="M454.2,485.7v60.2h-15.8v-21.7c-1.8,14.1-8.4,22.9-20.3,22.9c-12.8,0-17.4-6.6-17.5-18.9l0.1-34.5
	c6-0.9,11.8-4.1,15.7-7.9V534c0,7,2.6,10.2,7.3,10.2c6.9,0,14.7-8.6,14.7-28.5v-22.1C444.4,492.7,450.3,489.5,454.2,485.7z"/>
<path class="st2" d="M503.8,511h-0.4c0-9.5-1.9-24.3-9.6-24.3c-9.2-0.1-11.9,15.7-12.4,28.9v30.3h-15.7v-53c6-0.9,11.8-4.1,15.7-7.9
	v24.5c1-12.7,4.2-24.9,15.2-24.9C511.4,484.5,513.4,500.9,503.8,511z"/>
<path class="st2" d="M81.6,615.7v0.3c-15.6,2.7-24.7,0.4-25.8-12.5C54.9,610.9,51,617,40.7,617c-13,0-21.1-6-21.3-17.5
	c0.3-10.5,9.3-16.1,22-17.6l14.3-1.5v-10.9c0-9.5-3.6-14.4-10.6-14.4c-11.9-0.1-16.2,12.9-17.5,22.4h-0.4
	c-9.6-10.1-0.1-22.9,18.1-22.9c17.1,0,26.2,6.4,26.2,18.5v27.5C71.4,610.7,72.3,615.2,81.6,615.7z M55.6,599v-18.1
	c-2.4,0.3-4.9,0.6-7.3,0.9c-8.8,1.2-12.7,8.3-12.7,17.8c0,7.5,2.6,15.8,8.8,15.8C51,615.3,55.6,609.5,55.6,599z"/>
<path class="st2" d="M125,581h-0.4c0-9.5-1.9-24.3-9.6-24.3c-9.2-0.1-11.9,15.7-12.4,28.9v30.3H86.9v-53c6-0.9,11.8-4.1,15.7-7.9
	v24.5c1-12.7,4.2-24.9,15.2-24.9C132.6,554.5,134.6,570.9,125,581z"/>
<path class="st2" d="M160.4,617h-0.1c-10.6,0-16.6-4.9-16.6-17.5v-40l-10,1.9V561c10.6-2.3,17.9-17.3,18.4-27.4h0.4
	c4.3,3.5,6.8,8.2,5.8,12.7c-1,4.9-6.8,9.7-19.3,13.5l4.7-0.9l7.3-1.3l8.1-1.5l18.3-4.7v9.8l-18.1-4.7v40.6c0,6.9,3.1,9.8,7.9,9.8
	c5.6,0,9.5-4.9,11.8-12.4h0.6C177,606,173,616.9,160.4,617z"/>
<path class="st2" d="M188.3,538.8c0-4.9,4.2-8.8,9.8-8.8c5.8,0,9.8,4,9.8,8.8c0,5-4.1,8.8-9.8,8.8
	C192.5,547.6,188.3,543.8,188.3,538.8z M190.2,562.8c6-0.9,11.9-4.1,15.8-7.9v61h-15.8V562.8z"/>
<path class="st2" d="M265.9,597.8c0,12.7-13.5,19.3-22.4,19.3c-18.3,0-33.2-10-21.7-23h0.4c1.3,9.5,9.2,22.6,21.2,22.5
	c9.5,0.1,15.1-4.2,15.1-9.8c0-6.6-6.3-8.2-16.7-12.1c-12-4.3-22.6-8.7-22.6-21.3c0-12.1,12.5-18.8,22-18.8c19,0,28.9,11.6,19.3,21.9
	H260c-0.6-9.3-5.8-21.5-17.9-21.3c-11.1-0.1-15.6,5.5-15.6,10.5c0,5.4,6.6,7.7,17.8,12C255.6,581.9,265.9,584.8,265.9,597.8z"/>
<path class="st2" d="M296.5,617h-0.1c-10.6,0-16.6-4.9-16.6-17.5v-40l-10,1.9V561c10.6-2.3,17.9-17.3,18.4-27.4h0.4
	c4.3,3.5,6.8,8.2,5.8,12.7c-1,4.9-6.8,9.7-19.3,13.5l4.7-0.9l7.3-1.3l8.1-1.5l18.3-4.7v9.8l-18.1-4.7v40.6c0,6.9,3.1,9.8,7.9,9.8
	c5.6,0,9.5-4.9,11.8-12.4h0.6C313.2,606,309.1,616.9,296.5,617z"/>
<path class="st2" d="M324.4,538.8c0-4.9,4.2-8.8,9.8-8.8c5.8,0,9.8,4,9.8,8.8c0,5-4.1,8.8-9.8,8.8
	C328.6,547.6,324.4,543.8,324.4,538.8z M326.3,562.8c6-0.9,11.9-4.1,15.8-7.9v61h-15.8V562.8z"/>
<path class="st2" d="M411.9,562.8v78.6h-15.7v-47c-1.8,12.1-7.7,22.6-18.3,22.6c-13.2,0-23.6-12.1-23.8-31.3
	c0.1-19.2,9.6-31.3,23.8-31.3c10.6,0,16.5,9.5,18.3,22v-21.5C400.2,558.7,405.9,561.9,411.9,562.8z M396.2,589.6v-8.3
	c-1-16.5-7.7-24.7-14.2-24.7c-5.8,0-11.6,10-11.6,29c0,19,5.9,29,11.5,29C388.4,614.7,395.2,605.1,396.2,589.6z"/>
<path class="st2" d="M477,555.7v60.2h-15.8v-21.7c-1.8,14.1-8.4,22.9-20.3,22.9c-12.8,0-17.4-6.6-17.5-18.9l0.1-34.5
	c6-0.9,11.8-4.1,15.7-7.9V604c0,7,2.6,10.2,7.3,10.2c6.9,0,14.7-8.6,14.7-28.5v-22.1C467.2,562.7,473,559.5,477,555.7z"/>
<path class="st2" d="M539.6,592.7c-2.6,12.7-12,24.3-26.2,24.3c-16.9,0-26.8-14.4-26.8-31.2c0-16.9,11-31.3,28.2-31.3
	c16.2,0,23.4,13.4,23.5,26.3h-0.1l0.1,0.1h-36.4c0.3,14.4,7.2,24,19.7,24.2c7.7,0,15-4.9,17.3-12.4H539.6z M501.9,580.1v0.4H525
	c-0.1-13.3-2.7-25.4-10.6-25.4C505.7,555.1,501.9,567,501.9,580.1z"/>
<path class="st1" d="M40.9,614.5v11.6h0.4l21.6-0.9v9.8l-21.6-8.6h-0.4v59.3H25.1v-59.3h-9.5v-0.4h9.5v-6.9c0-17.6,8.3-24,23.5-24
	c15.8,0,24,13.3,14.4,22.9h-0.4c-1.3-9.1-4.3-22.5-13.8-22.5C40.4,595.6,40.9,606.9,40.9,614.5z"/>
<path class="st1" d="M112.9,651h-0.4c0-9.5-1.9-24.3-9.6-24.3c-9.2-0.1-11.9,15.7-12.4,28.9v30.3H74.8v-53c6-0.9,11.8-4.1,15.7-7.9
	v24.5c1-12.7,4.2-24.9,15.2-24.9C120.4,624.5,122.5,640.9,112.9,651z"/>
<path class="st1" d="M178.3,662.7c-2.6,12.7-12,24.3-26.2,24.3c-16.9,0-26.8-14.4-26.8-31.2c0-16.9,11-31.3,28.2-31.3
	c16.2,0,23.4,13.4,23.5,26.3h-0.1l0.1,0.1h-36.4c0.3,14.4,7.2,24,19.7,24.2c7.7,0,15-4.9,17.3-12.4H178.3z M140.6,650.1v0.4h23.1
	c-0.1-13.3-2.7-25.4-10.6-25.4C144.5,625.1,140.6,637,140.6,650.1z"/>
<path class="st1" d="M237.6,662.7c-2.6,12.7-12,24.3-26.2,24.3c-16.9,0-26.8-14.4-26.8-31.2c0-16.9,11-31.3,28.2-31.3
	c16.2,0,23.4,13.4,23.5,26.3h-0.1l0.1,0.1h-36.4c0.3,14.4,7.2,24,19.7,24.2c7.7,0,15-4.9,17.3-12.4H237.6z M199.9,650.1v0.4h23.1
	c-0.1-13.3-2.7-25.4-10.6-25.4C203.8,625.1,199.9,637,199.9,650.1z"/>
<path class="st1" d="M245.8,601.5c6-1,11.8-4.2,15.7-8.1v92.4h-15.7V601.5z"/>
<path class="st1" d="M333.3,685.7v0.3c-15.6,2.7-24.7,0.4-25.8-12.5c-0.9,7.4-4.7,13.5-15.1,13.5c-13,0-21.1-6-21.3-17.5
	c0.3-10.5,9.3-16.1,22-17.6l14.3-1.5v-10.9c0-9.5-3.6-14.4-10.6-14.4c-11.9-0.1-16.2,12.9-17.5,22.4h-0.4
	c-9.6-10.1-0.1-22.9,18.1-22.9c17.1,0,26.2,6.4,26.2,18.5v27.5C323.1,680.7,324,685.2,333.3,685.7z M307.4,669v-18.1
	c-2.4,0.3-4.9,0.6-7.3,0.9c-8.8,1.2-12.7,8.3-12.7,17.8c0,7.5,2.6,15.8,8.8,15.8C302.8,685.3,307.4,679.5,307.4,669z"/>
<path class="st1" d="M392.3,646.7v39.1h-15.8v-41.7c0-11.4-2.3-17-8.2-17c-6.8,0-12.9,7.2-13.8,23.8v34.9h-15.7v-53
	c6-0.9,11.8-4.1,15.7-7.9v20.2c1.8-12.8,7.4-20.7,20.4-20.7C386.3,624.4,392.1,632.2,392.3,646.7z"/>
<path class="st1" d="M455.8,662.7c-3.1,15.2-13.5,24.3-26.7,24.3c-17.3,0-27.4-14.2-27.4-31.2c0-17.3,11.1-31.3,30.2-31.3
	c16.2,0,27.1,13,17.5,22.9H449c-1.3-9.1-6.3-22.4-16.6-22.4c-10.7,0.1-15.3,12.5-15.3,25c0,14.6,6.5,24.9,19.7,25
	c7.8,0,14.4-4.1,18.3-12.4H455.8z"/>
<path class="st1" d="M515.1,662.7c-2.6,12.7-12,24.3-26.2,24.3c-16.9,0-26.8-14.4-26.8-31.2c0-16.9,11-31.3,28.2-31.3
	c16.2,0,23.4,13.4,23.5,26.3h-0.1l0.1,0.1h-36.4c0.3,14.4,7.2,24,19.7,24.2c7.7,0,15-4.9,17.3-12.4H515.1z M477.4,650.1v0.4h23.1
	c-0.1-13.3-2.7-25.4-10.6-25.4C481.2,625.1,477.4,637,477.4,650.1z"/>
<path class="st1" d="M81.6,755.7v0.3c-15.6,2.7-24.7,0.4-25.8-12.5C54.9,750.9,51,757,40.7,757c-13,0-21.1-6-21.3-17.5
	c0.3-10.5,9.3-16.1,22-17.6l14.3-1.5v-10.9c0-9.5-3.6-14.4-10.6-14.4c-11.9-0.1-16.2,12.9-17.5,22.4h-0.4
	c-9.6-10.1-0.1-22.9,18.1-22.9c17.1,0,26.2,6.4,26.2,18.5v27.5C71.4,750.7,72.3,755.2,81.6,755.7z M54.9,689.4
	c-9.3-4.5-16.2-10-22.8-16.5h15.6c1.2,5.4,3.6,10.9,8.2,16.5H54.9z M55.6,739v-18.1c-2.4,0.3-4.9,0.6-7.3,0.9
	c-8.8,1.2-12.7,8.3-12.7,17.8c0,7.5,2.6,15.8,8.8,15.8C51,755.3,55.6,749.5,55.6,739z"/>
<path class="st1" d="M171.6,725.7c-0.1,19.2-10.6,31.3-23.9,31.3c-10.9,0-16.7-11-18.4-23.5v47.9h-15.7v-78.6
	c6-0.9,11.8-4.1,15.7-7.9v22.5c1.7-13.2,7.5-23,18.4-23C161.8,694.4,171.4,706.5,171.6,725.7z M155.2,725.7c0-19-5.9-29-11.5-29
	c-7.2,0-14.3,9.6-14.3,29c0,17.8,7.3,29,14.3,29C149.4,754.7,155.2,744.7,155.2,725.7z"/>
<path class="st1" d="M241.5,755.7v0.3c-15.6,2.7-24.7,0.4-25.8-12.5c-0.9,7.4-4.7,13.5-15.1,13.5c-13,0-21.1-6-21.3-17.5
	c0.3-10.5,9.3-16.1,22-17.6l14.3-1.5v-10.9c0-9.5-3.6-14.4-10.6-14.4c-11.9-0.1-16.2,12.9-17.5,22.4H187
	c-9.6-10.1-0.1-22.9,18.1-22.9c17.1,0,26.2,6.4,26.2,18.5v27.5C231.2,750.7,232.1,755.2,241.5,755.7z M215.5,739v-18.1
	c-2.4,0.3-4.9,0.6-7.3,0.9c-8.8,1.2-12.7,8.3-12.7,17.8c0,7.5,2.6,15.8,8.8,15.8C210.9,755.3,215.5,749.5,215.5,739z"/>
<path class="st1" d="M284.9,721h-0.4c0-9.5-1.9-24.3-9.6-24.3c-9.2-0.1-11.9,15.7-12.4,28.9v30.3h-15.7v-53c6-0.9,11.8-4.1,15.7-7.9
	v24.5c1-12.7,4.2-24.9,15.2-24.9C292.5,694.5,294.5,710.9,284.9,721z"/>
<path class="st1" d="M299.2,678.8c0-4.9,4.2-8.8,9.8-8.8c5.8,0,9.8,4,9.8,8.8c0,5-4.1,8.8-9.8,8.8
	C303.4,687.6,299.2,683.8,299.2,678.8z M301.1,702.8c6-0.9,11.9-4.1,15.8-7.9v61h-15.8V702.8z"/>
<path class="st1" d="M376.8,737.8c0,12.7-13.5,19.3-22.4,19.3c-18.3,0-33.2-10-21.7-23h0.4c1.3,9.5,9.2,22.6,21.2,22.5
	c9.5,0.1,15.1-4.2,15.1-9.8c0-6.6-6.3-8.2-16.7-12.1c-12-4.3-22.6-8.7-22.6-21.3c0-12.1,12.5-18.8,22-18.8c19,0,28.9,11.6,19.3,21.9
	h-0.4c-0.6-9.3-5.8-21.5-17.9-21.3c-11.1-0.1-15.6,5.5-15.6,10.5c0,5.4,6.6,7.7,17.8,12C366.6,721.9,376.8,724.8,376.8,737.8z"/>
</svg>
