<?xml version="1.0" encoding="utf-8"?>
<!-- Generator: Adobe Illustrator 24.0.1, SVG Export Plug-In . SVG Version: 6.00 Build 0)  -->
<svg version="1.1" id="Calque_1" xmlns="http://www.w3.org/2000/svg" xmlns:xlink="http://www.w3.org/1999/xlink" x="0px" y="0px"
	 viewBox="0 0 578 1004.3" style="enable-background:new 0 0 578 1004.3;" xml:space="preserve">
<style type="text/css">
	.st0{fill:none;stroke:#1D1D1B;stroke-miterlimit:10;}
	.st1{fill:#1D1D1B;}
	.st2{fill:none;stroke:#000000;}
</style>
<g>
	<path class="st0" d="M58,171.8c-0.1,19.2-10.6,31.3-23.9,31.3c-10.9,0-16.7-11-18.4-23.5V202H0v-84.4c6-1,11.8-4.2,15.7-8.1v53.9
		c1.7-13.2,7.5-23,18.4-23C48.3,140.5,57.9,152.6,58,171.8z M41.6,171.8c0-19-5.9-29-11.5-29c-7.2,0-14.3,9.6-14.3,29
		c0,17.8,7.3,29,14.3,29C35.9,200.8,41.6,190.8,41.6,171.8z"/>
	<path class="st0" d="M66.7,124.9c0-4.9,4.2-8.8,9.8-8.8c5.8,0,9.8,4,9.8,8.8c0,5-4.1,8.8-9.8,8.8C70.9,133.7,66.7,129.9,66.7,124.9
		z M68.6,148.9c6-0.9,11.9-4.1,15.8-7.9v61H68.6V148.9z"/>
	<path class="st0" d="M148.1,178.8c-2.6,12.7-12,24.3-26.2,24.3c-16.9,0-26.8-14.4-26.8-31.2c0-16.9,11-31.3,28.2-31.3
		c16.2,0,23.4,13.4,23.5,26.3h-0.1l0.1,0.1h-36.4c0.3,14.4,7.2,24,19.7,24.2c7.7,0,15-4.9,17.3-12.4
		C147.4,178.8,148.1,178.8,148.1,178.8z M110.4,166.2v0.4h23.1c-0.1-13.3-2.7-25.4-10.6-25.4C114.2,141.2,110.4,153.1,110.4,166.2z"
		/>
	<path class="st0" d="M208.9,162.8v39.1h-15.8v-41.6c0-11.4-2.3-17-8.2-17c-6.8,0-12.9,7.2-13.8,23.8V202h-15.7v-53
		c6-0.9,11.8-4.1,15.7-7.9v20.2c1.8-12.8,7.4-20.7,20.4-20.7C202.9,140.5,208.8,148.3,208.9,162.8z"/>
	<path class="st0" d="M245.1,117.6c6-1,11.8-4.2,15.7-8.1v92.4h-15.7L245.1,117.6L245.1,117.6z"/>
	<path class="st0" d="M322.5,178.8c-2.6,12.7-12,24.3-26.2,24.3c-16.9,0-26.8-14.4-26.8-31.2c0-16.9,11-31.3,28.2-31.3
		c16.2,0,23.4,13.4,23.5,26.3h-0.1l0.1,0.1h-36.4c0.3,14.4,7.2,24,19.7,24.2c7.7,0,15-4.9,17.3-12.4
		C321.8,178.8,322.5,178.8,322.5,178.8z M284.8,166.2v0.4h23.1c-0.1-13.3-2.7-25.4-10.6-25.4C288.7,141.2,284.8,153.1,284.8,166.2z"
		/>
</g>
<g>
	<g>
		<path class="st1" d="M77.4,241.5c1.4,13.3-15.8,22.6-31.6,22.8c-13.1,0-19.1-8.2-21.6-17.5c-0.1,5.5-0.7,11.1-1.8,16.8
			c-7.1,0.1-14.6,0.2-22.4,0.4c0-21.7,0-43.3,0-65c7.3-0.9,13.7-3.7,17.5-7.4c2.1,15.8,5,29.8,6.3,43.2c1.6-9.8,7.7-17.2,20.6-17
			C60.7,218.1,75.2,228.2,77.4,241.5z M58.4,241.4c-1.7-13.5-12-21.7-18.4-21.8c-8.7-0.2-16.3,7.1-15.7,21.5
			c0.7,13.2,8.6,21.6,17.2,21.5C48.4,262.5,59.4,254.8,58.4,241.4z"/>
		<path class="st1" d="M84.8,241.6c-1.9-12.9,8.3-23.1,22.5-23.4c13.9-0.1,30.3,10.2,33.4,23.2c3.2,12.9-15.1,23.2-29.9,23.1
			C96.2,264.1,86.7,254.5,84.8,241.6z M125.7,241.6c-3.4-14.5-10.2-23.1-18.3-22.9c-8.9,0.1-7.9,8.6-5,23c2,14.2-0.7,22.3,8.6,22.4
			C119.4,264.1,128.3,255.8,125.7,241.6z"/>
		<path class="st1" d="M188.1,233.7c2.6,9.9,4.7,18.9,3,31.1c-4.3-0.1-8.6-0.2-13-0.3c2.7-12.6,0.2-21.8-2.7-32.3
			c-2.4-8.6-5.1-13.5-9.9-13.3c-5.6,0.2-8.7,6.8-5.9,18.7c2.3,8.4,3.2,16.3,0.1,26.5c-4.4-0.1-8.9-0.2-13.5-0.2
			c5.5-15,0.9-25.5-3.4-39.5c4.7-0.8,8.7-3.5,11.1-6.9c1.4,5.8,3,11,4.5,15.9c-1.5-9.4,1.4-16.6,11.9-17.1
			C179.6,215.9,185.2,222.9,188.1,233.7z"/>
		<path class="st1" d="M194.4,222.4c4.2-1,7.7-3.5,11.6-7.5c1.6,21,8.6,33.5,7.1,58c-0.3,13.1-4.4,26.3-17.2,25.1
			c-14.7-1.6-16-17.6-14.8-26.5c0.2,0,0.5,0,0.7,0c0,5.7,2.6,10.7,8.3,11c5.9,0.4,9.2-5.4,10-12.8
			C202.6,250.2,197.3,238.5,194.4,222.4L194.4,222.4z M190,199.3c-0.4-5.7,2.8-11.6,7.8-12.1c5.2-0.5,9.1,5.1,9.1,10.8
			c0,6-3.5,9.9-8.2,10.3C194,208.5,190.3,205.1,190,199.3z"/>
		<path class="st1" d="M216.9,240.1c-3.6-14.3,7.7-26.4,21-27.5c13.3-0.8,24.8,11.1,26.7,27.4c2.2,16.1-6,28.7-19.4,28.1
			C231.6,267.1,219.9,254.2,216.9,240.1z M250.1,239.9c-2.6-17.5-4.1-27.3-12.2-26.8c-7.8,0.6-11.1,10.3-7.7,26.9
			c3.2,16.5,6.8,27.2,14.9,27.6C253.1,268,253,257.2,250.1,239.9z"/>
		<path class="st1" d="M327.9,209.6c-4.2,23-5.3,40.2,4.5,63c-5.8-0.4-11.4-0.9-16.9-1.2c-3.5-8.1-5.6-15.4-6.8-22.5
			c0.4,13.6-1.2,23.2-13,22.4c-12.4-0.8-19.5-8.6-21.9-20c-2.2-10.6-2.9-20.3-2.2-31.4c5.6-1.1,11.4-4.4,15.9-8.6
			c-2.4,17.2-2.4,30.3,1.9,46.1c1.9,6.9,5.9,10.7,10.5,11c7.2,0.5,9.4-8.7,8-27.8c-0.4-7.1,0.1-14.2,1.1-21.9
			C315.5,217.6,322.5,214.1,327.9,209.6z"/>
		<path class="st1" d="M389.2,237.1c-0.2,0-0.4,0-0.6,0c0-10.9-2.2-28-12.5-27.8c-12.2,0.4-18.8,18.6-19.1,32.4
			c0.2,10.8,2.1,21.5,5.9,33.2c-6.3-0.5-12.5-1-18.5-1.5c-8.3-20.2-8.4-36.6-5.3-56.1c7.3-1.1,15.2-4.9,20.9-9.5
			c-1.4,9.7-2.6,18.6-2.9,27.4c2-13.5,8.4-27.9,23.2-28.4C400.1,206,404.9,225.4,389.2,237.1z"/>
	</g>
</g>
<g>
	<path class="st0" d="M300.2,262.5c0,9.1-4,20.3-15.3,23.5l-0.3-0.3c8.8-3.7,11.6-14.1,11.4-20.6c-1,1.8-2.9,2.9-5.9,2.9
		c-5.4,0-8.7-4.6-8.7-9.1c0-5.5,4-9.5,9.3-9.5C297.1,249.5,300.2,255.8,300.2,262.5z"/>
	<path class="st0" d="M86,302.6V342H69.7v-47.7c0-7.2-1.8-10.9-6.8-10.9c-6.9,0-12.1,8.8-12.1,28.4V342H34.5v-47.7
		c0-7.2-1.8-10.9-6.8-10.9c-6.3,0-11.1,7.3-12,23.3V342H0v-53c6-0.9,11.8-4.1,15.7-7.9v19.3c1.7-12.3,6.6-19.8,18.8-19.8
		c11.8,0,16,7.3,16.4,21.1c1.4-13,6.4-21.1,18.9-21.1C81.6,280.5,85.8,288.1,86,302.6z"/>
	<path class="st0" d="M94.5,311.9c0-18.8,14.6-31.3,29.8-31.3s29.8,12.5,29.8,31.3c0,18.7-14.6,31.2-29.8,31.2
		S94.5,330.6,94.5,311.9z M136.8,311.9c0-21-3.3-30.8-12.5-30.8s-12.5,9.8-12.5,30.8c0,20.8,3.3,30.7,12.5,30.7
		S136.8,332.7,136.8,311.9z"/>
	<path class="st0" d="M162.8,264.9c0-4.9,4.2-8.8,9.8-8.8c5.8,0,9.8,4,9.8,8.8c0,5-4.1,8.8-9.8,8.8
		C167,273.7,162.8,269.9,162.8,264.9z M164.7,288.9c6-0.9,11.9-4.1,15.8-7.9v61h-15.8V288.9z"/>
	<path class="st0" d="M270.9,318.8c-3.1,15.2-13.5,24.3-26.7,24.3c-17.3,0-27.4-14.2-27.4-31.2c0-17.3,11.1-31.3,30.2-31.3
		c16.2,0,27.1,13,17.5,22.9h-0.4c-1.3-9.1-6.3-22.4-16.6-22.4c-10.7,0.1-15.3,12.5-15.3,25c0,14.6,6.5,24.9,19.7,25
		c7.8,0,14.4-4.1,18.3-12.4h0.7V318.8z"/>
	<path class="st0" d="M358.7,318.8c-2.6,12.7-12,24.3-26.2,24.3c-16.9,0-26.8-14.4-26.8-31.2c0-16.9,11-31.3,28.2-31.3
		c16.2,0,23.4,13.4,23.5,26.3h-0.1l0.1,0.1H321c0.3,14.4,7.2,24,19.7,24.2c7.7,0,15-4.9,17.3-12.4H358.7L358.7,318.8z M321,306.2
		v0.4h23.1c-0.1-13.3-2.7-25.4-10.6-25.4C324.8,281.2,321,293.1,321,306.2z"/>
	<path class="st0" d="M412.4,323.9c0,12.7-13.5,19.3-22.4,19.3c-18.3,0-33.2-10-21.7-23h0.4c1.3,9.5,9.2,22.6,21.2,22.5
		c9.5,0.1,15.1-4.2,15.1-9.8c0-6.6-6.3-8.2-16.7-12.1c-12-4.3-22.6-8.7-22.6-21.3c0-12.1,12.5-18.8,22-18.8
		c19,0,28.9,11.6,19.3,21.9h-0.4c-0.6-9.3-5.8-21.5-17.9-21.3c-11.1-0.1-15.6,5.5-15.6,10.5c0,5.4,6.6,7.7,17.8,12
		C402.1,308,412.4,310.9,412.4,323.9z"/>
	<path class="st0" d="M442.1,343.1H442c-10.6,0-16.6-4.9-16.6-17.5v-40l-10,1.9v-0.4c10.6-2.3,17.9-17.3,18.4-27.4h0.4
		c4.3,3.5,6.8,8.2,5.8,12.7c-1,4.9-6.8,9.7-19.3,13.5l4.7-0.9l7.3-1.3l8.1-1.5l18.3-4.7v9.8l-18.1-4.7v40.6c0,6.9,3.1,9.8,7.9,9.8
		c5.6,0,9.5-4.9,11.8-12.4h0.6C458.8,332.1,454.7,343,442.1,343.1z"/>
</g>
<g>
	<g>
		<path class="st1" d="M61.9,363.3c8.4,26.4,22.6,46.7-4.1,74.2c-5.2,0-10.5,0-15.7,0c12.7-16.1,14.1-30.3,11.7-44.8
			c0,11-9.2,20.9-22.5,20.9C15,413.5,0.3,401.2,0,381.8c0.7-19.2,11.1-30.1,25.4-29.2c10.8,0.8,18.7,11.2,24.3,23.2
			c-1.9-6.9-4-14-5.6-21.5C48.9,358.6,55.6,362.1,61.9,363.3z M52.9,388.3c-0.6-2.6-1.2-5.2-1.9-7.8c-5.7-15.6-14.4-24.9-21-25.3
			c-6-0.4-10.7,9.4-8.9,27.9c1.9,18.5,8.5,28.2,15.4,28.2C44.6,411.4,55,402.5,52.9,388.3z"/>
		<path class="st1" d="M119.6,357c5.5,20.9,24.7,35.5,21.8,54c-5.2,0.2-10.4,0.3-15.7,0.5c1.3-6.6-0.2-12.8-2.9-19
			c3.8,12-5.9,20.4-18.4,20.7c-13.8,0.3-16.6-5.8-19-16.7c-2.2-10.2-7.6-20.4-11.7-31.9c5.5-0.7,9.6-3.8,12.1-7.7
			c4.8,16.9,15.5,30.4,17.5,44.5c0.8,6.2,2.6,9.1,7.7,8.9c6.9-0.2,18.1-8.2,8.3-25.2c-3.5-6.4-7.6-12.9-10.7-20.1
			C113.3,364.2,117.1,361,119.6,357z"/>
		<path class="st1" d="M191.3,388.1c5.8,10.6-2,22.1-15.7,22.6c-15.2,0.4-23.5-12.2-33.5-26.2c-10.2-14-5.7-28.9,10.2-29.4
			c13.7-0.1,22.4,12.6,31,23.1h-0.1l0.1,0.1c-10.1,0.6-20.2,1.1-30.6,1.5c8.9,12.1,17.9,19.9,28.8,19.7c6.8-0.3,11.5-5,9.2-11.4
			C191,388.2,191.2,388.2,191.3,388.1z M152.3,379.2c0.1,0.1,0.2,0.2,0.2,0.3c6.6-0.3,13.1-0.6,19.5-0.9
			c-8.6-10.9-13.4-22.8-19.9-22.8C144.1,356.1,144.1,368.3,152.3,379.2z"/>
		<path class="st1" d="M234.5,372c6,11,15.9,21.6,18.8,35c-4.6,0.1-9.2,0.2-13.7,0.3c-2.5-14.1-13.7-25.1-20.1-36.8
			c-5.2-9.6-6.4-14.9-11.9-14.7c-6,0.2-12.3,7.6-3.3,21.4c6.6,9.7,14.7,19.2,16.1,30.7c-4.6,0.2-9.2,0.3-13.8,0.5
			c-1.2-17.3-18.6-30-23.9-46.2c4.9-1.1,9-4.2,12.5-8.1c0,6.6,2.6,12.5,6,18.2c-5.3-10.9,0.5-18.9,12.5-19.4
			C224.4,352.5,227.6,359.9,234.5,372z"/>
		<path class="st1" d="M282.2,407.9L282.2,407.9c-9.7,0.1-15.3-5.4-21.8-16.9c-6.9-12-15.8-22.5-15.9-34.6c-3.2,0.7-6.3,1.4-9.3,2.1
			c0-0.1,0-0.2,0-0.4c8.9-2.4,17.6-16.3,31.6-27.9c0.1,0,0.3,0,0.4,0c0.1,3.9-1.6,8.8-4.9,13.3c-3.6,4.9-10.5,9.5-22.2,13.3
			c1.5-0.3,3-0.7,4.5-1c2.3-0.5,4.7-1,7.1-1.4c2.7-0.5,5.4-1.1,8.2-1.6c6.3-1.6,12.9-3.3,19.8-4.9c-1.1,3.1-1.6,6-1.7,8.9
			c-6.2-1.2-12.2-2.5-18-3.7c-1.8,12.4,6.1,23.2,13,35.4c3.5,6.2,7.4,9.1,11.7,9.1c5,0,6.5-4.8,5.1-11.6c0.2,0,0.4,0,0.6,0
			C293.7,396.3,293.7,407.7,282.2,407.9z"/>
		<path class="st1" d="M298.3,335.4c4.1-5,13.5-9.3,19-9.3c5.7,0,5.2,4.3,1.7,9.1c-3.7,5-9.6,8.6-15.9,8.7
			C297.2,344,294.1,340.5,298.3,335.4z M291.4,358c6.4-0.9,12.9-3.9,18.1-7.4c-4.4,18.8,8.5,35.4,14.2,56.9c-5-0.2-9.9-0.3-14.8-0.4
			C303.7,388.3,291.5,373.8,291.4,358z"/>
		<path class="st1" d="M392.3,372.8c0,13,0,26.1,0,39.1c-5.8-0.6-11.6-1.1-17.2-1.5c-1.4-14.2-3.5-27.7-4.1-41.2
			c-0.5-11-2.9-16.5-10.5-16.6c-8.4-0.1-18,6.7-16.2,22c2,10.9,5.6,22,8,34.1c-5.3-0.3-10.5-0.6-15.6-0.9
			c-4.5-18.6-13.2-34.1-12.7-50.2c7-0.8,14.2-3.7,19.6-7.3c-1.1,6.3-1,12.6-0.2,18.8c0.7-11.8,9.3-19.3,25.8-19.1
			C383.8,350.2,392,358.2,392.3,372.8z"/>
	</g>
</g>
<g>
	<g>
		<path class="st1" d="M0,409.1c7.6-0.9,14.1-3.4,17.1-6.9c8.6,25.5,15.2,42.8-0.1,67.3c-5.5,0-11.2,0.1-17,0.3
			C0,449.5,0,429.3,0,409.1z"/>
		<path class="st1" d="M98.6,451.5c-8.3,8.6-33.2,20.2-46.4,19.6c-14.5-1-14.1-12.9-12.6-24c3-11.5,13.9-21,33.1-21
			c18,0.3,30.2,9.3,28.3,17.4h-0.1c0,0,0.1,0,0.1,0.1c-12-0.1-25.2-0.1-40.4-0.1c-1.2,9.4-1,16.9,11.6,17.2c7.8,0.1,19.7-4,25.7-9.2
			C98.2,451.5,98.4,451.5,98.6,451.5z M60.8,443c0,0.1,0,0.2,0,0.3c9.7-0.1,18.5-0.1,26.7,0c1.7-8.4-6.2-16.5-14.9-16.7
			C62.6,426.5,62.3,434.5,60.8,443z"/>
		<path class="st1" d="M179.8,441.5c0.5,9.6-6.1,18.1-14.7,36.2c-5.1-0.5-10.1-0.9-15.2-1.3c14.5-20.8,20-29.2,17.6-40.6
			c-0.8-4.9-3.1-7.7-6.9-7.7c-6.2,0.3-5,6.3-8.2,19.4c-2.2,7.2-9,14.6-20,27.4c-5-0.4-10-0.8-15-1.2c19.8-18.8,25-27.1,22.7-38
			c-1-4.7-3.7-7.4-7.9-7.4c-5.9,0.1-5.8,5.1-7.9,15.3c-1.6,7.8-8.7,15.6-24.2,28.8c-4.8-0.3-9.6-0.6-14.4-0.9
			c23.5-18.6,27.5-27.5,23.4-39.5c5.4-0.6,9.8-2.6,12-5.4c2.1,4.6,3.5,8.7,3.6,12.9c1-7.8,1.9-13.2,12.4-13.3
			c9.5,0,15.7,5.4,16.4,14.4c0.7-8.5,1.7-14.5,11.6-14.8C174.1,425.7,179.4,431.5,179.8,441.5z"/>
		<path class="st1" d="M235.4,483.7c0.1,0.2,0.1,0.3,0.2,0.5c-13.6,3.8-27.9-3.8-26-18.5c-2.3,7.8-4.5,17.3-15,16.4
			c-13.9-1.2-18.3-11.9-12.7-22.3c4.6-9.4,11-12.8,20.4-13.9c3.5-0.3,6.9-0.6,10.4-1c0.1-2.9,0.1-5.6,0-8.4
			c-0.3-7.3-3.2-11.4-8.5-11.2c-9.2,0.5-10.5,10.4-11.6,17.1c-0.1,0-0.2,0-0.4,0c-6.7-7.2-2.1-16.6,12-17.5
			c13.1-0.5,20.1,4.8,20.1,14.4c0.1,7.3-0.7,14.6-1.5,24.2C221.8,474.2,225.4,482.2,235.4,483.7z M210.3,461c1.2-6,2-11,2.3-15.7
			c-1.8,0.2-3.6,0.4-5.3,0.6c-6.4,0.9-9.6,5.8-12.8,14.7c-2.8,6.7-2.9,18.4,3.7,19.3C204.7,480.5,208.1,471.3,210.3,461z"/>
		<path class="st1" d="M239,406.5c0.8-6.2,5.4-13.3,10.8-13.9c5.6-0.6,8.2,5.9,6.9,12.2c-1.3,6.6-5.7,10.8-10.6,11.2
			C241.2,416.3,238.2,412.9,239,406.5z M237.9,430.7c4.8-0.9,9.8-3.8,13.7-7.6c-2,9.6-1.4,17.9-1.7,27.2c0.3,9.3-0.2,19.6,9.6,35.8
			c-5.5-0.5-11-0.9-16.5-1.4c-6.8-14.1-5.8-23.2-5.8-31.4C237.8,445.2,237.2,438.1,237.9,430.7L237.9,430.7z"/>
		<path class="st1" d="M296.6,447.7c-0.1,0-0.3,0-0.4,0c-1-9.5,0.9-24.7-6.7-24.6c-9.2,0.9-15.4,15.8-14.3,28.4
			c1.5,10.1,2.4,20.9,15.5,37.1c-5.6-0.4-11.3-0.9-16.8-1.4c-10.2-14.2-11.4-24-12.3-32.7c-0.5-8.6-0.8-16.3,0.6-24.4
			c5.3-1,11.1-4.1,15.7-8.3c-2,8.6-3.1,15.9-3,23.7c0.7-11.7,6.9-23.9,18-24.9C308,419.9,305.6,437.9,296.6,447.7z"/>
		<path class="st1" d="M384.3,465.4c-5.6,16.3-13.5,30.7-26.2,30c-17.3-1.4-46-24.7-47.5-42.1c-2.6-17.5,15.4-33.7,37.5-35.8
			c20.9-1.5,33.3,15,33.8,32.2c-0.1,0-0.1,0-0.2,0c0.1,0,0.1,0.1,0.2,0.1c-21-0.4-38.5-0.8-53.8-1.3c1.7,15.9,17,29.5,32.5,31.2
			c9.5,0.8,18.4-4.7,22.4-14.3C383.5,465.3,383.9,465.3,384.3,465.4z M328.2,447.6c0,0.1,0,0.3,0,0.4c9.7,0.3,20.3,0.5,32.1,0.8
			c-1-16.3-2.3-31.2-12.8-30.6C336.3,419.2,327.4,433.3,328.2,447.6z"/>
	</g>
</g>
<g>
	<path class="st0" d="M21.8,498.8c5.6-1,10.5-3.7,15.7-7.8v68c0,12-5.9,19.2-17.6,19.2c-13,0-18.3-10-19.9-19.2h0.8
		c1.7,5.5,5.8,9.1,11.9,9.1c6.3,0,9.2-4.3,9.2-11.5v-57.8L21.8,498.8L21.8,498.8z M19.1,474.9c0-4.9,4.2-8.8,9.8-8.8
		c5.8,0,10,4,10,8.8c0,5-4.2,8.8-10,8.8C23.4,483.7,19.1,479.9,19.1,474.9z"/>
	<path class="st0" d="M100.2,528.8c-2.6,12.7-12,24.3-26.2,24.3c-16.9,0-26.8-14.4-26.8-31.2c0-16.9,11-31.3,28.2-31.3
		c16.2,0,23.4,13.4,23.5,26.3h-0.1l0.1,0.1H62.5c0.3,14.4,7.2,24,19.7,24.2c7.7,0,15-4.9,17.3-12.4H100.2L100.2,528.8z M62.5,516.2
		v0.4h23.1c-0.1-13.3-2.7-25.4-10.6-25.4C66.3,491.2,62.5,503.1,62.5,516.2z"/>
	<path class="st0" d="M181.3,533.9c0,12.7-13.5,19.3-22.4,19.3c-18.3,0-33.2-10-21.7-23h0.4c1.3,9.5,9.2,22.6,21.2,22.5
		c9.5,0.1,15.1-4.2,15.1-9.8c0-6.6-6.3-8.2-16.7-12.1c-12-4.3-22.6-8.7-22.6-21.3c0-12.1,12.5-18.8,22-18.8
		c19,0,28.9,11.6,19.3,21.9h-0.4c-0.6-9.3-5.8-21.5-17.9-21.3c-11.1-0.1-15.6,5.5-15.6,10.5c0,5.4,6.6,7.7,17.8,12
		C171.1,518,181.3,520.9,181.3,533.9z"/>
	<path class="st0" d="M244.5,491.8V552h-15.8v-21.7c-1.8,14.1-8.4,22.9-20.3,22.9c-12.8,0-17.4-6.6-17.5-18.9l0.1-34.5
		c6-0.9,11.8-4.1,15.7-7.9v48.2c0,7,2.6,10.2,7.3,10.2c6.9,0,14.7-8.6,14.7-28.5v-22.1C234.6,498.8,240.5,495.6,244.5,491.8z"/>
	<path class="st0" d="M256,474.9c0-4.9,4.2-8.8,9.8-8.8c5.8,0,9.8,4,9.8,8.8c0,5-4.1,8.8-9.8,8.8C260.2,483.7,256,479.9,256,474.9z
		 M257.9,498.9c6-0.9,11.9-4.1,15.8-7.9v61h-15.8V498.9z"/>
	<path class="st0" d="M333.5,533.9c0,12.7-13.5,19.3-22.4,19.3c-18.3,0-33.2-10-21.7-23h0.4c1.3,9.5,9.2,22.6,21.2,22.5
		c9.5,0.1,15.1-4.2,15.1-9.8c0-6.6-6.3-8.2-16.7-12.1c-12-4.3-22.6-8.7-22.6-21.3c0-12.1,12.5-18.8,22-18.8
		c19,0,28.9,11.6,19.3,21.9h-0.4c-0.6-9.3-5.8-21.5-17.9-21.3c-11.1-0.1-15.6,5.5-15.6,10.5c0,5.4,6.6,7.7,17.8,12
		C323.3,518,333.5,520.9,333.5,533.9z"/>
</g>
<g>
	<g>
		<path class="st1" d="M57.9,518.8c-4.8,46.3,43.2,75,1.8,113.5c-5.4,0.3-10.7,0.6-16.1,0.9c7.9-9.4,11.7-18.4,13-27.2
			c-4,14.8-22.6,29.1-32.7,29.8C12.7,636.6,1.7,621.6,0,596.4c0.8-25.1,12.5-39.7,28.1-38.5c11.9,1,22.6,13.6,28,29.1
			C53,569.1,44,550.7,42.3,529.4C48.2,528.5,53.4,524.4,57.9,518.8z M57.1,596.9c-2.3-22.6-16.7-35.1-23.7-35.7
			c-6.7-0.5-10.8,11.7-10.5,35.5c0.7,23.8,1.2,36.2,6.7,35.9C35.8,632.2,57.6,617.6,57.1,596.9z"/>
		<path class="st1" d="M70.5,541.4c-1.6-6.5,2.4-11.9,7.9-11.6c5.7,0.4,9.3,6.5,10.9,12.8c1.7,6.6,0,11-5.6,10.7
			C78.3,553,72,548.1,70.5,541.4z M84.2,571.1c6-0.8,10.1-4.3,11.5-8.5c12.7,23.8,29.5,42.9-6.4,68.2c-5.3,0.3-10.7,0.6-16.1,0.9
			C101,609.6,93.9,591.4,84.2,571.1z"/>
		<path class="st1" d="M163.3,590.3c-0.1,0-0.3,0-0.4,0c-4.3-9-19.7-24.1-26.2-24.5c-9.4-0.1,3.2,16.5,5.5,29.8
			c2,10.3-3,20.9-23.4,33.5c-5.3,0.3-10.6,0.6-15.9,0.9c33.6-22,23.6-38.7,11.4-58c5.4-0.9,8.6-4.2,9.5-8.4
			c5.9,9.1,12.8,17.4,16.4,25.7c-5.2-12.7-13.3-25.9-2.6-25.8C150.2,564.2,167.8,580.5,163.3,590.3z"/>
		<path class="st1" d="M227.5,598.6c0.7,11.9-34.1,27.4-49.3,28.3c-8.9,0.5-5.8-3.9-3.3-10.1c2.9-6.2,5.1-14.3,2.2-22.3
			c-6.6-16.1-13.6-30.5,3-30.5c13.1,0.4,32.4,12.7,41.8,23.8h-0.1c0.1,0,0.1,0.1,0.2,0.1c-10.5,0.5-21.3,1-32.5,1.4
			c8.8,13.3,3.8,23.5,15.8,23c7.3-0.4,19.9-6.4,21.5-13.7C227.1,598.6,227.3,598.6,227.5,598.6L227.5,598.6z M189,588.5
			c0.1,0.1,0.2,0.2,0.2,0.4c7.1-0.3,14-0.6,20.8-0.9c-9.4-11.7-23.9-23.2-29.9-23.4C171.9,564.7,180.6,576.5,189,588.5z"/>
		<path class="st1" d="M280.2,595.5c2.1,14-29.2,27.3-42.2,28c-16.7,0.7,3.9-16.8-6.8-31.6c-4.1-7.8-9.7-14.5-10.2-19.7
			c-0.8-5.1,3.5-8.5,11.5-8.5c13.2,0.1,32.8,10.6,33.5,18.9c-0.1,0-0.2,0-0.3,0c-9-7.3-24.3-18.3-32.4-18.4
			c-10.1,0.3-2.2,11.3,7.7,21.9c11.4,12.4,8,23.3,20.1,22.7c6.9-0.4,17.1-5.5,18.4-13.3C279.8,595.4,280,595.4,280.2,595.5
			C280.2,595.4,280.2,595.5,280.2,595.5z"/>
		<path class="st1" d="M293.8,620.3L293.8,620.3c-12,0.8-4.9-6.2-2.3-18.9c1.5-13.3-15-23-24.4-33.9c-2.4,0.6-4.8,1.2-7.1,1.8
			c-0.1-0.1-0.2-0.2-0.3-0.3c6.7-2.1,2.4-14.3,12.7-25.3c0.1,0,0.3,0,0.4,0c1.2,3.9,1.8,8.5,1.4,12.5c-0.4,4.4-3,8.3-10.9,11.7
			c1.1-0.3,2.2-0.6,3.4-0.8c1.8-0.4,3.6-0.8,5.4-1.2c2-0.5,4.1-0.9,6.2-1.4c4.5-1.4,9.3-2.7,14.4-4c1,2.7,2.7,5.2,4.8,7.8
			c-6.4-1.1-12.6-2.2-18.8-3.4c7.7,11,25,20.6,26.4,33.5c0.4,6.7,0.4,9.9,5.1,9.6c5.1-0.3,11.7-6,11.3-12.9c0.2,0,0.3,0,0.5,0
			C325.1,605.2,307.6,619.3,293.8,620.3z"/>
		<path class="st1" d="M373.5,591.4c5,10.6-11.5,24.8-26.9,25.8c-16.6,0.9-9.9-16.7-23-30.1c-5.5-7-10.2-12.9-9.5-17.3
			c0.4-4.4,6.3-7.2,14.4-7.2c15,0.1,27.7,9.4,37.1,19.2h-0.1c0.1,0,0.1,0.1,0.2,0.1c-11.1,0.2-21.8,0.5-32.3,0.8
			c11.4,11.2,15.3,21.2,26.7,20.9c7-0.3,14.2-5.7,12.8-12.1C373,591.4,373.2,591.4,373.5,591.4L373.5,591.4z M332.8,582
			c0.1,0.1,0.2,0.2,0.3,0.3c6.7-0.2,13.5-0.4,20.4-0.6c-10.1-10.1-18-18.6-25-18.7C319.2,563.2,322.1,571.9,332.8,582z"/>
		<path class="st1" d="M420,564.1c1.7,13.9,17.4,27.6,14.6,47.1c-5.2,0.3-10.5,0.6-15.7,0.8c1.7-7.5,0.3-14-2.3-19.9
			c3.9,11.5-6.1,21.6-18.3,22.3c-13.4,0.9-11.9-7.1-15.5-18.3c-3.3-10.4-13.1-18.7-18.4-26.9c5.5-0.7,10.1-2.9,13.5-5.6
			c3.1,11.4,18.6,22.3,20.6,37.5c0.7,6.7,1.5,10.2,6.3,9.9c6.7-0.2,17.7-10.4,8.2-25.7c-3.3-5.7-7.1-10.9-9.4-16
			C409.9,568.7,415.7,566.6,420,564.1z"/>
		<path class="st1" d="M482.8,583.6c-0.2,0-0.3,0-0.5,0c-0.5-6.7-3.5-17.1-13.5-17.5c-12.3-0.4-14,10.3-11.1,19.9
			c2.2,7.4,4.2,15.2,3.9,23.8c-5.2,0.3-10.4,0.5-15.6,0.8c1.5-16.3-8.3-28.9-11.5-41.2c6.9-0.5,13.5-2.5,18.4-5
			c0.2,5.7,1.7,11.3,3.5,17.2c-1.9-9,1.5-17.3,16-16.8C492.3,565.4,494.3,577,482.8,583.6z"/>
	</g>
</g>
<g>
	<g>
		<path class="st1" d="M86.5,680.3c0,0.1-0.1,0.1-0.1,0.2c-19.8,2.2-29.8,0.7-29.3-8.1c-2.4,5.1-9.5,9.6-24.2,10
			C14.4,683,0.6,679.3,0,671c0.5-7.6,17-11.9,36.1-13.1c7.2-0.4,14.1-0.8,20.6-1.2c-0.5-2.5-1.1-5-1.8-7.6
			c-2-6.7-7.8-10.5-17.3-10.4c-16.2,0.1-21.9,9.6-23.7,16.3c-0.2,0-0.4,0-0.7,0c-16.4-7.1,0.1-16.4,24.5-16.7
			c23-0.3,35.4,4.9,38.5,13.3c2,6.4,3.2,12.3,2.1,18.4C76.8,676.8,75.6,680.1,86.5,680.3z M57.2,669.3c0.4-4.1,0.1-8.1-0.6-12.2
			c-3.3,0.2-6.8,0.5-10.3,0.7c-12.7,0.9-18.7,5.9-19,12.6c-0.2,5.2,2.5,11,11.3,10.7C47.8,680.8,56.3,676.4,57.2,669.3z"/>
		<path class="st1" d="M137,656.9c-0.1,0-0.3,0-0.4,0c-1.9-6-8.4-17.3-16.1-17.4c-9.8,0.2-7.1,12.2-5.8,20.5
			c1.3,6.6,0.5,12.9-4.9,20.3c-5.6,0-11.3,0.1-17.3,0.1c8.7-12.7,4.6-22.9-0.5-36c6.6-0.7,12-3.1,15.1-6.2c2.3,6.5,5,12.3,6.7,17.7
			c-1.8-8.3-2.4-18,9.1-18.2C137.5,637.8,144.1,650.5,137,656.9z"/>
		<path class="st1" d="M164.7,681.5L164.7,681.5c-9.8-0.1-10.7-4.2-8.9-12.5c1.5-8.8-3.2-17-6.6-27.5c-2.9,0.5-5.9,1-8.9,1.5
			c0-0.1-0.1-0.2-0.1-0.3c9.1-1.7,12.8-13.8,12.3-25.5c0.1,0,0.3,0,0.4,0c4.7,3.8,7.5,8.6,7.2,12.8c-0.3,4.6-4.5,8.6-15.2,11.7
			c1.4-0.2,2.8-0.5,4.2-0.7c2.2-0.4,4.3-0.7,6.4-1.1c2.3-0.4,4.7-0.9,7-1.3c5.1-1.3,10.3-2.7,15.4-4.2c0.4,2.9,1,5.6,1.6,8.1
			c-5.4-1.2-11-2.4-16.7-3.6c2.7,11.1,7.8,19.6,7.2,28.5c-0.4,4.6,1,6.7,5.2,6.7c4.7,0.1,9.7-3.4,11.5-8.3c0.2,0,0.3,0,0.5,0
			C185.7,673.3,176.1,681.5,164.7,681.5z"/>
		<path class="st1" d="M186.6,622c-0.2-5.2,3.1-10.5,8.1-10.7c5.3-0.3,9.3,5,9.1,10.3c-0.2,5.5-3.6,9-8.4,9.1
			C190.6,630.7,186.8,627.4,186.6,622z M190.5,643.7c4.8-0.7,9-3.3,11.9-6.6c1.2,17.5,11.5,28.2,1.1,44.5c-4.2-0.1-8.5-0.3-12.8-0.4
			C200.3,667.3,193.6,657.6,190.5,643.7z"/>
		<path class="st1" d="M252.3,669c0.2,9.3-13.3,15-20.2,14.7c-14.3-0.8-20.1-9.2-12.1-17.8c0.1,0,0.2,0,0.3,0
			c2.1,6.3,3,16.8,12,17.4c7.3,0.4,13.3-3.2,14-7.6c0.8-5.1-3.9-6.3-11.5-9.2c-8.9-3.2-17.2-6-19.5-15c-2.3-8.7,7.7-14.9,15.2-15
			c15-0.2,21.5,9.8,16,17.2c-0.1,0-0.2,0-0.4,0c-1.9-6.6-5.5-16.9-14.9-16.7c-8.8,0.1-12.2,5-11.5,8.8c0.7,4.1,6.2,5.7,15.1,8.8
			C243.5,657.5,251.9,659.5,252.3,669z"/>
		<path class="st1" d="M272.7,685.5C272.7,685.5,272.6,685.5,272.7,685.5c-8.5-0.4-10.7-5.5-10.4-15c0-10.1-3.2-19-2.1-30.4
			c-2.6,0.6-5.2,1.2-7.7,1.7c0-0.1,0-0.2,0-0.3c7.4-2,16-14.7,20.4-29.3c0.1,0,0.2,0,0.3,0c2.6,4.7,2.9,10.4,0.8,15.1
			c-2.2,5.2-7.7,9.7-17.4,13.1c1.2-0.3,2.4-0.6,3.7-0.8c1.9-0.4,3.8-0.8,5.7-1.2c2.1-0.5,4.3-1,6.5-1.5c5-1.5,10.1-3.1,15.4-4.9
			c-0.9,3.2-1.6,6.2-2,9.1c-4.5-1.3-8.9-2.6-13.4-3.9c-2.2,12.2,0.4,21.5,0.9,31.8c0.2,5.2,2,7.8,5.6,7.9c4.1,0.2,7.2-3.8,8.4-9.5
			c0.1,0,0.3,0,0.4,0C287,676,282.6,685.7,272.7,685.5z"/>
		<path class="st1" d="M301.5,617.4c2.2-6.3,8.2-12.9,13.3-13.3c5.3-0.4,6.1,6,3.5,12.3c-2.8,6.6-7.7,10.8-12.4,11
			C301.4,627.6,299.2,623.8,301.5,617.4z M295.6,642.3c4.8-0.9,10-3.7,14.4-7.6c-6.1,19.8-2,32.2-1.6,51.6
			c-4.2-0.2-8.4-0.5-12.5-0.7C297,669.1,293.2,657.8,295.6,642.3z"/>
		<path class="st1" d="M367.7,641.2c-5.3,12.9-5.3,23.8-3.6,35.3c2.6,11.8,6.9,24.3,28.4,45.9c-5.9-0.2-11.8-0.4-17.6-0.7
			c-12.7-13.5-17-22.7-20.2-30.8c-2.9-8-4.6-15-5-21.6c-0.7,10.1-2.1,20.2-11.5,19.8c-11.8-0.9-21.7-13-22.3-27.9
			c-0.7-14.9,12-27.2,24.5-27.8c9.4-0.3,10.3,9.8,10,20.6c1-6.3,3-12.8,6.1-20.5C358.4,637.3,362.4,640.3,367.7,641.2z M349.4,665.2
			c0-2.3,0.1-4.7,0.3-7.1c0.9-14.1-0.7-22.9-6.7-22.6c-4.9,0.2-14.6,10.6-14.6,25.8c0.1,15.2,7.7,25.2,12.5,25.5
			C346.8,687.2,348.9,678.1,349.4,665.2z"/>
		<path class="st1" d="M438.4,631.7c-9.6,23.9-14.2,40.1-1.6,61.3c-6.2-0.3-12.3-0.6-18.1-0.8c-4.4-7.6-6.7-14.4-7.4-21.2
			c-0.6,13-1,22-13.7,21.4c-13.2-0.7-21.8-8-23.7-18.9c-1.6-10.3,0.2-19.9,4.5-31.5c6.1-1,13.1-4.4,18.9-8.8
			c-7.7,18.3-11.5,31.2-7.1,46.3c2,6.6,6.7,10.1,11.6,10.3c8,0.3,8.5-8.2,9.5-26.6c0.6-6.9,2.8-14,5.8-21.9
			C424,640,432,636.3,438.4,631.7z"/>
		<path class="st1" d="M520.2,670.3c-5.5,14.4-18.6,26.6-36.7,25.8c-22.1-1.2-44.1-16.7-42.5-32.7c1.7-16.1,22.9-33.8,44.8-34.7
			c20.7-0.5,31.6,14,32.2,28.3c-0.1,0-0.1,0-0.2,0c0.1,0,0.1,0.1,0.2,0.1c-21.4,0.7-39.8,1-56.4,1.2c-1.5,14.5,11.6,24.4,30.1,25.2
			c11.4,0.3,23.1-4.9,27.4-13.3C519.4,670.3,519.8,670.3,520.2,670.3L520.2,670.3z M461.6,657.6c0,0.1,0,0.3-0.1,0.4
			c10.5-0.1,21.8-0.3,34.1-0.6c0.7-14.3-0.3-28.2-10.6-27.9C473.9,629.9,463.8,644.3,461.6,657.6z"/>
	</g>
</g>
<g>
	<path class="st0" d="M25.3,690.6v11.6h0.4l21.6-0.9v9.8l-21.6-8.6h-0.4v59.3H9.5v-59.3H0v-0.4h9.5v-6.9c0-17.6,8.3-24,23.5-24
		c15.8,0,24,13.3,14.4,22.9H47c-1.3-9.1-4.3-22.5-13.8-22.5C24.8,671.7,25.3,683,25.3,690.6z"/>
	<path class="st0" d="M97.3,727.1h-0.4c0-9.5-1.9-24.3-9.6-24.3c-9.2-0.1-11.9,15.7-12.4,28.9V762H59.2v-53c6-0.9,11.8-4.1,15.7-7.9
		v24.5c1-12.7,4.2-24.9,15.2-24.9C104.8,700.6,106.9,717,97.3,727.1z"/>
	<path class="st0" d="M162.7,738.8c-2.6,12.7-12,24.3-26.2,24.3c-16.9,0-26.8-14.4-26.8-31.2c0-16.9,11-31.3,28.2-31.3
		c16.2,0,23.4,13.4,23.5,26.3h-0.1l0.1,0.1H125c0.3,14.4,7.2,24,19.7,24.2c7.7,0,15-4.9,17.3-12.4L162.7,738.8L162.7,738.8z
		 M125,726.2v0.4h23.1c-0.1-13.3-2.7-25.4-10.6-25.4C128.9,701.2,125,713.1,125,726.2z"/>
	<path class="st0" d="M222,738.8c-2.6,12.7-12,24.3-26.2,24.3c-16.9,0-26.8-14.4-26.8-31.2c0-16.9,11-31.3,28.2-31.3
		c16.2,0,23.4,13.4,23.5,26.3h-0.1l0.1,0.1h-36.4c0.3,14.4,7.2,24,19.7,24.2c7.7,0,15-4.9,17.3-12.4L222,738.8L222,738.8z
		 M184.3,726.2v0.4h23.1c-0.1-13.3-2.7-25.4-10.6-25.4C188.2,701.2,184.3,713.1,184.3,726.2z"/>
	<path class="st0" d="M230.2,677.6c6-1,11.8-4.2,15.7-8.1v92.4h-15.7V677.6z"/>
	<path class="st0" d="M317.7,761.8v0.3c-15.6,2.7-24.7,0.4-25.8-12.5c-0.9,7.4-4.7,13.5-15.1,13.5c-13,0-21.1-6-21.3-17.5
		c0.3-10.5,9.3-16.1,22-17.6l14.3-1.5v-10.9c0-9.5-3.6-14.4-10.6-14.4c-11.9-0.1-16.2,12.9-17.5,22.4h-0.4
		c-9.6-10.1-0.1-22.9,18.1-22.9c17.1,0,26.2,6.4,26.2,18.5v27.5C307.5,756.8,308.4,761.3,317.7,761.8z M291.8,745.1V727
		c-2.4,0.3-4.9,0.6-7.3,0.9c-8.8,1.2-12.7,8.3-12.7,17.8c0,7.5,2.6,15.8,8.8,15.8C287.2,761.4,291.8,755.6,291.8,745.1z"/>
	<path class="st0" d="M376.7,722.8v39.1h-15.8v-41.7c0-11.4-2.3-17-8.2-17c-6.8,0-12.9,7.2-13.8,23.8v34.9h-15.7v-53
		c6-0.9,11.8-4.1,15.7-7.9v20.2c1.8-12.8,7.4-20.7,20.4-20.7C370.7,700.5,376.5,708.3,376.7,722.8z"/>
	<path class="st0" d="M440.2,738.8c-3.1,15.2-13.5,24.3-26.7,24.3c-17.3,0-27.4-14.2-27.4-31.2c0-17.3,11.1-31.3,30.2-31.3
		c16.2,0,27.1,13,17.5,22.9h-0.4c-1.3-9.1-6.3-22.4-16.6-22.4c-10.7,0.1-15.3,12.5-15.3,25c0,14.6,6.5,24.9,19.7,25
		c7.8,0,14.4-4.1,18.3-12.4h0.7L440.2,738.8L440.2,738.8z"/>
	<path class="st0" d="M499.5,738.8c-2.6,12.7-12,24.3-26.2,24.3c-16.9,0-26.8-14.4-26.8-31.2c0-16.9,11-31.3,28.2-31.3
		c16.2,0,23.4,13.4,23.5,26.3h-0.1l0.1,0.1h-36.4c0.3,14.4,7.2,24,19.7,24.2c7.7,0,15-4.9,17.3-12.4L499.5,738.8L499.5,738.8z
		 M461.8,726.2v0.4h23.1c-0.1-13.3-2.7-25.4-10.6-25.4C465.6,701.2,461.8,713.1,461.8,726.2z"/>
</g>
<g>
	<path class="st0" d="M62.2,831.8v0.3c-15.6,2.7-24.7,0.4-25.8-12.5c-0.9,7.4-4.8,13.5-15.1,13.5c-13,0-21.1-6-21.3-17.5
		c0.3-10.5,9.3-16.1,22-17.6l14.3-1.5v-10.9c0-9.5-3.6-14.4-10.6-14.4c-11.9-0.1-16.2,12.9-17.5,22.4H7.8
		c-9.6-10.1-0.1-22.9,18.1-22.9c17.1,0,26.2,6.4,26.2,18.5v27.5C52,826.8,52.9,831.3,62.2,831.8z M35.5,765.5
		c-9.3-4.5-16.2-10-22.8-16.5h15.6c1.2,5.4,3.6,10.9,8.2,16.5H35.5z M36.2,815.1V797c-2.4,0.3-4.9,0.6-7.3,0.9
		c-8.8,1.2-12.7,8.3-12.7,17.8c0,7.5,2.6,15.8,8.8,15.8C31.6,831.4,36.2,825.6,36.2,815.1z"/>
	<path class="st0" d="M152.2,801.8c-0.1,19.2-10.6,31.3-23.9,31.3c-10.9,0-16.7-11-18.4-23.5v47.9H94.2v-78.6
		c6-0.9,11.8-4.1,15.7-7.9v22.5c1.7-13.2,7.5-23,18.4-23C142.4,770.5,152,782.6,152.2,801.8z M135.8,801.8c0-19-5.9-29-11.5-29
		c-7.2,0-14.3,9.6-14.3,29c0,17.8,7.3,29,14.3,29C130,830.8,135.8,820.8,135.8,801.8z"/>
	<path class="st0" d="M222.1,831.8v0.3c-15.6,2.7-24.7,0.4-25.8-12.5c-0.9,7.4-4.7,13.5-15.1,13.5c-13,0-21.1-6-21.3-17.5
		c0.3-10.5,9.3-16.1,22-17.6l14.3-1.5v-10.9c0-9.5-3.6-14.4-10.6-14.4c-11.9-0.1-16.2,12.9-17.5,22.4h-0.5
		c-9.6-10.1-0.1-22.9,18.1-22.9c17.1,0,26.2,6.4,26.2,18.5v27.5C211.8,826.8,212.7,831.3,222.1,831.8z M196.1,815.1V797
		c-2.4,0.3-4.9,0.6-7.3,0.9c-8.8,1.2-12.7,8.3-12.7,17.8c0,7.5,2.6,15.8,8.8,15.8C191.5,831.4,196.1,825.6,196.1,815.1z"/>
	<path class="st0" d="M265.5,797.1h-0.4c0-9.5-1.9-24.3-9.6-24.3c-9.2-0.1-11.9,15.7-12.4,28.9V832h-15.7v-53
		c6-0.9,11.8-4.1,15.7-7.9v24.5c1-12.7,4.2-24.9,15.2-24.9C273.1,770.6,275.1,787,265.5,797.1z"/>
	<path class="st0" d="M279.8,754.9c0-4.9,4.2-8.8,9.8-8.8c5.8,0,9.8,4,9.8,8.8c0,5-4.1,8.8-9.8,8.8
		C284,763.7,279.8,759.9,279.8,754.9z M281.7,778.9c6-0.9,11.9-4.1,15.8-7.9v61h-15.8V778.9z"/>
	<path class="st0" d="M357.4,813.9c0,12.7-13.5,19.3-22.4,19.3c-18.3,0-33.2-10-21.7-23h0.4c1.3,9.5,9.2,22.6,21.2,22.5
		c9.5,0.1,15.1-4.2,15.1-9.8c0-6.6-6.3-8.2-16.7-12.1c-12-4.3-22.6-8.7-22.6-21.3c0-12.1,12.5-18.8,22-18.8
		c19,0,28.9,11.6,19.3,21.9h-0.4c-0.6-9.3-5.8-21.5-17.9-21.3c-11.1-0.1-15.6,5.5-15.6,10.5c0,5.4,6.6,7.7,17.8,12
		C347.2,798,357.4,800.9,357.4,813.9z"/>
</g>
<g>
	<path class="st2" d="M49.4,842.4l-23.7,59.3L0,842.4h15.9L32.5,883l16.3-40.6H49.4z"/>
	<path class="st2" d="M50.3,871.2c0-18.2,14.1-30.4,28.9-30.4s28.9,12.2,28.9,30.4c0,18.1-14.1,30.3-28.9,30.3
		S50.3,889.4,50.3,871.2z M91.4,871.2c0-20.4-3.2-29.9-12.2-29.9c-8.9,0-12.2,9.6-12.2,29.9c0,20.2,3.2,29.8,12.2,29.8
		S91.4,891.5,91.4,871.2z"/>
	<path class="st2" d="M117.4,825.6c0-4.7,4.1-8.6,9.6-8.6c5.6,0,9.6,3.8,9.6,8.6s-4,8.6-9.6,8.6
		C121.5,834.1,117.4,830.4,117.4,825.6z M119.3,848.9c5.8-0.9,11.5-4,15.4-7.7v59.2h-15.4C119.3,900.4,119.3,848.9,119.3,848.9z"/>
	<path class="st2" d="M198.4,877.9c-3,14.8-13.2,23.6-25.9,23.6c-16.8,0-26.6-13.8-26.6-30.3c0-16.8,10.8-30.4,29.3-30.4
		c15.8,0,26.3,12.7,17,22.2h-0.4c-1.2-8.8-6.1-21.7-16.1-21.7c-10.4,0.1-14.9,12.2-14.9,24.3c0,14.1,6.3,24.2,19.1,24.3
		c7.6,0,14-4,17.7-12L198.4,877.9L198.4,877.9z"/>
	<path class="st2" d="M206.3,825.6c0-4.7,4.1-8.6,9.6-8.6c5.6,0,9.6,3.8,9.6,8.6s-4,8.6-9.6,8.6
		C210.4,834.1,206.3,830.4,206.3,825.6z M208.2,848.9c5.8-0.9,11.5-4,15.4-7.7v59.2h-15.4V848.9z"/>
	<path class="st2" d="M345.9,862.2v38.2h-15.8v-46.3c0-7-1.7-10.5-6.6-10.5c-6.7,0-11.8,8.6-11.8,27.6v29.3h-15.9v-46.3
		c0-7-1.7-10.5-6.6-10.5c-6.1,0-10.8,7.1-11.7,22.6v34.3h-15.1v-51.5c5.8-0.9,11.4-4,15.3-7.7v18.7c1.6-11.9,6.5-19.2,18.2-19.2
		c11.4,0,15.5,7.1,15.9,20.5c1.4-12.7,6.2-20.5,18.4-20.5C341.7,840.7,345.8,848.2,345.9,862.2z"/>
	<path class="st2" d="M355.1,871.2c0-18.2,14.1-30.4,28.9-30.4s28.9,12.2,28.9,30.4c0,18.1-14.1,30.3-28.9,30.3
		C369.3,901.5,355.1,889.4,355.1,871.2z M396.2,871.2c0-20.4-3.2-29.9-12.2-29.9c-8.9,0-12.2,9.6-12.2,29.9
		c0,20.2,3.2,29.8,12.2,29.8S396.2,891.5,396.2,871.2z"/>
	<path class="st2" d="M474.3,862.4v38h-15.4v-40.5c0-11-2.2-16.5-7.9-16.5c-6.6,0-12.5,7-13.4,23.1v33.9h-15.3v-51.5
		c5.8-0.9,11.4-4,15.3-7.7v19.6c1.7-12.4,7.2-20.1,19.9-20.1C468.4,840.7,474.1,848.3,474.3,862.4z"/>
</g>
<g>
	<g>
		<path d="M70.3,944.4c5.3,18.2-11.1,30.2-27,30.4c-12.9,0.1-19.5-11.2-22.5-24.2c0.8,16.5-0.2,32.9-5.6,49.9
			c-5.1,0.1-10.2,0.3-15.3,0.4c0-28,0-56,0-83.9c7-0.3,13.3-3.1,17.2-6.8c0.8,8,1.7,15.9,2.5,23.7c0.8-13.6,5.7-23.5,16.7-22.7
			C50.2,912.3,64.2,926.1,70.3,944.4z M51.8,943.9c-4.4-18.8-13.5-30.1-19.1-30.6c-7.4-0.6-13.6,9-12.2,29.2
			c1.5,18.5,9.8,30.1,18.3,30C45.6,972.5,55.6,962.6,51.8,943.9z"/>
		<path d="M78.6,944.7c-5.7-17.8,2.6-30.5,16.7-30c13.3,0.6,32.3,13.9,42.6,30c10.1,16-9.2,28.3-25.4,28.9
			C96.8,974,84.5,962.5,78.6,944.7z M121.7,944.9c-10.4-18.7-18.2-29.5-26.2-29.7c-8.7-0.4-7.1,10.4,1.2,29.7
			c7.4,19.1,5.7,28.4,15.9,28.2C121.9,972.7,131,963.3,121.7,944.9z"/>
		<path d="M177,939.2c-0.1,0-0.2,0-0.3,0c-6.3-7.7-15.8-21.4-21.7-21.6c-8.5,0.1-1.8,15.2,5.5,26.1c5.5,8.6,9.4,17.1,7.2,26.5
			c-5,0.2-10,0.4-15.1,0.7c4.3-16.6-9.6-30.4-18.7-47.4c4.7-0.9,7.9-3.9,9.8-7.8c3.2,8.2,8.4,15.6,13.2,22.6
			c-7.1-10.8-10.2-23-0.5-23.1C168.2,915.8,178,930.7,177,939.2z"/>
		<path d="M219.3,968.9C219.3,969,219.2,969,219.3,968.9c-9.9,0.5-12.6-4.1-17.2-14.9c-5.3-11.3-16.5-21.7-22.4-34
			c-2.5,0.7-4.9,1.3-7.4,2c-0.1-0.1-0.1-0.3-0.2-0.4c7.3-2.2,7.2-16.3,13.8-28.7c0.1,0,0.3,0,0.4,0c2.2,4.3,3,9.4,2.3,14.1
			c-0.8,5-4.1,9.6-12.6,13.5c1.2-0.3,2.3-0.6,3.5-0.9c1.8-0.4,3.7-0.9,5.6-1.3c2-0.5,4.1-1.1,6.1-1.6c4.5-1.6,9.3-3.2,14.2-4.8
			c0.5,3.1,1.5,6.1,2.9,9c-5.7-1.2-11.3-2.5-16.9-3.9c4.7,12.6,16.4,23,22.7,34.4c3.2,5.8,6.1,8.4,10.3,8.1
			c4.8-0.3,6.9-4.8,4.7-11.1c0.2,0,0.3,0,0.5,0C234.2,957.7,230.8,968.2,219.3,968.9z"/>
		<path d="M229.4,904.7c-0.8,3.8-0.6,7.4,0.2,10.9c0.1,0,0.2,0,0.4,0c6.1-0.5,12.3-0.9,18.6-1.4c0.4,2.9,1.4,5.6,2.7,8.4
			c-7.3-2.1-14.4-4.3-21.2-6.6c-0.1,0-0.2,0-0.4,0c4.6,17.5,26.5,30.9,27.8,50.1c-4.5,0.2-9,0.4-13.5,0.6
			c-0.4-19-22.4-32.5-27.8-50.3c-2.7,0.1-5.3,0.2-8,0.2c0-0.1-0.1-0.3-0.1-0.4c2.7-0.1,5.3-0.1,8-0.2c-0.6-2.1-1-4.2-1-6.4
			c0.2-17.3,21.3-26.7,34.8-25.9c14.5,0.8,6.9,15.6-1.4,24.2c-0.1,0-0.2,0-0.4,0c-1.7-8,9.5-23.2,1.4-23.7
			C240.7,884.1,229.7,897.5,229.4,904.7z"/>
		<path d="M263.1,939.1c-13-14.7-1.9-25.9,12.8-26.2c14-0.1,27.5,9.7,37.9,24.5c10.6,14.8,1.9,27.7-11.6,28.1
			C289.3,965.7,275.7,953.8,263.1,939.1z M298.6,937.8c-12.3-16.5-14-24.5-22.7-24.5c-8.4,0.3-12,8.8,1.4,25.2
			c13.4,16.5,16.8,26.8,24.8,26.5C310.1,964.9,311.2,954.4,298.6,937.8z"/>
		<path d="M324.5,891.7c6.9-1,15.8-4,24.8-7.7c-40.6,31.3-8.1,49.6,0.4,79.8c-4.7,0-9.3,0-13.9,0
			C328.3,936.1,297.2,919.1,324.5,891.7z"/>
		<path d="M346.5,898.6c2.9-4.3,11.1-8.1,16.8-8c5.8,0.1,6.7,3.8,4.2,8.1c-2.6,4.3-8,7.6-14.3,7.6
			C347.2,906.2,343.6,903,346.5,898.6z M343.5,918.7c6.2-0.8,12.2-3.3,17-6.4c-1.9,16.7,10.5,32.1,15.8,51.8
			c-4.9-0.1-9.7-0.2-14.5-0.2C356.9,946.6,345.3,932.9,343.5,918.7z"/>
		<path d="M377.9,937.6c-6.4-15.4,12-25.4,30.8-25.2c18.3,0.3,38.1,11.9,38.1,28.4c-0.7,16.2-15.9,26.1-30.5,25.5
			C401.5,965.8,384.4,953.2,377.9,937.6z M425.4,939.6c-2-18-5.4-26.4-16.9-26.7c-11-0.1-17,7.9-12.1,25.3
			c5.3,17.6,10.7,27.4,19.7,27.7C425.2,966.4,427.5,957.6,425.4,939.6z"/>
	</g>
</g>
</svg>
