<?xml version="1.0" encoding="utf-8"?>
<!-- Generator: Adobe Illustrator 24.0.1, SVG Export Plug-In . SVG Version: 6.00 Build 0)  -->
<svg version="1.1" id="Calque_1" xmlns="http://www.w3.org/2000/svg" xmlns:xlink="http://www.w3.org/1999/xlink" x="0px" y="0px"
	 viewBox="0 0 578 781.4" style="enable-background:new 0 0 578 781.4;" xml:space="preserve">
<style type="text/css">
	.st0{fill:none;stroke:#000000;}
	.st1{fill:none;stroke:#1D1D1B;stroke-miterlimit:10;}
	.st2{fill:#1D1D1B;}
</style>
<g>
	<g>
		<path d="M728.3,87.3V127h-16.1V84.8c0-11.5-2.3-17.3-8.3-17.3c-6.9,0-13.1,7.3-14,24.2v35.5h-16V41.4c6.1-1,11.9-4.3,16-8.2v52.4
			c1.8-13,7.5-21.1,20.8-21.1C722.3,64.6,728.2,72.5,728.3,87.3z"/>
		<path d="M791.8,103.6c-2.6,12.9-12.2,24.6-26.6,24.6c-17.1,0-27.3-14.6-27.3-31.7s11.2-31.8,28.7-31.8c16.5,0,23.8,13.6,23.9,26.7
			h-0.2l0.2,0.2h-37c0.2,14.6,7.3,24.4,20,24.6c7.8,0,15.2-5,17.5-12.6L791.8,103.6L791.8,103.6z M753.5,90.7v0.4H777
			c-0.2-13.5-2.7-25.9-10.8-25.9C757.4,65.4,753.5,77.5,753.5,90.7z"/>
		<path d="M800.1,41.4c6.1-1,11.9-4.3,16-8.2v93.9h-16V41.4z"/>
		<path d="M827.8,41.4c6.1-1,11.9-4.3,16-8.2v93.9h-16V41.4z"/>
		<path d="M853.5,96.6c0-19.1,14.8-31.8,30.3-31.8c15.4,0,30.3,12.7,30.3,31.8c0,19-14.8,31.7-30.3,31.7
			C868.4,128.2,853.5,115.5,853.5,96.6z M896.5,96.6c0-21.3-3.4-31.3-12.7-31.3c-9.4,0-12.7,10-12.7,31.3c0,21.1,3.4,31.1,12.7,31.1
			C893.1,127.8,896.5,117.8,896.5,96.6z"/>
	</g>
	<path class="st0" d="M691.2,198.2H691c-10.8,0-16.9-5-16.9-17.8v-40.7l-10.1,1.9v-0.4c10.8-2.3,18.2-17.5,18.7-27.8h0.4
		c4.4,3.5,6.9,8.3,5.8,12.9c-1,5-6.9,9.8-19.6,13.8l4.8-0.9l7.4-1.3l8.2-1.5l18.6-4.8v10l-18.4-4.8V178c0,7,3.1,10,8.1,10
		c5.7,0,9.6-5,11.9-12.6h0.6C708.1,187,704,198,691.2,198.2z"/>
	<path class="st0" d="M773.9,157.3V197h-16.1v-42.3c0-11.5-2.3-17.3-8.3-17.3c-6.9,0-13.1,7.3-14,24.2v35.5h-16v-85.8
		c6.1-1,11.9-4.3,16-8.2v52.4c1.8-13,7.5-21.1,20.8-21.1C767.8,134.5,773.8,142.4,773.9,157.3z"/>
	<path class="st0" d="M837.4,173.5c-2.6,12.9-12.2,24.6-26.6,24.6c-17.1,0-27.3-14.6-27.3-31.7s11.2-31.8,28.7-31.8
		c16.5,0,23.8,13.6,23.9,26.7l0,0l0.2,0.2h-37c0.2,14.6,7.3,24.4,20,24.6c7.8,0,15.2-5,17.5-12.6H837.4L837.4,173.5z M799.1,160.6
		v0.4h23.5c-0.2-13.5-2.7-25.9-10.8-25.9C803,135.3,799.1,147.4,799.1,160.6z"/>
	<path class="st0" d="M884.5,161.6h-0.4c0-9.6-1.9-24.7-9.8-24.7c-9.4-0.2-12.1,16-12.6,29.4V197h-16v-54c6.1-0.9,11.9-4.2,16-8.1
		v24.9c1-12.9,4.3-25.3,15.4-25.3C892.1,134.7,894.1,151.2,884.5,161.6z"/>
	<path class="st0" d="M947.7,173.5c-2.6,12.9-12.2,24.6-26.6,24.6c-17.1,0-27.3-14.6-27.3-31.7s11.2-31.8,28.7-31.8
		c16.5,0,23.8,13.6,23.9,26.7h-0.2l0.2,0.2h-37c0.2,14.6,7.3,24.4,20,24.6c7.8,0,15.2-5,17.5-12.6H947.7L947.7,173.5z M909.4,160.6
		v0.4h23.5c-0.2-13.5-2.7-25.9-10.8-25.9C913.3,135.3,909.4,147.4,909.4,160.6z"/>
	<g>
		<path d="M1094.8,257.4c0-3.3,2.6-5.9,5.9-5.9s5.8,2.7,5.8,5.9c0,3.3-2.6,5.9-5.8,5.9C1097.3,263.4,1094.8,260.8,1094.8,257.4z"/>
	</g>
	<g>
		<path d="M718.2,245.2c0,11.9-12.8,18.2-21.1,18.2c-17.3,0-31.4-9.4-20.5-21.7h0.4c1.2,8.9,8.7,21.4,20,21.2
			c8.9,0.1,14.2-4,14.2-9.3c0-6.3-5.9-7.7-15.8-11.5C684.1,238,674,233.9,674,222c0-11.5,11.8-17.7,20.7-17.7
			c18,0,27.3,11,18.2,20.6h-0.4c-0.6-8.8-5.4-20.3-16.9-20.1c-10.5-0.1-14.7,5.2-14.7,9.9c0,5.1,6.3,7.2,16.8,11.3
			C708.5,230.1,718.2,232.9,718.2,245.2z"/>
		<path d="M744.7,263.3L744.7,263.3c-10.1,0-15.8-4.6-15.8-16.5V209l-9.4,1.8v-0.4c10-2.2,16.9-16.3,17.4-25.8h0.4
			c4.1,3.3,6.4,7.7,5.4,11.9c-1,4.6-6.4,9.2-18.2,12.8l4.5-0.8l6.9-1.2l7.6-1.4l17.3-4.5v9.3l-17.1-4.5v38.4c0,6.5,2.9,9.3,7.5,9.3
			c5.3,0,8.9-4.6,11.1-11.7h0.6C760.4,252.9,756.6,263.2,744.7,263.3z"/>
		<path d="M805.8,229.3h-0.4c0-8.9-1.8-22.9-9-22.9c-8.7-0.1-11.2,14.8-11.7,27.3v28.6h-14.8v-50.1c5.7-0.8,11.1-3.9,14.8-7.5v23.2
			c1-11.9,4-23.5,14.4-23.5C812.9,204.3,814.9,219.8,805.8,229.3z"/>
		<path d="M872.7,262.1v0.2c-14.7,2.5-23.3,0.4-24.4-11.8c-0.8,7-4.5,12.8-14.2,12.8c-12.3,0-19.9-5.7-20.1-16.5
			c0.2-9.9,8.8-15.2,20.8-16.7l13.5-1.4v-10.3c0-8.9-3.4-13.6-10-13.6c-11.2-0.1-15.3,12.2-16.5,21.1h-0.4
			c-9-9.5-0.1-21.6,17.1-21.6c16.2,0,24.7,6,24.7,17.5v25.9C863,257.4,863.9,261.6,872.7,262.1z M848.2,246.3v-17.1
			c-2.3,0.2-4.6,0.6-6.9,0.8c-8.3,1.1-11.9,7.8-11.9,16.8c0,7.1,2.4,15,8.3,15C843.8,261.7,848.2,256.2,848.2,246.3z"/>
		<path d="M928.3,225.3v36.9h-15v-39.3c0-10.7-2.2-16-7.7-16c-6.4,0-12.2,6.8-13,22.4v32.9h-14.8v-50.1c5.7-0.8,11.1-3.9,14.8-7.5
			v19.1c1.7-12.1,7-19.5,19.3-19.5C922.7,204.2,928.2,211.6,928.3,225.3z"/>
		<path d="M991.1,268.6c0,13.3-16.5,17.7-25.5,17.7c-7.7,0-25.5-2.1-25.5-12.4c0-8.3,11-10.3,21.4-10.9l0.2,0.2
			c-5.7,0.8-8,5.2-8,10.6c0,5.6,5.1,12.1,11.8,12.1c8.2,0,12.8-5.2,12.8-11.9c0-7.8-4.6-11.6-13.6-12.7
			c-16.5-1.9-28.6-2.9-28.6-13.3c0-6.6,5.3-9.8,13.3-10.9c-4.7-2.8-8.3-7.2-8.3-13.8c0-13.5,14.8-19.2,24-19.2h0.1l0.4-0.2
			c9.2,0,17.1-12.4,18.2-21.3h0.4c8.7,11.8-2.7,21-17.1,21.7c9.2,0.6,22.1,6.4,22.1,19.1c0,13.4-14.8,17.7-24,17.7
			c-4.6,0-10.5-1.1-15.3-3.7c-3.9,1-6.9,2.7-6.9,5.9c0,3.7,5.3,4.3,24,6.8C984.1,252.5,991.1,259.6,991.1,268.6z M955.6,223.5
			c0,7.8,1.4,17.4,9.5,17.4s9.5-9.5,9.5-17.4c0-7.8-1.4-18.8-9.5-18.8C957.1,204.7,955.6,215.7,955.6,223.5z"/>
		<path d="M1045.5,240.4c-2.4,11.9-11.3,22.9-24.7,22.9c-15.9,0-25.3-13.6-25.3-29.4c0-15.9,10.4-29.6,26.7-29.6
			c15.3,0,22.1,12.7,22.2,24.9h-0.1l0.1,0.1H1010c0.2,13.6,6.8,22.7,18.6,22.8c7.2,0,14.1-4.6,16.3-11.7H1045.5z M1010,228.4v0.4
			h21.8c-0.1-12.5-2.5-24-10-24C1013.6,204.9,1010,216.1,1010,228.4z"/>
		<path d="M1089.3,229.3h-0.4c0-8.9-1.8-22.9-9-22.9c-8.7-0.1-11.2,14.8-11.7,27.3v28.6h-14.8v-50.1c5.7-0.8,11.1-3.9,14.8-7.5v23.2
			c1-11.9,4-23.5,14.4-23.5C1096.4,204.3,1098.3,219.8,1089.3,229.3z"/>
	</g>
</g>
<g>
	<path class="st1" d="M58,95.7C57.9,114.9,47.4,127,34.1,127c-10.9,0-16.7-11-18.4-23.5v22.4H0V41.5c6-1,11.8-4.2,15.7-8.1v53.9
		c1.7-13.2,7.5-23,18.4-23C48.3,64.4,57.9,76.5,58,95.7z M41.6,95.7c0-19-5.9-29-11.5-29c-7.2,0-14.3,9.6-14.3,29
		c0,17.8,7.3,29,14.3,29C35.9,124.7,41.6,114.7,41.6,95.7z"/>
	<path class="st1" d="M66.7,48.8c0-4.9,4.2-8.8,9.8-8.8c5.8,0,9.8,4,9.8,8.8c0,5-4.1,8.8-9.8,8.8C70.9,57.6,66.7,53.8,66.7,48.8z
		 M68.6,72.8c6-0.9,11.9-4.1,15.8-7.9v61H68.6V72.8z"/>
	<path class="st1" d="M148.1,102.7c-2.6,12.7-12,24.3-26.2,24.3c-16.9,0-26.8-14.4-26.8-31.2c0-16.9,11-31.3,28.2-31.3
		c16.2,0,23.4,13.4,23.5,26.3h-0.1l0.1,0.1h-36.4c0.3,14.4,7.2,24,19.7,24.2c7.7,0,15-4.9,17.3-12.4
		C147.4,102.7,148.1,102.7,148.1,102.7z M110.4,90.1v0.4h23.1c-0.1-13.3-2.7-25.4-10.6-25.4C114.2,65.1,110.4,77,110.4,90.1z"/>
	<path class="st1" d="M208.9,86.7v39.1h-15.8V84.2c0-11.4-2.3-17-8.2-17c-6.8,0-12.9,7.2-13.8,23.8v34.9h-15.7v-53
		c6-0.9,11.8-4.1,15.7-7.9v20.2c1.8-12.8,7.4-20.7,20.4-20.7C202.9,64.4,208.8,72.2,208.9,86.7z"/>
	<path class="st1" d="M245.1,41.5c6-1,11.8-4.2,15.7-8.1v92.4h-15.7V41.5z"/>
	<path class="st1" d="M322.5,102.7c-2.6,12.7-12,24.3-26.2,24.3c-16.9,0-26.8-14.4-26.8-31.2c0-16.9,11-31.3,28.2-31.3
		c16.2,0,23.4,13.4,23.5,26.3h-0.1l0.1,0.1h-36.4c0.3,14.4,7.2,24,19.7,24.2c7.7,0,15-4.9,17.3-12.4
		C321.8,102.7,322.5,102.7,322.5,102.7z M284.8,90.1v0.4h23.1c-0.1-13.3-2.7-25.4-10.6-25.4C288.7,65.1,284.8,77,284.8,90.1z"/>
</g>
<g>
	<path class="st2" d="M58,165.7C57.9,184.9,47.4,197,34.1,197c-10.9,0-16.7-11-18.4-23.5v22.4H0v-84.4c6-1,11.8-4.2,15.7-8.1v53.9
		c1.7-13.2,7.5-23,18.4-23C48.3,134.4,57.9,146.5,58,165.7z M41.6,165.7c0-19-5.9-29-11.5-29c-7.2,0-14.3,9.6-14.3,29
		c0,17.8,7.3,29,14.3,29C35.9,194.7,41.6,184.7,41.6,165.7z"/>
	<path class="st2" d="M64.8,165.8c0-18.8,14.6-31.3,29.8-31.3s29.8,12.5,29.8,31.3c0,18.7-14.6,31.2-29.8,31.2
		C79.3,197,64.8,184.5,64.8,165.8z M107.1,165.8c0-21-3.3-30.8-12.5-30.8s-12.5,9.8-12.5,30.8c0,20.8,3.3,30.7,12.5,30.7
		S107.1,186.6,107.1,165.8z"/>
	<path class="st2" d="M186.5,156.7v39.1h-15.8v-41.7c0-11.4-2.3-17-8.2-17c-6.8,0-12.9,7.2-13.8,23.8v34.9H133v-53
		c6-0.9,11.8-4.1,15.7-7.9v20.2c1.8-12.8,7.4-20.7,20.4-20.7C180.5,134.4,186.4,142.2,186.5,156.7z"/>
	<path class="st2" d="M197.8,142.7c5.6-1,10.5-3.7,15.7-7.8v68c0,12-5.9,19.2-17.6,19.2c-13,0-18.3-10-19.9-19.2h0.8
		c1.7,5.5,5.8,9.1,11.9,9.1c6.3,0,9.2-4.3,9.2-11.5L197.8,142.7L197.8,142.7z M195.1,118.8c0-4.9,4.2-8.8,9.8-8.8c5.8,0,10,4,10,8.8
		c0,5-4.2,8.8-10,8.8C199.3,127.6,195.1,123.8,195.1,118.8z"/>
	<path class="st2" d="M222.2,165.8c0-18.8,14.6-31.3,29.8-31.3c15.2,0,29.8,12.5,29.8,31.3c0,18.7-14.6,31.2-29.8,31.2
		C236.8,197,222.2,184.5,222.2,165.8z M264.5,165.8c0-21-3.3-30.8-12.5-30.8c-9.2,0-12.5,9.8-12.5,30.8c0,20.8,3.3,30.7,12.5,30.7
		C261.2,196.5,264.5,186.6,264.5,165.8z"/>
	<path class="st2" d="M344,135.7v60.2h-15.8v-21.7c-1.8,14.1-8.4,22.9-20.3,22.9c-12.8,0-17.4-6.6-17.5-18.9l0.1-34.5
		c6-0.9,11.8-4.1,15.7-7.9V184c0,7,2.6,10.2,7.3,10.2c6.9,0,14.7-8.6,14.7-28.5v-22.1C334.2,142.7,340,139.5,344,135.7z"/>
	<path class="st2" d="M392.7,161h-0.4c0-9.5-1.9-24.3-9.6-24.3c-9.2-0.1-11.9,15.7-12.4,28.9v30.3h-15.7v-53
		c6-0.9,11.8-4.1,15.7-7.9v24.5c1-12.7,4.2-24.9,15.2-24.9C400.2,134.5,402.3,150.9,392.7,161z"/>
</g>
<path class="st1" d="M18.8,186.4c0,9.1-4,20.3-15.3,23.5l-0.3-0.3c8.8-3.7,11.6-14.1,11.4-20.6c-1,1.8-2.9,2.9-5.9,2.9
	c-5.4,0-8.7-4.6-8.7-9.1c0-5.5,4-9.5,9.3-9.5C15.7,173.4,18.8,179.7,18.8,186.4z"/>
<g>
	<path class="st1" d="M86,226.5v39.4H69.7v-47.7c0-7.2-1.8-10.9-6.8-10.9c-6.9,0-12.1,8.8-12.1,28.4v30.2H34.5v-47.7
		c0-7.2-1.8-10.9-6.8-10.9c-6.3,0-11.1,7.3-12,23.3v35.3H0v-53c6-0.9,11.8-4.1,15.7-7.9v19.3c1.7-12.3,6.6-19.8,18.8-19.8
		c11.8,0,16,7.3,16.4,21.1c1.4-13,6.4-21.1,18.9-21.1C81.6,204.4,85.8,212,86,226.5z"/>
	<path class="st1" d="M94.5,235.8c0-18.8,14.6-31.3,29.8-31.3s29.8,12.5,29.8,31.3c0,18.7-14.6,31.2-29.8,31.2
		S94.5,254.5,94.5,235.8z M136.8,235.8c0-21-3.3-30.8-12.5-30.8s-12.5,9.8-12.5,30.8c0,20.8,3.3,30.7,12.5,30.7
		S136.8,256.6,136.8,235.8z"/>
	<path class="st1" d="M162.8,188.8c0-4.9,4.2-8.8,9.8-8.8c5.8,0,9.8,4,9.8,8.8c0,5-4.1,8.8-9.8,8.8
		C167,197.6,162.8,193.8,162.8,188.8z M164.7,212.8c6-0.9,11.9-4.1,15.8-7.9v61h-15.8V212.8z"/>
	<path class="st1" d="M270.9,242.7c-3.1,15.2-13.5,24.3-26.7,24.3c-17.3,0-27.4-14.2-27.4-31.2c0-17.3,11.1-31.3,30.2-31.3
		c16.2,0,27.1,13,17.5,22.9h-0.4c-1.3-9.1-6.3-22.4-16.6-22.4c-10.7,0.1-15.3,12.5-15.3,25c0,14.6,6.5,24.9,19.7,25
		c7.8,0,14.4-4.1,18.3-12.4L270.9,242.7L270.9,242.7z"/>
	<path class="st1" d="M358.7,242.7c-2.6,12.7-12,24.3-26.2,24.3c-16.9,0-26.8-14.4-26.8-31.2c0-16.9,11-31.3,28.2-31.3
		c16.2,0,23.4,13.4,23.5,26.3h-0.1l0.1,0.1H321c0.3,14.4,7.2,24,19.7,24.2c7.7,0,15-4.9,17.3-12.4L358.7,242.7L358.7,242.7z
		 M321,230.1v0.4h23.1c-0.1-13.3-2.7-25.4-10.6-25.4C324.8,205.1,321,217,321,230.1z"/>
	<path class="st1" d="M412.4,247.8c0,12.7-13.5,19.3-22.4,19.3c-18.3,0-33.2-10-21.7-23h0.4c1.3,9.5,9.2,22.6,21.2,22.5
		c9.5,0.1,15.1-4.2,15.1-9.8c0-6.6-6.3-8.2-16.7-12.1c-12-4.3-22.6-8.7-22.6-21.3c0-12.1,12.5-18.8,22-18.8
		c19,0,28.9,11.6,19.3,21.9h-0.4c-0.6-9.3-5.8-21.5-17.9-21.3c-11.1-0.1-15.6,5.5-15.6,10.5c0,5.4,6.6,7.7,17.8,12
		C402.1,231.9,412.4,234.8,412.4,247.8z"/>
	<path class="st1" d="M442.1,267H442c-10.6,0-16.6-4.9-16.6-17.5v-40l-10,1.9V211c10.6-2.3,17.9-17.3,18.4-27.4h0.4
		c4.3,3.5,6.8,8.2,5.8,12.7c-1,4.9-6.8,9.7-19.3,13.5l4.7-0.9l7.3-1.3l8.1-1.5l18.3-4.7v9.8l-18.1-4.7v40.6c0,6.9,3.1,9.8,7.9,9.8
		c5.6,0,9.5-4.9,11.8-12.4h0.6C458.8,256,454.7,266.9,442.1,267z"/>
</g>
<g>
	<path class="st2" d="M57.8,282.8v78.6H42.1v-47c-1.8,12.1-7.7,22.6-18.3,22.6C10.6,337,0.2,324.9,0,305.7
		c0.1-19.2,9.6-31.3,23.8-31.3c10.6,0,16.5,9.5,18.3,22v-21.5C46.1,278.7,51.8,281.9,57.8,282.8z M42.1,309.6v-8.3
		c-1-16.5-7.7-24.7-14.2-24.7c-5.8,0-11.6,10-11.6,29s5.9,29,11.5,29C34.3,334.7,41.1,325.1,42.1,309.6z"/>
	<path class="st2" d="M122.9,275.7v60.2h-15.8v-21.7c-1.8,14.1-8.4,22.9-20.3,22.9c-12.8,0-17.4-6.6-17.5-18.9l0.1-34.5
		c6-0.9,11.8-4.1,15.7-7.9V324c0,7,2.6,10.2,7.3,10.2c6.9,0,14.7-8.6,14.7-28.5v-22.1C113,282.7,118.9,279.5,122.9,275.7z"/>
	<path class="st2" d="M185.5,312.7c-2.6,12.7-12,24.3-26.2,24.3c-16.9,0-26.8-14.4-26.8-31.2c0-16.9,11-31.3,28.2-31.3
		c16.2,0,23.4,13.4,23.5,26.3h-0.1l0.1,0.1h-36.4c0.3,14.4,7.2,24,19.7,24.2c7.7,0,15-4.9,17.3-12.4H185.5z M147.8,300.1v0.4h23.1
		c-0.1-13.3-2.7-25.4-10.6-25.4C151.6,275.1,147.8,287,147.8,300.1z"/>
	<path class="st2" d="M247.2,296.7v39.1h-15.8v-41.7c0-11.4-2.3-17-8.2-17c-6.8,0-12.9,7.2-13.8,23.8v34.9h-15.7v-53
		c6-0.9,11.8-4.1,15.7-7.9v20.2c1.8-12.8,7.4-20.7,20.4-20.7C241.2,274.4,247.1,282.2,247.2,296.7z"/>
	<path class="st2" d="M279.7,337h-0.1c-10.6,0-16.6-4.9-16.6-17.5v-40l-10,1.9V281c10.6-2.3,17.9-17.3,18.4-27.4h0.4
		c4.3,3.5,6.8,8.2,5.8,12.7c-1,4.9-6.8,9.7-19.3,13.5l4.7-0.9l7.3-1.3l8.1-1.5l18.3-4.7v9.8l-18.1-4.7v40.6c0,6.9,3.1,9.8,7.9,9.8
		c5.6,0,9.5-4.9,11.8-12.4h0.6C296.3,326,292.2,336.9,279.7,337z"/>
	<path class="st2" d="M307.5,258.8c0-4.9,4.2-8.8,9.8-8.8c5.8,0,9.8,4,9.8,8.8c0,5-4.1,8.8-9.8,8.8
		C311.8,267.6,307.5,263.8,307.5,258.8z M309.5,282.8c6-0.9,11.9-4.1,15.8-7.9v61h-15.8V282.8z"/>
	<path class="st2" d="M392.3,296.7v39.1h-15.8v-41.7c0-11.4-2.3-17-8.2-17c-6.8,0-12.9,7.2-13.8,23.8v34.9h-15.7v-53
		c6-0.9,11.8-4.1,15.7-7.9v20.2c1.8-12.8,7.4-20.7,20.4-20.7C386.3,274.4,392.1,282.2,392.3,296.7z"/>
</g>
<g>
	<path class="st2" d="M0,321.5c6-1,11.8-4.2,15.7-8.1v92.4H0V321.5z"/>
	<path class="st2" d="M78.3,382.7c-2.6,12.7-12,24.3-26.2,24.3c-16.9,0-26.8-14.4-26.8-31.2c0-16.9,11-31.3,28.2-31.3
		c16.2,0,23.4,13.4,23.5,26.3h-0.1l0.1,0.1H40.6c0.3,14.4,7.2,24,19.7,24.2c7.7,0,15-4.9,17.3-12.4H78.3z M40.6,370.1v0.4h23.1
		c-0.1-13.3-2.7-25.4-10.6-25.4C44.4,345.1,40.6,357,40.6,370.1z"/>
	<path class="st2" d="M172.5,366.5v39.4h-16.2v-47.7c0-7.2-1.8-10.9-6.8-10.9c-6.9,0-12.1,8.8-12.1,28.4v30.2H121v-47.7
		c0-7.2-1.8-10.9-6.8-10.9c-6.3,0-11.1,7.3-12,23.3v35.3H86.5v-53c6-0.9,11.8-4.1,15.7-7.9v19.3c1.7-12.3,6.6-19.8,18.8-19.8
		c11.8,0,16,7.3,16.4,21.1c1.4-13,6.4-21.1,18.9-21.1C168.1,344.4,172.4,352,172.5,366.5z"/>
	<path class="st2" d="M244.2,405.7v0.3c-15.6,2.7-24.7,0.4-25.8-12.5c-0.9,7.4-4.7,13.5-15.1,13.5c-13,0-21.1-6-21.3-17.5
		c0.3-10.5,9.3-16.1,22-17.6l14.3-1.5v-10.9c0-9.5-3.6-14.4-10.6-14.4c-11.9-0.1-16.2,12.9-17.5,22.4h-0.5
		c-9.6-10.1-0.1-22.9,18.1-22.9c17.1,0,26.2,6.4,26.2,18.5v27.5C234,400.7,234.9,405.2,244.2,405.7z M218.2,389v-18.1
		c-2.4,0.3-4.9,0.6-7.3,0.9c-8.8,1.2-12.7,8.3-12.7,17.8c0,7.5,2.6,15.8,8.8,15.8C213.6,405.3,218.2,399.5,218.2,389z"/>
	<path class="st2" d="M249.6,328.8c0-4.9,4.2-8.8,9.8-8.8c5.8,0,9.8,4,9.8,8.8c0,5-4.1,8.8-9.8,8.8
		C253.8,337.6,249.6,333.8,249.6,328.8z M251.5,352.8c6-0.9,11.9-4.1,15.8-7.9v61h-15.8V352.8z"/>
	<path class="st2" d="M318.8,371h-0.4c0-9.5-1.9-24.3-9.6-24.3c-9.2-0.1-11.9,15.7-12.4,28.9v30.3h-15.7v-53
		c6-0.9,11.8-4.1,15.7-7.9v24.5c1-12.7,4.2-24.9,15.2-24.9C326.4,344.5,328.4,360.9,318.8,371z"/>
	<path class="st2" d="M384.3,382.7c-2.6,12.7-12,24.3-26.2,24.3c-16.9,0-26.8-14.4-26.8-31.2c0-16.9,11-31.3,28.2-31.3
		c16.2,0,23.4,13.4,23.5,26.3h-0.1l0.1,0.1h-36.4c0.3,14.4,7.2,24,19.7,24.2c7.7,0,15-4.9,17.3-12.4H384.3z M346.6,370.1v0.4h23.1
		c-0.1-13.3-2.7-25.4-10.6-25.4C350.4,345.1,346.6,357,346.6,370.1z"/>
</g>
<g>
	<path class="st1" d="M21.8,422.7c5.6-1,10.5-3.7,15.7-7.8v68c0,12-5.9,19.2-17.6,19.2c-13,0-18.3-10-19.9-19.2h0.8
		c1.7,5.5,5.8,9.1,11.9,9.1c6.3,0,9.2-4.3,9.2-11.5v-57.8H21.8z M19.1,398.8c0-4.9,4.2-8.8,9.8-8.8c5.8,0,10,4,10,8.8
		c0,5-4.2,8.8-10,8.8C23.4,407.6,19.1,403.8,19.1,398.8z"/>
	<path class="st1" d="M100.2,452.7C97.6,465.4,88.2,477,74,477c-16.9,0-26.8-14.4-26.8-31.2c0-16.9,11-31.3,28.2-31.3
		c16.2,0,23.4,13.4,23.5,26.3h-0.1l0.1,0.1H62.5c0.3,14.4,7.2,24,19.7,24.2c7.7,0,15-4.9,17.3-12.4H100.2z M62.5,440.1v0.4h23.1
		c-0.1-13.3-2.7-25.4-10.6-25.4C66.3,415.1,62.5,427,62.5,440.1z"/>
	<path class="st1" d="M181.3,457.8c0,12.7-13.5,19.3-22.4,19.3c-18.3,0-33.2-10-21.7-23h0.4c1.3,9.5,9.2,22.6,21.2,22.5
		c9.5,0.1,15.1-4.2,15.1-9.8c0-6.6-6.3-8.2-16.7-12.1c-12-4.3-22.6-8.7-22.6-21.3c0-12.1,12.5-18.8,22-18.8
		c19,0,28.9,11.6,19.3,21.9h-0.4c-0.6-9.3-5.8-21.5-17.9-21.3c-11.1-0.1-15.6,5.5-15.6,10.5c0,5.4,6.6,7.7,17.8,12
		C171.1,441.9,181.3,444.8,181.3,457.8z"/>
	<path class="st1" d="M244.5,415.7v60.2h-15.8v-21.7c-1.8,14.1-8.4,22.9-20.3,22.9c-12.8,0-17.4-6.6-17.5-18.9l0.1-34.5
		c6-0.9,11.8-4.1,15.7-7.9V464c0,7,2.6,10.2,7.3,10.2c6.9,0,14.7-8.6,14.7-28.5v-22.1C234.6,422.7,240.5,419.5,244.5,415.7z"/>
	<path class="st1" d="M256,398.8c0-4.9,4.2-8.8,9.8-8.8c5.8,0,9.8,4,9.8,8.8c0,5-4.1,8.8-9.8,8.8C260.2,407.6,256,403.8,256,398.8z
		 M257.9,422.8c6-0.9,11.9-4.1,15.8-7.9v61h-15.8V422.8z"/>
	<path class="st1" d="M333.5,457.8c0,12.7-13.5,19.3-22.4,19.3c-18.3,0-33.2-10-21.7-23h0.4c1.3,9.5,9.2,22.6,21.2,22.5
		c9.5,0.1,15.1-4.2,15.1-9.8c0-6.6-6.3-8.2-16.7-12.1c-12-4.3-22.6-8.7-22.6-21.3c0-12.1,12.5-18.8,22-18.8
		c19,0,28.9,11.6,19.3,21.9h-0.4c-0.6-9.3-5.8-21.5-17.9-21.3c-11.1-0.1-15.6,5.5-15.6,10.5c0,5.4,6.6,7.7,17.8,12
		C323.3,441.9,333.5,444.8,333.5,457.8z"/>
</g>
<g>
	<path class="st2" d="M57.9,453.4v92.4H42.2v-22.4C40.6,536,34.7,547,23.8,547C10.6,547,0.2,534.9,0,515.7
		c0.1-19.2,9.6-31.3,23.8-31.3c10.9,0,16.7,9.8,18.4,23v-45.9C48.2,460.5,54,457.3,57.9,453.4z M42.2,515.7c0-19.4-7.3-29-14.3-29
		c-5.8,0-11.6,10-11.6,29c0,19,5.9,29,11.5,29C34.8,544.7,42.2,533.5,42.2,515.7z"/>
	<path class="st2" d="M69.4,468.8c0-4.9,4.2-8.8,9.8-8.8c5.8,0,9.8,4,9.8,8.8c0,5-4.1,8.8-9.8,8.8C73.7,477.6,69.4,473.8,69.4,468.8
		z M71.4,492.8c6-0.9,11.9-4.1,15.8-7.9v61H71.4V492.8z"/>
	<path class="st2" d="M138.7,511h-0.4c0-9.5-1.9-24.3-9.6-24.3c-9.2-0.1-11.9,15.7-12.4,28.9v30.3h-15.7v-53
		c6-0.9,11.8-4.1,15.7-7.9v24.5c1-12.7,4.2-24.9,15.2-24.9C146.3,484.5,148.3,500.9,138.7,511z"/>
	<path class="st2" d="M204.2,522.7c-2.6,12.7-12,24.3-26.2,24.3c-16.9,0-26.8-14.4-26.8-31.2c0-16.9,11-31.3,28.2-31.3
		c16.2,0,23.4,13.4,23.5,26.3h-0.1l0.1,0.1h-36.4c0.3,14.4,7.2,24,19.7,24.2c7.7,0,15-4.9,17.3-12.4L204.2,522.7L204.2,522.7z
		 M166.4,510.1v0.4h23.1c-0.1-13.3-2.7-25.4-10.6-25.4C170.3,485.1,166.4,497,166.4,510.1z"/>
	<path class="st2" d="M264.5,522.7c-3.1,15.2-13.5,24.3-26.7,24.3c-17.3,0-27.4-14.2-27.4-31.2c0-17.3,11.1-31.3,30.2-31.3
		c16.2,0,27.1,13,17.5,22.9h-0.4c-1.3-9.1-6.3-22.4-16.6-22.4c-10.7,0.1-15.3,12.5-15.3,25c0,14.6,6.5,24.9,19.7,25
		c7.8,0,14.4-4.1,18.3-12.4h0.7V522.7z"/>
	<path class="st2" d="M293.7,547h-0.1c-10.6,0-16.6-4.9-16.6-17.5v-40l-10,1.9V491c10.6-2.3,17.9-17.3,18.4-27.4h0.4
		c4.3,3.5,6.8,8.2,5.8,12.7c-1,4.9-6.8,9.7-19.3,13.5l4.7-0.9l7.3-1.3l8.1-1.5l18.3-4.7v9.8l-18.1-4.7v40.6c0,6.9,3.1,9.8,7.9,9.8
		c5.6,0,9.5-4.9,11.8-12.4h0.6C310.4,536,306.3,546.9,293.7,547z"/>
	<path class="st2" d="M372.7,522.7c-2.6,12.7-12,24.3-26.2,24.3c-16.9,0-26.8-14.4-26.8-31.2c0-16.9,11-31.3,28.2-31.3
		c16.2,0,23.4,13.4,23.5,26.3h-0.1l0.1,0.1H335c0.3,14.4,7.2,24,19.7,24.2c7.7,0,15-4.9,17.3-12.4L372.7,522.7L372.7,522.7z
		 M335,510.1v0.4h23.2c-0.1-13.3-2.7-25.4-10.6-25.4C338.9,485.1,335,497,335,510.1z"/>
	<path class="st2" d="M434.4,485.7v60.2h-15.8v-21.7c-1.8,14.1-8.4,22.9-20.3,22.9c-12.8,0-17.4-6.6-17.5-18.9l0.1-34.5
		c6-0.9,11.8-4.1,15.7-7.9V534c0,7,2.6,10.2,7.3,10.2c6.9,0,14.7-8.6,14.7-28.5v-22.1C424.6,492.7,430.5,489.5,434.4,485.7z"/>
	<path class="st2" d="M484,511h-0.4c0-9.5-1.9-24.3-9.6-24.3c-9.2-0.1-11.9,15.7-12.4,28.9v30.3h-15.7v-53c6-0.9,11.8-4.1,15.7-7.9
		v24.5c1-12.7,4.2-24.9,15.2-24.9C491.6,484.5,493.6,500.9,484,511z"/>
</g>
<g>
	<path class="st2" d="M62.2,615.7v0.3c-15.6,2.7-24.7,0.4-25.8-12.5c-0.9,7.4-4.8,13.5-15.1,13.5c-13,0-21.1-6-21.3-17.5
		c0.3-10.5,9.3-16.1,22-17.6l14.3-1.5v-10.9c0-9.5-3.6-14.4-10.6-14.4C13.8,555,9.5,568,8.2,577.5H7.8c-9.6-10.1-0.1-22.9,18.1-22.9
		c17.1,0,26.2,6.4,26.2,18.5v27.5C52,610.7,52.9,615.2,62.2,615.7z M36.2,599v-18.1c-2.4,0.3-4.9,0.6-7.3,0.9
		c-8.8,1.2-12.7,8.3-12.7,17.8c0,7.5,2.6,15.8,8.8,15.8C31.6,615.3,36.2,609.5,36.2,599z"/>
	<path class="st2" d="M105.6,581h-0.4c0-9.5-1.9-24.3-9.6-24.3c-9.2-0.1-11.9,15.7-12.4,28.9v30.3H67.5v-53c6-0.9,11.8-4.1,15.7-7.9
		v24.5c1-12.7,4.2-24.9,15.2-24.9C113.2,554.5,115.2,570.9,105.6,581z"/>
	<path class="st2" d="M141,617h-0.1c-10.6,0-16.6-4.9-16.6-17.5v-40l-10,1.9V561c10.6-2.3,17.9-17.3,18.4-27.4h0.4
		c4.3,3.5,6.8,8.2,5.8,12.7c-1,4.9-6.8,9.7-19.3,13.5l4.7-0.9l7.3-1.3l8.1-1.5l18.3-4.7v9.8l-18.1-4.7v40.6c0,6.9,3.1,9.8,7.9,9.8
		c5.6,0,9.5-4.9,11.8-12.4h0.6C157.6,606,153.6,616.9,141,617z"/>
	<path class="st2" d="M168.9,538.8c0-4.9,4.2-8.8,9.8-8.8c5.8,0,9.8,4,9.8,8.8c0,5-4.1,8.8-9.8,8.8
		C173.1,547.6,168.9,543.8,168.9,538.8z M170.8,562.8c6-0.9,11.9-4.1,15.8-7.9v61h-15.8V562.8z"/>
	<path class="st2" d="M246.5,597.8c0,12.7-13.5,19.3-22.4,19.3c-18.3,0-33.2-10-21.7-23h0.4c1.3,9.5,9.2,22.6,21.2,22.5
		c9.5,0.1,15.1-4.2,15.1-9.8c0-6.6-6.3-8.2-16.7-12.1c-12-4.3-22.6-8.7-22.6-21.3c0-12.1,12.5-18.8,22-18.8
		c19,0,28.9,11.6,19.3,21.9h-0.5c-0.6-9.3-5.8-21.5-17.9-21.3c-11.1-0.1-15.6,5.5-15.6,10.5c0,5.4,6.6,7.7,17.8,12
		C236.2,581.9,246.5,584.8,246.5,597.8z"/>
	<path class="st2" d="M277.1,617H277c-10.6,0-16.6-4.9-16.6-17.5v-40l-10,1.9V561c10.6-2.3,17.9-17.3,18.4-27.4h0.4
		c4.3,3.5,6.8,8.2,5.8,12.7c-1,4.9-6.8,9.7-19.3,13.5l4.7-0.9l7.3-1.3l8.1-1.5l18.3-4.7v9.8l-18.1-4.7v40.6c0,6.9,3.1,9.8,7.9,9.8
		c5.6,0,9.5-4.9,11.8-12.4h0.6C293.8,606,289.7,616.9,277.1,617z"/>
	<path class="st2" d="M305,538.8c0-4.9,4.2-8.8,9.8-8.8c5.8,0,9.8,4,9.8,8.8c0,5-4.1,8.8-9.8,8.8C309.2,547.6,305,543.8,305,538.8z
		 M306.9,562.8c6-0.9,11.9-4.1,15.8-7.9v61h-15.8V562.8z"/>
	<path class="st2" d="M392.5,562.8v78.6h-15.7v-47c-1.8,12.1-7.7,22.6-18.3,22.6c-13.2,0-23.6-12.1-23.8-31.3
		c0.1-19.2,9.6-31.3,23.8-31.3c10.6,0,16.5,9.5,18.3,22v-21.5C380.8,558.7,386.5,561.9,392.5,562.8z M376.8,589.6v-8.3
		c-1-16.5-7.7-24.7-14.2-24.7c-5.8,0-11.6,10-11.6,29s5.9,29,11.5,29C369,614.7,375.8,605.1,376.8,589.6z"/>
	<path class="st2" d="M457.6,555.7v60.2h-15.8v-21.7c-1.8,14.1-8.4,22.9-20.3,22.9c-12.8,0-17.4-6.6-17.5-18.9l0.1-34.5
		c6-0.9,11.8-4.1,15.7-7.9V604c0,7,2.6,10.2,7.3,10.2c6.9,0,14.7-8.6,14.7-28.5v-22.1C447.8,562.7,453.6,559.5,457.6,555.7z"/>
	<path class="st2" d="M520.2,592.7c-2.6,12.7-12,24.3-26.2,24.3c-16.9,0-26.8-14.4-26.8-31.2c0-16.9,11-31.3,28.2-31.3
		c16.2,0,23.4,13.4,23.5,26.3h-0.1l0.1,0.1h-36.4c0.3,14.4,7.2,24,19.7,24.2c7.7,0,15-4.9,17.3-12.4L520.2,592.7L520.2,592.7z
		 M482.5,580.1v0.4h23.1c-0.1-13.3-2.7-25.4-10.6-25.4C486.3,555.1,482.5,567,482.5,580.1z"/>
</g>
<g>
	<path class="st1" d="M25.3,614.5v11.6h0.4l21.6-0.9v9.8l-21.6-8.6h-0.4v59.3H9.5v-59.3H0V626h9.5v-6.9c0-17.6,8.3-24,23.5-24
		c15.8,0,24,13.3,14.4,22.9H47c-1.3-9.1-4.3-22.5-13.8-22.5C24.8,595.6,25.3,606.9,25.3,614.5z"/>
	<path class="st1" d="M97.3,651h-0.4c0-9.5-1.9-24.3-9.6-24.3c-9.2-0.1-11.9,15.7-12.4,28.9v30.3H59.2v-53c6-0.9,11.8-4.1,15.7-7.9
		v24.5c1-12.7,4.2-24.9,15.2-24.9C104.8,624.5,106.9,640.9,97.3,651z"/>
	<path class="st1" d="M162.7,662.7c-2.6,12.7-12,24.3-26.2,24.3c-16.9,0-26.8-14.4-26.8-31.2c0-16.9,11-31.3,28.2-31.3
		c16.2,0,23.4,13.4,23.5,26.3h-0.1l0.1,0.1H125c0.3,14.4,7.2,24,19.7,24.2c7.7,0,15-4.9,17.3-12.4L162.7,662.7L162.7,662.7z
		 M125,650.1v0.4h23.1c-0.1-13.3-2.7-25.4-10.6-25.4C128.9,625.1,125,637,125,650.1z"/>
	<path class="st1" d="M222,662.7c-2.6,12.7-12,24.3-26.2,24.3c-16.9,0-26.8-14.4-26.8-31.2c0-16.9,11-31.3,28.2-31.3
		c16.2,0,23.4,13.4,23.5,26.3h-0.1l0.1,0.1h-36.4c0.3,14.4,7.2,24,19.7,24.2c7.7,0,15-4.9,17.3-12.4L222,662.7L222,662.7z
		 M184.3,650.1v0.4h23.1c-0.1-13.3-2.7-25.4-10.6-25.4C188.2,625.1,184.3,637,184.3,650.1z"/>
	<path class="st1" d="M230.2,601.5c6-1,11.8-4.2,15.7-8.1v92.4h-15.7V601.5z"/>
	<path class="st1" d="M317.7,685.7v0.3c-15.6,2.7-24.7,0.4-25.8-12.5c-0.9,7.4-4.7,13.5-15.1,13.5c-13,0-21.1-6-21.3-17.5
		c0.3-10.5,9.3-16.1,22-17.6l14.3-1.5v-10.9c0-9.5-3.6-14.4-10.6-14.4c-11.9-0.1-16.2,12.9-17.5,22.4h-0.4
		c-9.6-10.1-0.1-22.9,18.1-22.9c17.1,0,26.2,6.4,26.2,18.5v27.5C307.5,680.7,308.4,685.2,317.7,685.7z M291.8,669v-18.1
		c-2.4,0.3-4.9,0.6-7.3,0.9c-8.8,1.2-12.7,8.3-12.7,17.8c0,7.5,2.6,15.8,8.8,15.8C287.2,685.3,291.8,679.5,291.8,669z"/>
	<path class="st1" d="M376.7,646.7v39.1h-15.8v-41.7c0-11.4-2.3-17-8.2-17c-6.8,0-12.9,7.2-13.8,23.8v34.9h-15.7v-53
		c6-0.9,11.8-4.1,15.7-7.9v20.2c1.8-12.8,7.4-20.7,20.4-20.7C370.7,624.4,376.5,632.2,376.7,646.7z"/>
	<path class="st1" d="M440.2,662.7c-3.1,15.2-13.5,24.3-26.7,24.3c-17.3,0-27.4-14.2-27.4-31.2c0-17.3,11.1-31.3,30.2-31.3
		c16.2,0,27.1,13,17.5,22.9h-0.4c-1.3-9.1-6.3-22.4-16.6-22.4c-10.7,0.1-15.3,12.5-15.3,25c0,14.6,6.5,24.9,19.7,25
		c7.8,0,14.4-4.1,18.3-12.4h0.7V662.7z"/>
	<path class="st1" d="M499.5,662.7c-2.6,12.7-12,24.3-26.2,24.3c-16.9,0-26.8-14.4-26.8-31.2c0-16.9,11-31.3,28.2-31.3
		c16.2,0,23.4,13.4,23.5,26.3h-0.1l0.1,0.1h-36.4c0.3,14.4,7.2,24,19.7,24.2c7.7,0,15-4.9,17.3-12.4L499.5,662.7L499.5,662.7z
		 M461.8,650.1v0.4h23.1c-0.1-13.3-2.7-25.4-10.6-25.4C465.6,625.1,461.8,637,461.8,650.1z"/>
</g>
<g>
	<path class="st1" d="M62.2,755.7v0.3c-15.6,2.7-24.7,0.4-25.8-12.5c-0.9,7.4-4.8,13.5-15.1,13.5c-13,0-21.1-6-21.3-17.5
		c0.3-10.5,9.3-16.1,22-17.6l14.3-1.5v-10.9c0-9.5-3.6-14.4-10.6-14.4C13.8,695,9.5,708,8.2,717.5H7.8c-9.6-10.1-0.1-22.9,18.1-22.9
		c17.1,0,26.2,6.4,26.2,18.5v27.5C52,750.7,52.9,755.2,62.2,755.7z M35.5,689.4c-9.3-4.5-16.2-10-22.8-16.5h15.6
		c1.2,5.4,3.6,10.9,8.2,16.5H35.5z M36.2,739v-18.1c-2.4,0.3-4.9,0.6-7.3,0.9c-8.8,1.2-12.7,8.3-12.7,17.8c0,7.5,2.6,15.8,8.8,15.8
		C31.6,755.3,36.2,749.5,36.2,739z"/>
	<path class="st1" d="M152.2,725.7c-0.1,19.2-10.6,31.3-23.9,31.3c-10.9,0-16.7-11-18.4-23.5v47.9H94.2v-78.6
		c6-0.9,11.8-4.1,15.7-7.9v22.5c1.7-13.2,7.5-23,18.4-23C142.4,694.4,152,706.5,152.2,725.7z M135.8,725.7c0-19-5.9-29-11.5-29
		c-7.2,0-14.3,9.6-14.3,29c0,17.8,7.3,29,14.3,29C130,754.7,135.8,744.7,135.8,725.7z"/>
	<path class="st1" d="M222.1,755.7v0.3c-15.6,2.7-24.7,0.4-25.8-12.5c-0.9,7.4-4.7,13.5-15.1,13.5c-13,0-21.1-6-21.3-17.5
		c0.3-10.5,9.3-16.1,22-17.6l14.3-1.5v-10.9c0-9.5-3.6-14.4-10.6-14.4c-11.9-0.1-16.2,12.9-17.5,22.4h-0.5
		c-9.6-10.1-0.1-22.9,18.1-22.9c17.1,0,26.2,6.4,26.2,18.5v27.5C211.8,750.7,212.7,755.2,222.1,755.7z M196.1,739v-18.1
		c-2.4,0.3-4.9,0.6-7.3,0.9c-8.8,1.2-12.7,8.3-12.7,17.8c0,7.5,2.6,15.8,8.8,15.8C191.5,755.3,196.1,749.5,196.1,739z"/>
	<path class="st1" d="M265.5,721h-0.4c0-9.5-1.9-24.3-9.6-24.3c-9.2-0.1-11.9,15.7-12.4,28.9v30.3h-15.7v-53
		c6-0.9,11.8-4.1,15.7-7.9v24.5c1-12.7,4.2-24.9,15.2-24.9C273.1,694.5,275.1,710.9,265.5,721z"/>
	<path class="st1" d="M279.8,678.8c0-4.9,4.2-8.8,9.8-8.8c5.8,0,9.8,4,9.8,8.8c0,5-4.1,8.8-9.8,8.8
		C284,687.6,279.8,683.8,279.8,678.8z M281.7,702.8c6-0.9,11.9-4.1,15.8-7.9v61h-15.8V702.8z"/>
	<path class="st1" d="M357.4,737.8c0,12.7-13.5,19.3-22.4,19.3c-18.3,0-33.2-10-21.7-23h0.4c1.3,9.5,9.2,22.6,21.2,22.5
		c9.5,0.1,15.1-4.2,15.1-9.8c0-6.6-6.3-8.2-16.7-12.1c-12-4.3-22.6-8.7-22.6-21.3c0-12.1,12.5-18.8,22-18.8
		c19,0,28.9,11.6,19.3,21.9h-0.4c-0.6-9.3-5.8-21.5-17.9-21.3c-11.1-0.1-15.6,5.5-15.6,10.5c0,5.4,6.6,7.7,17.8,12
		C347.2,721.9,357.4,724.8,357.4,737.8z"/>
</g>
</svg>
