<?xml version="1.0" encoding="utf-8"?>
<!-- Generator: Adobe Illustrator 24.0.1, SVG Export Plug-In . SVG Version: 6.00 Build 0)  -->
<svg version="1.1" id="Calque_1" xmlns="http://www.w3.org/2000/svg" xmlns:xlink="http://www.w3.org/1999/xlink" x="0px" y="0px"
	 viewBox="0 0 792 612" style="enable-background:new 0 0 792 612;" xml:space="preserve">
<style type="text/css">
	.st0{fill:none;stroke:#000000;}
	.st1{fill:none;stroke:#000000;stroke-miterlimit:10;}
</style>
<g>
	<path class="st0" d="M169.1,189.7v86.8h-14.6v-52.4c-2,14.1-8.9,25.8-20.9,25.8c-14.8,0-25.9-13.8-26-34.1
		c0.1-20.3,10.4-34.1,26-34.1c12,0,18.9,10.7,20.9,25.3v-24.5C158.2,185.9,163.5,188.7,169.1,189.7z M154.5,215.7
		c0-20.6-8.1-31.9-17.3-31.9c-7,0-14.5,11-14.5,31.9c0,21,7.4,31.9,14.5,31.9C146.3,247.6,154.5,234.9,154.5,215.7z"/>
	<path class="st0" d="M267.9,183.1v65.5h-14.8v-24c-2.1,15.5-9.7,25.2-23,25.2c-14.2,0-19.4-7.4-19.5-20.8l0.1-38.7
		c5.6-1,10.9-3.8,14.6-7.2v51c0,9.1,3.5,13.1,9.9,13.1c9.1,0,17.8-10,17.8-31.5v-25.3C258.7,189.4,264.1,186.6,267.9,183.1z"/>
	<path class="st0" d="M364.2,224.6c-2.8,13.4-13.1,25.2-27.9,25.2c-18.1,0-29-15.5-29-34c0-18.7,11.7-34.1,30.2-34.1
		c17.1,0,25.2,14.1,25.5,28.6l0,0l0.1,0.3h-41.4c0,16.9,7.8,28,22,28.1c8.9,0,17.1-5.4,19.8-14.1L364.2,224.6L364.2,224.6z
		 M321.8,210h29c-0.3-14.9-4-27.7-13.5-27.7C327,182.4,321.9,195.1,321.8,210z"/>
	<path class="st0" d="M459.9,206v42.6h-14.6v-44.7c0-13.1-3.3-19.6-10.9-19.6c-8.9,0-16,8.6-17.1,26.6v37.7h-14.6v-58.9
		c5.6-1,10.9-3.8,14.6-7.2v22.4c2.1-14.3,8.8-23.3,23.1-23.3C453.4,181.6,459.9,190.4,459.9,206z"/>
	<path class="st0" d="M524.3,249.8L524.3,249.8c-11.2,0-17.2-5.2-17.2-18.1v-45.3l-11.4,1.9V188c12.1-2.5,18.8-18.9,19.4-28.4h0.4
		c3.9,3.6,6.3,9.1,4.7,13.9c-1.3,4.9-7.1,9.7-19.4,13.4l20.5-3.3l20.5-4.5v9.3l-20.3-4.5v45.7c0,7.7,3.5,10.9,8.9,10.9
		c6.3,0,10.6-5.2,13.1-12.8h0.6C541.4,239,536.8,249.7,524.3,249.8z"/>
	<path class="st0" d="M582.2,164.2c0-4.7,3.9-8.5,9.3-8.5c5.4,0,9.3,3.8,9.3,8.5c0,4.6-3.9,8.4-9.3,8.4
		C586.1,172.5,582.2,168.8,582.2,164.2z M584.1,189.7c5.6-1,11-3.8,14.8-7.2v66.2h-14.8V189.7z"/>
	<path class="st0" d="M699.9,206v42.6h-14.6v-44.7c0-13.1-3.3-19.6-10.9-19.6c-8.9,0-16,8.6-17.1,26.6v37.7h-14.6v-58.9
		c5.6-1,10.9-3.8,14.6-7.2v22.4c2.1-14.3,8.8-23.3,23.1-23.3C693.3,181.6,699.9,190.4,699.9,206z"/>
</g>
<g>
	<path class="st1" d="M107.6,360.5c5.5-0.9,11.1-3.8,14.9-7.4V455h-14.9V360.5z"/>
	<path class="st1" d="M220.6,430.7c-2.8,13.6-13.3,25.6-28.3,25.6c-18.4,0-29.5-15.7-29.5-34.6c0-19,11.9-34.7,30.7-34.7
		c17.4,0,25.6,14.3,25.9,29h-0.1l0.1,0.3h-42.1c0,17.1,7.9,28.5,22.4,28.6c9.1,0,17.4-5.5,20.1-14.3h0.8L220.6,430.7L220.6,430.7z
		 M177.4,415.8h29.5c-0.3-15.2-4.1-28.2-13.7-28.2C182.8,387.7,177.6,400.6,177.4,415.8z"/>
	<path class="st1" d="M354.8,411.2V455h-15.3v-51.3c0-8.9-2.4-14-9.5-14c-9.1,0-15.4,10.8-15.4,31.9V455h-15.3v-51.3
		c0-8.9-2.3-14-9.4-14c-8.4,0-14.3,8.9-15.3,26.5V455h-14.9v-59.9c5.7-1,11.1-3.8,14.9-7.4v22.1c2-14.2,7.9-23,21.5-23
		s18.4,8.6,18.4,24.1c1.7-14.7,7.9-24.1,21.8-24.1C350.1,386.9,354.7,395.7,354.8,411.2z"/>
	<path class="st1" d="M463.1,455v0.3c-16.6,2.7-25.5,0-26.4-14.2c-1.3,8.5-6.2,15.2-18,15.2c-14.5,0-23.5-6.8-23.7-19.3
		c0.1-11.6,10.1-18,24.7-19.6l16.9-1.7v-11.2c0-11.2-4.7-17-13.3-17c-13.9-0.1-19.1,14.6-20.3,24.4h-0.4
		c-8.8-11.2,0.7-24.9,20.8-24.9c18.4,0,28.1,7.1,28.1,20.5v31.2C451.3,450.1,452.9,454.6,463.1,455z M436.6,436.2v-20
		c-3.4,0.4-6.9,0.7-10.3,1.1c-10.8,1.3-15.7,9.2-15.7,19.7c0,8.8,3.7,17.6,11.8,17.6C430.8,454.6,436.6,447.8,436.6,436.2z"/>
	<path class="st1" d="M498.9,369.2c0-4.8,4-8.6,9.5-8.6c5.5,0,9.5,3.8,9.5,8.6c0,4.7-4,8.5-9.5,8.5S498.9,373.8,498.9,369.2z
		 M500.9,395.1c5.7-1,11.2-3.8,15-7.4V455h-15L500.9,395.1L500.9,395.1z"/>
	<path class="st1" d="M602.9,415.2h-0.4c0-9.8-2.3-26.1-11.6-26.1c-11.2-0.1-14.9,17.9-15.6,33V455h-14.9v-59.9
		c5.7-1,11.1-3.8,14.9-7.4v28.5c1.1-14.7,5.2-29.2,18.1-29.2C609.8,387,611.7,404.2,602.9,415.2z"/>
	<path class="st1" d="M699.9,430.7c-2.8,13.6-13.3,25.6-28.3,25.6c-18.4,0-29.5-15.7-29.5-34.6c0-19,11.9-34.7,30.7-34.7
		c17.4,0,25.6,14.3,25.9,29h-0.1l0.1,0.3h-42.1c0,17.1,7.9,28.5,22.4,28.6c9.1,0,17.4-5.5,20.1-14.3h0.8L699.9,430.7L699.9,430.7z
		 M656.7,415.8h29.5c-0.3-15.2-4.1-28.2-13.7-28.2C662,387.7,656.8,400.6,656.7,415.8z"/>
</g>
<g>
	<path d="M346.2,322.1c-0.8,3.8-3.8,7.2-8,7.2c-5.2,0-8.3-4.4-8.3-9.8s3.4-9.8,8.7-9.8c4.9,0,7.2,4,7.3,8.2l0,0v0.1H334
		c0,4.8,2.2,8,6.3,8.1c2.6,0,4.9-1.6,5.7-4L346.2,322.1L346.2,322.1z M334,317.9h8.3c-0.1-4.3-1.2-8-3.9-8
		C335.5,310,334.1,313.6,334,317.9z"/>
	<path d="M365.3,316.8V329h-4.2v-12.8c0-3.8-1-5.6-3.1-5.6c-2.6,0-4.6,2.5-4.9,7.6V329h-4.2v-16.9c1.6-0.3,3.1-1.1,4.2-2.1v6.4
		c0.6-4.1,2.5-6.7,6.6-6.7C363.4,309.8,365.3,312.3,365.3,316.8z"/>
	<path d="M384.9,322.1c-0.9,4.5-4.2,7.2-8.2,7.2c-5.3,0-8.4-4.3-8.4-9.8s3.4-9.8,9.2-9.8c5.2,0,8.2,4,5.7,7H383
		c-0.3-2.6-1.9-6.9-5.4-6.9c-3.6,0-5.2,4-5.2,8.1c0,4.7,2.1,8,6.3,8.1c2.6,0,4.8-1.4,5.9-4L384.9,322.1L384.9,322.1z"/>
	<path d="M403.9,316.8V329h-4.2v-12.8c0-3.8-1-5.6-3.1-5.6c-2.6,0-4.6,2.5-4.9,7.6V329h-4.2v-26.7c1.6-0.2,3.1-1.1,4.2-2.1v16.2
		c0.6-4.1,2.5-6.7,6.6-6.7C402,309.8,403.9,312.3,403.9,316.8z"/>
	<path d="M426.1,329L426.1,329c-4.7,0.8-7.2,0.1-7.4-3.9c-0.4,2.4-1.8,4.3-5.1,4.3c-4.1,0-6.6-1.9-6.7-5.4c0-3.3,2.8-5.1,7-5.5
		l4.8-0.5v-3.2c0-3.2-1.3-4.8-3.8-4.8c-3.9,0-5.4,4.1-5.7,6.9H409c-2.5-3.2,0.2-7,5.9-7c5.2,0,7.9,2,7.9,5.8v8.8
		C422.7,327.6,423.2,328.9,426.1,329z M418.6,323.7V318c-1,0.1-2,0.2-2.9,0.3c-3,0.4-4.4,2.6-4.4,5.6c0,2.5,1,5,3.3,5
		S418.6,327,418.6,323.7z"/>
	<path d="M444.2,316.8V329H440v-12.8c0-3.8-1-5.6-3.1-5.6c-2.6,0-4.6,2.5-4.9,7.6V329h-4.2v-16.9c1.6-0.3,3.1-1.1,4.2-2.1v6.4
		c0.6-4.1,2.5-6.7,6.6-6.7C442.3,309.8,444.2,312.3,444.2,316.8z"/>
	<path d="M454.3,329.4L454.3,329.4c-3.2,0-5-1.5-5-5.2v-13l-3.3,0.6v-0.1c3.5-0.7,5.4-5.4,5.6-8.2h0.1c1.1,1,1.8,2.6,1.4,4
		s-2,2.8-5.6,3.8l5.9-1l5.9-1.3v2.7l-5.8-1.3v13.1c0,2.2,1,3.1,2.6,3.1c1.8,0,3-1.5,3.8-3.7h0.2
		C459.2,326.2,457.9,329.3,454.3,329.4z"/>
	<path d="M477.5,322.1c-0.8,3.8-3.8,7.2-8,7.2c-5.2,0-8.3-4.4-8.3-9.8s3.4-9.8,8.7-9.8c4.9,0,7.2,4,7.3,8.2l0,0v0.1h-11.9
		c0,4.8,2.2,8,6.3,8.1c2.6,0,4.9-1.6,5.7-4L477.5,322.1L477.5,322.1z M465.3,317.9h8.3c-0.1-4.3-1.2-8-3.9-8
		C466.9,310,465.4,313.6,465.3,317.9z M467.7,308.2h-0.3c1.4-1.8,2.2-3.5,2.7-5.2h4.2C472.3,305,470.3,306.8,467.7,308.2z"/>
</g>
</svg>
