<?xml version="1.0" encoding="utf-8"?>
<!-- Generator: Adobe Illustrator 24.0.1, SVG Export Plug-In . SVG Version: 6.00 Build 0)  -->
<svg version="1.1" id="Calque_1" xmlns="http://www.w3.org/2000/svg" xmlns:xlink="http://www.w3.org/1999/xlink" x="0px" y="0px"
	 viewBox="0 0 578 970.6" style="enable-background:new 0 0 578 970.6;" xml:space="preserve">
<style type="text/css">
	.st0{fill:none;stroke:#000000;}
	.st1{fill:none;stroke:#1D1D1B;stroke-miterlimit:10;}
	.st2{fill:#1D1D1B;}
</style>
<g>
	<g>
		<path d="M728.3,129.7v39.7h-16.1v-42.2c0-11.5-2.3-17.3-8.3-17.3c-6.9,0-13.1,7.3-14,24.2v35.5h-16V83.8c6.1-1,11.9-4.3,16-8.2
			V128c1.8-13,7.5-21.1,20.8-21.1C722.3,107,728.2,114.9,728.3,129.7z"/>
		<path d="M791.8,146c-2.6,12.9-12.2,24.6-26.6,24.6c-17.1,0-27.3-14.6-27.3-31.7s11.2-31.8,28.7-31.8c16.5,0,23.8,13.6,23.9,26.7
			h-0.2l0.2,0.2h-37c0.2,14.6,7.3,24.4,20,24.6c7.8,0,15.2-5,17.5-12.6H791.8L791.8,146z M753.5,133.1v0.4H777
			c-0.2-13.5-2.7-25.9-10.8-25.9C757.4,107.8,753.5,119.9,753.5,133.1z"/>
		<path d="M800.1,83.8c6.1-1,11.9-4.3,16-8.2v93.9h-16V83.8z"/>
		<path d="M827.8,83.8c6.1-1,11.9-4.3,16-8.2v93.9h-16V83.8z"/>
		<path d="M853.5,139c0-19.1,14.8-31.8,30.3-31.8c15.4,0,30.3,12.7,30.3,31.8c0,19-14.8,31.7-30.3,31.7
			C868.4,170.6,853.5,157.9,853.5,139z M896.5,139c0-21.3-3.4-31.3-12.7-31.3c-9.4,0-12.7,10-12.7,31.3c0,21.1,3.4,31.1,12.7,31.1
			C893.1,170.2,896.5,160.2,896.5,139z"/>
	</g>
	<path class="st0" d="M691.2,240.6H691c-10.8,0-16.9-5-16.9-17.8v-40.7L664,184v-0.4c10.8-2.3,18.2-17.5,18.7-27.8h0.4
		c4.4,3.5,6.9,8.3,5.8,12.9c-1,5-6.9,9.8-19.6,13.8l4.8-0.9l7.4-1.3l8.2-1.5l18.6-4.8v10l-18.4-4.8v41.2c0,7,3.1,10,8.1,10
		c5.7,0,9.6-5,11.9-12.6h0.6C708.1,229.4,704,240.4,691.2,240.6z"/>
	<path class="st0" d="M773.9,199.7v39.7h-16.1v-42.3c0-11.5-2.3-17.3-8.3-17.3c-6.9,0-13.1,7.3-14,24.2v35.5h-16v-85.8
		c6.1-1,11.9-4.3,16-8.2v52.4c1.8-13,7.5-21.1,20.8-21.1C767.8,176.9,773.8,184.8,773.9,199.7z"/>
	<path class="st0" d="M837.4,215.9c-2.6,12.9-12.2,24.6-26.6,24.6c-17.1,0-27.3-14.6-27.3-31.7s11.2-31.8,28.7-31.8
		c16.5,0,23.8,13.6,23.9,26.7l0,0l0.2,0.2h-37c0.2,14.6,7.3,24.4,20,24.6c7.8,0,15.2-5,17.5-12.6H837.4L837.4,215.9z M799.1,203v0.4
		h23.5c-0.2-13.5-2.7-25.9-10.8-25.9C803,177.7,799.1,189.8,799.1,203z"/>
	<path class="st0" d="M884.5,204h-0.4c0-9.6-1.9-24.7-9.8-24.7c-9.4-0.2-12.1,16-12.6,29.4v30.7h-16v-54c6.1-0.9,11.9-4.2,16-8.1
		v24.9c1-12.9,4.3-25.3,15.4-25.3C892.1,177.1,894.1,193.6,884.5,204z"/>
	<path class="st0" d="M947.7,215.9c-2.6,12.9-12.2,24.6-26.6,24.6c-17.1,0-27.3-14.6-27.3-31.7S905,177,922.5,177
		c16.5,0,23.8,13.6,23.9,26.7h-0.2l0.2,0.2h-37c0.2,14.6,7.3,24.4,20,24.6c7.8,0,15.2-5,17.5-12.6H947.7L947.7,215.9z M909.4,203
		v0.4h23.5c-0.2-13.5-2.7-25.9-10.8-25.9C913.3,177.7,909.4,189.8,909.4,203z"/>
	<g>
		<path d="M1094.8,299.8c0-3.3,2.6-5.9,5.9-5.9s5.8,2.7,5.8,5.9c0,3.3-2.6,5.9-5.8,5.9C1097.3,305.8,1094.8,303.2,1094.8,299.8z"/>
	</g>
	<g>
		<path d="M718.2,287.6c0,11.9-12.8,18.2-21.1,18.2c-17.3,0-31.4-9.4-20.5-21.7h0.4c1.2,8.9,8.7,21.4,20,21.2
			c8.9,0.1,14.2-4,14.2-9.3c0-6.3-5.9-7.7-15.8-11.5c-11.3-4.1-21.4-8.2-21.4-20.1c0-11.5,11.8-17.7,20.7-17.7
			c18,0,27.3,11,18.2,20.6h-0.4c-0.6-8.8-5.4-20.3-16.9-20.1c-10.5-0.1-14.7,5.2-14.7,9.9c0,5.1,6.3,7.2,16.8,11.3
			C708.5,272.5,718.2,275.3,718.2,287.6z"/>
		<path d="M744.7,305.7L744.7,305.7c-10.1,0-15.8-4.6-15.8-16.5v-37.8l-9.4,1.8v-0.4c10-2.2,16.9-16.3,17.4-25.8h0.4
			c4.1,3.3,6.4,7.7,5.4,11.9c-1,4.6-6.4,9.2-18.2,12.8l4.5-0.8l6.9-1.2l7.6-1.4l17.3-4.5v9.3l-17.1-4.5V287c0,6.5,2.9,9.3,7.5,9.3
			c5.3,0,8.9-4.6,11.1-11.7h0.6C760.4,295.3,756.6,305.6,744.7,305.7z"/>
		<path d="M805.8,271.7h-0.4c0-8.9-1.8-22.9-9-22.9c-8.7-0.1-11.2,14.8-11.7,27.3v28.6h-14.8v-50.1c5.7-0.8,11.1-3.9,14.8-7.5v23.2
			c1-11.9,4-23.5,14.4-23.5C812.9,246.7,814.9,262.2,805.8,271.7z"/>
		<path d="M872.7,304.5v0.2c-14.7,2.5-23.3,0.4-24.4-11.8c-0.8,7-4.5,12.8-14.2,12.8c-12.3,0-19.9-5.7-20.1-16.5
			c0.2-9.9,8.8-15.2,20.8-16.7l13.5-1.4v-10.3c0-8.9-3.4-13.6-10-13.6c-11.2-0.1-15.3,12.2-16.5,21.1h-0.4
			c-9-9.5-0.1-21.6,17.1-21.6c16.2,0,24.7,6,24.7,17.5v25.9C863,299.8,863.9,304,872.7,304.5z M848.2,288.7v-17.1
			c-2.3,0.2-4.6,0.6-6.9,0.8c-8.3,1.1-11.9,7.8-11.9,16.8c0,7.1,2.4,15,8.3,15C843.8,304.1,848.2,298.6,848.2,288.7z"/>
		<path d="M928.3,267.7v36.9h-15v-39.3c0-10.7-2.2-16-7.7-16c-6.4,0-12.2,6.8-13,22.4v32.9h-14.8v-50.1c5.7-0.8,11.1-3.9,14.8-7.5
			v19.1c1.7-12.1,7-19.5,19.3-19.5C922.7,246.6,928.2,254,928.3,267.7z"/>
		<path d="M991.1,311c0,13.3-16.5,17.7-25.5,17.7c-7.7,0-25.5-2.1-25.5-12.4c0-8.3,11-10.3,21.4-10.9l0.2,0.2c-5.7,0.8-8,5.2-8,10.6
			c0,5.6,5.1,12.1,11.8,12.1c8.2,0,12.8-5.2,12.8-11.9c0-7.8-4.6-11.6-13.6-12.7c-16.5-1.9-28.6-2.9-28.6-13.3
			c0-6.6,5.3-9.8,13.3-10.9c-4.7-2.8-8.3-7.2-8.3-13.8c0-13.5,14.8-19.2,24-19.2h0.1l0.4-0.2c9.2,0,17.1-12.4,18.2-21.3h0.4
			c8.7,11.8-2.7,21-17.1,21.7c9.2,0.6,22.1,6.4,22.1,19.1c0,13.4-14.8,17.7-24,17.7c-4.6,0-10.5-1.1-15.3-3.7
			c-3.9,1-6.9,2.7-6.9,5.9c0,3.7,5.3,4.3,24,6.8C984.1,294.9,991.1,302,991.1,311z M955.6,265.9c0,7.8,1.4,17.4,9.5,17.4
			s9.5-9.5,9.5-17.4c0-7.8-1.4-18.8-9.5-18.8C957.1,247.1,955.6,258.1,955.6,265.9z"/>
		<path d="M1045.5,282.8c-2.4,11.9-11.3,22.9-24.7,22.9c-15.9,0-25.3-13.6-25.3-29.4c0-15.9,10.4-29.6,26.7-29.6
			c15.3,0,22.1,12.7,22.2,24.9h-0.1l0.1,0.1H1010c0.2,13.6,6.8,22.7,18.6,22.8c7.2,0,14.1-4.6,16.3-11.7L1045.5,282.8L1045.5,282.8z
			 M1010,270.8v0.4h21.8c-0.1-12.5-2.5-24-10-24C1013.6,247.3,1010,258.5,1010,270.8z"/>
		<path d="M1089.3,271.7h-0.4c0-8.9-1.8-22.9-9-22.9c-8.7-0.1-11.2,14.8-11.7,27.3v28.6h-14.8v-50.1c5.7-0.8,11.1-3.9,14.8-7.5v23.2
			c1-11.9,4-23.5,14.4-23.5C1096.4,246.7,1098.3,262.2,1089.3,271.7z"/>
	</g>
</g>
<g>
	<path class="st1" d="M58,138.1c-0.1,19.2-10.6,31.3-23.9,31.3c-10.9,0-16.7-11-18.4-23.5v22.4H0V83.9c6-1,11.8-4.2,15.7-8.1v53.9
		c1.7-13.2,7.5-23,18.4-23C48.3,106.8,57.9,118.9,58,138.1z M41.6,138.1c0-19-5.9-29-11.5-29c-7.2,0-14.3,9.6-14.3,29
		c0,17.8,7.3,29,14.3,29C35.9,167.1,41.6,157.1,41.6,138.1z"/>
	<path class="st1" d="M66.7,91.2c0-4.9,4.2-8.8,9.8-8.8c5.8,0,9.8,4,9.8,8.8c0,5-4.1,8.8-9.8,8.8C70.9,100,66.7,96.2,66.7,91.2z
		 M68.6,115.2c6-0.9,11.9-4.1,15.8-7.9v61H68.6V115.2z"/>
	<path class="st1" d="M148.1,145.1c-2.6,12.7-12,24.3-26.2,24.3c-16.9,0-26.8-14.4-26.8-31.2c0-16.9,11-31.3,28.2-31.3
		c16.2,0,23.4,13.4,23.5,26.3h-0.1l0.1,0.1h-36.4c0.3,14.4,7.2,24,19.7,24.2c7.7,0,15-4.9,17.3-12.4
		C147.4,145.1,148.1,145.1,148.1,145.1z M110.4,132.5v0.4h23.1c-0.1-13.3-2.7-25.4-10.6-25.4C114.2,107.5,110.4,119.4,110.4,132.5z"
		/>
	<path class="st1" d="M208.9,129.1v39.1h-15.8v-41.6c0-11.4-2.3-17-8.2-17c-6.8,0-12.9,7.2-13.8,23.8v34.9h-15.7v-53
		c6-0.9,11.8-4.1,15.7-7.9v20.2c1.8-12.8,7.4-20.7,20.4-20.7C202.9,106.8,208.8,114.6,208.9,129.1z"/>
	<path class="st1" d="M245.1,83.9c6-1,11.8-4.2,15.7-8.1v92.4h-15.7L245.1,83.9L245.1,83.9z"/>
	<path class="st1" d="M322.5,145.1c-2.6,12.7-12,24.3-26.2,24.3c-16.9,0-26.8-14.4-26.8-31.2c0-16.9,11-31.3,28.2-31.3
		c16.2,0,23.4,13.4,23.5,26.3h-0.1l0.1,0.1h-36.4c0.3,14.4,7.2,24,19.7,24.2c7.7,0,15-4.9,17.3-12.4
		C321.8,145.1,322.5,145.1,322.5,145.1z M284.8,132.5v0.4h23.1c-0.1-13.3-2.7-25.4-10.6-25.4C288.7,107.5,284.8,119.4,284.8,132.5z"
		/>
</g>
<g>
	<g>
		<path class="st2" d="M77.4,207.8c1.4,13.3-15.8,22.6-31.6,22.8c-13.1,0-19.1-8.2-21.6-17.5c-0.1,5.5-0.7,11.1-1.8,16.8
			c-7.1,0.1-14.6,0.2-22.4,0.4c0-21.7,0-43.3,0-65c7.3-0.9,13.7-3.7,17.5-7.4c2.1,15.8,5,29.8,6.3,43.2c1.6-9.8,7.7-17.2,20.6-17
			C60.7,184.4,75.2,194.5,77.4,207.8z M58.4,207.7c-1.7-13.5-12-21.7-18.4-21.8c-8.7-0.2-16.3,7.1-15.7,21.5
			c0.7,13.2,8.6,21.6,17.2,21.5C48.4,228.8,59.4,221.1,58.4,207.7z"/>
		<path class="st2" d="M84.8,207.9c-1.9-12.9,8.3-23.1,22.5-23.4c13.9-0.1,30.3,10.2,33.4,23.2c3.2,12.9-15.1,23.2-29.9,23.1
			C96.2,230.4,86.7,220.8,84.8,207.9z M125.7,207.9c-3.4-14.5-10.2-23.1-18.3-22.9c-8.9,0.1-7.9,8.6-5,23c2,14.2-0.7,22.3,8.6,22.4
			C119.4,230.4,128.3,222.1,125.7,207.9z"/>
		<path class="st2" d="M188.1,200c2.6,9.9,4.7,18.9,3,31.1c-4.3-0.1-8.6-0.2-13-0.3c2.7-12.6,0.2-21.8-2.7-32.3
			c-2.4-8.6-5.1-13.5-9.9-13.3c-5.6,0.2-8.7,6.8-5.9,18.7c2.3,8.4,3.2,16.3,0.1,26.5c-4.4-0.1-8.9-0.2-13.5-0.2
			c5.5-15,0.9-25.5-3.4-39.5c4.7-0.8,8.7-3.5,11.1-6.9c1.4,5.8,3,11,4.5,15.9c-1.5-9.4,1.4-16.6,11.9-17.1
			C179.6,182.2,185.2,189.2,188.1,200z"/>
		<path class="st2" d="M194.4,188.7c4.2-1,7.7-3.5,11.6-7.5c1.6,21,8.6,33.5,7.1,58c-0.3,13.1-4.4,26.3-17.2,25.1
			c-14.7-1.6-16-17.6-14.8-26.5c0.2,0,0.5,0,0.7,0c0,5.7,2.6,10.7,8.3,11c5.9,0.4,9.2-5.4,10-12.8
			C202.6,216.5,197.3,204.8,194.4,188.7C194.4,188.7,194.4,188.7,194.4,188.7z M190,165.6c-0.4-5.7,2.8-11.6,7.8-12.1
			c5.2-0.5,9.1,5.1,9.1,10.8c0,6-3.5,9.9-8.2,10.3C194,174.8,190.3,171.4,190,165.6z"/>
		<path class="st2" d="M216.9,206.4c-3.6-14.3,7.7-26.4,21-27.5c13.3-0.8,24.8,11.1,26.7,27.4c2.2,16.1-6,28.7-19.4,28.1
			C231.6,233.4,219.9,220.5,216.9,206.4z M250.1,206.2c-2.6-17.5-4.1-27.3-12.2-26.8c-7.8,0.6-11.1,10.3-7.7,26.9
			c3.2,16.5,6.8,27.2,14.9,27.6C253.1,234.3,253,223.5,250.1,206.2z"/>
		<path class="st2" d="M327.9,175.9c-4.2,23-5.3,40.2,4.5,63c-5.8-0.4-11.4-0.9-16.9-1.2c-3.5-8.1-5.6-15.4-6.8-22.5
			c0.4,13.6-1.2,23.2-13,22.4c-12.4-0.8-19.5-8.6-21.9-20c-2.2-10.6-2.9-20.3-2.2-31.4c5.6-1.1,11.4-4.4,15.9-8.6
			c-2.4,17.2-2.4,30.3,1.9,46.1c1.9,6.9,5.9,10.7,10.5,11c7.2,0.5,9.4-8.7,8-27.8c-0.4-7.1,0.1-14.2,1.1-21.9
			C315.5,183.9,322.5,180.4,327.9,175.9z"/>
		<path class="st2" d="M389.2,203.4c-0.2,0-0.4,0-0.6,0c0-10.9-2.2-28-12.5-27.8c-12.2,0.4-18.8,18.6-19.1,32.4
			c0.2,10.8,2.1,21.5,5.9,33.2c-6.3-0.5-12.5-1-18.5-1.5c-8.3-20.2-8.4-36.6-5.3-56.1c7.3-1.1,15.2-4.9,20.9-9.5
			c-1.4,9.7-2.6,18.6-2.9,27.4c2-13.5,8.4-27.9,23.2-28.4C400.1,172.3,404.9,191.7,389.2,203.4z"/>
	</g>
</g>
<g>
	<path class="st1" d="M300.2,228.8c0,9.1-4,20.3-15.3,23.5l-0.3-0.3c8.8-3.7,11.6-14.1,11.4-20.6c-1,1.8-2.9,2.9-5.9,2.9
		c-5.4,0-8.7-4.6-8.7-9.1c0-5.5,4-9.5,9.3-9.5C297.1,215.8,300.2,222.1,300.2,228.8z"/>
	<path class="st1" d="M86,268.9v39.4H69.7v-47.7c0-7.2-1.8-10.9-6.8-10.9c-6.9,0-12.1,8.8-12.1,28.4v30.2H34.5v-47.7
		c0-7.2-1.8-10.9-6.8-10.9c-6.3,0-11.1,7.3-12,23.3v35.3H0v-53c6-0.9,11.8-4.1,15.7-7.9v19.3c1.7-12.3,6.6-19.8,18.8-19.8
		c11.8,0,16,7.3,16.4,21.1c1.4-13,6.4-21.1,18.9-21.1C81.6,246.8,85.8,254.4,86,268.9z"/>
	<path class="st1" d="M94.5,278.2c0-18.8,14.6-31.3,29.8-31.3s29.8,12.5,29.8,31.3c0,18.7-14.6,31.2-29.8,31.2
		S94.5,296.9,94.5,278.2z M136.8,278.2c0-21-3.3-30.8-12.5-30.8s-12.5,9.8-12.5,30.8c0,20.8,3.3,30.7,12.5,30.7
		S136.8,299,136.8,278.2z"/>
	<path class="st1" d="M162.8,231.2c0-4.9,4.2-8.8,9.8-8.8c5.8,0,9.8,4,9.8,8.8c0,5-4.1,8.8-9.8,8.8C167,240,162.8,236.2,162.8,231.2
		z M164.7,255.2c6-0.9,11.9-4.1,15.8-7.9v61h-15.8V255.2z"/>
	<path class="st1" d="M270.9,285.1c-3.1,15.2-13.5,24.3-26.7,24.3c-17.3,0-27.4-14.2-27.4-31.2c0-17.3,11.1-31.3,30.2-31.3
		c16.2,0,27.1,13,17.5,22.9h-0.4c-1.3-9.1-6.3-22.4-16.6-22.4c-10.7,0.1-15.3,12.5-15.3,25c0,14.6,6.5,24.9,19.7,25
		c7.8,0,14.4-4.1,18.3-12.4h0.7V285.1z"/>
	<path class="st1" d="M358.7,285.1c-2.6,12.7-12,24.3-26.2,24.3c-16.9,0-26.8-14.4-26.8-31.2c0-16.9,11-31.3,28.2-31.3
		c16.2,0,23.4,13.4,23.5,26.3h-0.1l0.1,0.1H321c0.3,14.4,7.2,24,19.7,24.2c7.7,0,15-4.9,17.3-12.4H358.7L358.7,285.1z M321,272.5
		v0.4h23.1c-0.1-13.3-2.7-25.4-10.6-25.4C324.8,247.5,321,259.4,321,272.5z"/>
	<path class="st1" d="M412.4,290.2c0,12.7-13.5,19.3-22.4,19.3c-18.3,0-33.2-10-21.7-23h0.4c1.3,9.5,9.2,22.6,21.2,22.5
		c9.5,0.1,15.1-4.2,15.1-9.8c0-6.6-6.3-8.2-16.7-12.1c-12-4.3-22.6-8.7-22.6-21.3c0-12.1,12.5-18.8,22-18.8
		c19,0,28.9,11.6,19.3,21.9h-0.4c-0.6-9.3-5.8-21.5-17.9-21.3c-11.1-0.1-15.6,5.5-15.6,10.5c0,5.4,6.6,7.7,17.8,12
		C402.1,274.3,412.4,277.2,412.4,290.2z"/>
	<path class="st1" d="M442.1,309.4H442c-10.6,0-16.6-4.9-16.6-17.5v-40l-10,1.9v-0.4c10.6-2.3,17.9-17.3,18.4-27.4h0.4
		c4.3,3.5,6.8,8.2,5.8,12.7c-1,4.9-6.8,9.7-19.3,13.5l4.7-0.9l7.3-1.3l8.1-1.5l18.3-4.7v9.8l-18.1-4.7v40.6c0,6.9,3.1,9.8,7.9,9.8
		c5.6,0,9.5-4.9,11.8-12.4h0.6C458.8,298.4,454.7,309.3,442.1,309.4z"/>
</g>
<g>
	<g>
		<path class="st2" d="M61.9,329.6c8.4,26.4,22.6,46.7-4.1,74.2c-5.2,0-10.5,0-15.7,0c12.7-16.1,14.1-30.3,11.7-44.8
			c0,11-9.2,20.9-22.5,20.9C15,379.8,0.3,367.5,0,348.1c0.7-19.2,11.1-30.1,25.4-29.2c10.8,0.8,18.7,11.2,24.3,23.2
			c-1.9-6.9-4-14-5.6-21.5C48.9,324.9,55.6,328.4,61.9,329.6z M52.9,354.6c-0.6-2.6-1.2-5.2-1.9-7.8c-5.7-15.6-14.4-24.9-21-25.3
			c-6-0.4-10.7,9.4-8.9,27.9c1.9,18.5,8.5,28.2,15.4,28.2C44.6,377.7,55,368.8,52.9,354.6z"/>
		<path class="st2" d="M119.6,323.3c5.5,20.9,24.7,35.5,21.8,54c-5.2,0.2-10.4,0.3-15.7,0.5c1.3-6.6-0.2-12.8-2.9-19
			c3.8,12-5.9,20.4-18.4,20.7c-13.8,0.3-16.6-5.8-19-16.7c-2.2-10.2-7.6-20.4-11.7-31.9c5.5-0.7,9.6-3.8,12.1-7.7
			c4.8,16.9,15.5,30.4,17.5,44.5c0.8,6.2,2.6,9.1,7.7,8.9c6.9-0.2,18.1-8.2,8.3-25.2c-3.5-6.4-7.6-12.9-10.7-20.1
			C113.3,330.5,117.1,327.3,119.6,323.3z"/>
		<path class="st2" d="M191.3,354.4c5.8,10.6-2,22.1-15.7,22.6c-15.2,0.4-23.5-12.2-33.5-26.2c-10.2-14-5.7-28.9,10.2-29.4
			c13.7-0.1,22.4,12.6,31,23.1c0,0-0.1,0-0.1,0c0,0,0.1,0.1,0.1,0.1c-10.1,0.6-20.2,1.1-30.6,1.5c8.9,12.1,17.9,19.9,28.8,19.7
			c6.8-0.3,11.5-5,9.2-11.4C191,354.5,191.2,354.5,191.3,354.4z M152.3,345.5c0.1,0.1,0.2,0.2,0.2,0.3c6.6-0.3,13.1-0.6,19.5-0.9
			c-8.6-10.9-13.4-22.8-19.9-22.8C144.1,322.4,144.1,334.6,152.3,345.5z"/>
		<path class="st2" d="M234.5,338.3c6,11,15.9,21.6,18.8,35c-4.6,0.1-9.2,0.2-13.7,0.3c-2.5-14.1-13.7-25.1-20.1-36.8
			c-5.2-9.6-6.4-14.9-11.9-14.7c-6,0.2-12.3,7.6-3.3,21.4c6.6,9.7,14.7,19.2,16.1,30.7c-4.6,0.2-9.2,0.3-13.8,0.5
			c-1.2-17.3-18.6-30-23.9-46.2c4.9-1.1,9-4.2,12.5-8.1c0,6.6,2.6,12.5,6,18.2c-5.3-10.9,0.5-18.9,12.5-19.4
			C224.4,318.8,227.6,326.2,234.5,338.3z"/>
		<path class="st2" d="M282.2,374.2C282.2,374.2,282.2,374.2,282.2,374.2c-9.7,0.1-15.3-5.4-21.8-16.9c-6.9-12-15.8-22.5-15.9-34.6
			c-3.2,0.7-6.3,1.4-9.3,2.1c0-0.1,0-0.2,0-0.4c8.9-2.4,17.6-16.3,31.6-27.9c0.1,0,0.3,0,0.4,0c0.1,3.9-1.6,8.8-4.9,13.3
			c-3.6,4.9-10.5,9.5-22.2,13.3c1.5-0.3,3-0.7,4.5-1c2.3-0.5,4.7-1,7.1-1.4c2.7-0.5,5.4-1.1,8.2-1.6c6.3-1.6,12.9-3.3,19.8-4.9
			c-1.1,3.1-1.6,6-1.7,8.9c-6.2-1.2-12.2-2.5-18-3.7c-1.8,12.4,6.1,23.2,13,35.4c3.5,6.2,7.4,9.1,11.7,9.1c5,0,6.5-4.8,5.1-11.6
			c0.2,0,0.4,0,0.6,0C293.7,362.6,293.7,374,282.2,374.2z"/>
		<path class="st2" d="M298.3,301.7c4.1-5,13.5-9.3,19-9.3c5.7,0,5.2,4.3,1.7,9.1c-3.7,5-9.6,8.6-15.9,8.7
			C297.2,310.3,294.1,306.8,298.3,301.7z M291.4,324.3c6.4-0.9,12.9-3.9,18.1-7.4c-4.4,18.8,8.5,35.4,14.2,56.9
			c-5-0.2-9.9-0.3-14.8-0.4C303.7,354.6,291.5,340.1,291.4,324.3z"/>
		<path class="st2" d="M392.3,339.1c0,13,0,26.1,0,39.1c-5.8-0.6-11.6-1.1-17.2-1.5c-1.4-14.2-3.5-27.7-4.1-41.2
			c-0.5-11-2.9-16.5-10.5-16.6c-8.4-0.1-18,6.7-16.2,22c2,10.9,5.6,22,8,34.1c-5.3-0.3-10.5-0.6-15.6-0.9
			c-4.5-18.6-13.2-34.1-12.7-50.2c7-0.8,14.2-3.7,19.6-7.3c-1.1,6.3-1,12.6-0.2,18.8c0.7-11.8,9.3-19.3,25.8-19.1
			C383.8,316.5,392,324.5,392.3,339.1z"/>
	</g>
</g>
<g>
	<g>
		<path class="st2" d="M0,375.4c7.6-0.9,14.1-3.4,17.1-6.9c8.6,25.5,15.2,42.8-0.1,67.3c-5.5,0-11.2,0.1-17,0.3
			C0,415.8,0,395.6,0,375.4z"/>
		<path class="st2" d="M98.6,417.8c-8.3,8.6-33.2,20.2-46.4,19.6c-14.5-1-14.1-12.9-12.6-24c3-11.5,13.9-21,33.1-21
			c18,0.3,30.2,9.3,28.3,17.4c0,0-0.1,0-0.1,0c0,0,0.1,0,0.1,0.1c-12-0.1-25.2-0.1-40.4-0.1c-1.2,9.4-1,16.9,11.6,17.2
			c7.8,0.1,19.7-4,25.7-9.2C98.2,417.8,98.4,417.8,98.6,417.8z M60.8,409.3c0,0.1,0,0.2,0,0.3c9.7-0.1,18.5-0.1,26.7,0
			c1.7-8.4-6.2-16.5-14.9-16.7C62.6,392.8,62.3,400.8,60.8,409.3z"/>
		<path class="st2" d="M179.8,407.8c0.5,9.6-6.1,18.1-14.7,36.2c-5.1-0.5-10.1-0.9-15.2-1.3c14.5-20.8,20-29.2,17.6-40.6
			c-0.8-4.9-3.1-7.7-6.9-7.7c-6.2,0.3-5,6.3-8.2,19.4c-2.2,7.2-9,14.6-20,27.4c-5-0.4-10-0.8-15-1.2c19.8-18.8,25-27.1,22.7-38
			c-1-4.7-3.7-7.4-7.9-7.4c-5.9,0.1-5.8,5.1-7.9,15.3c-1.6,7.8-8.7,15.6-24.2,28.8c-4.8-0.3-9.6-0.6-14.4-0.9
			c23.5-18.6,27.5-27.5,23.4-39.5c5.4-0.6,9.8-2.6,12-5.4c2.1,4.6,3.5,8.7,3.6,12.9c1-7.8,1.9-13.2,12.4-13.3
			c9.5,0,15.7,5.4,16.4,14.4c0.7-8.5,1.7-14.5,11.6-14.8C174.1,392,179.4,397.8,179.8,407.8z"/>
		<path class="st2" d="M235.4,450c0.1,0.2,0.1,0.3,0.2,0.5c-13.6,3.8-27.9-3.8-26-18.5c-2.3,7.8-4.5,17.3-15,16.4
			c-13.9-1.2-18.3-11.9-12.7-22.3c4.6-9.4,11-12.8,20.4-13.9c3.5-0.3,6.9-0.6,10.4-1c0.1-2.9,0.1-5.6,0-8.4
			c-0.3-7.3-3.2-11.4-8.5-11.2c-9.2,0.5-10.5,10.4-11.6,17.1c-0.1,0-0.2,0-0.4,0c-6.7-7.2-2.1-16.6,12-17.5
			c13.1-0.5,20.1,4.8,20.1,14.4c0.1,7.3-0.7,14.6-1.5,24.2C221.8,440.5,225.4,448.5,235.4,450z M210.3,427.3c1.2-6,2-11,2.3-15.7
			c-1.8,0.2-3.6,0.4-5.3,0.6c-6.4,0.9-9.6,5.8-12.8,14.7c-2.8,6.7-2.9,18.4,3.7,19.3C204.7,446.8,208.1,437.6,210.3,427.3z"/>
		<path class="st2" d="M239,372.8c0.8-6.2,5.4-13.3,10.8-13.9c5.6-0.6,8.2,5.9,6.9,12.2c-1.3,6.6-5.7,10.8-10.6,11.2
			C241.2,382.6,238.2,379.2,239,372.8z M237.9,397c4.8-0.9,9.8-3.8,13.7-7.6c-2,9.6-1.4,17.9-1.7,27.2c0.3,9.3-0.2,19.6,9.6,35.8
			c-5.5-0.5-11-0.9-16.5-1.4c-6.8-14.1-5.8-23.2-5.8-31.4C237.8,411.5,237.2,404.4,237.9,397C237.9,397,237.9,397,237.9,397z"/>
		<path class="st2" d="M296.6,414c-0.1,0-0.3,0-0.4,0c-1-9.5,0.9-24.7-6.7-24.6c-9.2,0.9-15.4,15.8-14.3,28.4
			c1.5,10.1,2.4,20.9,15.5,37.1c-5.6-0.4-11.3-0.9-16.8-1.4c-10.2-14.2-11.4-24-12.3-32.7c-0.5-8.6-0.8-16.3,0.6-24.4
			c5.3-1,11.1-4.1,15.7-8.3c-2,8.6-3.1,15.9-3,23.7c0.7-11.7,6.9-23.9,18-24.9C308,386.2,305.6,404.2,296.6,414z"/>
		<path class="st2" d="M384.3,431.7c-5.6,16.3-13.5,30.7-26.2,30c-17.3-1.4-46-24.7-47.5-42.1c-2.6-17.5,15.4-33.7,37.5-35.8
			c20.9-1.5,33.3,15,33.8,32.2c-0.1,0-0.1,0-0.2,0c0.1,0,0.1,0.1,0.2,0.1c-21-0.4-38.5-0.8-53.8-1.3c1.7,15.9,17,29.5,32.5,31.2
			c9.5,0.8,18.4-4.7,22.4-14.3C383.5,431.6,383.9,431.6,384.3,431.7z M328.2,413.9c0,0.1,0,0.3,0,0.4c9.7,0.3,20.3,0.5,32.1,0.8
			c-1-16.3-2.3-31.2-12.8-30.6C336.3,385.5,327.4,399.6,328.2,413.9z"/>
	</g>
</g>
<g>
	<path class="st1" d="M21.8,465.1c5.6-1,10.5-3.7,15.7-7.8v68c0,12-5.9,19.2-17.6,19.2c-13,0-18.3-10-19.9-19.2h0.8
		c1.7,5.5,5.8,9.1,11.9,9.1c6.3,0,9.2-4.3,9.2-11.5v-57.8L21.8,465.1L21.8,465.1z M19.1,441.2c0-4.9,4.2-8.8,9.8-8.8
		c5.8,0,10,4,10,8.8c0,5-4.2,8.8-10,8.8C23.4,450,19.1,446.2,19.1,441.2z"/>
	<path class="st1" d="M100.2,495.1c-2.6,12.7-12,24.3-26.2,24.3c-16.9,0-26.8-14.4-26.8-31.2c0-16.9,11-31.3,28.2-31.3
		c16.2,0,23.4,13.4,23.5,26.3h-0.1l0.1,0.1H62.5c0.3,14.4,7.2,24,19.7,24.2c7.7,0,15-4.9,17.3-12.4L100.2,495.1L100.2,495.1z
		 M62.5,482.5v0.4h23.1c-0.1-13.3-2.7-25.4-10.6-25.4C66.3,457.5,62.5,469.4,62.5,482.5z"/>
	<path class="st1" d="M181.3,500.2c0,12.7-13.5,19.3-22.4,19.3c-18.3,0-33.2-10-21.7-23h0.4c1.3,9.5,9.2,22.6,21.2,22.5
		c9.5,0.1,15.1-4.2,15.1-9.8c0-6.6-6.3-8.2-16.7-12.1c-12-4.3-22.6-8.7-22.6-21.3c0-12.1,12.5-18.8,22-18.8
		c19,0,28.9,11.6,19.3,21.9h-0.4c-0.6-9.3-5.8-21.5-17.9-21.3c-11.1-0.1-15.6,5.5-15.6,10.5c0,5.4,6.6,7.7,17.8,12
		C171.1,484.3,181.3,487.2,181.3,500.2z"/>
	<path class="st1" d="M244.5,458.1v60.2h-15.8v-21.7c-1.8,14.1-8.4,22.9-20.3,22.9c-12.8,0-17.4-6.6-17.5-18.9l0.1-34.5
		c6-0.9,11.8-4.1,15.7-7.9v48.2c0,7,2.6,10.2,7.3,10.2c6.9,0,14.7-8.6,14.7-28.5V466C234.6,465.1,240.5,461.9,244.5,458.1z"/>
	<path class="st1" d="M256,441.2c0-4.9,4.2-8.8,9.8-8.8c5.8,0,9.8,4,9.8,8.8c0,5-4.1,8.8-9.8,8.8C260.2,450,256,446.2,256,441.2z
		 M257.9,465.2c6-0.9,11.9-4.1,15.8-7.9v61h-15.8V465.2z"/>
	<path class="st1" d="M333.5,500.2c0,12.7-13.5,19.3-22.4,19.3c-18.3,0-33.2-10-21.7-23h0.4c1.3,9.5,9.2,22.6,21.2,22.5
		c9.5,0.1,15.1-4.2,15.1-9.8c0-6.6-6.3-8.2-16.7-12.1c-12-4.3-22.6-8.7-22.6-21.3c0-12.1,12.5-18.8,22-18.8
		c19,0,28.9,11.6,19.3,21.9h-0.4c-0.6-9.3-5.8-21.5-17.9-21.3c-11.1-0.1-15.6,5.5-15.6,10.5c0,5.4,6.6,7.7,17.8,12
		C323.3,484.3,333.5,487.2,333.5,500.2z"/>
</g>
<g>
	<g>
		<path class="st2" d="M57.9,485.1c-4.8,46.3,43.2,75,1.8,113.5c-5.4,0.3-10.7,0.6-16.1,0.9c7.9-9.4,11.7-18.4,13-27.2
			c-4,14.8-22.6,29.1-32.7,29.8C12.7,602.9,1.7,587.9,0,562.7c0.8-25.1,12.5-39.7,28.1-38.5c11.9,1,22.6,13.6,28,29.1
			C53,535.4,44,517,42.3,495.7C48.2,494.8,53.4,490.7,57.9,485.1z M57.1,563.2c-2.3-22.6-16.7-35.1-23.7-35.7
			c-6.7-0.5-10.8,11.7-10.5,35.5c0.7,23.8,1.2,36.2,6.7,35.9C35.8,598.5,57.6,583.9,57.1,563.2z"/>
		<path class="st2" d="M70.5,507.7c-1.6-6.5,2.4-11.9,7.9-11.6c5.7,0.4,9.3,6.5,10.9,12.8c1.7,6.6,0,11-5.6,10.7
			C78.3,519.3,72,514.4,70.5,507.7z M84.2,537.4c6-0.8,10.1-4.3,11.5-8.5c12.7,23.8,29.5,42.9-6.4,68.2c-5.3,0.3-10.7,0.6-16.1,0.9
			C101,575.9,93.9,557.7,84.2,537.4z"/>
		<path class="st2" d="M163.3,556.6c-0.1,0-0.3,0-0.4,0c-4.3-9-19.7-24.1-26.2-24.5c-9.4-0.1,3.2,16.5,5.5,29.8
			c2,10.3-3,20.9-23.4,33.5c-5.3,0.3-10.6,0.6-15.9,0.9c33.6-22,23.6-38.7,11.4-58c5.4-0.9,8.6-4.2,9.5-8.4
			c5.9,9.1,12.8,17.4,16.4,25.7c-5.2-12.7-13.3-25.9-2.6-25.8C150.2,530.5,167.8,546.8,163.3,556.6z"/>
		<path class="st2" d="M227.5,564.9c0.7,11.9-34.1,27.4-49.3,28.3c-8.9,0.5-5.8-3.9-3.3-10.1c2.9-6.2,5.1-14.3,2.2-22.3
			c-6.6-16.1-13.6-30.5,3-30.5c13.1,0.4,32.4,12.7,41.8,23.8c0,0-0.1,0-0.1,0c0.1,0,0.1,0.1,0.2,0.1c-10.5,0.5-21.3,1-32.5,1.4
			c8.8,13.3,3.8,23.5,15.8,23c7.3-0.4,19.9-6.4,21.5-13.7C227.1,564.9,227.3,564.9,227.5,564.9C227.5,564.9,227.5,564.9,227.5,564.9
			z M189,554.8c0.1,0.1,0.2,0.2,0.2,0.4c7.1-0.3,14-0.6,20.8-0.9c-9.4-11.7-23.9-23.2-29.9-23.4C171.9,531,180.6,542.8,189,554.8z"
			/>
		<path class="st2" d="M280.2,561.8c2.1,14-29.2,27.3-42.2,28c-16.7,0.7,3.9-16.8-6.8-31.6c-4.1-7.8-9.7-14.5-10.2-19.7
			c-0.8-5.1,3.5-8.5,11.5-8.5c13.2,0.1,32.8,10.6,33.5,18.9c-0.1,0-0.2,0-0.3,0c-9-7.3-24.3-18.3-32.4-18.4
			c-10.1,0.3-2.2,11.3,7.7,21.9c11.4,12.4,8,23.3,20.1,22.7c6.9-0.4,17.1-5.5,18.4-13.3C279.8,561.7,280,561.7,280.2,561.8
			C280.2,561.7,280.2,561.8,280.2,561.8z"/>
		<path class="st2" d="M293.8,586.6C293.8,586.6,293.8,586.6,293.8,586.6c-12,0.8-4.9-6.2-2.3-18.9c1.5-13.3-15-23-24.4-33.9
			c-2.4,0.6-4.8,1.2-7.1,1.8c-0.1-0.1-0.2-0.2-0.3-0.3c6.7-2.1,2.4-14.3,12.7-25.3c0.1,0,0.3,0,0.4,0c1.2,3.9,1.8,8.5,1.4,12.5
			c-0.4,4.4-3,8.3-10.9,11.7c1.1-0.3,2.2-0.6,3.4-0.8c1.8-0.4,3.6-0.8,5.4-1.2c2-0.5,4.1-0.9,6.2-1.4c4.5-1.4,9.3-2.7,14.4-4
			c1,2.7,2.7,5.2,4.8,7.8c-6.4-1.1-12.6-2.2-18.8-3.4c7.7,11,25,20.6,26.4,33.5c0.4,6.7,0.4,9.9,5.1,9.6c5.1-0.3,11.7-6,11.3-12.9
			c0.2,0,0.3,0,0.5,0C325.1,571.5,307.6,585.6,293.8,586.6z"/>
		<path class="st2" d="M373.5,557.7c5,10.6-11.5,24.8-26.9,25.8c-16.6,0.9-9.9-16.7-23-30.1c-5.5-7-10.2-12.9-9.5-17.3
			c0.4-4.4,6.3-7.2,14.4-7.2c15,0.1,27.7,9.4,37.1,19.2c0,0-0.1,0-0.1,0c0.1,0,0.1,0.1,0.2,0.1c-11.1,0.2-21.8,0.5-32.3,0.8
			c11.4,11.2,15.3,21.2,26.7,20.9c7-0.3,14.2-5.7,12.8-12.1C373,557.7,373.2,557.7,373.5,557.7C373.5,557.7,373.5,557.7,373.5,557.7
			z M332.8,548.3c0.1,0.1,0.2,0.2,0.3,0.3c6.7-0.2,13.5-0.4,20.4-0.6c-10.1-10.1-18-18.6-25-18.7
			C319.2,529.5,322.1,538.2,332.8,548.3z"/>
		<path class="st2" d="M420,530.4c1.7,13.9,17.4,27.6,14.6,47.1c-5.2,0.3-10.5,0.6-15.7,0.8c1.7-7.5,0.3-14-2.3-19.9
			c3.9,11.5-6.1,21.6-18.3,22.3c-13.4,0.9-11.9-7.1-15.5-18.3c-3.3-10.4-13.1-18.7-18.4-26.9c5.5-0.7,10.1-2.9,13.5-5.6
			c3.1,11.4,18.6,22.3,20.6,37.5c0.7,6.7,1.5,10.2,6.3,9.9c6.7-0.2,17.7-10.4,8.2-25.7c-3.3-5.7-7.1-10.9-9.4-16
			C409.9,535,415.7,532.9,420,530.4z"/>
		<path class="st2" d="M482.8,549.9c-0.2,0-0.3,0-0.5,0c-0.5-6.7-3.5-17.1-13.5-17.5c-12.3-0.4-14,10.3-11.1,19.9
			c2.2,7.4,4.2,15.2,3.9,23.8c-5.2,0.3-10.4,0.5-15.6,0.8c1.5-16.3-8.3-28.9-11.5-41.2c6.9-0.5,13.5-2.5,18.4-5
			c0.2,5.7,1.7,11.3,3.5,17.2c-1.9-9,1.5-17.3,16-16.8C492.3,531.7,494.3,543.3,482.8,549.9z"/>
	</g>
</g>
<g>
	<g>
		<path class="st2" d="M86.5,646.6c0,0.1-0.1,0.1-0.1,0.2c-19.8,2.2-29.8,0.7-29.3-8.1c-2.4,5.1-9.5,9.6-24.2,10
			c-18.5,0.6-32.3-3.1-32.9-11.4c0.5-7.6,17-11.9,36.1-13.1c7.2-0.4,14.1-0.8,20.6-1.2c-0.5-2.5-1.1-5-1.8-7.6
			c-2-6.7-7.8-10.5-17.3-10.4c-16.2,0.1-21.9,9.6-23.7,16.3c-0.2,0-0.4,0-0.7,0c-16.4-7.1,0.1-16.4,24.5-16.7
			c23-0.3,35.4,4.9,38.5,13.3c2,6.4,3.2,12.3,2.1,18.4C76.8,643.1,75.6,646.4,86.5,646.6z M57.2,635.6c0.4-4.1,0.1-8.1-0.6-12.2
			c-3.3,0.2-6.8,0.5-10.3,0.7c-12.7,0.9-18.7,5.9-19,12.6c-0.2,5.2,2.5,11,11.3,10.7C47.8,647.1,56.3,642.7,57.2,635.6z"/>
		<path class="st2" d="M137,623.2c-0.1,0-0.3,0-0.4,0c-1.9-6-8.4-17.3-16.1-17.4c-9.8,0.2-7.1,12.2-5.8,20.5
			c1.3,6.6,0.5,12.9-4.9,20.3c-5.6,0-11.3,0.1-17.3,0.1c8.7-12.7,4.6-22.9-0.5-36c6.6-0.7,12-3.1,15.1-6.2c2.3,6.5,5,12.3,6.7,17.7
			c-1.8-8.3-2.4-18,9.1-18.2C137.5,604.1,144.1,616.8,137,623.2z"/>
		<path class="st2" d="M164.7,647.8C164.7,647.8,164.7,647.8,164.7,647.8c-9.8-0.1-10.7-4.2-8.9-12.5c1.5-8.8-3.2-17-6.6-27.5
			c-2.9,0.5-5.9,1-8.9,1.5c0-0.1-0.1-0.2-0.1-0.3c9.1-1.7,12.8-13.8,12.3-25.5c0.1,0,0.3,0,0.4,0c4.7,3.8,7.5,8.6,7.2,12.8
			c-0.3,4.6-4.5,8.6-15.2,11.7c1.4-0.2,2.8-0.5,4.2-0.7c2.2-0.4,4.3-0.7,6.4-1.1c2.3-0.4,4.7-0.9,7-1.3c5.1-1.3,10.3-2.7,15.4-4.2
			c0.4,2.9,1,5.6,1.6,8.1c-5.4-1.2-11-2.4-16.7-3.6c2.7,11.1,7.8,19.6,7.2,28.5c-0.4,4.6,1,6.7,5.2,6.7c4.7,0.1,9.7-3.4,11.5-8.3
			c0.2,0,0.3,0,0.5,0C185.7,639.6,176.1,647.8,164.7,647.8z"/>
		<path class="st2" d="M186.6,588.3c-0.2-5.2,3.1-10.5,8.1-10.7c5.3-0.3,9.3,5,9.1,10.3c-0.2,5.5-3.6,9-8.4,9.1
			C190.6,597,186.8,593.7,186.6,588.3z M190.5,610c4.8-0.7,9-3.3,11.9-6.6c1.2,17.5,11.5,28.2,1.1,44.5c-4.2-0.1-8.5-0.3-12.8-0.4
			C200.3,633.6,193.6,623.9,190.5,610z"/>
		<path class="st2" d="M252.3,635.3c0.2,9.3-13.3,15-20.2,14.7c-14.3-0.8-20.1-9.2-12.1-17.8c0.1,0,0.2,0,0.3,0
			c2.1,6.3,3,16.8,12,17.4c7.3,0.4,13.3-3.2,14-7.6c0.8-5.1-3.9-6.3-11.5-9.2c-8.9-3.2-17.2-6-19.5-15c-2.3-8.7,7.7-14.9,15.2-15
			c15-0.2,21.5,9.8,16,17.2c-0.1,0-0.2,0-0.4,0c-1.9-6.6-5.5-16.9-14.9-16.7c-8.8,0.1-12.2,5-11.5,8.8c0.7,4.1,6.2,5.7,15.1,8.8
			C243.5,623.8,251.9,625.8,252.3,635.3z"/>
		<path class="st2" d="M272.7,651.8C272.7,651.8,272.6,651.8,272.7,651.8c-8.5-0.4-10.7-5.5-10.4-15c0-10.1-3.2-19-2.1-30.4
			c-2.6,0.6-5.2,1.2-7.7,1.7c0-0.1,0-0.2,0-0.3c7.4-2,16-14.7,20.4-29.3c0.1,0,0.2,0,0.3,0c2.6,4.7,2.9,10.4,0.8,15.1
			c-2.2,5.2-7.7,9.7-17.4,13.1c1.2-0.3,2.4-0.6,3.7-0.8c1.9-0.4,3.8-0.8,5.7-1.2c2.1-0.5,4.3-1,6.5-1.5c5-1.5,10.1-3.1,15.4-4.9
			c-0.9,3.2-1.6,6.2-2,9.1c-4.5-1.3-8.9-2.6-13.4-3.9c-2.2,12.2,0.4,21.5,0.9,31.8c0.2,5.2,2,7.8,5.6,7.9c4.1,0.2,7.2-3.8,8.4-9.5
			c0.1,0,0.3,0,0.4,0C287,642.3,282.6,652,272.7,651.8z"/>
		<path class="st2" d="M301.5,583.7c2.2-6.3,8.2-12.9,13.3-13.3c5.3-0.4,6.1,6,3.5,12.3c-2.8,6.6-7.7,10.8-12.4,11
			C301.4,593.9,299.2,590.1,301.5,583.7z M295.6,608.6c4.8-0.9,10-3.7,14.4-7.6c-6.1,19.8-2,32.2-1.6,51.6
			c-4.2-0.2-8.4-0.5-12.5-0.7C297,635.4,293.2,624.1,295.6,608.6z"/>
		<path class="st2" d="M367.7,607.5c-5.3,12.9-5.3,23.8-3.6,35.3c2.6,11.8,6.9,24.3,28.4,45.9c-5.9-0.2-11.8-0.4-17.6-0.7
			c-12.7-13.5-17-22.7-20.2-30.8c-2.9-8-4.6-15-5-21.6c-0.7,10.1-2.1,20.2-11.5,19.8c-11.8-0.9-21.7-13-22.3-27.9
			c-0.7-14.9,12-27.2,24.5-27.8c9.4-0.3,10.3,9.8,10,20.6c1-6.3,3-12.8,6.1-20.5C358.4,603.6,362.4,606.6,367.7,607.5z M349.4,631.5
			c0-2.3,0.1-4.7,0.3-7.1c0.9-14.1-0.7-22.9-6.7-22.6c-4.9,0.2-14.6,10.6-14.6,25.8c0.1,15.2,7.7,25.2,12.5,25.5
			C346.8,653.5,348.9,644.4,349.4,631.5z"/>
		<path class="st2" d="M438.4,598c-9.6,23.9-14.2,40.1-1.6,61.3c-6.2-0.3-12.3-0.6-18.1-0.8c-4.4-7.6-6.7-14.4-7.4-21.2
			c-0.6,13-1,22-13.7,21.4c-13.2-0.7-21.8-8-23.7-18.9c-1.6-10.3,0.2-19.9,4.5-31.5c6.1-1,13.1-4.4,18.9-8.8
			c-7.7,18.3-11.5,31.2-7.1,46.3c2,6.6,6.7,10.1,11.6,10.3c8,0.3,8.5-8.2,9.5-26.6c0.6-6.9,2.8-14,5.8-21.9
			C424,606.3,432,602.6,438.4,598z"/>
		<path class="st2" d="M520.2,636.6c-5.5,14.4-18.6,26.6-36.7,25.8c-22.1-1.2-44.1-16.7-42.5-32.7c1.7-16.1,22.9-33.8,44.8-34.7
			c20.7-0.5,31.6,14,32.2,28.3c-0.1,0-0.1,0-0.2,0c0.1,0,0.1,0.1,0.2,0.1c-21.4,0.7-39.8,1-56.4,1.2c-1.5,14.5,11.6,24.4,30.1,25.2
			c11.4,0.3,23.1-4.9,27.4-13.3C519.4,636.6,519.8,636.6,520.2,636.6C520.2,636.6,520.2,636.6,520.2,636.6z M461.6,623.9
			c0,0.1,0,0.3-0.1,0.4c10.5-0.1,21.8-0.3,34.1-0.6c0.7-14.3-0.3-28.2-10.6-27.9C473.9,596.2,463.8,610.6,461.6,623.9z"/>
	</g>
</g>
<g>
	<path class="st1" d="M25.3,656.9v11.6h0.4l21.6-0.9v9.8l-21.6-8.6h-0.4v59.3H9.5v-59.3H0v-0.4h9.5v-6.9c0-17.6,8.3-24,23.5-24
		c15.8,0,24,13.3,14.4,22.9H47c-1.3-9.1-4.3-22.5-13.8-22.5C24.8,638,25.3,649.3,25.3,656.9z"/>
	<path class="st1" d="M97.3,693.4h-0.4c0-9.5-1.9-24.3-9.6-24.3c-9.2-0.1-11.9,15.7-12.4,28.9v30.3H59.2v-53
		c6-0.9,11.8-4.1,15.7-7.9v24.5c1-12.7,4.2-24.9,15.2-24.9C104.8,666.9,106.9,683.3,97.3,693.4z"/>
	<path class="st1" d="M162.7,705.1c-2.6,12.7-12,24.3-26.2,24.3c-16.9,0-26.8-14.4-26.8-31.2c0-16.9,11-31.3,28.2-31.3
		c16.2,0,23.4,13.4,23.5,26.3h-0.1l0.1,0.1H125c0.3,14.4,7.2,24,19.7,24.2c7.7,0,15-4.9,17.3-12.4L162.7,705.1L162.7,705.1z
		 M125,692.5v0.4h23.1c-0.1-13.3-2.7-25.4-10.6-25.4C128.9,667.5,125,679.4,125,692.5z"/>
	<path class="st1" d="M222,705.1c-2.6,12.7-12,24.3-26.2,24.3c-16.9,0-26.8-14.4-26.8-31.2c0-16.9,11-31.3,28.2-31.3
		c16.2,0,23.4,13.4,23.5,26.3h-0.1l0.1,0.1h-36.4c0.3,14.4,7.2,24,19.7,24.2c7.7,0,15-4.9,17.3-12.4L222,705.1L222,705.1z
		 M184.3,692.5v0.4h23.1c-0.1-13.3-2.7-25.4-10.6-25.4C188.2,667.5,184.3,679.4,184.3,692.5z"/>
	<path class="st1" d="M230.2,643.9c6-1,11.8-4.2,15.7-8.1v92.4h-15.7V643.9z"/>
	<path class="st1" d="M317.7,728.1v0.3c-15.6,2.7-24.7,0.4-25.8-12.5c-0.9,7.4-4.7,13.5-15.1,13.5c-13,0-21.1-6-21.3-17.5
		c0.3-10.5,9.3-16.1,22-17.6l14.3-1.5v-10.9c0-9.5-3.6-14.4-10.6-14.4c-11.9-0.1-16.2,12.9-17.5,22.4h-0.4
		c-9.6-10.1-0.1-22.9,18.1-22.9c17.1,0,26.2,6.4,26.2,18.5V713C307.5,723.1,308.4,727.6,317.7,728.1z M291.8,711.4v-18.1
		c-2.4,0.3-4.9,0.6-7.3,0.9c-8.8,1.2-12.7,8.3-12.7,17.8c0,7.5,2.6,15.8,8.8,15.8C287.2,727.7,291.8,721.9,291.8,711.4z"/>
	<path class="st1" d="M376.7,689.1v39.1h-15.8v-41.7c0-11.4-2.3-17-8.2-17c-6.8,0-12.9,7.2-13.8,23.8v34.9h-15.7v-53
		c6-0.9,11.8-4.1,15.7-7.9v20.2c1.8-12.8,7.4-20.7,20.4-20.7C370.7,666.8,376.5,674.6,376.7,689.1z"/>
	<path class="st1" d="M440.2,705.1c-3.1,15.2-13.5,24.3-26.7,24.3c-17.3,0-27.4-14.2-27.4-31.2c0-17.3,11.1-31.3,30.2-31.3
		c16.2,0,27.1,13,17.5,22.9h-0.4c-1.3-9.1-6.3-22.4-16.6-22.4c-10.7,0.1-15.3,12.5-15.3,25c0,14.6,6.5,24.9,19.7,25
		c7.8,0,14.4-4.1,18.3-12.4h0.7L440.2,705.1L440.2,705.1z"/>
	<path class="st1" d="M499.5,705.1c-2.6,12.7-12,24.3-26.2,24.3c-16.9,0-26.8-14.4-26.8-31.2c0-16.9,11-31.3,28.2-31.3
		c16.2,0,23.4,13.4,23.5,26.3h-0.1l0.1,0.1h-36.4c0.3,14.4,7.2,24,19.7,24.2c7.7,0,15-4.9,17.3-12.4L499.5,705.1L499.5,705.1z
		 M461.8,692.5v0.4h23.1c-0.1-13.3-2.7-25.4-10.6-25.4C465.6,667.5,461.8,679.4,461.8,692.5z"/>
</g>
<g>
	<path class="st1" d="M62.2,798.1v0.3c-15.6,2.7-24.7,0.4-25.8-12.5c-0.9,7.4-4.8,13.5-15.1,13.5c-13,0-21.1-6-21.3-17.5
		c0.3-10.5,9.3-16.1,22-17.6l14.3-1.5v-10.9c0-9.5-3.6-14.4-10.6-14.4c-11.9-0.1-16.2,12.9-17.5,22.4H7.8
		C-1.8,749.8,7.7,737,25.9,737c17.1,0,26.2,6.4,26.2,18.5V783C52,793.1,52.9,797.6,62.2,798.1z M35.5,731.8
		c-9.3-4.5-16.2-10-22.8-16.5h15.6c1.2,5.4,3.6,10.9,8.2,16.5H35.5z M36.2,781.4v-18.1c-2.4,0.3-4.9,0.6-7.3,0.9
		c-8.8,1.2-12.7,8.3-12.7,17.8c0,7.5,2.6,15.8,8.8,15.8C31.6,797.7,36.2,791.9,36.2,781.4z"/>
	<path class="st1" d="M152.2,768.1c-0.1,19.2-10.6,31.3-23.9,31.3c-10.9,0-16.7-11-18.4-23.5v47.9H94.2v-78.6
		c6-0.9,11.8-4.1,15.7-7.9v22.5c1.7-13.2,7.5-23,18.4-23C142.4,736.8,152,748.9,152.2,768.1z M135.8,768.1c0-19-5.9-29-11.5-29
		c-7.2,0-14.3,9.6-14.3,29c0,17.8,7.3,29,14.3,29C130,797.1,135.8,787.1,135.8,768.1z"/>
	<path class="st1" d="M222.1,798.1v0.3c-15.6,2.7-24.7,0.4-25.8-12.5c-0.9,7.4-4.7,13.5-15.1,13.5c-13,0-21.1-6-21.3-17.5
		c0.3-10.5,9.3-16.1,22-17.6l14.3-1.5v-10.9c0-9.5-3.6-14.4-10.6-14.4c-11.9-0.1-16.2,12.9-17.5,22.4h-0.5
		c-9.6-10.1-0.1-22.9,18.1-22.9c17.1,0,26.2,6.4,26.2,18.5V783C211.8,793.1,212.7,797.6,222.1,798.1z M196.1,781.4v-18.1
		c-2.4,0.3-4.9,0.6-7.3,0.9c-8.8,1.2-12.7,8.3-12.7,17.8c0,7.5,2.6,15.8,8.8,15.8C191.5,797.7,196.1,791.9,196.1,781.4z"/>
	<path class="st1" d="M265.5,763.4h-0.4c0-9.5-1.9-24.3-9.6-24.3c-9.2-0.1-11.9,15.7-12.4,28.9v30.3h-15.7v-53
		c6-0.9,11.8-4.1,15.7-7.9v24.5c1-12.7,4.2-24.9,15.2-24.9C273.1,736.9,275.1,753.3,265.5,763.4z"/>
	<path class="st1" d="M279.8,721.2c0-4.9,4.2-8.8,9.8-8.8c5.8,0,9.8,4,9.8,8.8c0,5-4.1,8.8-9.8,8.8C284,730,279.8,726.2,279.8,721.2
		z M281.7,745.2c6-0.9,11.9-4.1,15.8-7.9v61h-15.8V745.2z"/>
	<path class="st1" d="M357.4,780.2c0,12.7-13.5,19.3-22.4,19.3c-18.3,0-33.2-10-21.7-23h0.4c1.3,9.5,9.2,22.6,21.2,22.5
		c9.5,0.1,15.1-4.2,15.1-9.8c0-6.6-6.3-8.2-16.7-12.1c-12-4.3-22.6-8.7-22.6-21.3c0-12.1,12.5-18.8,22-18.8
		c19,0,28.9,11.6,19.3,21.9h-0.4c-0.6-9.3-5.8-21.5-17.9-21.3c-11.1-0.1-15.6,5.5-15.6,10.5c0,5.4,6.6,7.7,17.8,12
		C347.2,764.3,357.4,767.2,357.4,780.2z"/>
</g>
<g>
	<path class="st0" d="M49.4,808.7L25.7,868L0,808.7h15.9l16.6,40.6l16.3-40.6H49.4z"/>
	<path class="st0" d="M50.3,837.5c0-18.2,14.1-30.4,28.9-30.4s28.9,12.2,28.9,30.4c0,18.1-14.1,30.3-28.9,30.3
		S50.3,855.7,50.3,837.5z M91.4,837.5c0-20.4-3.2-29.9-12.2-29.9c-8.9,0-12.2,9.6-12.2,29.9c0,20.2,3.2,29.8,12.2,29.8
		S91.4,857.8,91.4,837.5z"/>
	<path class="st0" d="M117.4,791.9c0-4.7,4.1-8.6,9.6-8.6c5.6,0,9.6,3.8,9.6,8.6s-4,8.6-9.6,8.6
		C121.5,800.4,117.4,796.7,117.4,791.9z M119.3,815.2c5.8-0.9,11.5-4,15.4-7.7v59.2h-15.4V815.2z"/>
	<path class="st0" d="M198.4,844.2c-3,14.8-13.2,23.6-25.9,23.6c-16.8,0-26.6-13.8-26.6-30.3c0-16.8,10.8-30.4,29.3-30.4
		c15.8,0,26.3,12.7,17,22.2h-0.4c-1.2-8.8-6.1-21.7-16.1-21.7c-10.4,0.1-14.9,12.2-14.9,24.3c0,14.1,6.3,24.2,19.1,24.3
		c7.6,0,14-4,17.7-12L198.4,844.2L198.4,844.2z"/>
	<path class="st0" d="M206.3,791.9c0-4.7,4.1-8.6,9.6-8.6c5.6,0,9.6,3.8,9.6,8.6s-4,8.6-9.6,8.6
		C210.4,800.4,206.3,796.7,206.3,791.9z M208.2,815.2c5.8-0.9,11.5-4,15.4-7.7v59.2h-15.4V815.2z"/>
	<path class="st0" d="M345.9,828.5v38.2h-15.8v-46.3c0-7-1.7-10.5-6.6-10.5c-6.7,0-11.8,8.6-11.8,27.6v29.3h-15.9v-46.3
		c0-7-1.7-10.5-6.6-10.5c-6.1,0-10.8,7.1-11.7,22.6v34.3h-15.1v-51.5c5.8-0.9,11.4-4,15.3-7.7v18.7c1.6-11.9,6.5-19.2,18.2-19.2
		c11.4,0,15.5,7.1,15.9,20.5c1.4-12.7,6.2-20.5,18.4-20.5C341.7,807,345.8,814.5,345.9,828.5z"/>
	<path class="st0" d="M355.1,837.5c0-18.2,14.1-30.4,28.9-30.4s28.9,12.2,28.9,30.4c0,18.1-14.1,30.3-28.9,30.3
		C369.3,867.8,355.1,855.7,355.1,837.5z M396.2,837.5c0-20.4-3.2-29.9-12.2-29.9c-8.9,0-12.2,9.6-12.2,29.9
		c0,20.2,3.2,29.8,12.2,29.8C393,867.3,396.2,857.8,396.2,837.5z"/>
	<path class="st0" d="M474.3,828.7v38h-15.4v-40.5c0-11-2.2-16.5-7.9-16.5c-6.6,0-12.5,7-13.4,23.1v33.9h-15.3v-51.5
		c5.8-0.9,11.4-4,15.3-7.7v19.6c1.7-12.4,7.2-20.1,19.9-20.1C468.4,807,474.1,814.6,474.3,828.7z"/>
</g>
<g>
	<g>
		<path d="M70.3,910.7c5.3,18.2-11.1,30.2-27,30.4c-12.9,0.1-19.5-11.2-22.5-24.2c0.8,16.5-0.2,32.9-5.6,49.9
			c-5.1,0.1-10.2,0.3-15.3,0.4c0-28,0-56,0-83.9c7-0.3,13.3-3.1,17.2-6.8c0.8,8,1.7,15.9,2.5,23.7c0.8-13.6,5.7-23.5,16.7-22.7
			C50.2,878.6,64.2,892.4,70.3,910.7z M51.8,910.2c-4.4-18.8-13.5-30.1-19.1-30.6c-7.4-0.6-13.6,9-12.2,29.2
			c1.5,18.5,9.8,30.1,18.3,30C45.6,938.8,55.6,928.9,51.8,910.2z"/>
		<path d="M78.6,911c-5.7-17.8,2.6-30.5,16.7-30c13.3,0.6,32.3,13.9,42.6,30c10.1,16-9.2,28.3-25.4,28.9
			C96.8,940.3,84.5,928.8,78.6,911z M121.7,911.2c-10.4-18.7-18.2-29.5-26.2-29.7c-8.7-0.4-7.1,10.4,1.2,29.7
			c7.4,19.1,5.7,28.4,15.9,28.2C121.9,939,131,929.6,121.7,911.2z"/>
		<path d="M177,905.5c-0.1,0-0.2,0-0.3,0c-6.3-7.7-15.8-21.4-21.7-21.6c-8.5,0.1-1.8,15.2,5.5,26.1c5.5,8.6,9.4,17.1,7.2,26.5
			c-5,0.2-10,0.4-15.1,0.7c4.3-16.6-9.6-30.4-18.7-47.4c4.7-0.9,7.9-3.9,9.8-7.8c3.2,8.2,8.4,15.6,13.2,22.6
			c-7.1-10.8-10.2-23-0.5-23.1C168.2,882.1,178,897,177,905.5z"/>
		<path d="M219.3,935.2C219.3,935.3,219.2,935.3,219.3,935.2c-9.9,0.5-12.6-4.1-17.2-14.9c-5.3-11.3-16.5-21.7-22.4-34
			c-2.5,0.7-4.9,1.3-7.4,2c-0.1-0.1-0.1-0.3-0.2-0.4c7.3-2.2,7.2-16.3,13.8-28.7c0.1,0,0.3,0,0.4,0c2.2,4.3,3,9.4,2.3,14.1
			c-0.8,5-4.1,9.6-12.6,13.5c1.2-0.3,2.3-0.6,3.5-0.9c1.8-0.4,3.7-0.9,5.6-1.3c2-0.5,4.1-1.1,6.1-1.6c4.5-1.6,9.3-3.2,14.2-4.8
			c0.5,3.1,1.5,6.1,2.9,9c-5.7-1.2-11.3-2.5-16.9-3.9c4.7,12.6,16.4,23,22.7,34.4c3.2,5.8,6.1,8.4,10.3,8.1
			c4.8-0.3,6.9-4.8,4.7-11.1c0.2,0,0.3,0,0.5,0C234.2,924,230.8,934.5,219.3,935.2z"/>
		<path d="M229.4,871c-0.8,3.8-0.6,7.4,0.2,10.9c0.1,0,0.2,0,0.4,0c6.1-0.5,12.3-0.9,18.6-1.4c0.4,2.9,1.4,5.6,2.7,8.4
			c-7.3-2.1-14.4-4.3-21.2-6.6c-0.1,0-0.2,0-0.4,0c4.6,17.5,26.5,30.9,27.8,50.1c-4.5,0.2-9,0.4-13.5,0.6
			c-0.4-19-22.4-32.5-27.8-50.3c-2.7,0.1-5.3,0.2-8,0.2c0-0.1-0.1-0.3-0.1-0.4c2.7-0.1,5.3-0.1,8-0.2c-0.6-2.1-1-4.2-1-6.4
			c0.2-17.3,21.3-26.7,34.8-25.9c14.5,0.8,6.9,15.6-1.4,24.2c-0.1,0-0.2,0-0.4,0c-1.7-8,9.5-23.2,1.4-23.7
			C240.7,850.4,229.7,863.8,229.4,871z"/>
		<path d="M263.1,905.4c-13-14.7-1.9-25.9,12.8-26.2c14-0.1,27.5,9.7,37.9,24.5c10.6,14.8,1.9,27.7-11.6,28.1
			C289.3,932,275.7,920.1,263.1,905.4z M298.6,904.1c-12.3-16.5-14-24.5-22.7-24.5c-8.4,0.3-12,8.8,1.4,25.2
			c13.4,16.5,16.8,26.8,24.8,26.5C310.1,931.2,311.2,920.7,298.6,904.1z"/>
		<path d="M324.5,858c6.9-1,15.8-4,24.8-7.7c-40.6,31.3-8.1,49.6,0.4,79.8c-4.7,0-9.3,0-13.9,0C328.3,902.4,297.2,885.4,324.5,858z"
			/>
		<path d="M346.5,864.9c2.9-4.3,11.1-8.1,16.8-8c5.8,0.1,6.7,3.8,4.2,8.1c-2.6,4.3-8,7.6-14.3,7.6
			C347.2,872.5,343.6,869.3,346.5,864.9z M343.5,885c6.2-0.8,12.2-3.3,17-6.4c-1.9,16.7,10.5,32.1,15.8,51.8
			c-4.9-0.1-9.7-0.2-14.5-0.2C356.9,912.9,345.3,899.2,343.5,885z"/>
		<path d="M377.9,903.9c-6.4-15.4,12-25.4,30.8-25.2c18.3,0.3,38.1,11.9,38.1,28.4c-0.7,16.2-15.9,26.1-30.5,25.5
			C401.5,932.1,384.4,919.5,377.9,903.9z M425.4,905.9c-2-18-5.4-26.4-16.9-26.7c-11-0.1-17,7.9-12.1,25.3
			c5.3,17.6,10.7,27.4,19.7,27.7C425.2,932.7,427.5,923.9,425.4,905.9z"/>
	</g>
</g>
</svg>
