<?xml version="1.0" encoding="utf-8"?>
<!-- Generator: Adobe Illustrator 24.0.1, SVG Export Plug-In . SVG Version: 6.00 Build 0)  -->
<svg version="1.1" id="Calque_1" xmlns="http://www.w3.org/2000/svg" xmlns:xlink="http://www.w3.org/1999/xlink" x="0px" y="0px"
	 viewBox="0 0 792 283.5" style="enable-background:new 0 0 792 283.5;" xml:space="preserve">
<style type="text/css">
	.st0{fill:none;stroke:#000000;}
</style>
<g>
	<path class="st0" d="M128.9,110.6c0,29.4-29.4,41-54.8,41H44.6v65.1H18.3V69.7H74C99.4,69.7,128.9,81,128.9,110.6z M102.2,110.6
		c0-24.2-14.1-40.1-33.4-40.1H44.6v80.3h17.9C85,150.8,102.2,134.8,102.2,110.6z"/>
	<path class="st0" d="M125.1,167.4c0-30.9,24-51.5,49-51.5s49,20.6,49,51.5c0,30.7-24,51.3-49,51.3S125.1,198,125.1,167.4z
		 M194.7,167.4c0-34.5-5.5-50.6-20.6-50.6c-15.1,0-20.6,16.2-20.6,50.6c0,34.2,5.5,50.4,20.6,50.4
		C189.2,217.8,194.7,201.6,194.7,167.4z"/>
	<path class="st0" d="M301.5,159.4h-0.6c0-15.5-3.1-39.9-15.8-39.9c-15.1-0.2-19.5,25.8-20.4,47.5v49.8h-25.9v-87.2
		c9.9-1.5,19.3-6.7,25.9-13v40.3c1.7-20.8,6.9-41,25-41C313.9,115.9,317.3,142.8,301.5,159.4z"/>
	<path class="st0" d="M358.7,218.6h-0.2c-17.4,0-27.3-8-27.3-28.8v-65.8l-16.4,3.1v-0.6c17.4-3.8,29.4-28.4,30.3-45h0.6
		c7.1,5.7,11.1,13.4,9.5,20.8c-1.7,8-11.1,16-31.7,22.3l7.8-1.5l12-2.1l13.2-2.5l30-7.8V127l-29.8-7.8v66.8c0,11.3,5,16.2,13,16.2
		c9.2,0,15.6-8,19.3-20.4h1.1C386,200.6,379.3,218.4,358.7,218.6z"/>
	<path class="st0" d="M431.6,99.5v19.1h0.6l35.5-1.5v16.2l-35.5-14.1h-0.6v97.5h-26.1v-97.5H390v-0.6h15.5v-11.3
		c0-29,13.7-39.5,38.7-39.5c26,0,39.5,21.9,23.7,37.6h-0.6c-2.1-14.9-7.2-37-22.7-37C430.8,68.4,431.6,86.9,431.6,99.5z"/>
	<path class="st0" d="M469.1,167.4c0-30.9,24-51.5,49-51.5s49,20.6,49,51.5c0,30.7-24,51.3-49,51.3S469.1,198,469.1,167.4z
		 M538.6,167.4c0-34.5-5.5-50.6-20.6-50.6c-15.1,0-20.6,16.2-20.6,50.6c0,34.2,5.5,50.4,20.6,50.4
		C533.2,217.8,538.6,201.6,538.6,167.4z"/>
	<path class="st0" d="M582.8,78.1c9.9-1.7,19.3-6.9,25.9-13.2v151.9h-25.9V78.1z"/>
	<path class="st0" d="M627.6,90c0-8,6.9-14.5,16.2-14.5c9.5,0,16.2,6.5,16.2,14.5c0,8.2-6.7,14.5-16.2,14.5
		C634.5,104.5,627.6,98.2,627.6,90z M630.8,129.6c9.9-1.5,19.5-6.7,26.1-13v100.2h-26.1V129.6z"/>
	<path class="st0" d="M675.7,167.4c0-30.9,24-51.5,49-51.5s49,20.6,49,51.5c0,30.7-24,51.3-49,51.3S675.7,198,675.7,167.4z
		 M745.3,167.4c0-34.5-5.5-50.6-20.6-50.6c-15.1,0-20.6,16.2-20.6,50.6c0,34.2,5.5,50.4,20.6,50.4
		C739.8,217.8,745.3,201.6,745.3,167.4z"/>
</g>
</svg>
