<?xml version="1.0" encoding="utf-8"?>
<!-- Generator: Adobe Illustrator 24.0.1, SVG Export Plug-In . SVG Version: 6.00 Build 0)  -->
<svg version="1.1" id="Calque_1" xmlns="http://www.w3.org/2000/svg" xmlns:xlink="http://www.w3.org/1999/xlink" x="0px" y="0px"
	 viewBox="0 0 792 319.2" style="enable-background:new 0 0 792 319.2;" xml:space="preserve">
<style type="text/css">
	.st0{fill:none;stroke:#000000;stroke-miterlimit:10;}
</style>
<g>
	<path class="st0" d="M141.2,51.6v64.6h-26.7V37.9c0-11.7-2.9-17.8-11.1-17.8c-11.3,0-19.9,14.5-19.9,46.6v49.5H56.6V37.9
		c0-11.7-2.9-17.8-11.1-17.8c-10.3,0-18.3,12-19.7,38.2v57.9H0V29.1c9.9-1.5,19.3-6.7,25.8-13v31.7c2.7-20.1,10.9-32.5,30.8-32.5
		c19.3,0,26.2,12,26.9,34.6c2.3-21.4,10.5-34.6,31-34.6C134,15.3,140.9,27.9,141.2,51.6z"/>
	<path class="st0" d="M156.7,66.9c0-30.8,23.9-51.4,48.9-51.4s48.9,20.5,48.9,51.4c0,30.6-23.9,51.2-48.9,51.2
		S156.7,97.5,156.7,66.9z M226.2,66.9c0-34.4-5.5-50.6-20.6-50.6S185,32.5,185,66.9c0,34.2,5.5,50.3,20.6,50.3
		S226.2,101.1,226.2,66.9z"/>
	<path class="st0" d="M358.2,52v64.2h-26V47.8c0-18.7-3.8-27.9-13.4-27.9c-11.1,0-21.2,11.7-22.7,39v57.3h-25.8V29.1
		c9.9-1.5,19.3-6.7,25.8-13v33.1c2.9-21,12.2-34,33.6-34C348.4,15.3,358,28.1,358.2,52z"/>
</g>
<g>
	<g>
		<path d="M108.6,177.4c0-30.9,24-51.5,49-51.5s49,20.6,49,51.5c0,30.7-24,51.3-49,51.3S108.6,208,108.6,177.4z M178.2,177.4
			c0-34.5-5.5-50.6-20.6-50.6S137,143,137,177.4c0,34.2,5.5,50.4,20.6,50.4C172.7,227.8,178.2,211.6,178.2,177.4z"/>
		<path d="M285,169.4h-0.6c0-15.5-3.1-39.9-15.8-39.9c-15.1-0.2-19.5,25.8-20.4,47.5v49.8h-25.9v-87.2c9.9-1.5,19.3-6.7,25.9-13
			v40.3c1.7-20.8,6.9-41,25-41C297.4,125.9,300.8,152.8,285,169.4z"/>
		<path d="M342.2,228.6H342c-17.4,0-27.3-8-27.3-28.8V134l-16.4,3.1v-0.6c17.4-3.8,29.4-28.4,30.3-45h0.6
			c7.1,5.7,11.1,13.4,9.5,20.8c-1.7,8-11.1,16-31.7,22.3l7.8-1.5l12-2.1l13.2-2.5l30-7.8V137l-29.8-7.8V196c0,11.3,5,16.2,13,16.2
			c9.2,0,15.6-8,19.3-20.4h1.1C369.5,210.6,362.8,228.4,342.2,228.6z"/>
		<path d="M415.1,109.5v19.1h0.6l35.5-1.5v16.2l-35.5-14.1h-0.6v97.5H389v-97.5h-15.5v-0.6H389v-11.3c0-29,13.7-39.5,38.7-39.5
			c26,0,39.5,21.9,23.7,37.6h-0.6c-2.1-14.9-7.2-37-22.7-37C414.3,78.4,415.1,96.9,415.1,109.5z"/>
		<path d="M452.6,177.4c0-30.9,24-51.5,49-51.5c25,0,49,20.6,49,51.5c0,30.7-24,51.3-49,51.3S452.6,208,452.6,177.4z M522.1,177.4
			c0-34.5-5.5-50.6-20.6-50.6c-15.1,0-20.6,16.2-20.6,50.6c0,34.2,5.5,50.4,20.6,50.4C516.7,227.8,522.1,211.6,522.1,177.4z"/>
		<path d="M566.3,88.1c9.9-1.7,19.3-6.9,25.9-13.2v151.9h-25.9V88.1z"/>
		<path d="M611.1,100c0-8,6.9-14.5,16.2-14.5c9.5,0,16.2,6.5,16.2,14.5c0,8.2-6.7,14.5-16.2,14.5C618,114.5,611.1,108.2,611.1,100z
			 M614.3,139.6c9.9-1.5,19.5-6.7,26.1-13v100.2h-26.1V139.6z"/>
		<path d="M659.2,177.4c0-30.9,24-51.5,49-51.5s49,20.6,49,51.5c0,30.7-24,51.3-49,51.3S659.2,208,659.2,177.4z M728.8,177.4
			c0-34.5-5.5-50.6-20.6-50.6s-20.6,16.2-20.6,50.6c0,34.2,5.5,50.4,20.6,50.4C723.3,227.8,728.8,211.6,728.8,177.4z"/>
	</g>
	<path d="M95.5,176.7c-0.2,31.6-17.5,51.6-39.4,51.6c-17.9,0-27.6-18.1-30.3-38.7v78.9H0V139c9.9-1.5,19.4-6.7,25.9-13v37
		c2.7-21.7,12.4-37.9,30.3-37.9C79.5,125.1,95.3,145.1,95.5,176.7z M68.6,176.7c0-31.4-9.7-47.8-18.9-47.8
		c-11.8,0-23.6,15.8-23.6,47.8c0,29.3,12,47.8,23.6,47.8C59.1,224.5,68.6,208,68.6,176.7z"/>
</g>
</svg>
