<?xml version="1.0" encoding="utf-8"?>
<!-- Generator: Adobe Illustrator 24.0.1, SVG Export Plug-In . SVG Version: 6.00 Build 0)  -->
<svg version="1.1" id="Calque_1" xmlns="http://www.w3.org/2000/svg" xmlns:xlink="http://www.w3.org/1999/xlink" x="0px" y="0px"
	 viewBox="0 0 343.5 260.4" style="enable-background:new 0 0 343.5 260.4;" xml:space="preserve">
<g>
	<g>
		<path d="M42.6,72.1c0.9,10.7,1.3,21.3,1.4,31.8c-3,0.3-6.1,0.5-9.1,0.8c0-6.2-0.2-12.4-0.4-18.6c-0.8,5-4.2,9.4-10.4,10.1
			C16.2,97,9.9,93.2,9.9,86c0.1-7.3,5.5-12.8,13.4-14.1c5.9-1,9.5,2.2,10.8,7.1c-0.2-2.9-0.3-5.7-0.6-8.6
			C35.9,71.5,39.2,72.3,42.6,72.1z M34.4,84.2c0-1.1-0.1-2.2-0.2-3.3c-0.9-6.5-4.9-9.2-8.6-8.5c-3.2,0.5-6.4,5-6.3,12.3
			c0.1,7.3,3.7,10.8,7,10.4C30.2,94.6,34.1,90.4,34.4,84.2z"/>
		<path d="M96.5,60.4c1.3,9.6,2,18.9,2.3,28c-2.9,0.3-5.8,0.5-8.7,0.8c-0.1-3.2-0.3-6.5-0.5-9.7c-0.6,6.5-4.1,10.7-10.7,11.2
			c-7.1,0.6-9.8-1.9-10.1-7.2c-0.3-4.9-0.7-9.9-1.2-14.9c3.3-0.9,6.3-2.8,8.2-4.9c1,7.3,1.6,14.4,2,21.4c0.2,3.1,1.6,4.3,4.2,4.1
			c3.8-0.4,8.1-4.5,7.4-13.6c-0.3-3.3-0.6-6.7-1-10.1C91.6,64.5,94.6,62.6,96.5,60.4z"/>
		<path d="M149.8,72c-1.1,6.9-6.1,13.2-13.6,13.8c-8.9,0.7-14.3-5.8-14.9-14c-0.6-8.3,4.4-16.6,13.7-18.2
			c8.8-1.5,13.4,5.3,13.9,12.2c0,0,0,0-0.1,0c0,0,0,0,0.1,0.1c-6.5,0.8-13,1.7-19.5,2.5c0.7,7.3,4.4,11.6,11.1,11.1
			c4.1-0.4,7.9-3.3,9-7.4C149.5,72,149.6,72,149.8,72z M129.3,67.9c0,0.1,0,0.1,0,0.2c4.1-0.5,8.3-1.1,12.4-1.6
			c-0.5-7-2.7-13.3-6.9-12.6C130.1,54.7,128.8,61.3,129.3,67.9z"/>
		<path d="M199.7,56.5c0.2,7.9,0.2,15.6-0.1,23.1c-2.8,0.3-5.5,0.5-8.3,0.8c0.2-7.9,0.2-15.9-0.1-24.2c-0.2-6.8-1.7-10.1-4.9-9.5
			c-3.6,0.6-6.5,5.5-6.6,15.1c0.2,6.7,0.3,13.2,0.2,19.7c-2.7,0.2-5.5,0.5-8.2,0.7c0.1-9.6-0.1-19.4-0.9-29.7c3.2-1,6.1-3.4,8-6
			c0.3,4,0.6,8,0.7,11.9c0.6-7.5,3.2-12.8,10.2-14C195.9,43.2,199.4,47.6,199.7,56.5z"/>
		<path d="M233.9,76.6C233.9,76.6,233.8,76.6,233.9,76.6c-5.6,0.6-8.6-2-8.4-9.8c0.2-8.3,0.2-16.7-0.1-25.4
			c-1.8,0.7-3.5,1.4-5.3,2.1c0-0.1,0-0.2,0-0.2c5.6-2.4,9.2-12.9,9-19.9c0.1,0,0.1,0,0.2,0c2.5,1.9,4,4.8,3.5,7.9
			c-0.4,3.4-3.4,7.1-10,10.8c0.8-0.3,1.7-0.7,2.5-1c1.3-0.5,2.6-1,3.9-1.5c1.4-0.6,2.8-1.2,4.3-1.8c3.2-1.6,6.5-3.3,9.7-4.9
			c0.1,2.2,0.1,4.4,0.1,6.6c-3.2-0.5-6.5-1-9.7-1.4c0.2,9,0.2,17.7,0,26.2c-0.1,4.3,1.4,6,4,5.6c3-0.4,5.1-3.7,6.4-8.7
			c0.1,0,0.2,0,0.3,0C242.9,68.7,240.4,75.8,233.9,76.6z"/>
		<path d="M266.2,19.8c-0.1-3.4,2.1-6.7,5.2-7.3c3.1-0.6,5.4,1.8,5.4,5.2c0,3.5-2.1,6.6-5.2,7.2C268.5,25.5,266.2,23.3,266.2,19.8z
			 M267.4,36.3c3.2-1.2,6.4-4,8.5-7.1c0,14.1-0.3,27.9-0.8,41.4c-2.8,0.4-5.6,0.8-8.5,1.2C267.1,60.2,267.3,48.4,267.4,36.3z"/>
		<path d="M329.9,33.8c0,9.2,0,18.4,0,27.6c-3,0.6-5.9,1.1-8.9,1.7c0.1-9.7,0.2-19.5,0.2-29.2c0-8-1.2-11.7-4.4-11.1
			c-3.7,0.7-7,6.5-7.6,18.2c-0.1,8.1-0.2,16.2-0.4,24.3c-2.9,0.5-5.8,1-8.6,1.5c0.3-12.1,0.5-24.3,0.6-36.8c3.2-1.3,6.4-4.1,8.5-7.3
			c0,4.8-0.1,9.5-0.1,14.2c1.1-9.2,4.1-15.4,11.2-16.8C326.7,18.7,329.9,23.5,329.9,33.8z"/>
		<path d="M10.7,123.5c3.6-0.7,7.1-2.2,9.4-3.8c0,11.9-0.2,23.7-0.4,35.6c-3,0.1-6,0.1-9.1,0.2C10.7,144.9,10.7,134.2,10.7,123.5z"
			/>
		<path d="M73.5,145.8c-1.8,5.4-7.1,10.2-14.8,10c-9.2-0.2-14.4-6.1-14.2-12.8c0.3-6.8,6.7-12.8,16.3-13.1c9-0.3,12.6,5.4,12.3,10.9
			c0,0,0,0-0.1,0c0,0,0,0,0.1,0.1c-6.6,0-13.2,0-20,0.1c-0.1,5.9,3.5,9.9,10.3,10c4.2,0.1,8.2-1.9,9.7-5.1
			C73.2,145.8,73.3,145.8,73.5,145.8z M53.1,140.5c0,0.1,0,0.1,0,0.2c4.3-0.1,8.5-0.1,12.8-0.1c0.3-5.6-0.9-10.6-5.3-10.5
			C55.7,130.3,53.4,135.2,53.1,140.5z"/>
		<path d="M140.8,140.5c-0.6,6.3-1.1,12.7-1.7,19.1c-2.8-0.2-5.5-0.4-8.3-0.6c0.6-7.6,1.3-15.2,2-22.7c0.3-3.4-0.5-5.2-3.1-5.2
			c-3.6,0-6.6,4-7.4,13.1c-0.4,4.7-0.8,9.4-1.2,14.1c-2.8-0.2-5.6-0.4-8.4-0.6c0.6-7.4,1.2-14.7,1.8-21.9c0.3-3.3-0.5-5-3.1-5
			c-3.3,0-6.1,3.2-7.1,10.4c-0.4,5.3-0.9,10.6-1.3,16c-2.7-0.2-5.5-0.3-8.2-0.5c0.6-7.9,1.3-15.8,1.8-23.6c3.2-0.4,6.4-1.8,8.6-3.5
			c-0.2,2.9-0.4,5.8-0.7,8.7c1.3-5.5,4.2-8.9,10.6-8.8c6.2,0,8.1,3.5,7.7,9.9c1.3-6,4.2-9.8,10.6-9.7
			C139.5,129.7,141.3,133.5,140.8,140.5z"/>
		<path d="M193,163.8c0,0,0,0.1,0,0.1c-8.2,0.8-12.8-0.9-12.8-7.7c-0.8,3.9-2.9,6.9-8.3,6.5c-6.7-0.6-10.6-4-10.2-9.8
			c0.6-5.3,5.5-7.9,12-8.4c2.5-0.1,4.9-0.3,7.4-0.5c0.2-1.9,0.3-3.8,0.5-5.7c0.4-5-1.2-7.6-4.8-7.7c-6.1-0.2-8.9,6.5-10,11.2
			c-0.1,0-0.1,0-0.2,0c-4.4-5.3,1-11.6,10.3-11.5c8.8,0.1,13.1,3.6,12.6,10.1c-0.4,4.9-0.8,9.8-1.2,14.7
			C187.8,160.8,188.1,163.2,193,163.8z M180.2,154c0.3-3.2,0.5-6.3,0.8-9.5c-1.3,0.1-2.5,0.2-3.8,0.3c-4.6,0.4-6.9,4-7.3,8.8
			c-0.3,3.9,0.7,8.3,3.9,8.5C177.2,162.4,179.8,159.5,180.2,154z"/>
		<path d="M216.2,122.1c0.2-2.8,2.6-5.1,5.5-5.2c3-0.1,5,2.2,4.7,5c-0.2,2.9-2.5,5.1-5.5,5.2C218,127.1,216,124.9,216.2,122.1z
			 M216.1,135.7c3.2-0.5,6.4-2.3,8.6-4.5c-0.9,11.7-1.7,23.3-2.3,34.9c-2.8-0.2-5.6-0.4-8.4-0.6
			C214.6,155.6,215.3,145.7,216.1,135.7z"/>
		<path d="M269.4,146.8c-0.1,0-0.1,0-0.2,0c0.2-5.9-0.4-15.2-4.5-15.1c-5,0.1-7,9.9-7.7,17.9c-0.3,6.2-0.6,12.3-0.8,18.5
			c-2.9-0.1-5.8-0.3-8.6-0.4c0.4-10.6,1-21.2,1.6-31.9c3.3-0.6,6.5-2.6,8.8-5c-0.3,5-0.6,10.1-0.8,15.1c1-7.7,3.1-15.3,9.1-15.6
			C274.3,130,275,140.4,269.4,146.8z"/>
		<path d="M324.6,153.3c-1.6,8.9-7.4,17.1-15.9,17c-10.1-0.1-15.7-9.7-15.4-20.7c0.3-11,6.8-20.9,16.8-21.7
			c9.4-0.8,13.7,8.1,13.8,17.2c0,0-0.1,0-0.1,0c0,0,0.1,0.1,0.1,0.1c-7.3,0.4-14.6,0.8-21.6,1c0,9.6,3.9,16,11.4,16
			c4.6-0.1,9.1-3.5,10.5-8.9C324.3,153.3,324.5,153.3,324.6,153.3z M302.2,145.6c0,0.1,0,0.2,0,0.3c4.5-0.2,9-0.4,13.6-0.6
			c0-9.1-1.4-17.4-6-17C304.8,128.7,302.4,136.8,302.2,145.6z"/>
		<path d="M10.6,210.6c0-1.9,2.2-3.2,5.1-2.8c2.8,0.4,5,2.5,5,4.5c0,2.1-2.2,3.3-5,2.8C12.9,214.6,10.6,212.6,10.6,210.6z"/>
		<path d="M72.7,214.9c-1.5,7.1-6.9,10.5-14.1,9c-9.4-2-15-9.5-14.9-16.8c0-7.5,6.2-12.9,16.3-11.8c8.6,0.9,14.2,7.8,9.2,11.8
			c-0.1,0-0.1,0-0.2,0c-0.7-4.4-3.2-10.9-8.7-11.5c-5.7-0.6-8.3,4.6-8.3,10.2c0,6.5,3.6,11.9,10.7,13.3c4.2,0.8,7.7-0.6,9.7-4.2
			C72.4,214.9,72.6,214.9,72.7,214.9z"/>
		<path d="M93,214.9c-0.3-9.4,7.5-14.4,15.4-13.3c7.9,1.1,15.5,8.6,16.2,18.7c0.7,10.1-6.3,15.6-14.6,13.9
			C101.7,232.5,93.2,224.3,93,214.9z M115.4,218.7c-0.6-11-2.2-16.2-7-16.9c-4.8-0.7-6.7,3.9-6.3,14.6c0.4,10.7,2.9,16.5,7.8,17.5
			C115,235,116,229.8,115.4,218.7z"/>
		<path d="M192.4,227.2c0.8,7.6,1.9,15.5,3.3,23.5c-2.9-0.6-5.9-1.2-8.8-1.8c-1.7-9.6-2.9-19-3.6-28c-0.3-4.1-1.4-6.3-4-6.8
			c-3.6-0.6-6.3,3.8-5.1,15c0.6,5.8,1.4,11.7,2.5,17.7c-3-0.6-5.9-1.2-8.9-1.8c-1.6-9.4-2.6-18.6-3.2-27.4c-0.3-4-1.3-6.2-3.9-6.6
			c-3.3-0.5-5.7,3-5.5,11.8c0.5,6.6,1.3,13.3,2.4,20.2c-2.8-0.6-5.7-1.1-8.5-1.7c-1.5-10.3-2.4-20.1-2.8-29.6c3.1,0,6.1-1.2,8.1-3
			c0.1,3.5,0.3,7,0.6,10.6c0.4-6.6,2.9-10.3,9.3-9.3c6.2,1,8.5,5.3,9.4,13.2c0.1-7.3,2.6-11.3,9.2-10.2
			C189.1,214.1,191.5,218.8,192.4,227.2z"/>
	</g>
</g>
</svg>
