<?xml version="1.0" encoding="utf-8"?>
<!-- Generator: Adobe Illustrator 23.0.4, SVG Export Plug-In . SVG Version: 6.00 Build 0)  -->
<svg version="1.1" id="Calque_1" xmlns="http://www.w3.org/2000/svg" xmlns:xlink="http://www.w3.org/1999/xlink" x="0px" y="0px"
	 viewBox="0 0 17 16" style="enable-background:new 0 0 17 16;" xml:space="preserve">
<style type="text/css">
	.st0{fill-rule:evenodd;clip-rule:evenodd;fill:#FFFFFF;}
</style>
<path class="st0" d="M4,16V5.4H0.7V16H4L4,16z M4,1.7C4,0.7,3.3,0,2.3,0S0.6,0.7,0.6,1.7c0,0.9,0.7,1.7,1.7,1.7l0,0
	C3.3,3.3,4,2.6,4,1.7L4,1.7z M9.4,16v-6c0-0.3,0-0.6,0.1-0.9c0.3-0.6,0.9-1.3,1.9-1.3c1.3,0,2.1,0.7,2.1,2.2v6h3.3V9.8
	c0-3.3-1.8-4.9-4.2-4.9c-2,0-2.8,1.1-3.3,1.8V5.3H6.1c0,1,0,10.6,0,10.6h3.3V16z"/>
</svg>
