<svg width="372" height="49" viewBox="0 0 372 49" fill="none" xmlns="http://www.w3.org/2000/svg">
<path d="M13.002 13.144C6.138 13.144 0.782 18.5 0.782 25.78C0.782 33.06 6.138 38.39 13.002 38.39C17.448 38.39 20.724 36.362 22.7 33.294V48.4H25.638V13.534H22.7V18.24C20.724 15.198 17.448 13.144 13.002 13.144ZM13.34 15.926C18.878 15.926 22.856 20.164 22.856 25.78C22.856 31.396 18.878 35.608 13.34 35.608C7.776 35.608 3.798 31.292 3.798 25.78C3.798 20.242 7.724 15.926 13.34 15.926ZM56.7377 13.534H53.7737V27.626C53.7737 32.878 50.4457 35.608 45.7657 35.608C41.0597 35.608 37.7577 32.878 37.7577 27.626V13.534H34.7937V27.886C34.7937 34.828 39.7337 38.39 45.7657 38.39C51.7717 38.39 56.7377 34.828 56.7377 27.886V13.534ZM76.0699 13.144C69.1799 13.144 63.9539 18.396 63.9539 25.78C63.9539 33.242 69.1019 38.39 76.2519 38.39C79.7879 38.39 83.1939 37.506 86.2879 34.36L84.7019 32.332C82.5439 34.464 79.8399 35.816 76.4339 35.816C71.4159 35.816 67.4119 32.54 66.9699 26.846H87.4839C87.5099 26.482 87.5359 26.066 87.5359 25.624C87.4579 18.318 82.5959 13.144 76.0699 13.144ZM76.0179 15.77C80.6199 15.77 84.0779 19.228 84.5199 24.298H67.0219C67.5939 19.332 71.0519 15.77 76.0179 15.77ZM106.726 13.144C103.346 13.144 99.9143 14.548 97.9903 17.824V13.534H95.0523V38H98.0163V24.064C98.0163 19.254 101.604 15.952 106.206 15.952C111.198 15.952 114.058 18.968 114.058 23.908V38H117.022V22.998C117.022 16.94 112.862 13.144 106.726 13.144ZM142.337 13.534H131.053V5.552H128.089V13.534H122.473V16.238H128.089V29.628C128.089 35.556 131.157 38.39 136.253 38.39C139.191 38.39 141.609 37.402 143.351 35.946L141.947 33.736C140.517 34.88 138.593 35.608 136.487 35.608C133.237 35.608 131.053 33.71 131.053 29.576V16.238H142.337V13.534ZM152.251 13.534H149.287V38H152.251V13.534ZM150.769 2.588C149.573 2.588 148.663 3.55 148.663 4.746C148.663 5.942 149.573 6.852 150.769 6.852C151.965 6.852 152.901 5.942 152.901 4.746C152.901 3.55 151.965 2.588 150.769 2.588ZM173.351 13.144C169.971 13.144 166.539 14.548 164.615 17.824V13.534H161.677V38H164.641V24.064C164.641 19.254 168.229 15.952 172.831 15.952C177.823 15.952 180.683 18.968 180.683 23.908V38H183.647V22.998C183.647 16.94 179.487 13.144 173.351 13.144ZM195.77 0.559999H192.806V38H195.77V0.559999ZM215.363 13.144C208.473 13.144 203.247 18.396 203.247 25.78C203.247 33.242 208.395 38.39 215.545 38.39C219.081 38.39 222.487 37.506 225.581 34.36L223.995 32.332C221.837 34.464 219.133 35.816 215.727 35.816C210.709 35.816 206.705 32.54 206.263 26.846H226.777C226.803 26.482 226.829 26.066 226.829 25.624C226.751 18.318 221.889 13.144 215.363 13.144ZM215.311 15.77C219.913 15.77 223.371 19.228 223.813 24.298H206.315C206.887 19.332 210.345 15.77 215.311 15.77ZM265.025 13.144C261.229 13.144 257.355 14.834 255.535 18.838C254.079 15.25 250.595 13.144 246.019 13.144C242.639 13.144 239.207 14.548 237.283 17.824V13.534H234.345V38H237.309V24.064C237.309 19.254 240.897 15.952 245.499 15.952C250.491 15.952 253.351 18.968 253.351 23.908V38H256.315V24.064C256.315 19.254 259.903 15.952 264.505 15.952C269.497 15.952 272.383 18.968 272.383 23.908V38H275.347V22.998C275.347 16.94 271.161 13.144 265.025 13.144ZM307.423 13.534H304.485V18.24C302.509 15.198 299.233 13.144 294.787 13.144C287.923 13.144 282.567 18.5 282.567 25.78C282.567 33.06 287.923 38.39 294.787 38.39C299.233 38.39 302.509 36.362 304.485 33.294V38H307.423V13.534ZM295.125 15.926C300.663 15.926 304.641 20.164 304.641 25.78C304.641 31.396 300.663 35.608 295.125 35.608C289.561 35.608 285.583 31.292 285.583 25.78C285.583 20.242 289.509 15.926 295.125 15.926ZM319.829 13.534H316.865V38H319.829V13.534ZM318.347 2.588C317.151 2.588 316.241 3.55 316.241 4.746C316.241 5.942 317.151 6.852 318.347 6.852C319.543 6.852 320.479 5.942 320.479 4.746C320.479 3.55 319.543 2.588 318.347 2.588ZM339.707 13.118C336.483 13.118 333.753 14.834 332.167 17.694V13.534H329.255V38H332.193V24.194C332.193 19.254 335.105 15.952 339.187 15.952C340.669 15.952 342.333 16.29 343.529 16.94L344.283 14.054C342.957 13.404 341.449 13.118 339.707 13.118ZM359.582 13.144C352.692 13.144 347.466 18.396 347.466 25.78C347.466 33.242 352.614 38.39 359.764 38.39C363.3 38.39 366.706 37.506 369.8 34.36L368.214 32.332C366.056 34.464 363.352 35.816 359.946 35.816C354.928 35.816 350.924 32.54 350.482 26.846H370.996C371.022 26.482 371.048 26.066 371.048 25.624C370.97 18.318 366.108 13.144 359.582 13.144ZM359.53 15.77C364.132 15.77 367.59 19.228 368.032 24.298H350.534C351.106 19.332 354.564 15.77 359.53 15.77Z" fill="black"/>
</svg>
