<?xml version="1.0" encoding="utf-8"?>
<!-- Generator: Adobe Illustrator 23.0.4, SVG Export Plug-In . SVG Version: 6.00 Build 0)  -->
<svg version="1.1" id="Calque_1" xmlns="http://www.w3.org/2000/svg" xmlns:xlink="http://www.w3.org/1999/xlink" x="0px" y="0px"
	 viewBox="0 0 20 16" style="enable-background:new 0 0 20 16;" xml:space="preserve">
<style type="text/css">
	.st0{fill-rule:evenodd;clip-rule:evenodd;fill:#FFFFFF;}
</style>
<path class="st0" d="M9.5,4.3V5L8.8,4.9C6.3,4.5,4,3.4,2.1,1.6L1.2,0.7L0.9,1.3C0.4,2.9,0.8,4.5,1.8,5.5c0.6,0.6,0.4,0.7-0.5,0.3
	C0.9,5.7,0.6,5.7,0.6,5.7C0.5,5.8,0.8,7.1,1.1,7.6c0.4,0.7,1.1,1.4,2,1.8l0.7,0.3H3c-0.8,0-0.8,0-0.7,0.3c0.3,0.9,1.4,1.9,2.6,2.3
	l0.9,0.3L5,13.1c-1.1,0.7-2.5,1-3.8,1c-0.6,0-1.2,0.1-1.2,0.1c0,0.1,1.7,0.9,2.7,1.2c3,0.9,6.6,0.5,9.3-1c1.9-1.1,3.8-3.3,4.7-5.5
	c0.5-1.1,1-3.2,1-4.2c0-0.6,0-0.7,0.8-1.5c0.5-0.5,0.9-0.9,1-1.1c0.1-0.3,0.1-0.3-0.6,0c-1.2,0.4-1.4,0.4-0.8-0.3
	c0.4-0.5,1-1.3,1-1.5c0,0-0.2,0-0.5,0.2c-0.3,0.1-0.8,0.4-1.2,0.5l-0.8,0.2l-0.7-0.5c-0.4-0.3-0.9-0.5-1.2-0.6
	C14-0.1,12.9,0,12.3,0.2C10.5,0.8,9.4,2.5,9.5,4.3z"/>
</svg>
